<svg width="155" height="29" viewBox="0 0 155 29" fill="none" xmlns="http://www.w3.org/2000/svg">
<path d="M0 7C0 3.13401 3.13401 0 7 0H150C152.761 0 155 2.23858 155 5V11C155 20.9411 146.941 29 137 29H7C3.13401 29 0 25.866 0 22V7Z" fill="url(#paint0_linear_2064_195)"/>
<path d="M85.9804 16.403L77.0231 24L68 16.403L70.8516 6M79.6577 12.292L83.1155 6.06844M83.1679 6.06844L86 16.3346M70.8979 6L74.3557 12.2236M74.3886 12.2965H79.6577" stroke="white" stroke-opacity="0.1" stroke-width="2" stroke-linecap="round" stroke-linejoin="round"/>
<path d="M58.5057 18V12.1818H60.8352C61.2633 12.1818 61.6203 12.2453 61.9062 12.3722C62.1922 12.4991 62.4072 12.6752 62.5511 12.9006C62.6951 13.1241 62.767 13.3816 62.767 13.6733C62.767 13.9006 62.7216 14.1004 62.6307 14.2727C62.5398 14.4432 62.4148 14.5833 62.2557 14.6932C62.0985 14.8011 61.9186 14.8778 61.7159 14.9233V14.9801C61.9375 14.9896 62.1449 15.0521 62.3381 15.1676C62.5331 15.2831 62.6913 15.4451 62.8125 15.6534C62.9337 15.8598 62.9943 16.1061 62.9943 16.392C62.9943 16.7008 62.9176 16.9763 62.7642 17.2188C62.6127 17.4593 62.3883 17.6496 62.0909 17.7898C61.7936 17.9299 61.4271 18 60.9915 18H58.5057ZM59.7358 16.9943H60.7386C61.0814 16.9943 61.3314 16.929 61.4886 16.7983C61.6458 16.6657 61.7244 16.4896 61.7244 16.2699C61.7244 16.1089 61.6856 15.9669 61.608 15.8438C61.5303 15.7206 61.4195 15.6241 61.2756 15.554C61.1335 15.4839 60.964 15.4489 60.767 15.4489H59.7358V16.9943ZM59.7358 14.6165H60.6477C60.8163 14.6165 60.9659 14.5871 61.0966 14.5284C61.2292 14.4678 61.3333 14.3826 61.4091 14.2727C61.4867 14.1629 61.5256 14.0312 61.5256 13.8778C61.5256 13.6676 61.4508 13.4981 61.3011 13.3693C61.1534 13.2405 60.9432 13.1761 60.6705 13.1761H59.7358V14.6165ZM63.7947 18V12.1818H65.0249V16.9858H67.5192V18H63.7947ZM73.4538 15.0909C73.4538 15.7254 73.3336 16.2652 73.093 16.7102C72.8544 17.1553 72.5286 17.4953 72.1158 17.7301C71.7048 17.9631 71.2427 18.0795 70.7294 18.0795C70.2124 18.0795 69.7483 17.9621 69.3374 17.7273C68.9264 17.4924 68.6016 17.1525 68.3629 16.7074C68.1243 16.2623 68.005 15.7235 68.005 15.0909C68.005 14.4564 68.1243 13.9167 68.3629 13.4716C68.6016 13.0265 68.9264 12.6875 69.3374 12.4545C69.7483 12.2197 70.2124 12.1023 70.7294 12.1023C71.2427 12.1023 71.7048 12.2197 72.1158 12.4545C72.5286 12.6875 72.8544 13.0265 73.093 13.4716C73.3336 13.9167 73.4538 14.4564 73.4538 15.0909ZM72.2067 15.0909C72.2067 14.6799 72.1451 14.3333 72.022 14.0511C71.9008 13.7689 71.7294 13.5549 71.5078 13.4091C71.2862 13.2633 71.0268 13.1903 70.7294 13.1903C70.4321 13.1903 70.1726 13.2633 69.951 13.4091C69.7294 13.5549 69.5571 13.7689 69.4339 14.0511C69.3127 14.3333 69.2521 14.6799 69.2521 15.0909C69.2521 15.5019 69.3127 15.8485 69.4339 16.1307C69.5571 16.4129 69.7294 16.6269 69.951 16.7727C70.1726 16.9186 70.4321 16.9915 70.7294 16.9915C71.0268 16.9915 71.2862 16.9186 71.5078 16.7727C71.7294 16.6269 71.9008 16.4129 72.022 16.1307C72.1451 15.8485 72.2067 15.5019 72.2067 15.0909ZM79.4986 14.2188H78.2543C78.2315 14.0578 78.1851 13.9148 78.1151 13.7898C78.045 13.6629 77.955 13.5549 77.8452 13.4659C77.7353 13.3769 77.6084 13.3087 77.4645 13.2614C77.3224 13.214 77.1681 13.1903 77.0014 13.1903C76.7003 13.1903 76.438 13.2652 76.2145 13.4148C75.991 13.5625 75.8177 13.7784 75.6946 14.0625C75.5715 14.3447 75.5099 14.6875 75.5099 15.0909C75.5099 15.5057 75.5715 15.8542 75.6946 16.1364C75.8196 16.4186 75.9938 16.6316 76.2173 16.7756C76.4408 16.9195 76.6993 16.9915 76.9929 16.9915C77.1577 16.9915 77.3101 16.9697 77.4503 16.9261C77.5923 16.8826 77.7183 16.8191 77.8281 16.7358C77.938 16.6506 78.0289 16.5473 78.1009 16.4261C78.1747 16.3049 78.2259 16.1667 78.2543 16.0114L79.4986 16.017C79.4664 16.2841 79.3859 16.5417 79.2571 16.7898C79.1302 17.036 78.9588 17.2566 78.7429 17.4517C78.5289 17.6449 78.2732 17.7983 77.9759 17.9119C77.6804 18.0237 77.3461 18.0795 76.973 18.0795C76.4541 18.0795 75.9901 17.9621 75.581 17.7273C75.1738 17.4924 74.8518 17.1525 74.6151 16.7074C74.3802 16.2623 74.2628 15.7235 74.2628 15.0909C74.2628 14.4564 74.3821 13.9167 74.6207 13.4716C74.8594 13.0265 75.1832 12.6875 75.5923 12.4545C76.0014 12.2197 76.4616 12.1023 76.973 12.1023C77.3101 12.1023 77.6226 12.1496 77.9105 12.2443C78.2003 12.339 78.4569 12.4773 78.6804 12.6591C78.9039 12.839 79.0857 13.0597 79.2259 13.321C79.3679 13.5824 79.4588 13.8816 79.4986 14.2188ZM80.3807 18V12.1818H81.6108V14.7472H81.6875L83.7812 12.1818H85.2557L83.0966 14.7869L85.2812 18H83.8097L82.2159 15.608L81.6108 16.3466V18H80.3807ZM85.8963 18V12.1818H89.8168V13.196H87.1264V14.5824H89.6151V15.5966H87.1264V16.9858H89.8281V18H85.8963ZM92.8572 18H90.7947V12.1818H92.8743C93.4595 12.1818 93.9633 12.2983 94.3857 12.5312C94.808 12.7623 95.1328 13.0947 95.3601 13.5284C95.5893 13.9621 95.7038 14.4811 95.7038 15.0852C95.7038 15.6913 95.5893 16.2121 95.3601 16.6477C95.1328 17.0833 94.8061 17.4176 94.38 17.6506C93.9557 17.8835 93.4482 18 92.8572 18ZM92.0249 16.946H92.8061C93.1697 16.946 93.4756 16.8816 93.7237 16.7528C93.9737 16.6222 94.1612 16.4205 94.2862 16.1477C94.4131 15.8731 94.4766 15.5189 94.4766 15.0852C94.4766 14.6553 94.4131 14.304 94.2862 14.0312C94.1612 13.7585 93.9747 13.5578 93.7266 13.429C93.4785 13.3002 93.1726 13.2358 92.8089 13.2358H92.0249V16.946Z" fill="white"/>
<defs>
<linearGradient id="paint0_linear_2064_195" x1="0" y1="29" x2="154.467" y2="-2.60381" gradientUnits="userSpaceOnUse">
<stop stop-color="#040404"/>
<stop offset="1" stop-color="#484549"/>
</linearGradient>
</defs>
</svg>
