<svg width="155" height="29" viewBox="0 0 155 29" fill="none" xmlns="http://www.w3.org/2000/svg">
<path d="M0 7C0 3.13401 3.13401 0 7 0H150C152.761 0 155 2.23858 155 5V11C155 20.9411 146.941 29 137 29H7C3.13401 29 0 25.866 0 22V7Z" fill="url(#paint0_linear_2063_187)"/>
<path d="M85.9804 16.403L77.0231 24L68 16.403L70.8516 6M79.6577 12.292L83.1155 6.06844M83.1679 6.06844L86 16.3346M70.8979 6L74.3557 12.2236M74.3886 12.2965H79.6577" stroke="white" stroke-opacity="0.1" stroke-width="2" stroke-linecap="round" stroke-linejoin="round"/>
<path d="M66.6392 14.2188H65.3949C65.3722 14.0578 65.3258 13.9148 65.2557 13.7898C65.1856 13.6629 65.0956 13.5549 64.9858 13.4659C64.8759 13.3769 64.7491 13.3087 64.6051 13.2614C64.4631 13.214 64.3087 13.1903 64.142 13.1903C63.8409 13.1903 63.5786 13.2652 63.3551 13.4148C63.1316 13.5625 62.9583 13.7784 62.8352 14.0625C62.7121 14.3447 62.6506 14.6875 62.6506 15.0909C62.6506 15.5057 62.7121 15.8542 62.8352 16.1364C62.9602 16.4186 63.1345 16.6316 63.358 16.7756C63.5814 16.9195 63.84 16.9915 64.1335 16.9915C64.2983 16.9915 64.4508 16.9697 64.5909 16.9261C64.733 16.8826 64.8589 16.8191 64.9688 16.7358C65.0786 16.6506 65.1695 16.5473 65.2415 16.4261C65.3153 16.3049 65.3665 16.1667 65.3949 16.0114L66.6392 16.017C66.607 16.2841 66.5265 16.5417 66.3977 16.7898C66.2708 17.036 66.0994 17.2566 65.8835 17.4517C65.6695 17.6449 65.4138 17.7983 65.1165 17.9119C64.821 18.0237 64.4867 18.0795 64.1136 18.0795C63.5947 18.0795 63.1307 17.9621 62.7216 17.7273C62.3144 17.4924 61.9924 17.1525 61.7557 16.7074C61.5208 16.2623 61.4034 15.7235 61.4034 15.0909C61.4034 14.4564 61.5227 13.9167 61.7614 13.4716C62 13.0265 62.3239 12.6875 62.733 12.4545C63.142 12.2197 63.6023 12.1023 64.1136 12.1023C64.4508 12.1023 64.7633 12.1496 65.0511 12.2443C65.3409 12.339 65.5975 12.4773 65.821 12.6591C66.0445 12.839 66.2263 13.0597 66.3665 13.321C66.5085 13.5824 66.5994 13.8816 66.6392 14.2188ZM67.5213 18V12.1818H68.7514V16.9858H71.2457V18H67.5213ZM75.6541 12.1818H76.8842V15.9602C76.8842 16.3845 76.7829 16.7557 76.5803 17.0739C76.3795 17.392 76.0982 17.6402 75.7365 17.8182C75.3748 17.9943 74.9534 18.0824 74.4723 18.0824C73.9893 18.0824 73.567 17.9943 73.2053 17.8182C72.8435 17.6402 72.5623 17.392 72.3615 17.0739C72.1607 16.7557 72.0604 16.3845 72.0604 15.9602V12.1818H73.2905V15.8551C73.2905 16.0767 73.3388 16.2737 73.4354 16.446C73.5339 16.6184 73.6721 16.7538 73.8501 16.8523C74.0282 16.9508 74.2356 17 74.4723 17C74.7109 17 74.9183 16.9508 75.0945 16.8523C75.2725 16.7538 75.4098 16.6184 75.5064 16.446C75.6049 16.2737 75.6541 16.0767 75.6541 15.8551V12.1818ZM77.8963 18V12.1818H80.2259C80.6539 12.1818 81.0109 12.2453 81.2969 12.3722C81.5829 12.4991 81.7978 12.6752 81.9418 12.9006C82.0857 13.1241 82.1577 13.3816 82.1577 13.6733C82.1577 13.9006 82.1122 14.1004 82.0213 14.2727C81.9304 14.4432 81.8054 14.5833 81.6463 14.6932C81.4891 14.8011 81.3092 14.8778 81.1065 14.9233V14.9801C81.3281 14.9896 81.5355 15.0521 81.7287 15.1676C81.9238 15.2831 82.0819 15.4451 82.2031 15.6534C82.3243 15.8598 82.3849 16.1061 82.3849 16.392C82.3849 16.7008 82.3082 16.9763 82.1548 17.2188C82.0033 17.4593 81.7789 17.6496 81.4815 17.7898C81.1842 17.9299 80.8177 18 80.3821 18H77.8963ZM79.1264 16.9943H80.1293C80.4721 16.9943 80.7221 16.929 80.8793 16.7983C81.0365 16.6657 81.1151 16.4896 81.1151 16.2699C81.1151 16.1089 81.0762 15.9669 80.9986 15.8438C80.9209 15.7206 80.8101 15.6241 80.6662 15.554C80.5241 15.4839 80.3546 15.4489 80.1577 15.4489H79.1264V16.9943ZM79.1264 14.6165H80.0384C80.2069 14.6165 80.3565 14.5871 80.4872 14.5284C80.6198 14.4678 80.724 14.3826 80.7997 14.2727C80.8774 14.1629 80.9162 14.0312 80.9162 13.8778C80.9162 13.6676 80.8414 13.4981 80.6918 13.3693C80.544 13.2405 80.3338 13.1761 80.0611 13.1761H79.1264V14.6165ZM87.0994 18H85.0369V12.1818H87.1165C87.7017 12.1818 88.2055 12.2983 88.6278 12.5312C89.0502 12.7623 89.375 13.0947 89.6023 13.5284C89.8314 13.9621 89.946 14.4811 89.946 15.0852C89.946 15.6913 89.8314 16.2121 89.6023 16.6477C89.375 17.0833 89.0483 17.4176 88.6222 17.6506C88.1979 17.8835 87.6903 18 87.0994 18ZM86.267 16.946H87.0483C87.4119 16.946 87.7178 16.8816 87.9659 16.7528C88.2159 16.6222 88.4034 16.4205 88.5284 16.1477C88.6553 15.8731 88.7188 15.5189 88.7188 15.0852C88.7188 14.6553 88.6553 14.304 88.5284 14.0312C88.4034 13.7585 88.2169 13.5578 87.9688 13.429C87.7206 13.3002 87.4148 13.2358 87.0511 13.2358H86.267V16.946ZM93.1868 12.1818H94.4027V16.2386C94.4027 16.6136 94.3184 16.9394 94.1499 17.2159C93.9832 17.4924 93.7512 17.7055 93.4538 17.8551C93.1565 18.0047 92.8108 18.0795 92.4169 18.0795C92.0665 18.0795 91.7483 18.018 91.4624 17.8949C91.1783 17.7699 90.9529 17.5805 90.7862 17.3267C90.6196 17.071 90.5372 16.75 90.5391 16.3636H91.7635C91.7673 16.517 91.7985 16.6487 91.8572 16.7585C91.9179 16.8665 92.0002 16.9498 92.1044 17.0085C92.2105 17.0653 92.3355 17.0938 92.4794 17.0938C92.6309 17.0938 92.7588 17.0616 92.8629 16.9972C92.969 16.9309 93.0495 16.8343 93.1044 16.7074C93.1593 16.5805 93.1868 16.4242 93.1868 16.2386V12.1818Z" fill="white"/>
<defs>
<linearGradient id="paint0_linear_2063_187" x1="0" y1="29" x2="154.467" y2="-2.60381" gradientUnits="userSpaceOnUse">
<stop stop-color="#3B075E"/>
<stop offset="1" stop-color="#9900FF"/>
</linearGradient>
</defs>
</svg>
