<svg width="155" height="29" viewBox="0 0 155 29" fill="none" xmlns="http://www.w3.org/2000/svg">
<path d="M0 7C0 3.13401 3.13401 0 7 0H150C152.761 0 155 2.23858 155 5V11C155 20.9411 146.941 29 137 29H7C3.13401 29 0 25.866 0 22V7Z" fill="url(#paint0_linear_2063_187)"/>
<path d="M85.9804 16.403L77.0231 24L68 16.403L70.8516 6M79.6577 12.292L83.1155 6.06844M83.1679 6.06844L86 16.3346M70.8979 6L74.3557 12.2236M74.3886 12.2965H79.6577" stroke="white" stroke-opacity="0.25" stroke-width="2" stroke-linecap="round" stroke-linejoin="round"/>
<path d="M40.5057 18V12.1818H44.4261V13.196H41.7358V14.5824H44.2244V15.5966H41.7358V16.9858H44.4375V18H40.5057ZM46.4553 12.1818L47.8615 16.6023H47.9155L49.3246 12.1818H50.6882L48.6825 18H47.0973L45.0888 12.1818H46.4553ZM51.3885 18V12.1818H55.3089V13.196H52.6186V14.5824H55.1072V15.5966H52.6186V16.9858H55.3203V18H51.3885ZM61.1534 12.1818V18H60.0909L57.5597 14.3381H57.517V18H56.2869V12.1818H57.3665L59.8778 15.8409H59.929V12.1818H61.1534ZM61.9482 13.196V12.1818H66.7266V13.196H64.9453V18H63.7294V13.196H61.9482ZM69.3651 18V12.1818H71.6605C72.1018 12.1818 72.4777 12.2661 72.7884 12.4347C73.099 12.6013 73.3357 12.8333 73.4986 13.1307C73.6634 13.4261 73.7457 13.767 73.7457 14.1534C73.7457 14.5398 73.6624 14.8807 73.4957 15.1761C73.3291 15.4716 73.0876 15.7017 72.7713 15.8665C72.4569 16.0312 72.0762 16.1136 71.6293 16.1136H70.1662V15.1278H71.4304C71.6671 15.1278 71.8622 15.0871 72.0156 15.0057C72.1709 14.9223 72.2865 14.8078 72.3622 14.6619C72.4399 14.5142 72.4787 14.3447 72.4787 14.1534C72.4787 13.9602 72.4399 13.7917 72.3622 13.6477C72.2865 13.5019 72.1709 13.3892 72.0156 13.3097C71.8603 13.2282 71.6634 13.1875 71.4247 13.1875H70.5952V18H69.3651ZM74.5447 18V12.1818H76.8402C77.2796 12.1818 77.6546 12.2604 77.9652 12.4176C78.2777 12.5729 78.5154 12.7936 78.6783 13.0795C78.843 13.3636 78.9254 13.6979 78.9254 14.0824C78.9254 14.4687 78.8421 14.8011 78.6754 15.0795C78.5088 15.3561 78.2673 15.5682 77.951 15.7159C77.6366 15.8636 77.2559 15.9375 76.8089 15.9375H75.272V14.9489H76.6101C76.8449 14.9489 77.04 14.9167 77.1953 14.8523C77.3506 14.7879 77.4661 14.6913 77.5419 14.5625C77.6196 14.4337 77.6584 14.2737 77.6584 14.0824C77.6584 13.8892 77.6196 13.7263 77.5419 13.5938C77.4661 13.4612 77.3497 13.3608 77.1925 13.2926C77.0372 13.2225 76.8411 13.1875 76.6044 13.1875H75.7749V18H74.5447ZM77.6868 15.3523L79.1328 18H77.7749L76.3601 15.3523H77.6868ZM79.7947 18V12.1818H83.7152V13.196H81.0249V14.5824H83.5135V15.5966H81.0249V16.9858H83.7266V18H79.7947ZM87.8494 13.8551C87.8267 13.6259 87.7292 13.4479 87.5568 13.321C87.3845 13.1941 87.1506 13.1307 86.8551 13.1307C86.6544 13.1307 86.4848 13.1591 86.3466 13.2159C86.2083 13.2708 86.1023 13.3475 86.0284 13.446C85.9564 13.5445 85.9205 13.6562 85.9205 13.7812C85.9167 13.8854 85.9384 13.9763 85.9858 14.054C86.035 14.1316 86.1023 14.1989 86.1875 14.2557C86.2727 14.3106 86.3712 14.3589 86.483 14.4006C86.5947 14.4403 86.714 14.4744 86.8409 14.5028L87.3636 14.6278C87.6174 14.6847 87.8504 14.7604 88.0625 14.8551C88.2746 14.9498 88.4583 15.0663 88.6136 15.2045C88.7689 15.3428 88.8892 15.5057 88.9744 15.6932C89.0616 15.8807 89.1061 16.0956 89.108 16.3381C89.1061 16.6941 89.0152 17.0028 88.8352 17.2642C88.6572 17.5237 88.3996 17.7254 88.0625 17.8693C87.7273 18.0114 87.3229 18.0824 86.8494 18.0824C86.3797 18.0824 85.9706 18.0104 85.6222 17.8665C85.2756 17.7225 85.0047 17.5095 84.8097 17.2273C84.6165 16.9432 84.5152 16.5919 84.5057 16.1733H85.696C85.7093 16.3684 85.7652 16.5312 85.8636 16.6619C85.964 16.7907 86.0975 16.8883 86.2642 16.9545C86.4328 17.0189 86.6231 17.0511 86.8352 17.0511C87.0436 17.0511 87.2244 17.0208 87.3778 16.9602C87.5331 16.8996 87.6534 16.8153 87.7386 16.7074C87.8239 16.5994 87.8665 16.4754 87.8665 16.3352C87.8665 16.2045 87.8277 16.0947 87.75 16.0057C87.6742 15.9167 87.5625 15.8409 87.4148 15.7784C87.2689 15.7159 87.09 15.6591 86.8778 15.608L86.2443 15.4489C85.7538 15.3295 85.3665 15.143 85.0824 14.8892C84.7983 14.6354 84.6572 14.2936 84.6591 13.8636C84.6572 13.5114 84.7509 13.2036 84.9403 12.9403C85.1316 12.6771 85.3939 12.4716 85.7273 12.3239C86.0606 12.1761 86.4394 12.1023 86.8636 12.1023C87.2955 12.1023 87.6723 12.1761 87.9943 12.3239C88.3182 12.4716 88.5701 12.6771 88.75 12.9403C88.9299 13.2036 89.0227 13.5085 89.0284 13.8551H87.8494ZM89.9354 18V12.1818H93.8558V13.196H91.1655V14.5824H93.6541V15.5966H91.1655V16.9858H93.8672V18H89.9354ZM99.7003 12.1818V18H98.6378L96.1065 14.3381H96.0639V18H94.8338V12.1818H95.9134L98.4247 15.8409H98.4759V12.1818H99.7003ZM100.495 13.196V12.1818H105.273V13.196H103.492V18H102.276V13.196H100.495ZM106.06 18V12.1818H109.981V13.196H107.29V14.5824H109.779V15.5966H107.29V16.9858H109.992V18H106.06ZM110.959 18V12.1818H113.254C113.694 12.1818 114.069 12.2604 114.379 12.4176C114.692 12.5729 114.929 12.7936 115.092 13.0795C115.257 13.3636 115.339 13.6979 115.339 14.0824C115.339 14.4687 115.256 14.8011 115.089 15.0795C114.923 15.3561 114.681 15.5682 114.365 15.7159C114.051 15.8636 113.67 15.9375 113.223 15.9375H111.686V14.9489H113.024C113.259 14.9489 113.454 14.9167 113.609 14.8523C113.765 14.7879 113.88 14.6913 113.956 14.5625C114.034 14.4337 114.072 14.2737 114.072 14.0824C114.072 13.8892 114.034 13.7263 113.956 13.5938C113.88 13.4612 113.764 13.3608 113.607 13.2926C113.451 13.2225 113.255 13.1875 113.018 13.1875H112.189V18H110.959ZM114.101 15.3523L115.547 18H114.189L112.774 15.3523H114.101Z" fill="white"/>
<defs>
<linearGradient id="paint0_linear_2063_187" x1="0" y1="29" x2="154.467" y2="-2.60381" gradientUnits="userSpaceOnUse">
<stop offset="0.25" stop-color="#BB08FC"/>
<stop offset="1" stop-color="#FF00FF"/>
</linearGradient>
</defs>
</svg>
