<svg width="155" height="29" viewBox="0 0 155 29" fill="none" xmlns="http://www.w3.org/2000/svg">
<path d="M0 7C0 3.13401 3.13401 0 7 0H150C152.761 0 155 2.23858 155 5V11C155 20.9411 146.941 29 137 29H7C3.13401 29 0 25.866 0 22V7Z" fill="url(#paint0_linear_2056_143)"/>
<path d="M85.9804 16.403L77.0231 24L68 16.403L70.8516 6M79.6577 12.292L83.1155 6.06844M83.1679 6.06844L86 16.3346M70.8979 6L74.3557 12.2236M74.3886 12.2965H79.6577" stroke="white" stroke-opacity="0.1" stroke-width="2" stroke-linecap="round" stroke-linejoin="round"/>
<path d="M30.5057 12.1818H32.0227L33.625 16.0909H33.6932L35.2955 12.1818H36.8125V18H35.6193V14.2131H35.571L34.0653 17.9716H33.2528L31.7472 14.1989H31.6989V18H30.5057V12.1818ZM43.1726 15.0909C43.1726 15.7254 43.0523 16.2652 42.8118 16.7102C42.5732 17.1553 42.2474 17.4953 41.8345 17.7301C41.4235 17.9631 40.9614 18.0795 40.4482 18.0795C39.9311 18.0795 39.4671 17.9621 39.0561 17.7273C38.6451 17.4924 38.3203 17.1525 38.0817 16.7074C37.843 16.2623 37.7237 15.7235 37.7237 15.0909C37.7237 14.4564 37.843 13.9167 38.0817 13.4716C38.3203 13.0265 38.6451 12.6875 39.0561 12.4545C39.4671 12.2197 39.9311 12.1023 40.4482 12.1023C40.9614 12.1023 41.4235 12.2197 41.8345 12.4545C42.2474 12.6875 42.5732 13.0265 42.8118 13.4716C43.0523 13.9167 43.1726 14.4564 43.1726 15.0909ZM41.9254 15.0909C41.9254 14.6799 41.8639 14.3333 41.7408 14.0511C41.6196 13.7689 41.4482 13.5549 41.2266 13.4091C41.005 13.2633 40.7455 13.1903 40.4482 13.1903C40.1508 13.1903 39.8913 13.2633 39.6697 13.4091C39.4482 13.5549 39.2758 13.7689 39.1527 14.0511C39.0315 14.3333 38.9709 14.6799 38.9709 15.0909C38.9709 15.5019 39.0315 15.8485 39.1527 16.1307C39.2758 16.4129 39.4482 16.6269 39.6697 16.7727C39.8913 16.9186 40.1508 16.9915 40.4482 16.9915C40.7455 16.9915 41.005 16.9186 41.2266 16.7727C41.4482 16.6269 41.6196 16.4129 41.7408 16.1307C41.8639 15.8485 41.9254 15.5019 41.9254 15.0909ZM46.1463 18H44.0838V12.1818H46.1634C46.7486 12.1818 47.2524 12.2983 47.6747 12.5312C48.0971 12.7623 48.4219 13.0947 48.6491 13.5284C48.8783 13.9621 48.9929 14.4811 48.9929 15.0852C48.9929 15.6913 48.8783 16.2121 48.6491 16.6477C48.4219 17.0833 48.0952 17.4176 47.669 17.6506C47.2448 17.8835 46.7372 18 46.1463 18ZM45.3139 16.946H46.0952C46.4588 16.946 46.7647 16.8816 47.0128 16.7528C47.2628 16.6222 47.4503 16.4205 47.5753 16.1477C47.7022 15.8731 47.7656 15.5189 47.7656 15.0852C47.7656 14.6553 47.7022 14.304 47.5753 14.0312C47.4503 13.7585 47.2637 13.5578 47.0156 13.429C46.7675 13.3002 46.4616 13.2358 46.098 13.2358H45.3139V16.946ZM49.9041 18V12.1818H53.8246V13.196H51.1342V14.5824H53.6229V15.5966H51.1342V16.9858H53.8359V18H49.9041ZM54.8026 18V12.1818H57.098C57.5374 12.1818 57.9124 12.2604 58.223 12.4176C58.5355 12.5729 58.7732 12.7936 58.9361 13.0795C59.1009 13.3636 59.1832 13.6979 59.1832 14.0824C59.1832 14.4687 59.0999 14.8011 58.9332 15.0795C58.7666 15.3561 58.5251 15.5682 58.2088 15.7159C57.8944 15.8636 57.5137 15.9375 57.0668 15.9375H55.5298V14.9489H56.8679C57.1027 14.9489 57.2978 14.9167 57.4531 14.8523C57.6084 14.7879 57.724 14.6913 57.7997 14.5625C57.8774 14.4337 57.9162 14.2737 57.9162 14.0824C57.9162 13.8892 57.8774 13.7263 57.7997 13.5938C57.724 13.4612 57.6075 13.3608 57.4503 13.2926C57.295 13.2225 57.099 13.1875 56.8622 13.1875H56.0327V18H54.8026ZM57.9446 15.3523L59.3906 18H58.0327L56.6179 15.3523H57.9446ZM61.0554 18H59.7372L61.7457 12.1818H63.331L65.3366 18H64.0185L62.5611 13.5114H62.5156L61.0554 18ZM60.973 15.7131H64.0866V16.6733H60.973V15.7131ZM65.1044 13.196V12.1818H69.8828V13.196H68.1016V18H66.8857V13.196H65.1044ZM71.8999 12.1818V18H70.6697V12.1818H71.8999ZM78.2585 15.0909C78.2585 15.7254 78.1383 16.2652 77.8977 16.7102C77.6591 17.1553 77.3333 17.4953 76.9205 17.7301C76.5095 17.9631 76.0473 18.0795 75.5341 18.0795C75.017 18.0795 74.553 17.9621 74.142 17.7273C73.7311 17.4924 73.4063 17.1525 73.1676 16.7074C72.929 16.2623 72.8097 15.7235 72.8097 15.0909C72.8097 14.4564 72.929 13.9167 73.1676 13.4716C73.4063 13.0265 73.7311 12.6875 74.142 12.4545C74.553 12.2197 75.017 12.1023 75.5341 12.1023C76.0473 12.1023 76.5095 12.2197 76.9205 12.4545C77.3333 12.6875 77.6591 13.0265 77.8977 13.4716C78.1383 13.9167 78.2585 14.4564 78.2585 15.0909ZM77.0114 15.0909C77.0114 14.6799 76.9498 14.3333 76.8267 14.0511C76.7055 13.7689 76.5341 13.5549 76.3125 13.4091C76.0909 13.2633 75.8314 13.1903 75.5341 13.1903C75.2367 13.1903 74.9773 13.2633 74.7557 13.4091C74.5341 13.5549 74.3617 13.7689 74.2386 14.0511C74.1174 14.3333 74.0568 14.6799 74.0568 15.0909C74.0568 15.5019 74.1174 15.8485 74.2386 16.1307C74.3617 16.4129 74.5341 16.6269 74.7557 16.7727C74.9773 16.9186 75.2367 16.9915 75.5341 16.9915C75.8314 16.9915 76.0909 16.9186 76.3125 16.7727C76.5341 16.6269 76.7055 16.4129 76.8267 16.1307C76.9498 15.8485 77.0114 15.5019 77.0114 15.0909ZM84.0362 12.1818V18H82.9737L80.4425 14.3381H80.3999V18H79.1697V12.1818H80.2493L82.7607 15.8409H82.8118V12.1818H84.0362ZM92.0376 14.2188H90.7933C90.7706 14.0578 90.7242 13.9148 90.6541 13.7898C90.584 13.6629 90.4941 13.5549 90.3842 13.4659C90.2744 13.3769 90.1475 13.3087 90.0036 13.2614C89.8615 13.214 89.7071 13.1903 89.5405 13.1903C89.2393 13.1903 88.977 13.2652 88.7536 13.4148C88.5301 13.5625 88.3568 13.7784 88.2337 14.0625C88.1106 14.3447 88.049 14.6875 88.049 15.0909C88.049 15.5057 88.1106 15.8542 88.2337 16.1364C88.3587 16.4186 88.5329 16.6316 88.7564 16.7756C88.9799 16.9195 89.2384 16.9915 89.532 16.9915C89.6967 16.9915 89.8492 16.9697 89.9893 16.9261C90.1314 16.8826 90.2573 16.8191 90.3672 16.7358C90.477 16.6506 90.5679 16.5473 90.6399 16.4261C90.7138 16.3049 90.7649 16.1667 90.7933 16.0114L92.0376 16.017C92.0054 16.2841 91.925 16.5417 91.7962 16.7898C91.6693 17.036 91.4979 17.2566 91.282 17.4517C91.0679 17.6449 90.8123 17.7983 90.5149 17.9119C90.2195 18.0237 89.8852 18.0795 89.5121 18.0795C88.9931 18.0795 88.5291 17.9621 88.12 17.7273C87.7128 17.4924 87.3909 17.1525 87.1541 16.7074C86.9193 16.2623 86.8018 15.7235 86.8018 15.0909C86.8018 14.4564 86.9212 13.9167 87.1598 13.4716C87.3984 13.0265 87.7223 12.6875 88.1314 12.4545C88.5405 12.2197 89.0007 12.1023 89.5121 12.1023C89.8492 12.1023 90.1617 12.1496 90.4496 12.2443C90.7393 12.339 90.996 12.4773 91.2195 12.6591C91.4429 12.839 91.6248 13.0597 91.7649 13.321C91.907 13.5824 91.9979 13.8816 92.0376 14.2188ZM96.5135 12.1818H97.7436V15.9602C97.7436 16.3845 97.6423 16.7557 97.4396 17.0739C97.2389 17.392 96.9576 17.6402 96.5959 17.8182C96.2341 17.9943 95.8127 18.0824 95.3317 18.0824C94.8487 18.0824 94.4264 17.9943 94.0646 17.8182C93.7029 17.6402 93.4216 17.392 93.2209 17.0739C93.0201 16.7557 92.9197 16.3845 92.9197 15.9602V12.1818H94.1499V15.8551C94.1499 16.0767 94.1982 16.2737 94.2947 16.446C94.3932 16.6184 94.5315 16.7538 94.7095 16.8523C94.8875 16.9508 95.0949 17 95.3317 17C95.5703 17 95.7777 16.9508 95.9538 16.8523C96.1319 16.7538 96.2692 16.6184 96.3658 16.446C96.4643 16.2737 96.5135 16.0767 96.5135 15.8551V12.1818ZM98.7557 18V12.1818H101.051C101.491 12.1818 101.866 12.2604 102.176 12.4176C102.489 12.5729 102.726 12.7936 102.889 13.0795C103.054 13.3636 103.136 13.6979 103.136 14.0824C103.136 14.4687 103.053 14.8011 102.886 15.0795C102.72 15.3561 102.478 15.5682 102.162 15.7159C101.848 15.8636 101.467 15.9375 101.02 15.9375H99.483V14.9489H100.821C101.056 14.9489 101.251 14.9167 101.406 14.8523C101.562 14.7879 101.677 14.6913 101.753 14.5625C101.83 14.4337 101.869 14.2737 101.869 14.0824C101.869 13.8892 101.83 13.7263 101.753 13.5938C101.677 13.4612 101.561 13.3608 101.403 13.2926C101.248 13.2225 101.052 13.1875 100.815 13.1875H99.9858V18H98.7557ZM101.898 15.3523L103.344 18H101.986L100.571 15.3523H101.898ZM105.009 18H103.69L105.699 12.1818H107.284L109.29 18H107.972L106.514 13.5114H106.469L105.009 18ZM104.926 15.7131H108.04V16.6733H104.926V15.7131ZM109.058 13.196V12.1818H113.836V13.196H112.055V18H110.839V13.196H109.058ZM119.704 15.0909C119.704 15.7254 119.584 16.2652 119.343 16.7102C119.104 17.1553 118.779 17.4953 118.366 17.7301C117.955 17.9631 117.493 18.0795 116.979 18.0795C116.462 18.0795 115.998 17.9621 115.587 17.7273C115.176 17.4924 114.852 17.1525 114.613 16.7074C114.374 16.2623 114.255 15.7235 114.255 15.0909C114.255 14.4564 114.374 13.9167 114.613 13.4716C114.852 13.0265 115.176 12.6875 115.587 12.4545C115.998 12.2197 116.462 12.1023 116.979 12.1023C117.493 12.1023 117.955 12.2197 118.366 12.4545C118.779 12.6875 119.104 13.0265 119.343 13.4716C119.584 13.9167 119.704 14.4564 119.704 15.0909ZM118.457 15.0909C118.457 14.6799 118.395 14.3333 118.272 14.0511C118.151 13.7689 117.979 13.5549 117.758 13.4091C117.536 13.2633 117.277 13.1903 116.979 13.1903C116.682 13.1903 116.423 13.2633 116.201 13.4091C115.979 13.5549 115.807 13.7689 115.684 14.0511C115.563 14.3333 115.502 14.6799 115.502 15.0909C115.502 15.5019 115.563 15.8485 115.684 16.1307C115.807 16.4129 115.979 16.6269 116.201 16.7727C116.423 16.9186 116.682 16.9915 116.979 16.9915C117.277 16.9915 117.536 16.9186 117.758 16.7727C117.979 16.6269 118.151 16.4129 118.272 16.1307C118.395 15.8485 118.457 15.5019 118.457 15.0909ZM120.615 18V12.1818H122.911C123.35 12.1818 123.725 12.2604 124.036 12.4176C124.348 12.5729 124.586 12.7936 124.749 13.0795C124.913 13.3636 124.996 13.6979 124.996 14.0824C124.996 14.4687 124.912 14.8011 124.746 15.0795C124.579 15.3561 124.338 15.5682 124.021 15.7159C123.707 15.8636 123.326 15.9375 122.879 15.9375H121.342V14.9489H122.68C122.915 14.9489 123.11 14.9167 123.266 14.8523C123.421 14.7879 123.536 14.6913 123.612 14.5625C123.69 14.4337 123.729 14.2737 123.729 14.0824C123.729 13.8892 123.69 13.7263 123.612 13.5938C123.536 13.4612 123.42 13.3608 123.263 13.2926C123.107 13.2225 122.911 13.1875 122.675 13.1875H121.845V18H120.615ZM123.757 15.3523L125.203 18H123.845L122.43 15.3523H123.757Z" fill="white"/>
<defs>
<linearGradient id="paint0_linear_2056_143" x1="0" y1="29" x2="154.467" y2="-2.60381" gradientUnits="userSpaceOnUse">
<stop stop-color="#280D61"/>
<stop offset="1" stop-color="#652DDB"/>
</linearGradient>
</defs>
</svg>
