<svg width="155" height="29" viewBox="0 0 155 29" fill="none" xmlns="http://www.w3.org/2000/svg">
<path d="M0 7C0 3.13401 3.13401 0 7 0H150C152.761 0 155 2.23858 155 5V11C155 20.9411 146.941 29 137 29H7C3.13401 29 0 25.866 0 22V7Z" fill="url(#paint0_linear_2056_135)"/>
<path d="M85.9804 16.403L77.0231 24L68 16.403L70.8516 6M79.6577 12.292L83.1155 6.06844M83.1679 6.06844L86 16.3346M70.8979 6L74.3557 12.2236M74.3886 12.2965H79.6577" stroke="white" stroke-opacity="0.1" stroke-width="2" stroke-linecap="round" stroke-linejoin="round"/>
<path d="M24.5682 18H22.5057V12.1818H24.5852C25.1705 12.1818 25.6742 12.2983 26.0966 12.5312C26.5189 12.7623 26.8438 13.0947 27.071 13.5284C27.3002 13.9621 27.4148 14.4811 27.4148 15.0852C27.4148 15.6913 27.3002 16.2121 27.071 16.6477C26.8438 17.0833 26.517 17.4176 26.0909 17.6506C25.6667 17.8835 25.1591 18 24.5682 18ZM23.7358 16.946H24.517C24.8807 16.946 25.1866 16.8816 25.4347 16.7528C25.6847 16.6222 25.8722 16.4205 25.9972 16.1477C26.1241 15.8731 26.1875 15.5189 26.1875 15.0852C26.1875 14.6553 26.1241 14.304 25.9972 14.0312C25.8722 13.7585 25.6856 13.5578 25.4375 13.429C25.1894 13.3002 24.8835 13.2358 24.5199 13.2358H23.7358V16.946ZM28.326 18V12.1818H32.2464V13.196H29.5561V14.5824H32.0447V15.5966H29.5561V16.9858H32.2578V18H28.326ZM33.2244 18V12.1818H35.5199C35.9612 12.1818 36.3371 12.2661 36.6477 12.4347C36.9583 12.6013 37.1951 12.8333 37.358 13.1307C37.5227 13.4261 37.6051 13.767 37.6051 14.1534C37.6051 14.5398 37.5218 14.8807 37.3551 15.1761C37.1884 15.4716 36.947 15.7017 36.6307 15.8665C36.3163 16.0312 35.9356 16.1136 35.4886 16.1136H34.0256V15.1278H35.2898C35.5265 15.1278 35.7216 15.0871 35.875 15.0057C36.0303 14.9223 36.1458 14.8078 36.2216 14.6619C36.2992 14.5142 36.3381 14.3447 36.3381 14.1534C36.3381 13.9602 36.2992 13.7917 36.2216 13.6477C36.1458 13.5019 36.0303 13.3892 35.875 13.3097C35.7197 13.2282 35.5227 13.1875 35.2841 13.1875H34.4545V18H33.2244ZM41.9979 12.1818H43.228V15.9602C43.228 16.3845 43.1267 16.7557 42.924 17.0739C42.7232 17.392 42.442 17.6402 42.0803 17.8182C41.7185 17.9943 41.2971 18.0824 40.8161 18.0824C40.3331 18.0824 39.9107 17.9943 39.549 17.8182C39.1873 17.6402 38.906 17.392 38.7053 17.0739C38.5045 16.7557 38.4041 16.3845 38.4041 15.9602V12.1818H39.6342V15.8551C39.6342 16.0767 39.6825 16.2737 39.7791 16.446C39.8776 16.6184 40.0159 16.7538 40.1939 16.8523C40.3719 16.9508 40.5793 17 40.8161 17C41.0547 17 41.2621 16.9508 41.4382 16.8523C41.6162 16.7538 41.7536 16.6184 41.8501 16.446C41.9486 16.2737 41.9979 16.0767 41.9979 15.8551V12.1818ZM44.0185 13.196V12.1818H48.7969V13.196H47.0156V18H45.7997V13.196H44.0185ZM49.2429 12.1818H50.6207L51.9474 14.6875H52.0043L53.331 12.1818H54.7088L52.5866 15.9432V18H51.3651V15.9432L49.2429 12.1818ZM62.3658 14.2188H61.1214C61.0987 14.0578 61.0523 13.9148 60.9822 13.7898C60.9122 13.6629 60.8222 13.5549 60.7124 13.4659C60.6025 13.3769 60.4756 13.3087 60.3317 13.2614C60.1896 13.214 60.0353 13.1903 59.8686 13.1903C59.5675 13.1903 59.3052 13.2652 59.0817 13.4148C58.8582 13.5625 58.6849 13.7784 58.5618 14.0625C58.4387 14.3447 58.3771 14.6875 58.3771 15.0909C58.3771 15.5057 58.4387 15.8542 58.5618 16.1364C58.6868 16.4186 58.861 16.6316 59.0845 16.7756C59.308 16.9195 59.5665 16.9915 59.8601 16.9915C60.0249 16.9915 60.1773 16.9697 60.3175 16.9261C60.4595 16.8826 60.5855 16.8191 60.6953 16.7358C60.8052 16.6506 60.8961 16.5473 60.968 16.4261C61.0419 16.3049 61.093 16.1667 61.1214 16.0114L62.3658 16.017C62.3336 16.2841 62.2531 16.5417 62.1243 16.7898C61.9974 17.036 61.826 17.2566 61.6101 17.4517C61.3961 17.6449 61.1404 17.7983 60.843 17.9119C60.5476 18.0237 60.2133 18.0795 59.8402 18.0795C59.3213 18.0795 58.8572 17.9621 58.4482 17.7273C58.041 17.4924 57.719 17.1525 57.4822 16.7074C57.2474 16.2623 57.13 15.7235 57.13 15.0909C57.13 14.4564 57.2493 13.9167 57.4879 13.4716C57.7266 13.0265 58.0504 12.6875 58.4595 12.4545C58.8686 12.2197 59.3288 12.1023 59.8402 12.1023C60.1773 12.1023 60.4898 12.1496 60.7777 12.2443C61.0675 12.339 61.3241 12.4773 61.5476 12.6591C61.7711 12.839 61.9529 13.0597 62.093 13.321C62.2351 13.5824 62.326 13.8816 62.3658 14.2188ZM63.2479 18V12.1818H64.478V14.5824H66.9751V12.1818H68.2024V18H66.9751V15.5966H64.478V18H63.2479ZM70.4467 12.1818V18H69.2166V12.1818H70.4467ZM71.4588 18V12.1818H75.3793V13.196H72.6889V14.5824H75.1776V15.5966H72.6889V16.9858H75.3906V18H71.4588ZM76.3572 18V12.1818H80.2095V13.196H77.5874V14.5824H79.9538V15.5966H77.5874V18H76.3572ZM82.8885 12.1818H84.4055L86.0078 16.0909H86.076L87.6783 12.1818H89.1953V18H88.0021V14.2131H87.9538L86.4482 17.9716H85.6357L84.13 14.1989H84.0817V18H82.8885V12.1818ZM95.5554 15.0909C95.5554 15.7254 95.4351 16.2652 95.1946 16.7102C94.956 17.1553 94.6302 17.4953 94.2173 17.7301C93.8063 17.9631 93.3442 18.0795 92.831 18.0795C92.3139 18.0795 91.8499 17.9621 91.4389 17.7273C91.0279 17.4924 90.7031 17.1525 90.4645 16.7074C90.2259 16.2623 90.1065 15.7235 90.1065 15.0909C90.1065 14.4564 90.2259 13.9167 90.4645 13.4716C90.7031 13.0265 91.0279 12.6875 91.4389 12.4545C91.8499 12.2197 92.3139 12.1023 92.831 12.1023C93.3442 12.1023 93.8063 12.2197 94.2173 12.4545C94.6302 12.6875 94.956 13.0265 95.1946 13.4716C95.4351 13.9167 95.5554 14.4564 95.5554 15.0909ZM94.3082 15.0909C94.3082 14.6799 94.2467 14.3333 94.1236 14.0511C94.0024 13.7689 93.831 13.5549 93.6094 13.4091C93.3878 13.2633 93.1283 13.1903 92.831 13.1903C92.5336 13.1903 92.2741 13.2633 92.0526 13.4091C91.831 13.5549 91.6586 13.7689 91.5355 14.0511C91.4143 14.3333 91.3537 14.6799 91.3537 15.0909C91.3537 15.5019 91.4143 15.8485 91.5355 16.1307C91.6586 16.4129 91.831 16.6269 92.0526 16.7727C92.2741 16.9186 92.5336 16.9915 92.831 16.9915C93.1283 16.9915 93.3878 16.9186 93.6094 16.7727C93.831 16.6269 94.0024 16.4129 94.1236 16.1307C94.2467 15.8485 94.3082 15.5019 94.3082 15.0909ZM98.5291 18H96.4666V12.1818H98.5462C99.1314 12.1818 99.6352 12.2983 100.058 12.5312C100.48 12.7623 100.805 13.0947 101.032 13.5284C101.261 13.9621 101.376 14.4811 101.376 15.0852C101.376 15.6913 101.261 16.2121 101.032 16.6477C100.805 17.0833 100.478 17.4176 100.052 17.6506C99.6276 17.8835 99.12 18 98.5291 18ZM97.6967 16.946H98.478C98.8416 16.946 99.1475 16.8816 99.3956 16.7528C99.6456 16.6222 99.8331 16.4205 99.9581 16.1477C100.085 15.8731 100.148 15.5189 100.148 15.0852C100.148 14.6553 100.085 14.304 99.9581 14.0312C99.8331 13.7585 99.6465 13.5578 99.3984 13.429C99.1503 13.3002 98.8445 13.2358 98.4808 13.2358H97.6967V16.946ZM102.287 18V12.1818H106.207V13.196H103.517V14.5824H106.006V15.5966H103.517V16.9858H106.219V18H102.287ZM107.185 18V12.1818H109.481C109.92 12.1818 110.295 12.2604 110.606 12.4176C110.918 12.5729 111.156 12.7936 111.319 13.0795C111.484 13.3636 111.566 13.6979 111.566 14.0824C111.566 14.4687 111.483 14.8011 111.316 15.0795C111.149 15.3561 110.908 15.5682 110.592 15.7159C110.277 15.8636 109.897 15.9375 109.45 15.9375H107.913V14.9489H109.251C109.486 14.9489 109.681 14.9167 109.836 14.8523C109.991 14.7879 110.107 14.6913 110.183 14.5625C110.26 14.4337 110.299 14.2737 110.299 14.0824C110.299 13.8892 110.26 13.7263 110.183 13.5938C110.107 13.4612 109.99 13.3608 109.833 13.2926C109.678 13.2225 109.482 13.1875 109.245 13.1875H108.415V18H107.185ZM110.327 15.3523L111.773 18H110.415L109.001 15.3523H110.327ZM113.438 18H112.12L114.129 12.1818H115.714L117.719 18H116.401L114.944 13.5114H114.898L113.438 18ZM113.356 15.7131H116.469V16.6733H113.356V15.7131ZM117.487 13.196V12.1818H122.266V13.196H120.484V18H119.268V13.196H117.487ZM128.134 15.0909C128.134 15.7254 128.013 16.2652 127.773 16.7102C127.534 17.1553 127.208 17.4953 126.795 17.7301C126.384 17.9631 125.922 18.0795 125.409 18.0795C124.892 18.0795 124.428 17.9621 124.017 17.7273C123.606 17.4924 123.281 17.1525 123.043 16.7074C122.804 16.2623 122.685 15.7235 122.685 15.0909C122.685 14.4564 122.804 13.9167 123.043 13.4716C123.281 13.0265 123.606 12.6875 124.017 12.4545C124.428 12.2197 124.892 12.1023 125.409 12.1023C125.922 12.1023 126.384 12.2197 126.795 12.4545C127.208 12.6875 127.534 13.0265 127.773 13.4716C128.013 13.9167 128.134 14.4564 128.134 15.0909ZM126.886 15.0909C126.886 14.6799 126.825 14.3333 126.702 14.0511C126.58 13.7689 126.409 13.5549 126.188 13.4091C125.966 13.2633 125.706 13.1903 125.409 13.1903C125.112 13.1903 124.852 13.2633 124.631 13.4091C124.409 13.5549 124.237 13.7689 124.114 14.0511C123.992 14.3333 123.932 14.6799 123.932 15.0909C123.932 15.5019 123.992 15.8485 124.114 16.1307C124.237 16.4129 124.409 16.6269 124.631 16.7727C124.852 16.9186 125.112 16.9915 125.409 16.9915C125.706 16.9915 125.966 16.9186 126.188 16.7727C126.409 16.6269 126.58 16.4129 126.702 16.1307C126.825 15.8485 126.886 15.5019 126.886 15.0909ZM129.045 18V12.1818H131.34C131.78 12.1818 132.155 12.2604 132.465 12.4176C132.778 12.5729 133.015 12.7936 133.178 13.0795C133.343 13.3636 133.425 13.6979 133.425 14.0824C133.425 14.4687 133.342 14.8011 133.175 15.0795C133.009 15.3561 132.767 15.5682 132.451 15.7159C132.137 15.8636 131.756 15.9375 131.309 15.9375H129.772V14.9489H131.11C131.345 14.9489 131.54 14.9167 131.695 14.8523C131.851 14.7879 131.966 14.6913 132.042 14.5625C132.12 14.4337 132.158 14.2737 132.158 14.0824C132.158 13.8892 132.12 13.7263 132.042 13.5938C131.966 13.4612 131.85 13.3608 131.692 13.2926C131.537 13.2225 131.341 13.1875 131.104 13.1875H130.275V18H129.045ZM132.187 15.3523L133.633 18H132.275L130.86 15.3523H132.187Z" fill="white"/>
<defs>
<linearGradient id="paint0_linear_2056_135" x1="0" y1="29" x2="154.467" y2="-2.60381" gradientUnits="userSpaceOnUse">
<stop stop-color="#826B11"/>
<stop offset="1" stop-color="#F1C40F"/>
</linearGradient>
</defs>
</svg>
