<svg width="155" height="29" viewBox="0 0 155 29" fill="none" xmlns="http://www.w3.org/2000/svg">
<path d="M0 7C0 3.13401 3.13401 0 7 0H150C152.761 0 155 2.23858 155 5V11C155 20.9411 146.941 29 137 29H7C3.13401 29 0 25.866 0 22V7Z" fill="url(#paint0_linear_2064_207)"/>
<path d="M85.9804 16.403L77.0231 24L68 16.403L70.8516 6M79.6577 12.292L83.1155 6.06844M83.1679 6.06844L86 16.3346M70.8979 6L74.3557 12.2236M74.3886 12.2965H79.6577" stroke="white" stroke-opacity="0.1" stroke-width="2" stroke-linecap="round" stroke-linejoin="round"/>
<path d="M35.5057 18V12.1818H39.358V13.196H36.7358V14.5824H39.1023V15.5966H36.7358V18H35.5057ZM45.532 15.0909C45.532 15.7254 45.4117 16.2652 45.1712 16.7102C44.9325 17.1553 44.6068 17.4953 44.1939 17.7301C43.7829 17.9631 43.3208 18.0795 42.8075 18.0795C42.2905 18.0795 41.8265 17.9621 41.4155 17.7273C41.0045 17.4924 40.6797 17.1525 40.4411 16.7074C40.2024 16.2623 40.0831 15.7235 40.0831 15.0909C40.0831 14.4564 40.2024 13.9167 40.4411 13.4716C40.6797 13.0265 41.0045 12.6875 41.4155 12.4545C41.8265 12.2197 42.2905 12.1023 42.8075 12.1023C43.3208 12.1023 43.7829 12.2197 44.1939 12.4545C44.6068 12.6875 44.9325 13.0265 45.1712 13.4716C45.4117 13.9167 45.532 14.4564 45.532 15.0909ZM44.2848 15.0909C44.2848 14.6799 44.2232 14.3333 44.1001 14.0511C43.9789 13.7689 43.8075 13.5549 43.5859 13.4091C43.3643 13.2633 43.1049 13.1903 42.8075 13.1903C42.5102 13.1903 42.2507 13.2633 42.0291 13.4091C41.8075 13.5549 41.6352 13.7689 41.5121 14.0511C41.3909 14.3333 41.3303 14.6799 41.3303 15.0909C41.3303 15.5019 41.3909 15.8485 41.5121 16.1307C41.6352 16.4129 41.8075 16.6269 42.0291 16.7727C42.2507 16.9186 42.5102 16.9915 42.8075 16.9915C43.1049 16.9915 43.3643 16.9186 43.5859 16.7727C43.8075 16.6269 43.9789 16.4129 44.1001 16.1307C44.2232 15.8485 44.2848 15.5019 44.2848 15.0909ZM46.4432 18V12.1818H48.7386C49.178 12.1818 49.553 12.2604 49.8636 12.4176C50.1761 12.5729 50.4138 12.7936 50.5767 13.0795C50.7415 13.3636 50.8239 13.6979 50.8239 14.0824C50.8239 14.4687 50.7405 14.8011 50.5739 15.0795C50.4072 15.3561 50.1657 15.5682 49.8494 15.7159C49.535 15.8636 49.1544 15.9375 48.7074 15.9375H47.1705V14.9489H48.5085C48.7434 14.9489 48.9384 14.9167 49.0938 14.8523C49.2491 14.7879 49.3646 14.6913 49.4403 14.5625C49.518 14.4337 49.5568 14.2737 49.5568 14.0824C49.5568 13.8892 49.518 13.7263 49.4403 13.5938C49.3646 13.4612 49.2481 13.3608 49.0909 13.2926C48.9356 13.2225 48.7396 13.1875 48.5028 13.1875H47.6733V18H46.4432ZM49.5852 15.3523L51.0312 18H49.6733L48.2585 15.3523H49.5852ZM55.2869 12.1818H56.517V15.9602C56.517 16.3845 56.4157 16.7557 56.2131 17.0739C56.0123 17.392 55.7311 17.6402 55.3693 17.8182C55.0076 17.9943 54.5862 18.0824 54.1051 18.0824C53.6222 18.0824 53.1998 17.9943 52.8381 17.8182C52.4763 17.6402 52.1951 17.392 51.9943 17.0739C51.7936 16.7557 51.6932 16.3845 51.6932 15.9602V12.1818H52.9233V15.8551C52.9233 16.0767 52.9716 16.2737 53.0682 16.446C53.1667 16.6184 53.3049 16.7538 53.483 16.8523C53.661 16.9508 53.8684 17 54.1051 17C54.3438 17 54.5511 16.9508 54.7273 16.8523C54.9053 16.7538 55.0426 16.6184 55.1392 16.446C55.2377 16.2737 55.2869 16.0767 55.2869 15.8551V12.1818ZM57.5291 12.1818H59.0462L60.6484 16.0909H60.7166L62.3189 12.1818H63.8359V18H62.6428V14.2131H62.5945L61.0888 17.9716H60.2763L58.7706 14.1989H58.7223V18H57.5291V12.1818ZM66.701 12.1818H68.218L69.8203 16.0909H69.8885L71.4908 12.1818H73.0078V18H71.8146V14.2131H71.7663L70.2607 17.9716H69.4482L67.9425 14.1989H67.8942V18H66.701V12.1818ZM79.3679 15.0909C79.3679 15.7254 79.2476 16.2652 79.0071 16.7102C78.7685 17.1553 78.4427 17.4953 78.0298 17.7301C77.6188 17.9631 77.1567 18.0795 76.6435 18.0795C76.1264 18.0795 75.6624 17.9621 75.2514 17.7273C74.8404 17.4924 74.5156 17.1525 74.277 16.7074C74.0384 16.2623 73.919 15.7235 73.919 15.0909C73.919 14.4564 74.0384 13.9167 74.277 13.4716C74.5156 13.0265 74.8404 12.6875 75.2514 12.4545C75.6624 12.2197 76.1264 12.1023 76.6435 12.1023C77.1567 12.1023 77.6188 12.2197 78.0298 12.4545C78.4427 12.6875 78.7685 13.0265 79.0071 13.4716C79.2476 13.9167 79.3679 14.4564 79.3679 15.0909ZM78.1207 15.0909C78.1207 14.6799 78.0592 14.3333 77.9361 14.0511C77.8149 13.7689 77.6435 13.5549 77.4219 13.4091C77.2003 13.2633 76.9408 13.1903 76.6435 13.1903C76.3461 13.1903 76.0866 13.2633 75.8651 13.4091C75.6435 13.5549 75.4711 13.7689 75.348 14.0511C75.2268 14.3333 75.1662 14.6799 75.1662 15.0909C75.1662 15.5019 75.2268 15.8485 75.348 16.1307C75.4711 16.4129 75.6435 16.6269 75.8651 16.7727C76.0866 16.9186 76.3461 16.9915 76.6435 16.9915C76.9408 16.9915 77.2003 16.9186 77.4219 16.7727C77.6435 16.6269 77.8149 16.4129 77.9361 16.1307C78.0592 15.8485 78.1207 15.5019 78.1207 15.0909ZM82.3416 18H80.2791V12.1818H82.3587C82.9439 12.1818 83.4477 12.2983 83.87 12.5312C84.2924 12.7623 84.6172 13.0947 84.8445 13.5284C85.0736 13.9621 85.1882 14.4811 85.1882 15.0852C85.1882 15.6913 85.0736 16.2121 84.8445 16.6477C84.6172 17.0833 84.2905 17.4176 83.8643 17.6506C83.4401 17.8835 82.9325 18 82.3416 18ZM81.5092 16.946H82.2905C82.6541 16.946 82.96 16.8816 83.2081 16.7528C83.4581 16.6222 83.6456 16.4205 83.7706 16.1477C83.8975 15.8731 83.9609 15.5189 83.9609 15.0852C83.9609 14.6553 83.8975 14.304 83.7706 14.0312C83.6456 13.7585 83.459 13.5578 83.2109 13.429C82.9628 13.3002 82.657 13.2358 82.2933 13.2358H81.5092V16.946ZM86.0994 18V12.1818H90.0199V13.196H87.3295V14.5824H89.8182V15.5966H87.3295V16.9858H90.0312V18H86.0994ZM90.9979 18V12.1818H93.2933C93.7327 12.1818 94.1077 12.2604 94.4183 12.4176C94.7308 12.5729 94.9685 12.7936 95.1314 13.0795C95.2962 13.3636 95.3786 13.6979 95.3786 14.0824C95.3786 14.4687 95.2952 14.8011 95.1286 15.0795C94.9619 15.3561 94.7204 15.5682 94.4041 15.7159C94.0897 15.8636 93.709 15.9375 93.2621 15.9375H91.7251V14.9489H93.0632C93.2981 14.9489 93.4931 14.9167 93.6484 14.8523C93.8037 14.7879 93.9193 14.6913 93.995 14.5625C94.0727 14.4337 94.1115 14.2737 94.1115 14.0824C94.1115 13.8892 94.0727 13.7263 93.995 13.5938C93.9193 13.4612 93.8028 13.3608 93.6456 13.2926C93.4903 13.2225 93.2943 13.1875 93.0575 13.1875H92.228V18H90.9979ZM94.1399 15.3523L95.5859 18H94.228L92.8132 15.3523H94.1399ZM97.2507 18H95.9325L97.9411 12.1818H99.5263L101.532 18H100.214L98.7564 13.5114H98.7109L97.2507 18ZM97.1683 15.7131H100.282V16.6733H97.1683V15.7131ZM101.3 13.196V12.1818H106.078V13.196H104.297V18H103.081V13.196H101.3ZM111.946 15.0909C111.946 15.7254 111.826 16.2652 111.585 16.7102C111.347 17.1553 111.021 17.4953 110.608 17.7301C110.197 17.9631 109.735 18.0795 109.222 18.0795C108.705 18.0795 108.241 17.9621 107.83 17.7273C107.419 17.4924 107.094 17.1525 106.855 16.7074C106.616 16.2623 106.497 15.7235 106.497 15.0909C106.497 14.4564 106.616 13.9167 106.855 13.4716C107.094 13.0265 107.419 12.6875 107.83 12.4545C108.241 12.2197 108.705 12.1023 109.222 12.1023C109.735 12.1023 110.197 12.2197 110.608 12.4545C111.021 12.6875 111.347 13.0265 111.585 13.4716C111.826 13.9167 111.946 14.4564 111.946 15.0909ZM110.699 15.0909C110.699 14.6799 110.637 14.3333 110.514 14.0511C110.393 13.7689 110.222 13.5549 110 13.4091C109.778 13.2633 109.519 13.1903 109.222 13.1903C108.924 13.1903 108.665 13.2633 108.443 13.4091C108.222 13.5549 108.049 13.7689 107.926 14.0511C107.805 14.3333 107.744 14.6799 107.744 15.0909C107.744 15.5019 107.805 15.8485 107.926 16.1307C108.049 16.4129 108.222 16.6269 108.443 16.7727C108.665 16.9186 108.924 16.9915 109.222 16.9915C109.519 16.9915 109.778 16.9186 110 16.7727C110.222 16.6269 110.393 16.4129 110.514 16.1307C110.637 15.8485 110.699 15.5019 110.699 15.0909ZM112.857 18V12.1818H115.153C115.592 12.1818 115.967 12.2604 116.278 12.4176C116.59 12.5729 116.828 12.7936 116.991 13.0795C117.156 13.3636 117.238 13.6979 117.238 14.0824C117.238 14.4687 117.155 14.8011 116.988 15.0795C116.821 15.3561 116.58 15.5682 116.263 15.7159C115.949 15.8636 115.568 15.9375 115.121 15.9375H113.585V14.9489H114.923C115.157 14.9489 115.353 14.9167 115.508 14.8523C115.663 14.7879 115.779 14.6913 115.854 14.5625C115.932 14.4337 115.971 14.2737 115.971 14.0824C115.971 13.8892 115.932 13.7263 115.854 13.5938C115.779 13.4612 115.662 13.3608 115.505 13.2926C115.35 13.2225 115.154 13.1875 114.917 13.1875H114.087V18H112.857ZM115.999 15.3523L117.445 18H116.087L114.673 15.3523H115.999Z" fill="white"/>
<defs>
<linearGradient id="paint0_linear_2064_207" x1="0" y1="29" x2="154.467" y2="-2.60381" gradientUnits="userSpaceOnUse">
<stop stop-color="#580A32"/>
<stop offset="1" stop-color="#E1579E"/>
</linearGradient>
</defs>
</svg>
