<svg width="155" height="29" viewBox="0 0 155 29" fill="none" xmlns="http://www.w3.org/2000/svg">
<path d="M0 7C0 3.13401 3.13401 0 7 0H150C152.761 0 155 2.23858 155 5V11C155 20.9411 146.941 29 137 29H7C3.13401 29 0 25.866 0 22V7Z" fill="url(#paint0_linear_2054_75)"/>
<path d="M85.9804 16.403L77.0231 24L68 16.403L70.8516 6M79.6577 12.292L83.1155 6.06844M83.1679 6.06844L86 16.3346M70.8979 6L74.3557 12.2236M74.3886 12.2965H79.6577" stroke="white" stroke-opacity="0.1" stroke-width="2" stroke-linecap="round" stroke-linejoin="round"/>
<path d="M18.2841 13.196V12.1818H23.0625V13.196H21.2812V18H20.0653V13.196H18.2841ZM23.8494 18V12.1818H27.7699V13.196H25.0795V14.5824H27.5682V15.5966H25.0795V16.9858H27.7812V18H23.8494ZM33.8814 14.2188H32.6371C32.6143 14.0578 32.5679 13.9148 32.4979 13.7898C32.4278 13.6629 32.3378 13.5549 32.228 13.4659C32.1181 13.3769 31.9912 13.3087 31.8473 13.2614C31.7053 13.214 31.5509 13.1903 31.3842 13.1903C31.0831 13.1903 30.8208 13.2652 30.5973 13.4148C30.3738 13.5625 30.2005 13.7784 30.0774 14.0625C29.9543 14.3447 29.8928 14.6875 29.8928 15.0909C29.8928 15.5057 29.9543 15.8542 30.0774 16.1364C30.2024 16.4186 30.3767 16.6316 30.6001 16.7756C30.8236 16.9195 31.0821 16.9915 31.3757 16.9915C31.5405 16.9915 31.6929 16.9697 31.8331 16.9261C31.9751 16.8826 32.1011 16.8191 32.2109 16.7358C32.3208 16.6506 32.4117 16.5473 32.4837 16.4261C32.5575 16.3049 32.6087 16.1667 32.6371 16.0114L33.8814 16.017C33.8492 16.2841 33.7687 16.5417 33.6399 16.7898C33.513 17.036 33.3416 17.2566 33.1257 17.4517C32.9117 17.6449 32.656 17.7983 32.3587 17.9119C32.0632 18.0237 31.7289 18.0795 31.3558 18.0795C30.8369 18.0795 30.3729 17.9621 29.9638 17.7273C29.5566 17.4924 29.2346 17.1525 28.9979 16.7074C28.763 16.2623 28.6456 15.7235 28.6456 15.0909C28.6456 14.4564 28.7649 13.9167 29.0036 13.4716C29.2422 13.0265 29.5661 12.6875 29.9751 12.4545C30.3842 12.2197 30.8445 12.1023 31.3558 12.1023C31.6929 12.1023 32.0054 12.1496 32.2933 12.2443C32.5831 12.339 32.8397 12.4773 33.0632 12.6591C33.2867 12.839 33.4685 13.0597 33.6087 13.321C33.7507 13.5824 33.8416 13.8816 33.8814 14.2188ZM34.7635 18V12.1818H35.9936V14.5824H38.4908V12.1818H39.718V18H38.4908V15.5966H35.9936V18H34.7635ZM45.5987 12.1818V18H44.5362L42.005 14.3381H41.9624V18H40.7322V12.1818H41.8118L44.3232 15.8409H44.3743V12.1818H45.5987ZM47.8452 12.1818V18H46.6151V12.1818H47.8452ZM53.9908 14.2188H52.7464C52.7237 14.0578 52.6773 13.9148 52.6072 13.7898C52.5372 13.6629 52.4472 13.5549 52.3374 13.4659C52.2275 13.3769 52.1006 13.3087 51.9567 13.2614C51.8146 13.214 51.6603 13.1903 51.4936 13.1903C51.1925 13.1903 50.9302 13.2652 50.7067 13.4148C50.4832 13.5625 50.3099 13.7784 50.1868 14.0625C50.0637 14.3447 50.0021 14.6875 50.0021 15.0909C50.0021 15.5057 50.0637 15.8542 50.1868 16.1364C50.3118 16.4186 50.486 16.6316 50.7095 16.7756C50.933 16.9195 51.1915 16.9915 51.4851 16.9915C51.6499 16.9915 51.8023 16.9697 51.9425 16.9261C52.0845 16.8826 52.2105 16.8191 52.3203 16.7358C52.4302 16.6506 52.5211 16.5473 52.593 16.4261C52.6669 16.3049 52.718 16.1667 52.7464 16.0114L53.9908 16.017C53.9586 16.2841 53.8781 16.5417 53.7493 16.7898C53.6224 17.036 53.451 17.2566 53.2351 17.4517C53.0211 17.6449 52.7654 17.7983 52.468 17.9119C52.1726 18.0237 51.8383 18.0795 51.4652 18.0795C50.9463 18.0795 50.4822 17.9621 50.0732 17.7273C49.666 17.4924 49.344 17.1525 49.1072 16.7074C48.8724 16.2623 48.755 15.7235 48.755 15.0909C48.755 14.4564 48.8743 13.9167 49.1129 13.4716C49.3516 13.0265 49.6754 12.6875 50.0845 12.4545C50.4936 12.2197 50.9538 12.1023 51.4652 12.1023C51.8023 12.1023 52.1148 12.1496 52.4027 12.2443C52.6925 12.339 52.9491 12.4773 53.1726 12.6591C53.3961 12.839 53.5779 13.0597 53.718 13.321C53.8601 13.5824 53.951 13.8816 53.9908 14.2188ZM55.7663 18H54.4482L56.4567 12.1818H58.0419L60.0476 18H58.7294L57.272 13.5114H57.2266L55.7663 18ZM55.6839 15.7131H58.7976V16.6733H55.6839V15.7131ZM60.7479 18V12.1818H61.978V16.9858H64.4723V18H60.7479ZM68.1413 18H66.8232L68.8317 12.1818H70.4169L72.4226 18H71.1044L69.647 13.5114H69.6016L68.1413 18ZM68.0589 15.7131H71.1726V16.6733H68.0589V15.7131ZM75.1854 18H73.1229V12.1818H75.2024C75.7876 12.1818 76.2914 12.2983 76.7138 12.5312C77.1361 12.7623 77.4609 13.0947 77.6882 13.5284C77.9174 13.9621 78.032 14.4811 78.032 15.0852C78.032 15.6913 77.9174 16.2121 77.6882 16.6477C77.4609 17.0833 77.1342 17.4176 76.7081 17.6506C76.2839 17.8835 75.7763 18 75.1854 18ZM74.353 16.946H75.1342C75.4979 16.946 75.8037 16.8816 76.0518 16.7528C76.3018 16.6222 76.4893 16.4205 76.6143 16.1477C76.7412 15.8731 76.8047 15.5189 76.8047 15.0852C76.8047 14.6553 76.7412 14.304 76.6143 14.0312C76.4893 13.7585 76.3028 13.5578 76.0547 13.429C75.8066 13.3002 75.5007 13.2358 75.1371 13.2358H74.353V16.946ZM78.9432 12.1818H80.4602L82.0625 16.0909H82.1307L83.733 12.1818H85.25V18H84.0568V14.2131H84.0085L82.5028 17.9716H81.6903L80.1847 14.1989H80.1364V18H78.9432V12.1818ZM87.4936 12.1818V18H86.2635V12.1818H87.4936ZM93.3722 12.1818V18H92.3097L89.7784 14.3381H89.7358V18H88.5057V12.1818H89.5852L92.0966 15.8409H92.1477V12.1818H93.3722ZM95.6186 12.1818V18H94.3885V12.1818H95.6186ZM99.7869 13.8551C99.7642 13.6259 99.6667 13.4479 99.4943 13.321C99.322 13.1941 99.0881 13.1307 98.7926 13.1307C98.5919 13.1307 98.4223 13.1591 98.2841 13.2159C98.1458 13.2708 98.0398 13.3475 97.9659 13.446C97.8939 13.5445 97.858 13.6562 97.858 13.7812C97.8542 13.8854 97.8759 13.9763 97.9233 14.054C97.9725 14.1316 98.0398 14.1989 98.125 14.2557C98.2102 14.3106 98.3087 14.3589 98.4205 14.4006C98.5322 14.4403 98.6515 14.4744 98.7784 14.5028L99.3011 14.6278C99.5549 14.6847 99.7879 14.7604 100 14.8551C100.212 14.9498 100.396 15.0663 100.551 15.2045C100.706 15.3428 100.827 15.5057 100.912 15.6932C100.999 15.8807 101.044 16.0956 101.045 16.3381C101.044 16.6941 100.953 17.0028 100.773 17.2642C100.595 17.5237 100.337 17.7254 100 17.8693C99.6648 18.0114 99.2604 18.0824 98.7869 18.0824C98.3172 18.0824 97.9081 18.0104 97.5597 17.8665C97.2131 17.7225 96.9422 17.5095 96.7472 17.2273C96.554 16.9432 96.4527 16.5919 96.4432 16.1733H97.6335C97.6468 16.3684 97.7027 16.5312 97.8011 16.6619C97.9015 16.7907 98.035 16.8883 98.2017 16.9545C98.3703 17.0189 98.5606 17.0511 98.7727 17.0511C98.9811 17.0511 99.1619 17.0208 99.3153 16.9602C99.4706 16.8996 99.5909 16.8153 99.6761 16.7074C99.7614 16.5994 99.804 16.4754 99.804 16.3352C99.804 16.2045 99.7652 16.0947 99.6875 16.0057C99.6117 15.9167 99.5 15.8409 99.3523 15.7784C99.2064 15.7159 99.0275 15.6591 98.8153 15.608L98.1818 15.4489C97.6913 15.3295 97.304 15.143 97.0199 14.8892C96.7358 14.6354 96.5947 14.2936 96.5966 13.8636C96.5947 13.5114 96.6884 13.2036 96.8778 12.9403C97.0691 12.6771 97.3314 12.4716 97.6648 12.3239C97.9981 12.1761 98.3769 12.1023 98.8011 12.1023C99.233 12.1023 99.6098 12.1761 99.9318 12.3239C100.256 12.4716 100.508 12.6771 100.688 12.9403C100.867 13.2036 100.96 13.5085 100.966 13.8551H99.7869ZM101.651 13.196V12.1818H106.43V13.196H104.648V18H103.433V13.196H101.651ZM107.217 18V12.1818H109.512C109.951 12.1818 110.326 12.2604 110.637 12.4176C110.95 12.5729 111.187 12.7936 111.35 13.0795C111.515 13.3636 111.597 13.6979 111.597 14.0824C111.597 14.4687 111.514 14.8011 111.347 15.0795C111.181 15.3561 110.939 15.5682 110.623 15.7159C110.308 15.8636 109.928 15.9375 109.481 15.9375H107.944V14.9489H109.282C109.517 14.9489 109.712 14.9167 109.867 14.8523C110.022 14.7879 110.138 14.6913 110.214 14.5625C110.291 14.4337 110.33 14.2737 110.33 14.0824C110.33 13.8892 110.291 13.7263 110.214 13.5938C110.138 13.4612 110.022 13.3608 109.864 13.2926C109.709 13.2225 109.513 13.1875 109.276 13.1875H108.447V18H107.217ZM110.359 15.3523L111.805 18H110.447L109.032 15.3523H110.359ZM113.469 18H112.151L114.16 12.1818H115.745L117.751 18H116.433L114.975 13.5114H114.93L113.469 18ZM113.387 15.7131H116.501V16.6733H113.387V15.7131ZM117.518 13.196V12.1818H122.297V13.196H120.516V18H119.3V13.196H117.518ZM124.314 12.1818V18H123.084V12.1818H124.314ZM130.673 15.0909C130.673 15.7254 130.552 16.2652 130.312 16.7102C130.073 17.1553 129.747 17.4953 129.335 17.7301C128.924 17.9631 128.461 18.0795 127.948 18.0795C127.431 18.0795 126.967 17.9621 126.556 17.7273C126.145 17.4924 125.82 17.1525 125.582 16.7074C125.343 16.2623 125.224 15.7235 125.224 15.0909C125.224 14.4564 125.343 13.9167 125.582 13.4716C125.82 13.0265 126.145 12.6875 126.556 12.4545C126.967 12.2197 127.431 12.1023 127.948 12.1023C128.461 12.1023 128.924 12.2197 129.335 12.4545C129.747 12.6875 130.073 13.0265 130.312 13.4716C130.552 13.9167 130.673 14.4564 130.673 15.0909ZM129.425 15.0909C129.425 14.6799 129.364 14.3333 129.241 14.0511C129.12 13.7689 128.948 13.5549 128.727 13.4091C128.505 13.2633 128.246 13.1903 127.948 13.1903C127.651 13.1903 127.391 13.2633 127.17 13.4091C126.948 13.5549 126.776 13.7689 126.653 14.0511C126.531 14.3333 126.471 14.6799 126.471 15.0909C126.471 15.5019 126.531 15.8485 126.653 16.1307C126.776 16.4129 126.948 16.6269 127.17 16.7727C127.391 16.9186 127.651 16.9915 127.948 16.9915C128.246 16.9915 128.505 16.9186 128.727 16.7727C128.948 16.6269 129.12 16.4129 129.241 16.1307C129.364 15.8485 129.425 15.5019 129.425 15.0909ZM136.45 12.1818V18H135.388L132.857 14.3381H132.814V18H131.584V12.1818H132.663L135.175 15.8409H135.226V12.1818H136.45Z" fill="white"/>
<defs>
<linearGradient id="paint0_linear_2054_75" x1="0" y1="29" x2="154.467" y2="-2.60381" gradientUnits="userSpaceOnUse">
<stop stop-color="#152994"/>
<stop offset="1" stop-color="#00FFFF"/>
</linearGradient>
</defs>
</svg>
