<svg width="155" height="29" viewBox="0 0 155 29" fill="none" xmlns="http://www.w3.org/2000/svg">
<path d="M0 7C0 3.13401 3.13401 0 7 0H150C152.761 0 155 2.23858 155 5V11C155 20.9411 146.941 29 137 29H7C3.13401 29 0 25.866 0 22V7Z" fill="url(#paint0_linear_2056_115)"/>
<path d="M85.9804 16.403L77.0231 24L68 16.403L70.8516 6M79.6577 12.292L83.1155 6.06844M83.1679 6.06844L86 16.3346M70.8979 6L74.3557 12.2236M74.3886 12.2965H79.6577" stroke="white" stroke-opacity="0.1" stroke-width="2" stroke-linecap="round" stroke-linejoin="round"/>
<path d="M33.3636 14.0625C33.3239 13.9242 33.268 13.8021 33.196 13.696C33.1241 13.5881 33.036 13.4972 32.9318 13.4233C32.8295 13.3475 32.7121 13.2898 32.5795 13.25C32.4489 13.2102 32.304 13.1903 32.1449 13.1903C31.8475 13.1903 31.5862 13.2642 31.3608 13.4119C31.1373 13.5597 30.9631 13.7746 30.8381 14.0568C30.7131 14.3371 30.6506 14.6799 30.6506 15.0852C30.6506 15.4905 30.7121 15.8352 30.8352 16.1193C30.9583 16.4034 31.1326 16.6203 31.358 16.7699C31.5833 16.9176 31.8494 16.9915 32.1562 16.9915C32.4347 16.9915 32.6723 16.9422 32.8693 16.8438C33.0682 16.7434 33.2197 16.6023 33.3239 16.4205C33.4299 16.2386 33.483 16.0237 33.483 15.7756L33.733 15.8125H32.233V14.8864H34.6676V15.6193C34.6676 16.1307 34.5597 16.5701 34.3438 16.9375C34.1278 17.303 33.8305 17.5852 33.4517 17.7841C33.0729 17.9811 32.6392 18.0795 32.1506 18.0795C31.6051 18.0795 31.1259 17.9593 30.7131 17.7188C30.3002 17.4763 29.9782 17.1326 29.7472 16.6875C29.518 16.2405 29.4034 15.7102 29.4034 15.0966C29.4034 14.625 29.4716 14.2045 29.608 13.8352C29.7462 13.464 29.9394 13.1496 30.1875 12.892C30.4356 12.6345 30.7244 12.4384 31.054 12.304C31.3835 12.1695 31.7405 12.1023 32.125 12.1023C32.4545 12.1023 32.7614 12.1506 33.0455 12.2472C33.3295 12.3419 33.5814 12.4763 33.8011 12.6506C34.0227 12.8248 34.2036 13.0322 34.3438 13.2727C34.4839 13.5114 34.5739 13.7746 34.6136 14.0625H33.3636ZM36.4148 18H35.0966L37.1051 12.1818H38.6903L40.696 18H39.3778L37.9205 13.5114H37.875L36.4148 18ZM36.3324 15.7131H39.446V16.6733H36.3324V15.7131ZM41.3963 12.1818H42.9134L44.5156 16.0909H44.5838L46.1861 12.1818H47.7031V18H46.5099V14.2131H46.4616L44.956 17.9716H44.1435L42.6378 14.1989H42.5895V18H41.3963V12.1818ZM48.7166 18V12.1818H52.6371V13.196H49.9467V14.5824H52.4354V15.5966H49.9467V16.9858H52.6484V18H48.7166ZM56.4695 18H55.1513L57.1598 12.1818H58.745L60.7507 18H59.4325L57.9751 13.5114H57.9297L56.4695 18ZM56.3871 15.7131H59.5007V16.6733H56.3871V15.7131ZM63.5135 18H61.451V12.1818H63.5305C64.1158 12.1818 64.6196 12.2983 65.0419 12.5312C65.4643 12.7623 65.7891 13.0947 66.0163 13.5284C66.2455 13.9621 66.3601 14.4811 66.3601 15.0852C66.3601 15.6913 66.2455 16.2121 66.0163 16.6477C65.7891 17.0833 65.4624 17.4176 65.0362 17.6506C64.612 17.8835 64.1044 18 63.5135 18ZM62.6811 16.946H63.4624C63.826 16.946 64.1319 16.8816 64.38 16.7528C64.63 16.6222 64.8175 16.4205 64.9425 16.1477C65.0694 15.8731 65.1328 15.5189 65.1328 15.0852C65.1328 14.6553 65.0694 14.304 64.9425 14.0312C64.8175 13.7585 64.6309 13.5578 64.3828 13.429C64.1347 13.3002 63.8288 13.2358 63.4652 13.2358H62.6811V16.946ZM67.2713 12.1818H68.7884L70.3906 16.0909H70.4588L72.0611 12.1818H73.5781V18H72.3849V14.2131H72.3366L70.831 17.9716H70.0185L68.5128 14.1989H68.4645V18H67.2713V12.1818ZM75.8217 12.1818V18H74.5916V12.1818H75.8217ZM81.7003 12.1818V18H80.6378L78.1065 14.3381H78.0639V18H76.8338V12.1818H77.9134L80.4247 15.8409H80.4759V12.1818H81.7003ZM83.9467 12.1818V18H82.7166V12.1818H83.9467ZM88.1151 13.8551C88.0923 13.6259 87.9948 13.4479 87.8224 13.321C87.6501 13.1941 87.4162 13.1307 87.1207 13.1307C86.92 13.1307 86.7505 13.1591 86.6122 13.2159C86.474 13.2708 86.3679 13.3475 86.294 13.446C86.2221 13.5445 86.1861 13.6562 86.1861 13.7812C86.1823 13.8854 86.2041 13.9763 86.2514 14.054C86.3007 14.1316 86.3679 14.1989 86.4531 14.2557C86.5384 14.3106 86.6368 14.3589 86.7486 14.4006C86.8603 14.4403 86.9796 14.4744 87.1065 14.5028L87.6293 14.6278C87.883 14.6847 88.116 14.7604 88.3281 14.8551C88.5402 14.9498 88.724 15.0663 88.8793 15.2045C89.0346 15.3428 89.1548 15.5057 89.2401 15.6932C89.3272 15.8807 89.3717 16.0956 89.3736 16.3381C89.3717 16.6941 89.2808 17.0028 89.1009 17.2642C88.9228 17.5237 88.6652 17.7254 88.3281 17.8693C87.9929 18.0114 87.5885 18.0824 87.1151 18.0824C86.6454 18.0824 86.2363 18.0104 85.8878 17.8665C85.5412 17.7225 85.2704 17.5095 85.0753 17.2273C84.8821 16.9432 84.7808 16.5919 84.7713 16.1733H85.9616C85.9749 16.3684 86.0308 16.5312 86.1293 16.6619C86.2296 16.7907 86.3632 16.8883 86.5298 16.9545C86.6984 17.0189 86.8887 17.0511 87.1009 17.0511C87.3092 17.0511 87.4901 17.0208 87.6435 16.9602C87.7988 16.8996 87.919 16.8153 88.0043 16.7074C88.0895 16.5994 88.1321 16.4754 88.1321 16.3352C88.1321 16.2045 88.0933 16.0947 88.0156 16.0057C87.9399 15.9167 87.8281 15.8409 87.6804 15.7784C87.5346 15.7159 87.3556 15.6591 87.1435 15.608L86.5099 15.4489C86.0194 15.3295 85.6321 15.143 85.348 14.8892C85.0639 14.6354 84.9228 14.2936 84.9247 13.8636C84.9228 13.5114 85.0166 13.2036 85.206 12.9403C85.3973 12.6771 85.6596 12.4716 85.9929 12.3239C86.3262 12.1761 86.705 12.1023 87.1293 12.1023C87.5611 12.1023 87.938 12.1761 88.2599 12.3239C88.5838 12.4716 88.8357 12.6771 89.0156 12.9403C89.1955 13.2036 89.2884 13.5085 89.294 13.8551H88.1151ZM89.9794 13.196V12.1818H94.7578V13.196H92.9766V18H91.7607V13.196H89.9794ZM95.5447 18V12.1818H97.8402C98.2796 12.1818 98.6546 12.2604 98.9652 12.4176C99.2777 12.5729 99.5154 12.7936 99.6783 13.0795C99.843 13.3636 99.9254 13.6979 99.9254 14.0824C99.9254 14.4687 99.8421 14.8011 99.6754 15.0795C99.5088 15.3561 99.2673 15.5682 98.951 15.7159C98.6366 15.8636 98.2559 15.9375 97.8089 15.9375H96.272V14.9489H97.6101C97.8449 14.9489 98.04 14.9167 98.1953 14.8523C98.3506 14.7879 98.4661 14.6913 98.5419 14.5625C98.6196 14.4337 98.6584 14.2737 98.6584 14.0824C98.6584 13.8892 98.6196 13.7263 98.5419 13.5938C98.4661 13.4612 98.3497 13.3608 98.1925 13.2926C98.0372 13.2225 97.8411 13.1875 97.6044 13.1875H96.7749V18H95.5447ZM98.6868 15.3523L100.133 18H98.7749L97.3601 15.3523H98.6868ZM101.798 18H100.479L102.488 12.1818H104.073L106.079 18H104.761L103.303 13.5114H103.258L101.798 18ZM101.715 15.7131H104.829V16.6733H101.715V15.7131ZM105.847 13.196V12.1818H110.625V13.196H108.844V18H107.628V13.196H105.847ZM112.642 12.1818V18H111.412V12.1818H112.642ZM119.001 15.0909C119.001 15.7254 118.88 16.2652 118.64 16.7102C118.401 17.1553 118.076 17.4953 117.663 17.7301C117.252 17.9631 116.79 18.0795 116.276 18.0795C115.759 18.0795 115.295 17.9621 114.884 17.7273C114.473 17.4924 114.148 17.1525 113.91 16.7074C113.671 16.2623 113.552 15.7235 113.552 15.0909C113.552 14.4564 113.671 13.9167 113.91 13.4716C114.148 13.0265 114.473 12.6875 114.884 12.4545C115.295 12.2197 115.759 12.1023 116.276 12.1023C116.79 12.1023 117.252 12.2197 117.663 12.4545C118.076 12.6875 118.401 13.0265 118.64 13.4716C118.88 13.9167 119.001 14.4564 119.001 15.0909ZM117.754 15.0909C117.754 14.6799 117.692 14.3333 117.569 14.0511C117.448 13.7689 117.276 13.5549 117.055 13.4091C116.833 13.2633 116.574 13.1903 116.276 13.1903C115.979 13.1903 115.719 13.2633 115.498 13.4091C115.276 13.5549 115.104 13.7689 114.981 14.0511C114.86 14.3333 114.799 14.6799 114.799 15.0909C114.799 15.5019 114.86 15.8485 114.981 16.1307C115.104 16.4129 115.276 16.6269 115.498 16.7727C115.719 16.9186 115.979 16.9915 116.276 16.9915C116.574 16.9915 116.833 16.9186 117.055 16.7727C117.276 16.6269 117.448 16.4129 117.569 16.1307C117.692 15.8485 117.754 15.5019 117.754 15.0909ZM124.778 12.1818V18H123.716L121.185 14.3381H121.142V18H119.912V12.1818H120.991L123.503 15.8409H123.554V12.1818H124.778Z" fill="white"/>
<defs>
<linearGradient id="paint0_linear_2056_115" x1="0" y1="29" x2="154.467" y2="-2.60381" gradientUnits="userSpaceOnUse">
<stop stop-color="#07521C"/>
<stop offset="0.835" stop-color="#11F150"/>
</linearGradient>
</defs>
</svg>
