<svg width="155" height="29" viewBox="0 0 155 29" fill="none" xmlns="http://www.w3.org/2000/svg">
<path d="M0 7C0 3.13401 3.13401 0 7 0H150C152.761 0 155 2.23858 155 5V11C155 20.9411 146.941 29 137 29H7C3.13401 29 0 25.866 0 22V7Z" fill="url(#paint0_linear_2056_123)"/>
<path d="M85.9804 16.403L77.0231 24L68 16.403L70.8516 6M79.6577 12.292L83.1155 6.06844M83.1679 6.06844L86 16.3346M70.8979 6L74.3557 12.2236M74.3886 12.2965H79.6577" stroke="white" stroke-opacity="0.1" stroke-width="2" stroke-linecap="round" stroke-linejoin="round"/>
<path d="M44.6392 14.2188H43.3949C43.3722 14.0578 43.3258 13.9148 43.2557 13.7898C43.1856 13.6629 43.0956 13.5549 42.9858 13.4659C42.8759 13.3769 42.7491 13.3087 42.6051 13.2614C42.4631 13.214 42.3087 13.1903 42.142 13.1903C41.8409 13.1903 41.5786 13.2652 41.3551 13.4148C41.1316 13.5625 40.9583 13.7784 40.8352 14.0625C40.7121 14.3447 40.6506 14.6875 40.6506 15.0909C40.6506 15.5057 40.7121 15.8542 40.8352 16.1364C40.9602 16.4186 41.1345 16.6316 41.358 16.7756C41.5814 16.9195 41.84 16.9915 42.1335 16.9915C42.2983 16.9915 42.4508 16.9697 42.5909 16.9261C42.733 16.8826 42.8589 16.8191 42.9688 16.7358C43.0786 16.6506 43.1695 16.5473 43.2415 16.4261C43.3153 16.3049 43.3665 16.1667 43.3949 16.0114L44.6392 16.017C44.607 16.2841 44.5265 16.5417 44.3977 16.7898C44.2708 17.036 44.0994 17.2566 43.8835 17.4517C43.6695 17.6449 43.4138 17.7983 43.1165 17.9119C42.821 18.0237 42.4867 18.0795 42.1136 18.0795C41.5947 18.0795 41.1307 17.9621 40.7216 17.7273C40.3144 17.4924 39.9924 17.1525 39.7557 16.7074C39.5208 16.2623 39.4034 15.7235 39.4034 15.0909C39.4034 14.4564 39.5227 13.9167 39.7614 13.4716C40 13.0265 40.3239 12.6875 40.733 12.4545C41.142 12.2197 41.6023 12.1023 42.1136 12.1023C42.4508 12.1023 42.7633 12.1496 43.0511 12.2443C43.3409 12.339 43.5975 12.4773 43.821 12.6591C44.0445 12.839 44.2263 13.0597 44.3665 13.321C44.5085 13.5824 44.5994 13.8816 44.6392 14.2188ZM45.5213 18V12.1818H46.7514V14.5824H49.2486V12.1818H50.4759V18H49.2486V15.5966H46.7514V18H45.5213ZM52.7202 12.1818V18H51.4901V12.1818H52.7202ZM53.7322 18V12.1818H57.6527V13.196H54.9624V14.5824H57.451V15.5966H54.9624V16.9858H57.6641V18H53.7322ZM58.6307 18V12.1818H62.483V13.196H59.8608V14.5824H62.2273V15.5966H59.8608V18H58.6307ZM65.1619 12.1818H66.679L68.2812 16.0909H68.3494L69.9517 12.1818H71.4688V18H70.2756V14.2131H70.2273L68.7216 17.9716H67.9091L66.4034 14.1989H66.3551V18H65.1619V12.1818ZM77.8288 15.0909C77.8288 15.7254 77.7086 16.2652 77.468 16.7102C77.2294 17.1553 76.9036 17.4953 76.4908 17.7301C76.0798 17.9631 75.6177 18.0795 75.1044 18.0795C74.5874 18.0795 74.1233 17.9621 73.7124 17.7273C73.3014 17.4924 72.9766 17.1525 72.7379 16.7074C72.4993 16.2623 72.38 15.7235 72.38 15.0909C72.38 14.4564 72.4993 13.9167 72.7379 13.4716C72.9766 13.0265 73.3014 12.6875 73.7124 12.4545C74.1233 12.2197 74.5874 12.1023 75.1044 12.1023C75.6177 12.1023 76.0798 12.2197 76.4908 12.4545C76.9036 12.6875 77.2294 13.0265 77.468 13.4716C77.7086 13.9167 77.8288 14.4564 77.8288 15.0909ZM76.5817 15.0909C76.5817 14.6799 76.5201 14.3333 76.397 14.0511C76.2758 13.7689 76.1044 13.5549 75.8828 13.4091C75.6612 13.2633 75.4018 13.1903 75.1044 13.1903C74.8071 13.1903 74.5476 13.2633 74.326 13.4091C74.1044 13.5549 73.9321 13.7689 73.8089 14.0511C73.6877 14.3333 73.6271 14.6799 73.6271 15.0909C73.6271 15.5019 73.6877 15.8485 73.8089 16.1307C73.9321 16.4129 74.1044 16.6269 74.326 16.7727C74.5476 16.9186 74.8071 16.9915 75.1044 16.9915C75.4018 16.9915 75.6612 16.9186 75.8828 16.7727C76.1044 16.6269 76.2758 16.4129 76.397 16.1307C76.5201 15.8485 76.5817 15.5019 76.5817 15.0909ZM80.8026 18H78.7401V12.1818H80.8196C81.4048 12.1818 81.9086 12.2983 82.331 12.5312C82.7533 12.7623 83.0781 13.0947 83.3054 13.5284C83.5346 13.9621 83.6491 14.4811 83.6491 15.0852C83.6491 15.6913 83.5346 16.2121 83.3054 16.6477C83.0781 17.0833 82.7514 17.4176 82.3253 17.6506C81.901 17.8835 81.3935 18 80.8026 18ZM79.9702 16.946H80.7514C81.1151 16.946 81.4209 16.8816 81.669 16.7528C81.919 16.6222 82.1065 16.4205 82.2315 16.1477C82.3584 15.8731 82.4219 15.5189 82.4219 15.0852C82.4219 14.6553 82.3584 14.304 82.2315 14.0312C82.1065 13.7585 81.92 13.5578 81.6719 13.429C81.4238 13.3002 81.1179 13.2358 80.7543 13.2358H79.9702V16.946ZM84.5604 18V12.1818H88.4808V13.196H85.7905V14.5824H88.2791V15.5966H85.7905V16.9858H88.4922V18H84.5604ZM89.4588 18V12.1818H91.7543C92.1937 12.1818 92.5687 12.2604 92.8793 12.4176C93.1918 12.5729 93.4295 12.7936 93.5923 13.0795C93.7571 13.3636 93.8395 13.6979 93.8395 14.0824C93.8395 14.4687 93.7562 14.8011 93.5895 15.0795C93.4228 15.3561 93.1813 15.5682 92.8651 15.7159C92.5507 15.8636 92.17 15.9375 91.723 15.9375H90.1861V14.9489H91.5241C91.759 14.9489 91.9541 14.9167 92.1094 14.8523C92.2647 14.7879 92.3802 14.6913 92.456 14.5625C92.5336 14.4337 92.5724 14.2737 92.5724 14.0824C92.5724 13.8892 92.5336 13.7263 92.456 13.5938C92.3802 13.4612 92.2637 13.3608 92.1065 13.2926C91.9512 13.2225 91.7552 13.1875 91.5185 13.1875H90.6889V18H89.4588ZM92.6009 15.3523L94.0469 18H92.6889L91.2741 15.3523H92.6009ZM95.7116 18H94.3935L96.402 12.1818H97.9872L99.9929 18H98.6747L97.2173 13.5114H97.1719L95.7116 18ZM95.6293 15.7131H98.7429V16.6733H95.6293V15.7131ZM99.7607 13.196V12.1818H104.539V13.196H102.758V18H101.542V13.196H99.7607ZM110.407 15.0909C110.407 15.7254 110.287 16.2652 110.046 16.7102C109.808 17.1553 109.482 17.4953 109.069 17.7301C108.658 17.9631 108.196 18.0795 107.683 18.0795C107.165 18.0795 106.701 17.9621 106.29 17.7273C105.879 17.4924 105.555 17.1525 105.316 16.7074C105.077 16.2623 104.958 15.7235 104.958 15.0909C104.958 14.4564 105.077 13.9167 105.316 13.4716C105.555 13.0265 105.879 12.6875 106.29 12.4545C106.701 12.2197 107.165 12.1023 107.683 12.1023C108.196 12.1023 108.658 12.2197 109.069 12.4545C109.482 12.6875 109.808 13.0265 110.046 13.4716C110.287 13.9167 110.407 14.4564 110.407 15.0909ZM109.16 15.0909C109.16 14.6799 109.098 14.3333 108.975 14.0511C108.854 13.7689 108.683 13.5549 108.461 13.4091C108.239 13.2633 107.98 13.1903 107.683 13.1903C107.385 13.1903 107.126 13.2633 106.904 13.4091C106.683 13.5549 106.51 13.7689 106.387 14.0511C106.266 14.3333 106.205 14.6799 106.205 15.0909C106.205 15.5019 106.266 15.8485 106.387 16.1307C106.51 16.4129 106.683 16.6269 106.904 16.7727C107.126 16.9186 107.385 16.9915 107.683 16.9915C107.98 16.9915 108.239 16.9186 108.461 16.7727C108.683 16.6269 108.854 16.4129 108.975 16.1307C109.098 15.8485 109.16 15.5019 109.16 15.0909ZM111.318 18V12.1818H113.614C114.053 12.1818 114.428 12.2604 114.739 12.4176C115.051 12.5729 115.289 12.7936 115.452 13.0795C115.616 13.3636 115.699 13.6979 115.699 14.0824C115.699 14.4687 115.616 14.8011 115.449 15.0795C115.282 15.3561 115.041 15.5682 114.724 15.7159C114.41 15.8636 114.029 15.9375 113.582 15.9375H112.045V14.9489H113.384C113.618 14.9489 113.813 14.9167 113.969 14.8523C114.124 14.7879 114.24 14.6913 114.315 14.5625C114.393 14.4337 114.432 14.2737 114.432 14.0824C114.432 13.8892 114.393 13.7263 114.315 13.5938C114.24 13.4612 114.123 13.3608 113.966 13.2926C113.811 13.2225 113.615 13.1875 113.378 13.1875H112.548V18H111.318ZM114.46 15.3523L115.906 18H114.548L113.134 15.3523H114.46Z" fill="white"/>
<defs>
<linearGradient id="paint0_linear_2056_123" x1="0" y1="29" x2="154.467" y2="-2.60381" gradientUnits="userSpaceOnUse">
<stop stop-color="#055211"/>
<stop offset="1" stop-color="#1AB633"/>
</linearGradient>
</defs>
</svg>
