<svg width="155" height="29" viewBox="0 0 155 29" fill="none" xmlns="http://www.w3.org/2000/svg">
<path d="M0 7C0 3.13401 3.13401 0 7 0H150C152.761 0 155 2.23858 155 5V11C155 20.9411 146.941 29 137 29H7C3.13401 29 0 25.866 0 22V7Z" fill="url(#paint0_linear_2063_171)"/>
<path d="M85.9804 16.403L77.0231 24L68 16.403L70.8516 6M79.6577 12.292L83.1155 6.06844M83.1679 6.06844L86 16.3346M70.8979 6L74.3557 12.2236M74.3886 12.2965H79.6577" stroke="white" stroke-opacity="0.1" stroke-width="2" stroke-linecap="round" stroke-linejoin="round"/>
<path d="M51.5057 12.1818H53.0227L54.625 16.0909H54.6932L56.2955 12.1818H57.8125V18H56.6193V14.2131H56.571L55.0653 17.9716H54.2528L52.7472 14.1989H52.6989V18H51.5057V12.1818ZM64.1726 15.0909C64.1726 15.7254 64.0523 16.2652 63.8118 16.7102C63.5732 17.1553 63.2474 17.4953 62.8345 17.7301C62.4235 17.9631 61.9614 18.0795 61.4482 18.0795C60.9311 18.0795 60.4671 17.9621 60.0561 17.7273C59.6451 17.4924 59.3203 17.1525 59.0817 16.7074C58.843 16.2623 58.7237 15.7235 58.7237 15.0909C58.7237 14.4564 58.843 13.9167 59.0817 13.4716C59.3203 13.0265 59.6451 12.6875 60.0561 12.4545C60.4671 12.2197 60.9311 12.1023 61.4482 12.1023C61.9614 12.1023 62.4235 12.2197 62.8345 12.4545C63.2474 12.6875 63.5732 13.0265 63.8118 13.4716C64.0523 13.9167 64.1726 14.4564 64.1726 15.0909ZM62.9254 15.0909C62.9254 14.6799 62.8639 14.3333 62.7408 14.0511C62.6196 13.7689 62.4482 13.5549 62.2266 13.4091C62.005 13.2633 61.7455 13.1903 61.4482 13.1903C61.1508 13.1903 60.8913 13.2633 60.6697 13.4091C60.4482 13.5549 60.2758 13.7689 60.1527 14.0511C60.0315 14.3333 59.9709 14.6799 59.9709 15.0909C59.9709 15.5019 60.0315 15.8485 60.1527 16.1307C60.2758 16.4129 60.4482 16.6269 60.6697 16.7727C60.8913 16.9186 61.1508 16.9915 61.4482 16.9915C61.7455 16.9915 62.005 16.9186 62.2266 16.7727C62.4482 16.6269 62.6196 16.4129 62.7408 16.1307C62.8639 15.8485 62.9254 15.5019 62.9254 15.0909ZM67.1463 18H65.0838V12.1818H67.1634C67.7486 12.1818 68.2524 12.2983 68.6747 12.5312C69.0971 12.7623 69.4219 13.0947 69.6491 13.5284C69.8783 13.9621 69.9929 14.4811 69.9929 15.0852C69.9929 15.6913 69.8783 16.2121 69.6491 16.6477C69.4219 17.0833 69.0952 17.4176 68.669 17.6506C68.2448 17.8835 67.7372 18 67.1463 18ZM66.3139 16.946H67.0952C67.4588 16.946 67.7647 16.8816 68.0128 16.7528C68.2628 16.6222 68.4503 16.4205 68.5753 16.1477C68.7022 15.8731 68.7656 15.5189 68.7656 15.0852C68.7656 14.6553 68.7022 14.304 68.5753 14.0312C68.4503 13.7585 68.2637 13.5578 68.0156 13.429C67.7675 13.3002 67.4616 13.2358 67.098 13.2358H66.3139V16.946ZM70.9041 18V12.1818H74.8246V13.196H72.1342V14.5824H74.6229V15.5966H72.1342V16.9858H74.8359V18H70.9041ZM75.8026 18V12.1818H78.098C78.5374 12.1818 78.9124 12.2604 79.223 12.4176C79.5355 12.5729 79.7732 12.7936 79.9361 13.0795C80.1009 13.3636 80.1832 13.6979 80.1832 14.0824C80.1832 14.4687 80.0999 14.8011 79.9332 15.0795C79.7666 15.3561 79.5251 15.5682 79.2088 15.7159C78.8944 15.8636 78.5137 15.9375 78.0668 15.9375H76.5298V14.9489H77.8679C78.1027 14.9489 78.2978 14.9167 78.4531 14.8523C78.6084 14.7879 78.724 14.6913 78.7997 14.5625C78.8774 14.4337 78.9162 14.2737 78.9162 14.0824C78.9162 13.8892 78.8774 13.7263 78.7997 13.5938C78.724 13.4612 78.6075 13.3608 78.4503 13.2926C78.295 13.2225 78.099 13.1875 77.8622 13.1875H77.0327V18H75.8026ZM78.9446 15.3523L80.3906 18H79.0327L77.6179 15.3523H78.9446ZM82.0554 18H80.7372L82.7457 12.1818H84.331L86.3366 18H85.0185L83.5611 13.5114H83.5156L82.0554 18ZM81.973 15.7131H85.0866V16.6733H81.973V15.7131ZM86.1044 13.196V12.1818H90.8828V13.196H89.1016V18H87.8857V13.196H86.1044ZM96.7507 15.0909C96.7507 15.7254 96.6304 16.2652 96.3899 16.7102C96.1513 17.1553 95.8255 17.4953 95.4126 17.7301C95.0017 17.9631 94.5395 18.0795 94.0263 18.0795C93.5092 18.0795 93.0452 17.9621 92.6342 17.7273C92.2232 17.4924 91.8984 17.1525 91.6598 16.7074C91.4212 16.2623 91.3018 15.7235 91.3018 15.0909C91.3018 14.4564 91.4212 13.9167 91.6598 13.4716C91.8984 13.0265 92.2232 12.6875 92.6342 12.4545C93.0452 12.2197 93.5092 12.1023 94.0263 12.1023C94.5395 12.1023 95.0017 12.2197 95.4126 12.4545C95.8255 12.6875 96.1513 13.0265 96.3899 13.4716C96.6304 13.9167 96.7507 14.4564 96.7507 15.0909ZM95.5036 15.0909C95.5036 14.6799 95.442 14.3333 95.3189 14.0511C95.1977 13.7689 95.0263 13.5549 94.8047 13.4091C94.5831 13.2633 94.3236 13.1903 94.0263 13.1903C93.7289 13.1903 93.4695 13.2633 93.2479 13.4091C93.0263 13.5549 92.8539 13.7689 92.7308 14.0511C92.6096 14.3333 92.549 14.6799 92.549 15.0909C92.549 15.5019 92.6096 15.8485 92.7308 16.1307C92.8539 16.4129 93.0263 16.6269 93.2479 16.7727C93.4695 16.9186 93.7289 16.9915 94.0263 16.9915C94.3236 16.9915 94.5831 16.9186 94.8047 16.7727C95.0263 16.6269 95.1977 16.4129 95.3189 16.1307C95.442 15.8485 95.5036 15.5019 95.5036 15.0909ZM97.6619 18V12.1818H99.9574C100.397 12.1818 100.772 12.2604 101.082 12.4176C101.395 12.5729 101.633 12.7936 101.795 13.0795C101.96 13.3636 102.043 13.6979 102.043 14.0824C102.043 14.4687 101.959 14.8011 101.793 15.0795C101.626 15.3561 101.384 15.5682 101.068 15.7159C100.754 15.8636 100.373 15.9375 99.9261 15.9375H98.3892V14.9489H99.7273C99.9621 14.9489 100.157 14.9167 100.312 14.8523C100.468 14.7879 100.583 14.6913 100.659 14.5625C100.737 14.4337 100.776 14.2737 100.776 14.0824C100.776 13.8892 100.737 13.7263 100.659 13.5938C100.583 13.4612 100.467 13.3608 100.31 13.2926C100.154 13.2225 99.9583 13.1875 99.7216 13.1875H98.892V18H97.6619ZM100.804 15.3523L102.25 18H100.892L99.4773 15.3523H100.804Z" fill="white"/>
<defs>
<linearGradient id="paint0_linear_2063_171" x1="0" y1="29" x2="154.467" y2="-2.60381" gradientUnits="userSpaceOnUse">
<stop stop-color="#0D3C67"/>
<stop offset="1" stop-color="#54ACD2" stop-opacity="0.803922"/>
</linearGradient>
</defs>
</svg>
