<svg width="155" height="29" viewBox="0 0 155 29" fill="none" xmlns="http://www.w3.org/2000/svg">
<path d="M0 7C0 3.13401 3.13401 0 7 0H150C152.761 0 155 2.23858 155 5V11C155 20.9411 146.941 29 137 29H7C3.13401 29 0 25.866 0 22V7Z" fill="url(#paint0_linear_2063_179)"/>
<path d="M85.9804 16.403L77.0231 24L68 16.403L70.8516 6M79.6577 12.292L83.1155 6.06844M83.1679 6.06844L86 16.3346M70.8979 6L74.3557 12.2236M74.3886 12.2965H79.6577" stroke="white" stroke-opacity="0.1" stroke-width="2" stroke-linecap="round" stroke-linejoin="round"/>
<path d="M35.5057 12.1818H37.0227L38.625 16.0909H38.6932L40.2955 12.1818H41.8125V18H40.6193V14.2131H40.571L39.0653 17.9716H38.2528L36.7472 14.1989H36.6989V18H35.5057V12.1818ZM48.1726 15.0909C48.1726 15.7254 48.0523 16.2652 47.8118 16.7102C47.5732 17.1553 47.2474 17.4953 46.8345 17.7301C46.4235 17.9631 45.9614 18.0795 45.4482 18.0795C44.9311 18.0795 44.4671 17.9621 44.0561 17.7273C43.6451 17.4924 43.3203 17.1525 43.0817 16.7074C42.843 16.2623 42.7237 15.7235 42.7237 15.0909C42.7237 14.4564 42.843 13.9167 43.0817 13.4716C43.3203 13.0265 43.6451 12.6875 44.0561 12.4545C44.4671 12.2197 44.9311 12.1023 45.4482 12.1023C45.9614 12.1023 46.4235 12.2197 46.8345 12.4545C47.2474 12.6875 47.5732 13.0265 47.8118 13.4716C48.0523 13.9167 48.1726 14.4564 48.1726 15.0909ZM46.9254 15.0909C46.9254 14.6799 46.8639 14.3333 46.7408 14.0511C46.6196 13.7689 46.4482 13.5549 46.2266 13.4091C46.005 13.2633 45.7455 13.1903 45.4482 13.1903C45.1508 13.1903 44.8913 13.2633 44.6697 13.4091C44.4482 13.5549 44.2758 13.7689 44.1527 14.0511C44.0315 14.3333 43.9709 14.6799 43.9709 15.0909C43.9709 15.5019 44.0315 15.8485 44.1527 16.1307C44.2758 16.4129 44.4482 16.6269 44.6697 16.7727C44.8913 16.9186 45.1508 16.9915 45.4482 16.9915C45.7455 16.9915 46.005 16.9186 46.2266 16.7727C46.4482 16.6269 46.6196 16.4129 46.7408 16.1307C46.8639 15.8485 46.9254 15.5019 46.9254 15.0909ZM51.1463 18H49.0838V12.1818H51.1634C51.7486 12.1818 52.2524 12.2983 52.6747 12.5312C53.0971 12.7623 53.4219 13.0947 53.6491 13.5284C53.8783 13.9621 53.9929 14.4811 53.9929 15.0852C53.9929 15.6913 53.8783 16.2121 53.6491 16.6477C53.4219 17.0833 53.0952 17.4176 52.669 17.6506C52.2448 17.8835 51.7372 18 51.1463 18ZM50.3139 16.946H51.0952C51.4588 16.946 51.7647 16.8816 52.0128 16.7528C52.2628 16.6222 52.4503 16.4205 52.5753 16.1477C52.7022 15.8731 52.7656 15.5189 52.7656 15.0852C52.7656 14.6553 52.7022 14.304 52.5753 14.0312C52.4503 13.7585 52.2637 13.5578 52.0156 13.429C51.7675 13.3002 51.4616 13.2358 51.098 13.2358H50.3139V16.946ZM54.9041 18V12.1818H58.8246V13.196H56.1342V14.5824H58.6229V15.5966H56.1342V16.9858H58.8359V18H54.9041ZM59.8026 18V12.1818H62.098C62.5374 12.1818 62.9124 12.2604 63.223 12.4176C63.5355 12.5729 63.7732 12.7936 63.9361 13.0795C64.1009 13.3636 64.1832 13.6979 64.1832 14.0824C64.1832 14.4687 64.0999 14.8011 63.9332 15.0795C63.7666 15.3561 63.5251 15.5682 63.2088 15.7159C62.8944 15.8636 62.5137 15.9375 62.0668 15.9375H60.5298V14.9489H61.8679C62.1027 14.9489 62.2978 14.9167 62.4531 14.8523C62.6084 14.7879 62.724 14.6913 62.7997 14.5625C62.8774 14.4337 62.9162 14.2737 62.9162 14.0824C62.9162 13.8892 62.8774 13.7263 62.7997 13.5938C62.724 13.4612 62.6075 13.3608 62.4503 13.2926C62.295 13.2225 62.099 13.1875 61.8622 13.1875H61.0327V18H59.8026ZM62.9446 15.3523L64.3906 18H63.0327L61.6179 15.3523H62.9446ZM66.0554 18H64.7372L66.7457 12.1818H68.331L70.3366 18H69.0185L67.5611 13.5114H67.5156L66.0554 18ZM65.973 15.7131H69.0866V16.6733H65.973V15.7131ZM70.1044 13.196V12.1818H74.8828V13.196H73.1016V18H71.8857V13.196H70.1044ZM76.8999 12.1818V18H75.6697V12.1818H76.8999ZM83.2585 15.0909C83.2585 15.7254 83.1383 16.2652 82.8977 16.7102C82.6591 17.1553 82.3333 17.4953 81.9205 17.7301C81.5095 17.9631 81.0473 18.0795 80.5341 18.0795C80.017 18.0795 79.553 17.9621 79.142 17.7273C78.7311 17.4924 78.4063 17.1525 78.1676 16.7074C77.929 16.2623 77.8097 15.7235 77.8097 15.0909C77.8097 14.4564 77.929 13.9167 78.1676 13.4716C78.4063 13.0265 78.7311 12.6875 79.142 12.4545C79.553 12.2197 80.017 12.1023 80.5341 12.1023C81.0473 12.1023 81.5095 12.2197 81.9205 12.4545C82.3333 12.6875 82.6591 13.0265 82.8977 13.4716C83.1383 13.9167 83.2585 14.4564 83.2585 15.0909ZM82.0114 15.0909C82.0114 14.6799 81.9498 14.3333 81.8267 14.0511C81.7055 13.7689 81.5341 13.5549 81.3125 13.4091C81.0909 13.2633 80.8314 13.1903 80.5341 13.1903C80.2367 13.1903 79.9773 13.2633 79.7557 13.4091C79.5341 13.5549 79.3617 13.7689 79.2386 14.0511C79.1174 14.3333 79.0568 14.6799 79.0568 15.0909C79.0568 15.5019 79.1174 15.8485 79.2386 16.1307C79.3617 16.4129 79.5341 16.6269 79.7557 16.7727C79.9773 16.9186 80.2367 16.9915 80.5341 16.9915C80.8314 16.9915 81.0909 16.9186 81.3125 16.7727C81.5341 16.6269 81.7055 16.4129 81.8267 16.1307C81.9498 15.8485 82.0114 15.5019 82.0114 15.0909ZM89.0362 12.1818V18H87.9737L85.4425 14.3381H85.3999V18H84.1697V12.1818H85.2493L87.7607 15.8409H87.8118V12.1818H89.0362ZM93.1342 12.1818V18H91.9041V12.1818H93.1342ZM99.0128 12.1818V18H97.9503L95.419 14.3381H95.3764V18H94.1463V12.1818H95.2259L97.7372 15.8409H97.7884V12.1818H99.0128ZM99.8075 13.196V12.1818H104.586V13.196H102.805V18H101.589V13.196H99.8075ZM105.373 18V12.1818H109.293V13.196H106.603V14.5824H109.092V15.5966H106.603V16.9858H109.305V18H105.373ZM110.271 18V12.1818H112.567C113.006 12.1818 113.381 12.2604 113.692 12.4176C114.004 12.5729 114.242 12.7936 114.405 13.0795C114.57 13.3636 114.652 13.6979 114.652 14.0824C114.652 14.4687 114.569 14.8011 114.402 15.0795C114.235 15.3561 113.994 15.5682 113.678 15.7159C113.363 15.8636 112.982 15.9375 112.536 15.9375H110.999V14.9489H112.337C112.571 14.9489 112.767 14.9167 112.922 14.8523C113.077 14.7879 113.193 14.6913 113.268 14.5625C113.346 14.4337 113.385 14.2737 113.385 14.0824C113.385 13.8892 113.346 13.7263 113.268 13.5938C113.193 13.4612 113.076 13.3608 112.919 13.2926C112.764 13.2225 112.568 13.1875 112.331 13.1875H111.501V18H110.271ZM113.413 15.3523L114.859 18H113.501L112.087 15.3523H113.413ZM120.388 12.1818V18H119.325L116.794 14.3381H116.751V18H115.521V12.1818H116.601L119.112 15.8409H119.163V12.1818H120.388Z" fill="white"/>
<defs>
<linearGradient id="paint0_linear_2063_179" x1="0" y1="29" x2="154.467" y2="-2.60381" gradientUnits="userSpaceOnUse">
<stop stop-color="#135333"/>
<stop offset="1" stop-color="#67F5AE" stop-opacity="0.803922"/>
</linearGradient>
</defs>
</svg>
