<svg width="155" height="29" viewBox="0 0 155 29" fill="none" xmlns="http://www.w3.org/2000/svg">
<path d="M0 7C0 3.13401 3.13401 0 7 0H150C152.761 0 155 2.23858 155 5V11C155 20.9411 146.941 29 137 29H7C3.13401 29 0 25.866 0 22V7Z" fill="url(#paint0_linear_2063_163)"/>
<path d="M85.9804 16.403L77.0231 24L68 16.403L70.8516 6M79.6577 12.292L83.1155 6.06844M83.1679 6.06844L86 16.3346M70.8979 6L74.3557 12.2236M74.3886 12.2965H79.6577" stroke="white" stroke-opacity="0.1" stroke-width="2" stroke-linecap="round" stroke-linejoin="round"/>
<path d="M38.6619 13.8551C38.6392 13.6259 38.5417 13.4479 38.3693 13.321C38.197 13.1941 37.9631 13.1307 37.6676 13.1307C37.4669 13.1307 37.2973 13.1591 37.1591 13.2159C37.0208 13.2708 36.9148 13.3475 36.8409 13.446C36.7689 13.5445 36.733 13.6562 36.733 13.7812C36.7292 13.8854 36.7509 13.9763 36.7983 14.054C36.8475 14.1316 36.9148 14.1989 37 14.2557C37.0852 14.3106 37.1837 14.3589 37.2955 14.4006C37.4072 14.4403 37.5265 14.4744 37.6534 14.5028L38.1761 14.6278C38.4299 14.6847 38.6629 14.7604 38.875 14.8551C39.0871 14.9498 39.2708 15.0663 39.4261 15.2045C39.5814 15.3428 39.7017 15.5057 39.7869 15.6932C39.8741 15.8807 39.9186 16.0956 39.9205 16.3381C39.9186 16.6941 39.8277 17.0028 39.6477 17.2642C39.4697 17.5237 39.2121 17.7254 38.875 17.8693C38.5398 18.0114 38.1354 18.0824 37.6619 18.0824C37.1922 18.0824 36.7831 18.0104 36.4347 17.8665C36.0881 17.7225 35.8172 17.5095 35.6222 17.2273C35.429 16.9432 35.3277 16.5919 35.3182 16.1733H36.5085C36.5218 16.3684 36.5777 16.5312 36.6761 16.6619C36.7765 16.7907 36.91 16.8883 37.0767 16.9545C37.2453 17.0189 37.4356 17.0511 37.6477 17.0511C37.8561 17.0511 38.0369 17.0208 38.1903 16.9602C38.3456 16.8996 38.4659 16.8153 38.5511 16.7074C38.6364 16.5994 38.679 16.4754 38.679 16.3352C38.679 16.2045 38.6402 16.0947 38.5625 16.0057C38.4867 15.9167 38.375 15.8409 38.2273 15.7784C38.0814 15.7159 37.9025 15.6591 37.6903 15.608L37.0568 15.4489C36.5663 15.3295 36.179 15.143 35.8949 14.8892C35.6108 14.6354 35.4697 14.2936 35.4716 13.8636C35.4697 13.5114 35.5634 13.2036 35.7528 12.9403C35.9441 12.6771 36.2064 12.4716 36.5398 12.3239C36.8731 12.1761 37.2519 12.1023 37.6761 12.1023C38.108 12.1023 38.4848 12.1761 38.8068 12.3239C39.1307 12.4716 39.3826 12.6771 39.5625 12.9403C39.7424 13.2036 39.8352 13.5085 39.8409 13.8551H38.6619ZM40.7479 18V12.1818H44.6683V13.196H41.978V14.5824H44.4666V15.5966H41.978V16.9858H44.6797V18H40.7479ZM50.5128 12.1818V18H49.4503L46.919 14.3381H46.8764V18H45.6463V12.1818H46.7259L49.2372 15.8409H49.2884V12.1818H50.5128ZM52.7592 12.1818V18H51.5291V12.1818H52.7592ZM59.1179 15.0909C59.1179 15.7254 58.9976 16.2652 58.7571 16.7102C58.5185 17.1553 58.1927 17.4953 57.7798 17.7301C57.3688 17.9631 56.9067 18.0795 56.3935 18.0795C55.8764 18.0795 55.4124 17.9621 55.0014 17.7273C54.5904 17.4924 54.2656 17.1525 54.027 16.7074C53.7884 16.2623 53.669 15.7235 53.669 15.0909C53.669 14.4564 53.7884 13.9167 54.027 13.4716C54.2656 13.0265 54.5904 12.6875 55.0014 12.4545C55.4124 12.2197 55.8764 12.1023 56.3935 12.1023C56.9067 12.1023 57.3688 12.2197 57.7798 12.4545C58.1927 12.6875 58.5185 13.0265 58.7571 13.4716C58.9976 13.9167 59.1179 14.4564 59.1179 15.0909ZM57.8707 15.0909C57.8707 14.6799 57.8092 14.3333 57.6861 14.0511C57.5649 13.7689 57.3935 13.5549 57.1719 13.4091C56.9503 13.2633 56.6908 13.1903 56.3935 13.1903C56.0961 13.1903 55.8366 13.2633 55.6151 13.4091C55.3935 13.5549 55.2211 13.7689 55.098 14.0511C54.9768 14.3333 54.9162 14.6799 54.9162 15.0909C54.9162 15.5019 54.9768 15.8485 55.098 16.1307C55.2211 16.4129 55.3935 16.6269 55.6151 16.7727C55.8366 16.9186 56.0961 16.9915 56.3935 16.9915C56.6908 16.9915 56.9503 16.9186 57.1719 16.7727C57.3935 16.6269 57.5649 16.4129 57.6861 16.1307C57.8092 15.8485 57.8707 15.5019 57.8707 15.0909ZM60.0291 18V12.1818H62.3246C62.764 12.1818 63.139 12.2604 63.4496 12.4176C63.7621 12.5729 63.9998 12.7936 64.1626 13.0795C64.3274 13.3636 64.4098 13.6979 64.4098 14.0824C64.4098 14.4687 64.3265 14.8011 64.1598 15.0795C63.9931 15.3561 63.7517 15.5682 63.4354 15.7159C63.121 15.8636 62.7403 15.9375 62.2933 15.9375H60.7564V14.9489H62.0945C62.3293 14.9489 62.5244 14.9167 62.6797 14.8523C62.835 14.7879 62.9505 14.6913 63.0263 14.5625C63.1039 14.4337 63.1428 14.2737 63.1428 14.0824C63.1428 13.8892 63.1039 13.7263 63.0263 13.5938C62.9505 13.4612 62.834 13.3608 62.6768 13.2926C62.5215 13.2225 62.3255 13.1875 62.0888 13.1875H61.2592V18H60.0291ZM63.1712 15.3523L64.6172 18H63.2592L61.8445 15.3523H63.1712ZM67.1307 12.1818H68.6477L70.25 16.0909H70.3182L71.9205 12.1818H73.4375V18H72.2443V14.2131H72.196L70.6903 17.9716H69.8778L68.3722 14.1989H68.3239V18H67.1307V12.1818ZM79.7976 15.0909C79.7976 15.7254 79.6773 16.2652 79.4368 16.7102C79.1982 17.1553 78.8724 17.4953 78.4595 17.7301C78.0485 17.9631 77.5864 18.0795 77.0732 18.0795C76.5561 18.0795 76.0921 17.9621 75.6811 17.7273C75.2701 17.4924 74.9453 17.1525 74.7067 16.7074C74.468 16.2623 74.3487 15.7235 74.3487 15.0909C74.3487 14.4564 74.468 13.9167 74.7067 13.4716C74.9453 13.0265 75.2701 12.6875 75.6811 12.4545C76.0921 12.2197 76.5561 12.1023 77.0732 12.1023C77.5864 12.1023 78.0485 12.2197 78.4595 12.4545C78.8724 12.6875 79.1982 13.0265 79.4368 13.4716C79.6773 13.9167 79.7976 14.4564 79.7976 15.0909ZM78.5504 15.0909C78.5504 14.6799 78.4889 14.3333 78.3658 14.0511C78.2446 13.7689 78.0732 13.5549 77.8516 13.4091C77.63 13.2633 77.3705 13.1903 77.0732 13.1903C76.7758 13.1903 76.5163 13.2633 76.2947 13.4091C76.0732 13.5549 75.9008 13.7689 75.7777 14.0511C75.6565 14.3333 75.5959 14.6799 75.5959 15.0909C75.5959 15.5019 75.6565 15.8485 75.7777 16.1307C75.9008 16.4129 76.0732 16.6269 76.2947 16.7727C76.5163 16.9186 76.7758 16.9915 77.0732 16.9915C77.3705 16.9915 77.63 16.9186 77.8516 16.7727C78.0732 16.6269 78.2446 16.4129 78.3658 16.1307C78.4889 15.8485 78.5504 15.5019 78.5504 15.0909ZM82.7713 18H80.7088V12.1818H82.7884C83.3736 12.1818 83.8774 12.2983 84.2997 12.5312C84.7221 12.7623 85.0469 13.0947 85.2741 13.5284C85.5033 13.9621 85.6179 14.4811 85.6179 15.0852C85.6179 15.6913 85.5033 16.2121 85.2741 16.6477C85.0469 17.0833 84.7202 17.4176 84.294 17.6506C83.8698 17.8835 83.3622 18 82.7713 18ZM81.9389 16.946H82.7202C83.0838 16.946 83.3897 16.8816 83.6378 16.7528C83.8878 16.6222 84.0753 16.4205 84.2003 16.1477C84.3272 15.8731 84.3906 15.5189 84.3906 15.0852C84.3906 14.6553 84.3272 14.304 84.2003 14.0312C84.0753 13.7585 83.8887 13.5578 83.6406 13.429C83.3925 13.3002 83.0866 13.2358 82.723 13.2358H81.9389V16.946ZM86.5291 18V12.1818H90.4496V13.196H87.7592V14.5824H90.2479V15.5966H87.7592V16.9858H90.4609V18H86.5291ZM91.4276 18V12.1818H93.723C94.1624 12.1818 94.5374 12.2604 94.848 12.4176C95.1605 12.5729 95.3982 12.7936 95.5611 13.0795C95.7259 13.3636 95.8082 13.6979 95.8082 14.0824C95.8082 14.4687 95.7249 14.8011 95.5582 15.0795C95.3916 15.3561 95.1501 15.5682 94.8338 15.7159C94.5194 15.8636 94.1387 15.9375 93.6918 15.9375H92.1548V14.9489H93.4929C93.7277 14.9489 93.9228 14.9167 94.0781 14.8523C94.2334 14.7879 94.349 14.6913 94.4247 14.5625C94.5024 14.4337 94.5412 14.2737 94.5412 14.0824C94.5412 13.8892 94.5024 13.7263 94.4247 13.5938C94.349 13.4612 94.2325 13.3608 94.0753 13.2926C93.92 13.2225 93.724 13.1875 93.4872 13.1875H92.6577V18H91.4276ZM94.5696 15.3523L96.0156 18H94.6577L93.2429 15.3523H94.5696ZM97.6804 18H96.3622L98.3707 12.1818H99.956L101.962 18H100.643L99.1861 13.5114H99.1406L97.6804 18ZM97.598 15.7131H100.712V16.6733H97.598V15.7131ZM101.729 13.196V12.1818H106.508V13.196H104.727V18H103.511V13.196H101.729ZM112.376 15.0909C112.376 15.7254 112.255 16.2652 112.015 16.7102C111.776 17.1553 111.451 17.4953 111.038 17.7301C110.627 17.9631 110.165 18.0795 109.651 18.0795C109.134 18.0795 108.67 17.9621 108.259 17.7273C107.848 17.4924 107.523 17.1525 107.285 16.7074C107.046 16.2623 106.927 15.7235 106.927 15.0909C106.927 14.4564 107.046 13.9167 107.285 13.4716C107.523 13.0265 107.848 12.6875 108.259 12.4545C108.67 12.2197 109.134 12.1023 109.651 12.1023C110.165 12.1023 110.627 12.2197 111.038 12.4545C111.451 12.6875 111.776 13.0265 112.015 13.4716C112.255 13.9167 112.376 14.4564 112.376 15.0909ZM111.129 15.0909C111.129 14.6799 111.067 14.3333 110.944 14.0511C110.823 13.7689 110.651 13.5549 110.43 13.4091C110.208 13.2633 109.949 13.1903 109.651 13.1903C109.354 13.1903 109.094 13.2633 108.873 13.4091C108.651 13.5549 108.479 13.7689 108.356 14.0511C108.235 14.3333 108.174 14.6799 108.174 15.0909C108.174 15.5019 108.235 15.8485 108.356 16.1307C108.479 16.4129 108.651 16.6269 108.873 16.7727C109.094 16.9186 109.354 16.9915 109.651 16.9915C109.949 16.9915 110.208 16.9186 110.43 16.7727C110.651 16.6269 110.823 16.4129 110.944 16.1307C111.067 15.8485 111.129 15.5019 111.129 15.0909ZM113.287 18V12.1818H115.582C116.022 12.1818 116.397 12.2604 116.707 12.4176C117.02 12.5729 117.258 12.7936 117.42 13.0795C117.585 13.3636 117.668 13.6979 117.668 14.0824C117.668 14.4687 117.584 14.8011 117.418 15.0795C117.251 15.3561 117.009 15.5682 116.693 15.7159C116.379 15.8636 115.998 15.9375 115.551 15.9375H114.014V14.9489H115.352C115.587 14.9489 115.782 14.9167 115.938 14.8523C116.093 14.7879 116.208 14.6913 116.284 14.5625C116.362 14.4337 116.401 14.2737 116.401 14.0824C116.401 13.8892 116.362 13.7263 116.284 13.5938C116.208 13.4612 116.092 13.3608 115.935 13.2926C115.779 13.2225 115.583 13.1875 115.347 13.1875H114.517V18H113.287ZM116.429 15.3523L117.875 18H116.517L115.102 15.3523H116.429Z" fill="white"/>
<defs>
<linearGradient id="paint0_linear_2063_163" x1="0" y1="29" x2="154.467" y2="-2.60381" gradientUnits="userSpaceOnUse">
<stop stop-color="#67330A"/>
<stop offset="1" stop-color="#E57216"/>
</linearGradient>
</defs>
</svg>
