<svg width="155" height="29" viewBox="0 0 155 29" fill="none" xmlns="http://www.w3.org/2000/svg">
<path d="M0 7C0 3.13401 3.13401 0 7 0H150C152.761 0 155 2.23858 155 5V11C155 20.9411 146.941 29 137 29H7C3.13401 29 0 25.866 0 22V7Z" fill="url(#paint0_linear_2056_91)"/>
<path d="M85.9804 16.403L77.0231 24L68 16.403L70.8516 6M79.6577 12.292L83.1155 6.06844M83.1679 6.06844L86 16.3346M70.8979 6L74.3557 12.2236M74.3886 12.2965H79.6577" stroke="white" stroke-opacity="0.1" stroke-width="2" stroke-linecap="round" stroke-linejoin="round"/>
<path d="M42.6619 13.8551C42.6392 13.6259 42.5417 13.4479 42.3693 13.321C42.197 13.1941 41.9631 13.1307 41.6676 13.1307C41.4669 13.1307 41.2973 13.1591 41.1591 13.2159C41.0208 13.2708 40.9148 13.3475 40.8409 13.446C40.7689 13.5445 40.733 13.6562 40.733 13.7812C40.7292 13.8854 40.7509 13.9763 40.7983 14.054C40.8475 14.1316 40.9148 14.1989 41 14.2557C41.0852 14.3106 41.1837 14.3589 41.2955 14.4006C41.4072 14.4403 41.5265 14.4744 41.6534 14.5028L42.1761 14.6278C42.4299 14.6847 42.6629 14.7604 42.875 14.8551C43.0871 14.9498 43.2708 15.0663 43.4261 15.2045C43.5814 15.3428 43.7017 15.5057 43.7869 15.6932C43.8741 15.8807 43.9186 16.0956 43.9205 16.3381C43.9186 16.6941 43.8277 17.0028 43.6477 17.2642C43.4697 17.5237 43.2121 17.7254 42.875 17.8693C42.5398 18.0114 42.1354 18.0824 41.6619 18.0824C41.1922 18.0824 40.7831 18.0104 40.4347 17.8665C40.0881 17.7225 39.8172 17.5095 39.6222 17.2273C39.429 16.9432 39.3277 16.5919 39.3182 16.1733H40.5085C40.5218 16.3684 40.5777 16.5312 40.6761 16.6619C40.7765 16.7907 40.91 16.8883 41.0767 16.9545C41.2453 17.0189 41.4356 17.0511 41.6477 17.0511C41.8561 17.0511 42.0369 17.0208 42.1903 16.9602C42.3456 16.8996 42.4659 16.8153 42.5511 16.7074C42.6364 16.5994 42.679 16.4754 42.679 16.3352C42.679 16.2045 42.6402 16.0947 42.5625 16.0057C42.4867 15.9167 42.375 15.8409 42.2273 15.7784C42.0814 15.7159 41.9025 15.6591 41.6903 15.608L41.0568 15.4489C40.5663 15.3295 40.179 15.143 39.8949 14.8892C39.6108 14.6354 39.4697 14.2936 39.4716 13.8636C39.4697 13.5114 39.5634 13.2036 39.7528 12.9403C39.9441 12.6771 40.2064 12.4716 40.5398 12.3239C40.8731 12.1761 41.2519 12.1023 41.6761 12.1023C42.108 12.1023 42.4848 12.1761 42.8068 12.3239C43.1307 12.4716 43.3826 12.6771 43.5625 12.9403C43.7424 13.2036 43.8352 13.5085 43.8409 13.8551H42.6619ZM44.7479 18V12.1818H48.6683V13.196H45.978V14.5824H48.4666V15.5966H45.978V16.9858H48.6797V18H44.7479ZM49.6463 18V12.1818H51.9418C52.3812 12.1818 52.7562 12.2604 53.0668 12.4176C53.3793 12.5729 53.617 12.7936 53.7798 13.0795C53.9446 13.3636 54.027 13.6979 54.027 14.0824C54.027 14.4687 53.9437 14.8011 53.777 15.0795C53.6103 15.3561 53.3688 15.5682 53.0526 15.7159C52.7382 15.8636 52.3575 15.9375 51.9105 15.9375H50.3736V14.9489H51.7116C51.9465 14.9489 52.1416 14.9167 52.2969 14.8523C52.4522 14.7879 52.5677 14.6913 52.6435 14.5625C52.7211 14.4337 52.7599 14.2737 52.7599 14.0824C52.7599 13.8892 52.7211 13.7263 52.6435 13.5938C52.5677 13.4612 52.4512 13.3608 52.294 13.2926C52.1387 13.2225 51.9427 13.1875 51.706 13.1875H50.8764V18H49.6463ZM52.7884 15.3523L54.2344 18H52.8764L51.4616 15.3523H52.7884ZM55.7912 12.1818L57.1974 16.6023H57.2514L58.6605 12.1818H60.0241L58.0185 18H56.4332L54.4247 12.1818H55.7912ZM61.9545 12.1818V18H60.7244V12.1818H61.9545ZM68.1001 14.2188H66.8558C66.8331 14.0578 66.7867 13.9148 66.7166 13.7898C66.6465 13.6629 66.5566 13.5549 66.4467 13.4659C66.3369 13.3769 66.21 13.3087 66.0661 13.2614C65.924 13.214 65.7696 13.1903 65.603 13.1903C65.3018 13.1903 65.0395 13.2652 64.8161 13.4148C64.5926 13.5625 64.4193 13.7784 64.2962 14.0625C64.1731 14.3447 64.1115 14.6875 64.1115 15.0909C64.1115 15.5057 64.1731 15.8542 64.2962 16.1364C64.4212 16.4186 64.5954 16.6316 64.8189 16.7756C65.0424 16.9195 65.3009 16.9915 65.5945 16.9915C65.7592 16.9915 65.9117 16.9697 66.0518 16.9261C66.1939 16.8826 66.3198 16.8191 66.4297 16.7358C66.5395 16.6506 66.6304 16.5473 66.7024 16.4261C66.7763 16.3049 66.8274 16.1667 66.8558 16.0114L68.1001 16.017C68.0679 16.2841 67.9875 16.5417 67.8587 16.7898C67.7318 17.036 67.5604 17.2566 67.3445 17.4517C67.1304 17.6449 66.8748 17.7983 66.5774 17.9119C66.282 18.0237 65.9477 18.0795 65.5746 18.0795C65.0556 18.0795 64.5916 17.9621 64.1825 17.7273C63.7753 17.4924 63.4534 17.1525 63.2166 16.7074C62.9818 16.2623 62.8643 15.7235 62.8643 15.0909C62.8643 14.4564 62.9837 13.9167 63.2223 13.4716C63.4609 13.0265 63.7848 12.6875 64.1939 12.4545C64.603 12.2197 65.0632 12.1023 65.5746 12.1023C65.9117 12.1023 66.2242 12.1496 66.5121 12.2443C66.8018 12.339 67.0585 12.4773 67.282 12.6591C67.5054 12.839 67.6873 13.0597 67.8274 13.321C67.9695 13.5824 68.0604 13.8816 68.1001 14.2188ZM68.9822 18V12.1818H72.9027V13.196H70.2124V14.5824H72.701V15.5966H70.2124V16.9858H72.9141V18H68.9822ZM76.7351 18H75.4169L77.4254 12.1818H79.0107L81.0163 18H79.6982L78.2408 13.5114H78.1953L76.7351 18ZM76.6527 15.7131H79.7663V16.6733H76.6527V15.7131ZM86.5767 14.2188H85.3324C85.3097 14.0578 85.2633 13.9148 85.1932 13.7898C85.1231 13.6629 85.0331 13.5549 84.9233 13.4659C84.8134 13.3769 84.6866 13.3087 84.5426 13.2614C84.4006 13.214 84.2462 13.1903 84.0795 13.1903C83.7784 13.1903 83.5161 13.2652 83.2926 13.4148C83.0691 13.5625 82.8958 13.7784 82.7727 14.0625C82.6496 14.3447 82.5881 14.6875 82.5881 15.0909C82.5881 15.5057 82.6496 15.8542 82.7727 16.1364C82.8977 16.4186 83.072 16.6316 83.2955 16.7756C83.5189 16.9195 83.7775 16.9915 84.071 16.9915C84.2358 16.9915 84.3883 16.9697 84.5284 16.9261C84.6705 16.8826 84.7964 16.8191 84.9062 16.7358C85.0161 16.6506 85.107 16.5473 85.179 16.4261C85.2528 16.3049 85.304 16.1667 85.3324 16.0114L86.5767 16.017C86.5445 16.2841 86.464 16.5417 86.3352 16.7898C86.2083 17.036 86.0369 17.2566 85.821 17.4517C85.607 17.6449 85.3513 17.7983 85.054 17.9119C84.7585 18.0237 84.4242 18.0795 84.0511 18.0795C83.5322 18.0795 83.0682 17.9621 82.6591 17.7273C82.2519 17.4924 81.9299 17.1525 81.6932 16.7074C81.4583 16.2623 81.3409 15.7235 81.3409 15.0909C81.3409 14.4564 81.4602 13.9167 81.6989 13.4716C81.9375 13.0265 82.2614 12.6875 82.6705 12.4545C83.0795 12.2197 83.5398 12.1023 84.0511 12.1023C84.3883 12.1023 84.7008 12.1496 84.9886 12.2443C85.2784 12.339 85.535 12.4773 85.7585 12.6591C85.982 12.839 86.1638 13.0597 86.304 13.321C86.446 13.5824 86.5369 13.8816 86.5767 14.2188ZM92.5923 14.2188H91.348C91.3253 14.0578 91.2789 13.9148 91.2088 13.7898C91.1387 13.6629 91.0488 13.5549 90.9389 13.4659C90.8291 13.3769 90.7022 13.3087 90.5582 13.2614C90.4162 13.214 90.2618 13.1903 90.0952 13.1903C89.794 13.1903 89.5317 13.2652 89.3082 13.4148C89.0848 13.5625 88.9115 13.7784 88.7884 14.0625C88.6652 14.3447 88.6037 14.6875 88.6037 15.0909C88.6037 15.5057 88.6652 15.8542 88.7884 16.1364C88.9134 16.4186 89.0876 16.6316 89.3111 16.7756C89.5346 16.9195 89.7931 16.9915 90.0866 16.9915C90.2514 16.9915 90.4039 16.9697 90.544 16.9261C90.6861 16.8826 90.812 16.8191 90.9219 16.7358C91.0317 16.6506 91.1226 16.5473 91.1946 16.4261C91.2685 16.3049 91.3196 16.1667 91.348 16.0114L92.5923 16.017C92.5601 16.2841 92.4796 16.5417 92.3509 16.7898C92.224 17.036 92.0526 17.2566 91.8366 17.4517C91.6226 17.6449 91.367 17.7983 91.0696 17.9119C90.7741 18.0237 90.4399 18.0795 90.0668 18.0795C89.5478 18.0795 89.0838 17.9621 88.6747 17.7273C88.2675 17.4924 87.9455 17.1525 87.7088 16.7074C87.474 16.2623 87.3565 15.7235 87.3565 15.0909C87.3565 14.4564 87.4759 13.9167 87.7145 13.4716C87.9531 13.0265 88.277 12.6875 88.6861 12.4545C89.0952 12.2197 89.5554 12.1023 90.0668 12.1023C90.4039 12.1023 90.7164 12.1496 91.0043 12.2443C91.294 12.339 91.5507 12.4773 91.7741 12.6591C91.9976 12.839 92.1795 13.0597 92.3196 13.321C92.4616 13.5824 92.5526 13.8816 92.5923 14.2188ZM98.821 15.0909C98.821 15.7254 98.7008 16.2652 98.4602 16.7102C98.2216 17.1553 97.8958 17.4953 97.483 17.7301C97.072 17.9631 96.6098 18.0795 96.0966 18.0795C95.5795 18.0795 95.1155 17.9621 94.7045 17.7273C94.2936 17.4924 93.9688 17.1525 93.7301 16.7074C93.4915 16.2623 93.3722 15.7235 93.3722 15.0909C93.3722 14.4564 93.4915 13.9167 93.7301 13.4716C93.9688 13.0265 94.2936 12.6875 94.7045 12.4545C95.1155 12.2197 95.5795 12.1023 96.0966 12.1023C96.6098 12.1023 97.072 12.2197 97.483 12.4545C97.8958 12.6875 98.2216 13.0265 98.4602 13.4716C98.7008 13.9167 98.821 14.4564 98.821 15.0909ZM97.5739 15.0909C97.5739 14.6799 97.5123 14.3333 97.3892 14.0511C97.268 13.7689 97.0966 13.5549 96.875 13.4091C96.6534 13.2633 96.3939 13.1903 96.0966 13.1903C95.7992 13.1903 95.5398 13.2633 95.3182 13.4091C95.0966 13.5549 94.9242 13.7689 94.8011 14.0511C94.6799 14.3333 94.6193 14.6799 94.6193 15.0909C94.6193 15.5019 94.6799 15.8485 94.8011 16.1307C94.9242 16.4129 95.0966 16.6269 95.3182 16.7727C95.5398 16.9186 95.7992 16.9915 96.0966 16.9915C96.3939 16.9915 96.6534 16.9186 96.875 16.7727C97.0966 16.6269 97.268 16.4129 97.3892 16.1307C97.5123 15.8485 97.5739 15.5019 97.5739 15.0909ZM103.326 12.1818H104.556V15.9602C104.556 16.3845 104.455 16.7557 104.252 17.0739C104.051 17.392 103.77 17.6402 103.408 17.8182C103.047 17.9943 102.625 18.0824 102.144 18.0824C101.661 18.0824 101.239 17.9943 100.877 17.8182C100.515 17.6402 100.234 17.392 100.033 17.0739C99.8326 16.7557 99.7322 16.3845 99.7322 15.9602V12.1818H100.962V15.8551C100.962 16.0767 101.011 16.2737 101.107 16.446C101.206 16.6184 101.344 16.7538 101.522 16.8523C101.7 16.9508 101.907 17 102.144 17C102.383 17 102.59 16.9508 102.766 16.8523C102.944 16.7538 103.082 16.6184 103.178 16.446C103.277 16.2737 103.326 16.0767 103.326 15.8551V12.1818ZM110.435 12.1818V18H109.372L106.841 14.3381H106.798V18H105.568V12.1818H106.648L109.159 15.8409H109.21V12.1818H110.435ZM111.229 13.196V12.1818H116.008V13.196H114.227V18H113.011V13.196H111.229Z" fill="white"/>
<defs>
<linearGradient id="paint0_linear_2056_91" x1="0" y1="29" x2="154.467" y2="-2.60381" gradientUnits="userSpaceOnUse">
<stop stop-color="#061251"/>
<stop offset="1" stop-color="#0084FF"/>
</linearGradient>
</defs>
</svg>
