<svg width="155" height="29" viewBox="0 0 155 29" fill="none" xmlns="http://www.w3.org/2000/svg">
<path d="M0 7C0 3.13401 3.13401 0 7 0H150C152.761 0 155 2.23858 155 5V11C155 20.9411 146.941 29 137 29H7C3.13401 29 0 25.866 0 22V7Z" fill="url(#paint0_linear_2056_155)"/>
<path d="M85.9804 16.403L77.0231 24L68 16.403L70.8516 6M79.6577 12.292L83.1155 6.06844M83.1679 6.06844L86 16.3346M70.8979 6L74.3557 12.2236M74.3886 12.2965H79.6577" stroke="white" stroke-opacity="0.1" stroke-width="2" stroke-linecap="round" stroke-linejoin="round"/>
<path d="M21.2841 13.196V12.1818H26.0625V13.196H24.2812V18H23.0653V13.196H21.2841ZM26.8494 18V12.1818H29.1449C29.5843 12.1818 29.9593 12.2604 30.2699 12.4176C30.5824 12.5729 30.8201 12.7936 30.983 13.0795C31.1477 13.3636 31.2301 13.6979 31.2301 14.0824C31.2301 14.4687 31.1468 14.8011 30.9801 15.0795C30.8134 15.3561 30.572 15.5682 30.2557 15.7159C29.9413 15.8636 29.5606 15.9375 29.1136 15.9375H27.5767V14.9489H28.9148C29.1496 14.9489 29.3447 14.9167 29.5 14.8523C29.6553 14.7879 29.7708 14.6913 29.8466 14.5625C29.9242 14.4337 29.9631 14.2737 29.9631 14.0824C29.9631 13.8892 29.9242 13.7263 29.8466 13.5938C29.7708 13.4612 29.6544 13.3608 29.4972 13.2926C29.3419 13.2225 29.1458 13.1875 28.9091 13.1875H28.0795V18H26.8494ZM29.9915 15.3523L31.4375 18H30.0795L28.6648 15.3523H29.9915ZM33.1023 18H31.7841L33.7926 12.1818H35.3778L37.3835 18H36.0653L34.608 13.5114H34.5625L33.1023 18ZM33.0199 15.7131H36.1335V16.6733H33.0199V15.7131ZM42.9439 14.2188H41.6996C41.6768 14.0578 41.6304 13.9148 41.5604 13.7898C41.4903 13.6629 41.4003 13.5549 41.2905 13.4659C41.1806 13.3769 41.0537 13.3087 40.9098 13.2614C40.7678 13.214 40.6134 13.1903 40.4467 13.1903C40.1456 13.1903 39.8833 13.2652 39.6598 13.4148C39.4363 13.5625 39.263 13.7784 39.1399 14.0625C39.0168 14.3447 38.9553 14.6875 38.9553 15.0909C38.9553 15.5057 39.0168 15.8542 39.1399 16.1364C39.2649 16.4186 39.4392 16.6316 39.6626 16.7756C39.8861 16.9195 40.1446 16.9915 40.4382 16.9915C40.603 16.9915 40.7554 16.9697 40.8956 16.9261C41.0376 16.8826 41.1636 16.8191 41.2734 16.7358C41.3833 16.6506 41.4742 16.5473 41.5462 16.4261C41.62 16.3049 41.6712 16.1667 41.6996 16.0114L42.9439 16.017C42.9117 16.2841 42.8312 16.5417 42.7024 16.7898C42.5755 17.036 42.4041 17.2566 42.1882 17.4517C41.9742 17.6449 41.7185 17.7983 41.4212 17.9119C41.1257 18.0237 40.7914 18.0795 40.4183 18.0795C39.8994 18.0795 39.4354 17.9621 39.0263 17.7273C38.6191 17.4924 38.2971 17.1525 38.0604 16.7074C37.8255 16.2623 37.7081 15.7235 37.7081 15.0909C37.7081 14.4564 37.8274 13.9167 38.0661 13.4716C38.3047 13.0265 38.6286 12.6875 39.0376 12.4545C39.4467 12.2197 39.907 12.1023 40.4183 12.1023C40.7554 12.1023 41.0679 12.1496 41.3558 12.2443C41.6456 12.339 41.9022 12.4773 42.1257 12.6591C42.3492 12.839 42.531 13.0597 42.6712 13.321C42.8132 13.5824 42.9041 13.8816 42.9439 14.2188ZM43.826 18V12.1818H45.0561V14.7472H45.1328L47.2266 12.1818H48.701L46.5419 14.7869L48.7266 18H47.255L45.6612 15.608L45.0561 16.3466V18H43.826ZM50.5717 12.1818V18H49.3416V12.1818H50.5717ZM56.4503 12.1818V18H55.3878L52.8565 14.3381H52.8139V18H51.5838V12.1818H52.6634L55.1747 15.8409H55.2259V12.1818H56.4503ZM61.3246 14.0625C61.2848 13.9242 61.2289 13.8021 61.157 13.696C61.085 13.5881 60.9969 13.4972 60.8928 13.4233C60.7905 13.3475 60.6731 13.2898 60.5405 13.25C60.4098 13.2102 60.2649 13.1903 60.1058 13.1903C59.8085 13.1903 59.5471 13.2642 59.3217 13.4119C59.0982 13.5597 58.924 13.7746 58.799 14.0568C58.674 14.3371 58.6115 14.6799 58.6115 15.0852C58.6115 15.4905 58.6731 15.8352 58.7962 16.1193C58.9193 16.4034 59.0935 16.6203 59.3189 16.7699C59.5443 16.9176 59.8104 16.9915 60.1172 16.9915C60.3956 16.9915 60.6333 16.9422 60.8303 16.8438C61.0291 16.7434 61.1806 16.6023 61.2848 16.4205C61.3909 16.2386 61.4439 16.0237 61.4439 15.7756L61.6939 15.8125H60.1939V14.8864H62.6286V15.6193C62.6286 16.1307 62.5206 16.5701 62.3047 16.9375C62.0888 17.303 61.7914 17.5852 61.4126 17.7841C61.0339 17.9811 60.6001 18.0795 60.1115 18.0795C59.5661 18.0795 59.0869 17.9593 58.674 17.7188C58.2611 17.4763 57.9392 17.1326 57.7081 16.6875C57.4789 16.2405 57.3643 15.7102 57.3643 15.0966C57.3643 14.625 57.4325 14.2045 57.5689 13.8352C57.7071 13.464 57.9003 13.1496 58.1484 12.892C58.3965 12.6345 58.6854 12.4384 59.0149 12.304C59.3445 12.1695 59.7015 12.1023 60.0859 12.1023C60.4155 12.1023 60.7223 12.1506 61.0064 12.2472C61.2905 12.3419 61.5424 12.4763 61.7621 12.6506C61.9837 12.8248 62.1645 13.0322 62.3047 13.2727C62.4448 13.5114 62.5348 13.7746 62.5746 14.0625H61.3246ZM70.7507 15.0909C70.7507 15.7254 70.6304 16.2652 70.3899 16.7102C70.1513 17.1553 69.8255 17.4953 69.4126 17.7301C69.0017 17.9631 68.5395 18.0795 68.0263 18.0795C67.5092 18.0795 67.0452 17.9621 66.6342 17.7273C66.2232 17.4924 65.8984 17.1525 65.6598 16.7074C65.4212 16.2623 65.3018 15.7235 65.3018 15.0909C65.3018 14.4564 65.4212 13.9167 65.6598 13.4716C65.8984 13.0265 66.2232 12.6875 66.6342 12.4545C67.0452 12.2197 67.5092 12.1023 68.0263 12.1023C68.5395 12.1023 69.0017 12.2197 69.4126 12.4545C69.8255 12.6875 70.1513 13.0265 70.3899 13.4716C70.6304 13.9167 70.7507 14.4564 70.7507 15.0909ZM69.5036 15.0909C69.5036 14.6799 69.442 14.3333 69.3189 14.0511C69.1977 13.7689 69.0263 13.5549 68.8047 13.4091C68.5831 13.2633 68.3236 13.1903 68.0263 13.1903C67.7289 13.1903 67.4695 13.2633 67.2479 13.4091C67.0263 13.5549 66.8539 13.7689 66.7308 14.0511C66.6096 14.3333 66.549 14.6799 66.549 15.0909C66.549 15.5019 66.6096 15.8485 66.7308 16.1307C66.8539 16.4129 67.0263 16.6269 67.2479 16.7727C67.4695 16.9186 67.7289 16.9915 68.0263 16.9915C68.3236 16.9915 68.5831 16.9186 68.8047 16.7727C69.0263 16.6269 69.1977 16.4129 69.3189 16.1307C69.442 15.8485 69.5036 15.5019 69.5036 15.0909ZM71.6619 18V12.1818H75.5142V13.196H72.892V14.5824H75.2585V15.5966H72.892V18H71.6619ZM78.1932 12.1818H79.7102L81.3125 16.0909H81.3807L82.983 12.1818H84.5V18H83.3068V14.2131H83.2585L81.7528 17.9716H80.9403L79.4347 14.1989H79.3864V18H78.1932V12.1818ZM90.8601 15.0909C90.8601 15.7254 90.7398 16.2652 90.4993 16.7102C90.2607 17.1553 89.9349 17.4953 89.522 17.7301C89.111 17.9631 88.6489 18.0795 88.1357 18.0795C87.6186 18.0795 87.1546 17.9621 86.7436 17.7273C86.3326 17.4924 86.0078 17.1525 85.7692 16.7074C85.5305 16.2623 85.4112 15.7235 85.4112 15.0909C85.4112 14.4564 85.5305 13.9167 85.7692 13.4716C86.0078 13.0265 86.3326 12.6875 86.7436 12.4545C87.1546 12.2197 87.6186 12.1023 88.1357 12.1023C88.6489 12.1023 89.111 12.2197 89.522 12.4545C89.9349 12.6875 90.2607 13.0265 90.4993 13.4716C90.7398 13.9167 90.8601 14.4564 90.8601 15.0909ZM89.6129 15.0909C89.6129 14.6799 89.5514 14.3333 89.4283 14.0511C89.3071 13.7689 89.1357 13.5549 88.9141 13.4091C88.6925 13.2633 88.433 13.1903 88.1357 13.1903C87.8383 13.1903 87.5788 13.2633 87.3572 13.4091C87.1357 13.5549 86.9633 13.7689 86.8402 14.0511C86.719 14.3333 86.6584 14.6799 86.6584 15.0909C86.6584 15.5019 86.719 15.8485 86.8402 16.1307C86.9633 16.4129 87.1357 16.6269 87.3572 16.7727C87.5788 16.9186 87.8383 16.9915 88.1357 16.9915C88.433 16.9915 88.6925 16.9186 88.9141 16.7727C89.1357 16.6269 89.3071 16.4129 89.4283 16.1307C89.5514 15.8485 89.6129 15.5019 89.6129 15.0909ZM93.8338 18H91.7713V12.1818H93.8509C94.4361 12.1818 94.9399 12.2983 95.3622 12.5312C95.7846 12.7623 96.1094 13.0947 96.3366 13.5284C96.5658 13.9621 96.6804 14.4811 96.6804 15.0852C96.6804 15.6913 96.5658 16.2121 96.3366 16.6477C96.1094 17.0833 95.7827 17.4176 95.3565 17.6506C94.9323 17.8835 94.4247 18 93.8338 18ZM93.0014 16.946H93.7827C94.1463 16.946 94.4522 16.8816 94.7003 16.7528C94.9503 16.6222 95.1378 16.4205 95.2628 16.1477C95.3897 15.8731 95.4531 15.5189 95.4531 15.0852C95.4531 14.6553 95.3897 14.304 95.2628 14.0312C95.1378 13.7585 94.9512 13.5578 94.7031 13.429C94.455 13.3002 94.1491 13.2358 93.7855 13.2358H93.0014V16.946ZM97.5916 18V12.1818H101.512V13.196H98.8217V14.5824H101.31V15.5966H98.8217V16.9858H101.523V18H97.5916ZM102.49 18V12.1818H104.786C105.225 12.1818 105.6 12.2604 105.911 12.4176C106.223 12.5729 106.461 12.7936 106.624 13.0795C106.788 13.3636 106.871 13.6979 106.871 14.0824C106.871 14.4687 106.787 14.8011 106.621 15.0795C106.454 15.3561 106.213 15.5682 105.896 15.7159C105.582 15.8636 105.201 15.9375 104.754 15.9375H103.217V14.9489H104.555C104.79 14.9489 104.985 14.9167 105.141 14.8523C105.296 14.7879 105.411 14.6913 105.487 14.5625C105.565 14.4337 105.604 14.2737 105.604 14.0824C105.604 13.8892 105.565 13.7263 105.487 13.5938C105.411 13.4612 105.295 13.3608 105.138 13.2926C104.982 13.2225 104.786 13.1875 104.55 13.1875H103.72V18H102.49ZM105.632 15.3523L107.078 18H105.72L104.305 15.3523H105.632ZM108.743 18H107.425L109.433 12.1818H111.018L113.024 18H111.706L110.249 13.5114H110.203L108.743 18ZM108.661 15.7131H111.774V16.6733H108.661V15.7131ZM112.792 13.196V12.1818H117.57V13.196H115.789V18H114.573V13.196H112.792ZM119.587 12.1818V18H118.357V12.1818H119.587ZM125.946 15.0909C125.946 15.7254 125.826 16.2652 125.585 16.7102C125.347 17.1553 125.021 17.4953 124.608 17.7301C124.197 17.9631 123.735 18.0795 123.222 18.0795C122.705 18.0795 122.241 17.9621 121.83 17.7273C121.419 17.4924 121.094 17.1525 120.855 16.7074C120.616 16.2623 120.497 15.7235 120.497 15.0909C120.497 14.4564 120.616 13.9167 120.855 13.4716C121.094 13.0265 121.419 12.6875 121.83 12.4545C122.241 12.2197 122.705 12.1023 123.222 12.1023C123.735 12.1023 124.197 12.2197 124.608 12.4545C125.021 12.6875 125.347 13.0265 125.585 13.4716C125.826 13.9167 125.946 14.4564 125.946 15.0909ZM124.699 15.0909C124.699 14.6799 124.637 14.3333 124.514 14.0511C124.393 13.7689 124.222 13.5549 124 13.4091C123.778 13.2633 123.519 13.1903 123.222 13.1903C122.924 13.1903 122.665 13.2633 122.443 13.4091C122.222 13.5549 122.049 13.7689 121.926 14.0511C121.805 14.3333 121.744 14.6799 121.744 15.0909C121.744 15.5019 121.805 15.8485 121.926 16.1307C122.049 16.4129 122.222 16.6269 122.443 16.7727C122.665 16.9186 122.924 16.9915 123.222 16.9915C123.519 16.9915 123.778 16.9186 124 16.7727C124.222 16.6269 124.393 16.4129 124.514 16.1307C124.637 15.8485 124.699 15.5019 124.699 15.0909ZM131.724 12.1818V18H130.661L128.13 14.3381H128.087V18H126.857V12.1818H127.937L130.448 15.8409H130.499V12.1818H131.724Z" fill="white"/>
<defs>
<linearGradient id="paint0_linear_2056_155" x1="0" y1="29" x2="154.467" y2="-2.60381" gradientUnits="userSpaceOnUse">
<stop stop-color="#613A07"/>
<stop offset="1" stop-color="#FF9200"/>
</linearGradient>
</defs>
</svg>
