<svg width="155" height="29" viewBox="0 0 155 29" fill="none" xmlns="http://www.w3.org/2000/svg">
<path d="M0 7C0 3.13401 3.13401 0 7 0H150C152.761 0 155 2.23858 155 5V11C155 20.9411 146.941 29 137 29H7C3.13401 29 0 25.866 0 22V7Z" fill="url(#paint0_linear_2056_99)"/>
<path d="M85.9804 16.403L77.0231 24L68 16.403L70.8516 6M79.6577 12.292L83.1155 6.06844M83.1679 6.06844L86 16.3346M70.8979 6L74.3557 12.2236M74.3886 12.2965H79.6577" stroke="white" stroke-opacity="0.1" stroke-width="2" stroke-linecap="round" stroke-linejoin="round"/>
<path d="M37.6619 13.8551C37.6392 13.6259 37.5417 13.4479 37.3693 13.321C37.197 13.1941 36.9631 13.1307 36.6676 13.1307C36.4669 13.1307 36.2973 13.1591 36.1591 13.2159C36.0208 13.2708 35.9148 13.3475 35.8409 13.446C35.7689 13.5445 35.733 13.6562 35.733 13.7812C35.7292 13.8854 35.7509 13.9763 35.7983 14.054C35.8475 14.1316 35.9148 14.1989 36 14.2557C36.0852 14.3106 36.1837 14.3589 36.2955 14.4006C36.4072 14.4403 36.5265 14.4744 36.6534 14.5028L37.1761 14.6278C37.4299 14.6847 37.6629 14.7604 37.875 14.8551C38.0871 14.9498 38.2708 15.0663 38.4261 15.2045C38.5814 15.3428 38.7017 15.5057 38.7869 15.6932C38.8741 15.8807 38.9186 16.0956 38.9205 16.3381C38.9186 16.6941 38.8277 17.0028 38.6477 17.2642C38.4697 17.5237 38.2121 17.7254 37.875 17.8693C37.5398 18.0114 37.1354 18.0824 36.6619 18.0824C36.1922 18.0824 35.7831 18.0104 35.4347 17.8665C35.0881 17.7225 34.8172 17.5095 34.6222 17.2273C34.429 16.9432 34.3277 16.5919 34.3182 16.1733H35.5085C35.5218 16.3684 35.5777 16.5312 35.6761 16.6619C35.7765 16.7907 35.91 16.8883 36.0767 16.9545C36.2453 17.0189 36.4356 17.0511 36.6477 17.0511C36.8561 17.0511 37.0369 17.0208 37.1903 16.9602C37.3456 16.8996 37.4659 16.8153 37.5511 16.7074C37.6364 16.5994 37.679 16.4754 37.679 16.3352C37.679 16.2045 37.6402 16.0947 37.5625 16.0057C37.4867 15.9167 37.375 15.8409 37.2273 15.7784C37.0814 15.7159 36.9025 15.6591 36.6903 15.608L36.0568 15.4489C35.5663 15.3295 35.179 15.143 34.8949 14.8892C34.6108 14.6354 34.4697 14.2936 34.4716 13.8636C34.4697 13.5114 34.5634 13.2036 34.7528 12.9403C34.9441 12.6771 35.2064 12.4716 35.5398 12.3239C35.8731 12.1761 36.2519 12.1023 36.6761 12.1023C37.108 12.1023 37.4848 12.1761 37.8068 12.3239C38.1307 12.4716 38.3826 12.6771 38.5625 12.9403C38.7424 13.2036 38.8352 13.5085 38.8409 13.8551H37.6619ZM39.7479 18V12.1818H42.0433C42.4846 12.1818 42.8606 12.2661 43.1712 12.4347C43.4818 12.6013 43.7185 12.8333 43.8814 13.1307C44.0462 13.4261 44.1286 13.767 44.1286 14.1534C44.1286 14.5398 44.0452 14.8807 43.8786 15.1761C43.7119 15.4716 43.4704 15.7017 43.1541 15.8665C42.8397 16.0312 42.459 16.1136 42.0121 16.1136H40.549V15.1278H41.8132C42.05 15.1278 42.245 15.0871 42.3984 15.0057C42.5537 14.9223 42.6693 14.8078 42.745 14.6619C42.8227 14.5142 42.8615 14.3447 42.8615 14.1534C42.8615 13.9602 42.8227 13.7917 42.745 13.6477C42.6693 13.5019 42.5537 13.3892 42.3984 13.3097C42.2431 13.2282 42.0462 13.1875 41.8075 13.1875H40.978V18H39.7479ZM44.9276 18V12.1818H48.848V13.196H46.1577V14.5824H48.6463V15.5966H46.1577V16.9858H48.8594V18H44.9276ZM54.9595 14.2188H53.7152C53.6925 14.0578 53.6461 13.9148 53.576 13.7898C53.5059 13.6629 53.416 13.5549 53.3061 13.4659C53.1963 13.3769 53.0694 13.3087 52.9254 13.2614C52.7834 13.214 52.629 13.1903 52.4624 13.1903C52.1612 13.1903 51.8989 13.2652 51.6754 13.4148C51.4519 13.5625 51.2786 13.7784 51.1555 14.0625C51.0324 14.3447 50.9709 14.6875 50.9709 15.0909C50.9709 15.5057 51.0324 15.8542 51.1555 16.1364C51.2805 16.4186 51.4548 16.6316 51.6783 16.7756C51.9018 16.9195 52.1603 16.9915 52.4538 16.9915C52.6186 16.9915 52.7711 16.9697 52.9112 16.9261C53.0533 16.8826 53.1792 16.8191 53.2891 16.7358C53.3989 16.6506 53.4898 16.5473 53.5618 16.4261C53.6357 16.3049 53.6868 16.1667 53.7152 16.0114L54.9595 16.017C54.9273 16.2841 54.8468 16.5417 54.718 16.7898C54.5911 17.036 54.4197 17.2566 54.2038 17.4517C53.9898 17.6449 53.7341 17.7983 53.4368 17.9119C53.1413 18.0237 52.8071 18.0795 52.4339 18.0795C51.915 18.0795 51.451 17.9621 51.0419 17.7273C50.6347 17.4924 50.3127 17.1525 50.076 16.7074C49.8411 16.2623 49.7237 15.7235 49.7237 15.0909C49.7237 14.4564 49.843 13.9167 50.0817 13.4716C50.3203 13.0265 50.6442 12.6875 51.0533 12.4545C51.4624 12.2197 51.9226 12.1023 52.4339 12.1023C52.7711 12.1023 53.0836 12.1496 53.3714 12.2443C53.6612 12.339 53.9179 12.4773 54.1413 12.6591C54.3648 12.839 54.5466 13.0597 54.6868 13.321C54.8288 13.5824 54.9197 13.8816 54.9595 14.2188ZM57.0717 12.1818V18H55.8416V12.1818H57.0717ZM59.0866 18H57.7685L59.777 12.1818H61.3622L63.3679 18H62.0497L60.5923 13.5114H60.5469L59.0866 18ZM59.0043 15.7131H62.1179V16.6733H59.0043V15.7131ZM64.0682 18V12.1818H65.2983V16.9858H67.7926V18H64.0682ZM70.4588 12.1818H71.9759L73.5781 16.0909H73.6463L75.2486 12.1818H76.7656V18H75.5724V14.2131H75.5241L74.0185 17.9716H73.206L71.7003 14.1989H71.652V18H70.4588V12.1818ZM83.1257 15.0909C83.1257 15.7254 83.0054 16.2652 82.7649 16.7102C82.5263 17.1553 82.2005 17.4953 81.7876 17.7301C81.3767 17.9631 80.9145 18.0795 80.4013 18.0795C79.8842 18.0795 79.4202 17.9621 79.0092 17.7273C78.5982 17.4924 78.2734 17.1525 78.0348 16.7074C77.7962 16.2623 77.6768 15.7235 77.6768 15.0909C77.6768 14.4564 77.7962 13.9167 78.0348 13.4716C78.2734 13.0265 78.5982 12.6875 79.0092 12.4545C79.4202 12.2197 79.8842 12.1023 80.4013 12.1023C80.9145 12.1023 81.3767 12.2197 81.7876 12.4545C82.2005 12.6875 82.5263 13.0265 82.7649 13.4716C83.0054 13.9167 83.1257 14.4564 83.1257 15.0909ZM81.8786 15.0909C81.8786 14.6799 81.817 14.3333 81.6939 14.0511C81.5727 13.7689 81.4013 13.5549 81.1797 13.4091C80.9581 13.2633 80.6986 13.1903 80.4013 13.1903C80.1039 13.1903 79.8445 13.2633 79.6229 13.4091C79.4013 13.5549 79.2289 13.7689 79.1058 14.0511C78.9846 14.3333 78.924 14.6799 78.924 15.0909C78.924 15.5019 78.9846 15.8485 79.1058 16.1307C79.2289 16.4129 79.4013 16.6269 79.6229 16.7727C79.8445 16.9186 80.1039 16.9915 80.4013 16.9915C80.6986 16.9915 80.9581 16.9186 81.1797 16.7727C81.4013 16.6269 81.5727 16.4129 81.6939 16.1307C81.817 15.8485 81.8786 15.5019 81.8786 15.0909ZM86.0994 18H84.0369V12.1818H86.1165C86.7017 12.1818 87.2055 12.2983 87.6278 12.5312C88.0502 12.7623 88.375 13.0947 88.6023 13.5284C88.8314 13.9621 88.946 14.4811 88.946 15.0852C88.946 15.6913 88.8314 16.2121 88.6023 16.6477C88.375 17.0833 88.0483 17.4176 87.6222 17.6506C87.1979 17.8835 86.6903 18 86.0994 18ZM85.267 16.946H86.0483C86.4119 16.946 86.7178 16.8816 86.9659 16.7528C87.2159 16.6222 87.4034 16.4205 87.5284 16.1477C87.6553 15.8731 87.7188 15.5189 87.7188 15.0852C87.7188 14.6553 87.6553 14.304 87.5284 14.0312C87.4034 13.7585 87.2169 13.5578 86.9688 13.429C86.7206 13.3002 86.4148 13.2358 86.0511 13.2358H85.267V16.946ZM89.8572 18V12.1818H93.7777V13.196H91.0874V14.5824H93.576V15.5966H91.0874V16.9858H93.7891V18H89.8572ZM94.7557 18V12.1818H97.0511C97.4905 12.1818 97.8655 12.2604 98.1761 12.4176C98.4886 12.5729 98.7263 12.7936 98.8892 13.0795C99.054 13.3636 99.1364 13.6979 99.1364 14.0824C99.1364 14.4687 99.053 14.8011 98.8864 15.0795C98.7197 15.3561 98.4782 15.5682 98.1619 15.7159C97.8475 15.8636 97.4669 15.9375 97.0199 15.9375H95.483V14.9489H96.821C97.0559 14.9489 97.2509 14.9167 97.4062 14.8523C97.5616 14.7879 97.6771 14.6913 97.7528 14.5625C97.8305 14.4337 97.8693 14.2737 97.8693 14.0824C97.8693 13.8892 97.8305 13.7263 97.7528 13.5938C97.6771 13.4612 97.5606 13.3608 97.4034 13.2926C97.2481 13.2225 97.0521 13.1875 96.8153 13.1875H95.9858V18H94.7557ZM97.8977 15.3523L99.3438 18H97.9858L96.571 15.3523H97.8977ZM101.009 18H99.6903L101.699 12.1818H103.284L105.29 18H103.972L102.514 13.5114H102.469L101.009 18ZM100.926 15.7131H104.04V16.6733H100.926V15.7131ZM105.058 13.196V12.1818H109.836V13.196H108.055V18H106.839V13.196H105.058ZM115.704 15.0909C115.704 15.7254 115.584 16.2652 115.343 16.7102C115.104 17.1553 114.779 17.4953 114.366 17.7301C113.955 17.9631 113.493 18.0795 112.979 18.0795C112.462 18.0795 111.998 17.9621 111.587 17.7273C111.176 17.4924 110.852 17.1525 110.613 16.7074C110.374 16.2623 110.255 15.7235 110.255 15.0909C110.255 14.4564 110.374 13.9167 110.613 13.4716C110.852 13.0265 111.176 12.6875 111.587 12.4545C111.998 12.2197 112.462 12.1023 112.979 12.1023C113.493 12.1023 113.955 12.2197 114.366 12.4545C114.779 12.6875 115.104 13.0265 115.343 13.4716C115.584 13.9167 115.704 14.4564 115.704 15.0909ZM114.457 15.0909C114.457 14.6799 114.395 14.3333 114.272 14.0511C114.151 13.7689 113.979 13.5549 113.758 13.4091C113.536 13.2633 113.277 13.1903 112.979 13.1903C112.682 13.1903 112.423 13.2633 112.201 13.4091C111.979 13.5549 111.807 13.7689 111.684 14.0511C111.563 14.3333 111.502 14.6799 111.502 15.0909C111.502 15.5019 111.563 15.8485 111.684 16.1307C111.807 16.4129 111.979 16.6269 112.201 16.7727C112.423 16.9186 112.682 16.9915 112.979 16.9915C113.277 16.9915 113.536 16.9186 113.758 16.7727C113.979 16.6269 114.151 16.4129 114.272 16.1307C114.395 15.8485 114.457 15.5019 114.457 15.0909ZM116.615 18V12.1818H118.911C119.35 12.1818 119.725 12.2604 120.036 12.4176C120.348 12.5729 120.586 12.7936 120.749 13.0795C120.913 13.3636 120.996 13.6979 120.996 14.0824C120.996 14.4687 120.912 14.8011 120.746 15.0795C120.579 15.3561 120.338 15.5682 120.021 15.7159C119.707 15.8636 119.326 15.9375 118.879 15.9375H117.342V14.9489H118.68C118.915 14.9489 119.11 14.9167 119.266 14.8523C119.421 14.7879 119.536 14.6913 119.612 14.5625C119.69 14.4337 119.729 14.2737 119.729 14.0824C119.729 13.8892 119.69 13.7263 119.612 13.5938C119.536 13.4612 119.42 13.3608 119.263 13.2926C119.107 13.2225 118.911 13.1875 118.675 13.1875H117.845V18H116.615ZM119.757 15.3523L121.203 18H119.845L118.43 15.3523H119.757Z" fill="white"/>
<defs>
<linearGradient id="paint0_linear_2056_99" x1="0" y1="29" x2="154.467" y2="-2.60381" gradientUnits="userSpaceOnUse">
<stop stop-color="#820B0B"/>
<stop offset="1" stop-color="#FF0000"/>
</linearGradient>
</defs>
</svg>
