<svg width="155" height="29" viewBox="0 0 155 29" fill="none" xmlns="http://www.w3.org/2000/svg">
<path d="M0 7C0 3.13401 3.13401 0 7 0H150C152.761 0 155 2.23858 155 5V11C155 20.9411 146.941 29 137 29H7C3.13401 29 0 25.866 0 22V7Z" fill="url(#paint0_linear_2056_107)"/>
<path d="M85.9804 16.403L77.0231 24L68 16.403L70.8516 6M79.6577 12.292L83.1155 6.06844M83.1679 6.06844L86 16.3346M70.8979 6L74.3557 12.2236M74.3886 12.2965H79.6577" stroke="white" stroke-opacity="0.1" stroke-width="2" stroke-linecap="round" stroke-linejoin="round"/>
<path d="M34.2841 13.196V12.1818H39.0625V13.196H37.2812V18H36.0653V13.196H34.2841ZM39.8494 18V12.1818H43.7699V13.196H41.0795V14.5824H43.5682V15.5966H41.0795V16.9858H43.7812V18H39.8494ZM49.8814 14.2188H48.6371C48.6143 14.0578 48.5679 13.9148 48.4979 13.7898C48.4278 13.6629 48.3378 13.5549 48.228 13.4659C48.1181 13.3769 47.9912 13.3087 47.8473 13.2614C47.7053 13.214 47.5509 13.1903 47.3842 13.1903C47.0831 13.1903 46.8208 13.2652 46.5973 13.4148C46.3738 13.5625 46.2005 13.7784 46.0774 14.0625C45.9543 14.3447 45.8928 14.6875 45.8928 15.0909C45.8928 15.5057 45.9543 15.8542 46.0774 16.1364C46.2024 16.4186 46.3767 16.6316 46.6001 16.7756C46.8236 16.9195 47.0821 16.9915 47.3757 16.9915C47.5405 16.9915 47.6929 16.9697 47.8331 16.9261C47.9751 16.8826 48.1011 16.8191 48.2109 16.7358C48.3208 16.6506 48.4117 16.5473 48.4837 16.4261C48.5575 16.3049 48.6087 16.1667 48.6371 16.0114L49.8814 16.017C49.8492 16.2841 49.7687 16.5417 49.6399 16.7898C49.513 17.036 49.3416 17.2566 49.1257 17.4517C48.9117 17.6449 48.656 17.7983 48.3587 17.9119C48.0632 18.0237 47.7289 18.0795 47.3558 18.0795C46.8369 18.0795 46.3729 17.9621 45.9638 17.7273C45.5566 17.4924 45.2346 17.1525 44.9979 16.7074C44.763 16.2623 44.6456 15.7235 44.6456 15.0909C44.6456 14.4564 44.7649 13.9167 45.0036 13.4716C45.2422 13.0265 45.5661 12.6875 45.9751 12.4545C46.3842 12.2197 46.8445 12.1023 47.3558 12.1023C47.6929 12.1023 48.0054 12.1496 48.2933 12.2443C48.5831 12.339 48.8397 12.4773 49.0632 12.6591C49.2867 12.839 49.4685 13.0597 49.6087 13.321C49.7507 13.5824 49.8416 13.8816 49.8814 14.2188ZM50.7635 18V12.1818H51.9936V14.5824H54.4908V12.1818H55.718V18H54.4908V15.5966H51.9936V18H50.7635ZM61.5987 12.1818V18H60.5362L58.005 14.3381H57.9624V18H56.7322V12.1818H57.8118L60.3232 15.8409H60.3743V12.1818H61.5987ZM63.8452 12.1818V18H62.6151V12.1818H63.8452ZM69.9908 14.2188H68.7464C68.7237 14.0578 68.6773 13.9148 68.6072 13.7898C68.5372 13.6629 68.4472 13.5549 68.3374 13.4659C68.2275 13.3769 68.1006 13.3087 67.9567 13.2614C67.8146 13.214 67.6603 13.1903 67.4936 13.1903C67.1925 13.1903 66.9302 13.2652 66.7067 13.4148C66.4832 13.5625 66.3099 13.7784 66.1868 14.0625C66.0637 14.3447 66.0021 14.6875 66.0021 15.0909C66.0021 15.5057 66.0637 15.8542 66.1868 16.1364C66.3118 16.4186 66.486 16.6316 66.7095 16.7756C66.933 16.9195 67.1915 16.9915 67.4851 16.9915C67.6499 16.9915 67.8023 16.9697 67.9425 16.9261C68.0845 16.8826 68.2105 16.8191 68.3203 16.7358C68.4302 16.6506 68.5211 16.5473 68.593 16.4261C68.6669 16.3049 68.718 16.1667 68.7464 16.0114L69.9908 16.017C69.9586 16.2841 69.8781 16.5417 69.7493 16.7898C69.6224 17.036 69.451 17.2566 69.2351 17.4517C69.0211 17.6449 68.7654 17.7983 68.468 17.9119C68.1726 18.0237 67.8383 18.0795 67.4652 18.0795C66.9463 18.0795 66.4822 17.9621 66.0732 17.7273C65.666 17.4924 65.344 17.1525 65.1072 16.7074C64.8724 16.2623 64.755 15.7235 64.755 15.0909C64.755 14.4564 64.8743 13.9167 65.1129 13.4716C65.3516 13.0265 65.6754 12.6875 66.0845 12.4545C66.4936 12.2197 66.9538 12.1023 67.4652 12.1023C67.8023 12.1023 68.1148 12.1496 68.4027 12.2443C68.6925 12.339 68.9491 12.4773 69.1726 12.6591C69.3961 12.839 69.5779 13.0597 69.718 13.321C69.8601 13.5824 69.951 13.8816 69.9908 14.2188ZM71.7663 18H70.4482L72.4567 12.1818H74.0419L76.0476 18H74.7294L73.272 13.5114H73.2266L71.7663 18ZM71.6839 15.7131H74.7976V16.6733H71.6839V15.7131ZM76.7479 18V12.1818H77.978V16.9858H80.4723V18H76.7479ZM86.2947 13.8551C86.272 13.6259 86.1745 13.4479 86.0021 13.321C85.8298 13.1941 85.5959 13.1307 85.3004 13.1307C85.0997 13.1307 84.9302 13.1591 84.7919 13.2159C84.6536 13.2708 84.5476 13.3475 84.4737 13.446C84.4018 13.5445 84.3658 13.6562 84.3658 13.7812C84.362 13.8854 84.3838 13.9763 84.4311 14.054C84.4804 14.1316 84.5476 14.1989 84.6328 14.2557C84.718 14.3106 84.8165 14.3589 84.9283 14.4006C85.04 14.4403 85.1593 14.4744 85.2862 14.5028L85.8089 14.6278C86.0627 14.6847 86.2957 14.7604 86.5078 14.8551C86.7199 14.9498 86.9036 15.0663 87.0589 15.2045C87.2143 15.3428 87.3345 15.5057 87.4197 15.6932C87.5069 15.8807 87.5514 16.0956 87.5533 16.3381C87.5514 16.6941 87.4605 17.0028 87.2805 17.2642C87.1025 17.5237 86.8449 17.7254 86.5078 17.8693C86.1726 18.0114 85.7682 18.0824 85.2947 18.0824C84.825 18.0824 84.416 18.0104 84.0675 17.8665C83.7209 17.7225 83.45 17.5095 83.255 17.2273C83.0618 16.9432 82.9605 16.5919 82.951 16.1733H84.1413C84.1546 16.3684 84.2105 16.5312 84.3089 16.6619C84.4093 16.7907 84.5429 16.8883 84.7095 16.9545C84.8781 17.0189 85.0684 17.0511 85.2805 17.0511C85.4889 17.0511 85.6697 17.0208 85.8232 16.9602C85.9785 16.8996 86.0987 16.8153 86.1839 16.7074C86.2692 16.5994 86.3118 16.4754 86.3118 16.3352C86.3118 16.2045 86.273 16.0947 86.1953 16.0057C86.1196 15.9167 86.0078 15.8409 85.8601 15.7784C85.7143 15.7159 85.5353 15.6591 85.3232 15.608L84.6896 15.4489C84.1991 15.3295 83.8118 15.143 83.5277 14.8892C83.2436 14.6354 83.1025 14.2936 83.1044 13.8636C83.1025 13.5114 83.1963 13.2036 83.3857 12.9403C83.5769 12.6771 83.8393 12.4716 84.1726 12.3239C84.5059 12.1761 84.8847 12.1023 85.3089 12.1023C85.7408 12.1023 86.1177 12.1761 86.4396 12.3239C86.7635 12.4716 87.0154 12.6771 87.1953 12.9403C87.3752 13.2036 87.468 13.5085 87.4737 13.8551H86.2947ZM91.9744 12.1818H93.2045V15.9602C93.2045 16.3845 93.1032 16.7557 92.9006 17.0739C92.6998 17.392 92.4186 17.6402 92.0568 17.8182C91.6951 17.9943 91.2737 18.0824 90.7926 18.0824C90.3097 18.0824 89.8873 17.9943 89.5256 17.8182C89.1638 17.6402 88.8826 17.392 88.6818 17.0739C88.4811 16.7557 88.3807 16.3845 88.3807 15.9602V12.1818H89.6108V15.8551C89.6108 16.0767 89.6591 16.2737 89.7557 16.446C89.8542 16.6184 89.9924 16.7538 90.1705 16.8523C90.3485 16.9508 90.5559 17 90.7926 17C91.0313 17 91.2386 16.9508 91.4148 16.8523C91.5928 16.7538 91.7301 16.6184 91.8267 16.446C91.9252 16.2737 91.9744 16.0767 91.9744 15.8551V12.1818ZM94.2166 18V12.1818H96.5121C96.9534 12.1818 97.3293 12.2661 97.6399 12.4347C97.9505 12.6013 98.1873 12.8333 98.3501 13.1307C98.5149 13.4261 98.5973 13.767 98.5973 14.1534C98.5973 14.5398 98.514 14.8807 98.3473 15.1761C98.1806 15.4716 97.9392 15.7017 97.6229 15.8665C97.3085 16.0312 96.9278 16.1136 96.4808 16.1136H95.0178V15.1278H96.282C96.5187 15.1278 96.7138 15.0871 96.8672 15.0057C97.0225 14.9223 97.138 14.8078 97.2138 14.6619C97.2914 14.5142 97.3303 14.3447 97.3303 14.1534C97.3303 13.9602 97.2914 13.7917 97.2138 13.6477C97.138 13.5019 97.0225 13.3892 96.8672 13.3097C96.7119 13.2282 96.5149 13.1875 96.2763 13.1875H95.4467V18H94.2166ZM99.3963 18V12.1818H101.692C102.133 12.1818 102.509 12.2661 102.82 12.4347C103.13 12.6013 103.367 12.8333 103.53 13.1307C103.695 13.4261 103.777 13.767 103.777 14.1534C103.777 14.5398 103.694 14.8807 103.527 15.1761C103.36 15.4716 103.119 15.7017 102.803 15.8665C102.488 16.0312 102.107 16.1136 101.661 16.1136H100.197V15.1278H101.462C101.698 15.1278 101.893 15.0871 102.047 15.0057C102.202 14.9223 102.318 14.8078 102.393 14.6619C102.471 14.5142 102.51 14.3447 102.51 14.1534C102.51 13.9602 102.471 13.7917 102.393 13.6477C102.318 13.5019 102.202 13.3892 102.047 13.3097C101.892 13.2282 101.695 13.1875 101.456 13.1875H100.626V18H99.3963ZM109.923 15.0909C109.923 15.7254 109.802 16.2652 109.562 16.7102C109.323 17.1553 108.997 17.4953 108.585 17.7301C108.174 17.9631 107.711 18.0795 107.198 18.0795C106.681 18.0795 106.217 17.9621 105.806 17.7273C105.395 17.4924 105.07 17.1525 104.832 16.7074C104.593 16.2623 104.474 15.7235 104.474 15.0909C104.474 14.4564 104.593 13.9167 104.832 13.4716C105.07 13.0265 105.395 12.6875 105.806 12.4545C106.217 12.2197 106.681 12.1023 107.198 12.1023C107.711 12.1023 108.174 12.2197 108.585 12.4545C108.997 12.6875 109.323 13.0265 109.562 13.4716C109.802 13.9167 109.923 14.4564 109.923 15.0909ZM108.675 15.0909C108.675 14.6799 108.614 14.3333 108.491 14.0511C108.37 13.7689 108.198 13.5549 107.977 13.4091C107.755 13.2633 107.496 13.1903 107.198 13.1903C106.901 13.1903 106.641 13.2633 106.42 13.4091C106.198 13.5549 106.026 13.7689 105.903 14.0511C105.781 14.3333 105.721 14.6799 105.721 15.0909C105.721 15.5019 105.781 15.8485 105.903 16.1307C106.026 16.4129 106.198 16.6269 106.42 16.7727C106.641 16.9186 106.901 16.9915 107.198 16.9915C107.496 16.9915 107.755 16.9186 107.977 16.7727C108.198 16.6269 108.37 16.4129 108.491 16.1307C108.614 15.8485 108.675 15.5019 108.675 15.0909ZM110.834 18V12.1818H113.129C113.569 12.1818 113.944 12.2604 114.254 12.4176C114.567 12.5729 114.804 12.7936 114.967 13.0795C115.132 13.3636 115.214 13.6979 115.214 14.0824C115.214 14.4687 115.131 14.8011 114.964 15.0795C114.798 15.3561 114.556 15.5682 114.24 15.7159C113.926 15.8636 113.545 15.9375 113.098 15.9375H111.561V14.9489H112.899C113.134 14.9489 113.329 14.9167 113.484 14.8523C113.64 14.7879 113.755 14.6913 113.831 14.5625C113.909 14.4337 113.947 14.2737 113.947 14.0824C113.947 13.8892 113.909 13.7263 113.831 13.5938C113.755 13.4612 113.639 13.3608 113.482 13.2926C113.326 13.2225 113.13 13.1875 112.893 13.1875H112.064V18H110.834ZM113.976 15.3523L115.422 18H114.064L112.649 15.3523H113.976ZM115.862 13.196V12.1818H120.641V13.196H118.859V18H117.643V13.196H115.862Z" fill="white"/>
<defs>
<linearGradient id="paint0_linear_2056_107" x1="0" y1="29" x2="154.467" y2="-2.60381" gradientUnits="userSpaceOnUse">
<stop stop-color="#601607"/>
<stop offset="0.835" stop-color="#E04B2E"/>
</linearGradient>
</defs>
</svg>
