<svg width="155" height="29" viewBox="0 0 155 29" fill="none" xmlns="http://www.w3.org/2000/svg">
<path d="M0 7C0 3.13401 3.13401 0 7 0H150C152.761 0 155 2.23858 155 5V11C155 20.9411 146.941 29 137 29H7C3.13401 29 0 25.866 0 22V7Z" fill="url(#paint0_linear_2064_211)"/>
<path d="M85.9804 16.403L77.0231 24L68 16.403L70.8516 6M79.6577 12.292L83.1155 6.06844M83.1679 6.06844L86 16.3346M70.8979 6L74.3557 12.2236M74.3886 12.2965H79.6577" stroke="white" stroke-opacity="0.1" stroke-width="2" stroke-linecap="round" stroke-linejoin="round"/>
<path d="M71.0994 12.1818H72.3295V15.9602C72.3295 16.3845 72.2282 16.7557 72.0256 17.0739C71.8248 17.392 71.5436 17.6402 71.1818 17.8182C70.8201 17.9943 70.3987 18.0824 69.9176 18.0824C69.4347 18.0824 69.0123 17.9943 68.6506 17.8182C68.2888 17.6402 68.0076 17.392 67.8068 17.0739C67.6061 16.7557 67.5057 16.3845 67.5057 15.9602V12.1818H68.7358V15.8551C68.7358 16.0767 68.7841 16.2737 68.8807 16.446C68.9792 16.6184 69.1174 16.7538 69.2955 16.8523C69.4735 16.9508 69.6809 17 69.9176 17C70.1563 17 70.3636 16.9508 70.5398 16.8523C70.7178 16.7538 70.8551 16.6184 70.9517 16.446C71.0502 16.2737 71.0994 16.0767 71.0994 15.8551V12.1818ZM76.4979 13.8551C76.4751 13.6259 76.3776 13.4479 76.2053 13.321C76.0329 13.1941 75.799 13.1307 75.5036 13.1307C75.3028 13.1307 75.1333 13.1591 74.995 13.2159C74.8568 13.2708 74.7507 13.3475 74.6768 13.446C74.6049 13.5445 74.5689 13.6562 74.5689 13.7812C74.5651 13.8854 74.5869 13.9763 74.6342 14.054C74.6835 14.1316 74.7507 14.1989 74.8359 14.2557C74.9212 14.3106 75.0196 14.3589 75.1314 14.4006C75.2431 14.4403 75.3625 14.4744 75.4893 14.5028L76.0121 14.6278C76.2659 14.6847 76.4988 14.7604 76.7109 14.8551C76.9231 14.9498 77.1068 15.0663 77.2621 15.2045C77.4174 15.3428 77.5376 15.5057 77.6229 15.6932C77.71 15.8807 77.7545 16.0956 77.7564 16.3381C77.7545 16.6941 77.6636 17.0028 77.4837 17.2642C77.3056 17.5237 77.0481 17.7254 76.7109 17.8693C76.3757 18.0114 75.9714 18.0824 75.4979 18.0824C75.0282 18.0824 74.6191 18.0104 74.2706 17.8665C73.924 17.7225 73.6532 17.5095 73.4581 17.2273C73.2649 16.9432 73.1636 16.5919 73.1541 16.1733H74.3445C74.3577 16.3684 74.4136 16.5312 74.5121 16.6619C74.6125 16.7907 74.746 16.8883 74.9126 16.9545C75.0812 17.0189 75.2715 17.0511 75.4837 17.0511C75.692 17.0511 75.8729 17.0208 76.0263 16.9602C76.1816 16.8996 76.3018 16.8153 76.3871 16.7074C76.4723 16.5994 76.5149 16.4754 76.5149 16.3352C76.5149 16.2045 76.4761 16.0947 76.3984 16.0057C76.3227 15.9167 76.2109 15.8409 76.0632 15.7784C75.9174 15.7159 75.7384 15.6591 75.5263 15.608L74.8928 15.4489C74.4022 15.3295 74.0149 15.143 73.7308 14.8892C73.4467 14.6354 73.3056 14.2936 73.3075 13.8636C73.3056 13.5114 73.3994 13.2036 73.5888 12.9403C73.7801 12.6771 74.0424 12.4716 74.3757 12.3239C74.709 12.1761 75.0878 12.1023 75.5121 12.1023C75.9439 12.1023 76.3208 12.1761 76.6428 12.3239C76.9666 12.4716 77.2185 12.6771 77.3984 12.9403C77.5784 13.2036 77.6712 13.5085 77.6768 13.8551H76.4979ZM78.5838 18V12.1818H82.5043V13.196H79.8139V14.5824H82.3026V15.5966H79.8139V16.9858H82.5156V18H78.5838ZM83.4822 18V12.1818H85.7777C86.2171 12.1818 86.5921 12.2604 86.9027 12.4176C87.2152 12.5729 87.4529 12.7936 87.6158 13.0795C87.7805 13.3636 87.8629 13.6979 87.8629 14.0824C87.8629 14.4687 87.7796 14.8011 87.6129 15.0795C87.4463 15.3561 87.2048 15.5682 86.8885 15.7159C86.5741 15.8636 86.1934 15.9375 85.7464 15.9375H84.2095V14.9489H85.5476C85.7824 14.9489 85.9775 14.9167 86.1328 14.8523C86.2881 14.7879 86.4036 14.6913 86.4794 14.5625C86.5571 14.4337 86.5959 14.2737 86.5959 14.0824C86.5959 13.8892 86.5571 13.7263 86.4794 13.5938C86.4036 13.4612 86.2872 13.3608 86.13 13.2926C85.9747 13.2225 85.7786 13.1875 85.5419 13.1875H84.7124V18H83.4822ZM86.6243 15.3523L88.0703 18H86.7124L85.2976 15.3523H86.6243Z" fill="white"/>
<defs>
<linearGradient id="paint0_linear_2064_211" x1="0" y1="29" x2="154.467" y2="-2.60381" gradientUnits="userSpaceOnUse">
<stop stop-color="#484848"/>
<stop offset="1" stop-color="#838383"/>
</linearGradient>
</defs>
</svg>
