<svg width="138" height="28" viewBox="0 0 138 28" fill="none" xmlns="http://www.w3.org/2000/svg">
<path d="M0 7C0 3.13401 3.13401 0 7 0H131C134.866 0 138 3.13401 138 7V10C138 19.9411 129.941 28 120 28H7C3.13401 28 0 24.866 0 21V7Z" fill="url(#paint0_linear_1933_85)"/>
<path d="M76.9825 15.2471L69.0206 22L61 15.2471L63.5348 6M71.3624 11.5929L74.436 6.06083M74.4826 6.06083L77 15.1863M63.5759 6L66.6495 11.5321M66.6788 11.5969H71.3624" stroke="white" stroke-opacity="0.4" stroke-width="2" stroke-linecap="round" stroke-linejoin="round"/>
<path d="M35.2944 17.0696C34.9232 17.0696 34.5926 17.0058 34.3026 16.8782C34.0142 16.7489 33.7863 16.5716 33.619 16.3462C33.4532 16.1192 33.3679 15.8574 33.3629 15.5607H34.4467C34.4534 15.685 34.494 15.7944 34.5685 15.8888C34.6448 15.9817 34.7459 16.0537 34.8718 16.1051C34.9978 16.1565 35.1394 16.1822 35.2969 16.1822C35.4609 16.1822 35.6059 16.1532 35.7319 16.0952C35.8578 16.0372 35.9564 15.9568 36.0277 15.854C36.099 15.7513 36.1346 15.6328 36.1346 15.4986C36.1346 15.3627 36.0965 15.2425 36.0202 15.1381C35.9457 15.0321 35.8379 14.9492 35.6971 14.8896C35.5579 14.8299 35.3922 14.8001 35.1999 14.8001H34.7251V14.0096H35.1999C35.3623 14.0096 35.5057 13.9814 35.63 13.9251C35.7559 13.8687 35.8537 13.7908 35.9233 13.6914C35.9929 13.5903 36.0277 13.4727 36.0277 13.3384C36.0277 13.2108 35.997 13.099 35.9357 13.0028C35.8761 12.9051 35.7915 12.8288 35.6822 12.7741C35.5745 12.7195 35.4485 12.6921 35.3043 12.6921C35.1585 12.6921 35.0251 12.7186 34.9041 12.7717C34.7831 12.823 34.6862 12.8968 34.6133 12.9929C34.5404 13.089 34.5014 13.2017 34.4964 13.331H33.4648C33.4698 13.0376 33.5535 12.7791 33.7159 12.5554C33.8783 12.3317 34.0971 12.1568 34.3722 12.0309C34.6489 11.9033 34.9613 11.8395 35.3093 11.8395C35.6606 11.8395 35.968 11.9033 36.2315 12.0309C36.495 12.1585 36.6997 12.3308 36.8455 12.5479C36.993 12.7634 37.0659 13.0053 37.0643 13.2738C37.0659 13.5588 36.9773 13.7966 36.7983 13.9872C36.621 14.1778 36.3898 14.2988 36.1048 14.3501V14.3899C36.4793 14.438 36.7643 14.5681 36.9599 14.7802C37.1571 14.9906 37.2549 15.2541 37.2532 15.5707C37.2549 15.8607 37.1712 16.1184 37.0021 16.3438C36.8348 16.5691 36.6036 16.7464 36.3086 16.8757C36.0136 17.005 35.6755 17.0696 35.2944 17.0696ZM38.9342 17H37.7808L39.5383 11.9091H40.9253L42.6803 17H41.5269L40.2517 13.0724H40.2119L38.9342 17ZM38.8621 14.9989H41.5866V15.8391H38.8621V14.9989ZM43.2931 17V11.9091H46.6713V12.7965H44.3694V13.7908H45.1972C45.5999 13.7908 45.9471 13.8563 46.2387 13.9872C46.532 14.1165 46.7583 14.2996 46.9173 14.5366C47.0764 14.7736 47.156 15.0528 47.156 15.3743C47.156 15.6941 47.0764 15.9767 46.9173 16.2219C46.7583 16.4656 46.532 16.6561 46.2387 16.7937C45.9471 16.9312 45.5999 17 45.1972 17H43.2931ZM44.3694 16.1349H45.1972C45.3894 16.1349 45.5518 16.1001 45.6844 16.0305C45.817 15.9593 45.9172 15.8656 45.9852 15.7496C46.0548 15.632 46.0896 15.5036 46.0896 15.3643C46.0896 15.1622 46.0125 14.9915 45.8584 14.8523C45.7059 14.7114 45.4855 14.641 45.1972 14.641H44.3694V16.1349ZM47.5767 17V16.1349L47.7209 16.1225C47.9065 16.1076 48.0565 16.0372 48.1708 15.9112C48.2852 15.7836 48.3705 15.5806 48.4268 15.3022C48.4848 15.0221 48.5221 14.646 48.5387 14.1737L48.6232 11.9091H52.0785V17H51.032V12.7717H49.6225L49.543 14.544C49.5165 15.1141 49.4485 15.5798 49.3391 15.9411C49.2314 16.3023 49.0591 16.5691 48.8221 16.7415C48.5868 16.9138 48.2644 17 47.8551 17H47.5767ZM57.6442 14.4545C57.6442 15.0097 57.5389 15.482 57.3285 15.8714C57.1197 16.2609 56.8346 16.5584 56.4734 16.7638C56.1138 16.9677 55.7094 17.0696 55.2603 17.0696C54.8079 17.0696 54.4019 16.9669 54.0423 16.7614C53.6826 16.5559 53.3984 16.2584 53.1896 15.869C52.9808 15.4795 52.8764 15.008 52.8764 14.4545C52.8764 13.8994 52.9808 13.4271 53.1896 13.0376C53.3984 12.6482 53.6826 12.3516 54.0423 12.1477C54.4019 11.9422 54.8079 11.8395 55.2603 11.8395C55.7094 11.8395 56.1138 11.9422 56.4734 12.1477C56.8346 12.3516 57.1197 12.6482 57.3285 13.0376C57.5389 13.4271 57.6442 13.8994 57.6442 14.4545ZM56.5529 14.4545C56.5529 14.0949 56.4991 13.7917 56.3913 13.5447C56.2853 13.2978 56.1353 13.1106 55.9414 12.983C55.7475 12.8554 55.5205 12.7915 55.2603 12.7915C55.0001 12.7915 54.7731 12.8554 54.5792 12.983C54.3853 13.1106 54.2345 13.2978 54.1268 13.5447C54.0207 13.7917 53.9677 14.0949 53.9677 14.4545C53.9677 14.8142 54.0207 15.1174 54.1268 15.3643C54.2345 15.6113 54.3853 15.7985 54.5792 15.9261C54.7731 16.0537 55.0001 16.1175 55.2603 16.1175C55.5205 16.1175 55.7475 16.0537 55.9414 15.9261C56.1353 15.7985 56.2853 15.6113 56.3913 15.3643C56.4991 15.1174 56.5529 14.8142 56.5529 14.4545ZM61.5214 17L59.8857 14.8299H59.5178V17H58.4415V11.9091H59.5178V13.9425H59.7341L61.4244 11.9091H62.7643L60.7781 14.2706L62.8563 17H61.5214ZM63.3975 11.9091H64.4714V15.1108H64.5137L66.7136 11.9091H67.6557V17H66.5794V13.7958H66.5421L64.3297 17H63.3975V11.9091ZM68.545 17V11.9091H70.5535C70.9397 11.9091 71.2686 11.9828 71.5404 12.1303C71.8122 12.2762 72.0193 12.4792 72.1618 12.7393C72.306 12.9979 72.3781 13.2962 72.3781 13.6342C72.3781 13.9723 72.3052 14.2706 72.1594 14.5291C72.0135 14.7876 71.8022 14.989 71.5255 15.1332C71.2504 15.2773 70.9173 15.3494 70.5262 15.3494H69.246V14.4869H70.3522C70.5593 14.4869 70.73 14.4512 70.8643 14.38C71.0001 14.3071 71.1012 14.2068 71.1675 14.0792C71.2355 13.9499 71.2694 13.8016 71.2694 13.6342C71.2694 13.4652 71.2355 13.3177 71.1675 13.1918C71.1012 13.0642 71.0001 12.9656 70.8643 12.896C70.7284 12.8247 70.556 12.7891 70.3472 12.7891H69.6214V17H68.545ZM77.7555 14.4545C77.7555 15.0097 77.6503 15.482 77.4398 15.8714C77.231 16.2609 76.946 16.5584 76.5847 16.7638C76.2251 16.9677 75.8207 17.0696 75.3716 17.0696C74.9192 17.0696 74.5132 16.9669 74.1536 16.7614C73.794 16.5559 73.5098 16.2584 73.301 15.869C73.0922 15.4795 72.9877 15.008 72.9877 14.4545C72.9877 13.8994 73.0922 13.4271 73.301 13.0376C73.5098 12.6482 73.794 12.3516 74.1536 12.1477C74.5132 11.9422 74.9192 11.8395 75.3716 11.8395C75.8207 11.8395 76.2251 11.9422 76.5847 12.1477C76.946 12.3516 77.231 12.6482 77.4398 13.0376C77.6503 13.4271 77.7555 13.8994 77.7555 14.4545ZM76.6642 14.4545C76.6642 14.0949 76.6104 13.7917 76.5027 13.5447C76.3966 13.2978 76.2466 13.1106 76.0527 12.983C75.8588 12.8554 75.6318 12.7915 75.3716 12.7915C75.1114 12.7915 74.8844 12.8554 74.6905 12.983C74.4966 13.1106 74.3458 13.2978 74.2381 13.5447C74.132 13.7917 74.079 14.0949 74.079 14.4545C74.079 14.8142 74.132 15.1174 74.2381 15.3643C74.3458 15.6113 74.4966 15.7985 74.6905 15.9261C74.8844 16.0537 75.1114 16.1175 75.3716 16.1175C75.6318 16.1175 75.8588 16.0537 76.0527 15.9261C76.2466 15.7985 76.3966 15.6113 76.5027 15.3643C76.6104 15.1174 76.6642 14.8142 76.6642 14.4545ZM78.5528 17V11.9091H80.5912C80.9657 11.9091 81.2781 11.9646 81.5283 12.0756C81.7786 12.1867 81.9666 12.3408 82.0926 12.538C82.2185 12.7335 82.2815 12.9589 82.2815 13.2141C82.2815 13.413 82.2417 13.5878 82.1622 13.7386C82.0827 13.8878 81.9733 14.0104 81.8341 14.1065C81.6965 14.201 81.5391 14.2681 81.3618 14.3079V14.3576C81.5557 14.3659 81.7371 14.4206 81.9062 14.5217C82.0769 14.6228 82.2152 14.7644 82.3213 14.9467C82.4273 15.1274 82.4804 15.3428 82.4804 15.593C82.4804 15.8632 82.4133 16.1043 82.279 16.3164C82.1465 16.5269 81.9501 16.6934 81.6899 16.8161C81.4297 16.9387 81.109 17 80.7279 17H78.5528ZM79.6292 16.12H80.5067C80.8066 16.12 81.0254 16.0629 81.1629 15.9485C81.3005 15.8325 81.3692 15.6784 81.3692 15.4862C81.3692 15.3453 81.3353 15.221 81.2673 15.1133C81.1994 15.0056 81.1024 14.921 80.9765 14.8597C80.8522 14.7984 80.7039 14.7678 80.5315 14.7678H79.6292V16.12ZM79.6292 14.0394H80.4271C80.5746 14.0394 80.7055 14.0137 80.8199 13.9624C80.9359 13.9093 81.027 13.8348 81.0933 13.7386C81.1613 13.6425 81.1952 13.5273 81.1952 13.3931C81.1952 13.2092 81.1298 13.0608 80.9988 12.9482C80.8696 12.8355 80.6856 12.7791 80.447 12.7791H79.6292V14.0394ZM84.0582 17H82.9048L84.6623 11.9091H86.0494L87.8043 17H86.6509L85.3757 13.0724H85.3359L84.0582 17ZM83.9862 14.9989H86.7106V15.8391H83.9862V14.9989ZM88.4171 17V11.9091H89.4934V14.0096H91.6784V11.9091H92.7523V17H91.6784V14.897H89.4934V17H88.4171ZM94.3482 13.7908H95.5613C95.9656 13.7908 96.3136 13.8563 96.6053 13.9872C96.8986 14.1165 97.1248 14.2996 97.2839 14.5366C97.443 14.7736 97.5217 15.0528 97.5201 15.3743C97.5217 15.6941 97.443 15.9767 97.2839 16.2219C97.1248 16.4656 96.8986 16.6561 96.6053 16.7937C96.3136 16.9312 95.9656 17 95.5613 17H93.6596V11.9091H94.7335V16.1349H95.5613C95.7551 16.1349 95.9184 16.1001 96.051 16.0305C96.1835 15.9593 96.2838 15.8656 96.3517 15.7496C96.4213 15.632 96.4553 15.5036 96.4537 15.3643C96.4553 15.1622 96.3791 14.9915 96.225 14.8523C96.0725 14.7114 95.8513 14.641 95.5613 14.641H94.3482V13.7908ZM99.0091 11.9091V17H97.9352V11.9091H99.0091ZM99.8946 11.9091H100.968V15.1108H101.011L103.211 11.9091H104.153V17H103.076V13.7958H103.039L100.827 17H99.8946V11.9091ZM102.52 10.5767H103.258C103.256 10.8783 103.144 11.1211 102.922 11.305C102.702 11.489 102.404 11.581 102.027 11.581C101.65 11.581 101.35 11.489 101.13 11.305C100.91 11.1211 100.799 10.8783 100.799 10.5767H101.533C101.531 10.6911 101.568 10.7938 101.642 10.8849C101.718 10.9761 101.847 11.0217 102.027 11.0217C102.203 11.0217 102.329 10.9769 102.405 10.8874C102.482 10.7979 102.52 10.6944 102.52 10.5767Z" fill="white"/>
<defs>
<linearGradient id="paint0_linear_1933_85" x1="0" y1="28" x2="138.358" y2="1.89677" gradientUnits="userSpaceOnUse">
<stop stop-color="#040404"/>
<stop offset="1" stop-color="#484549"/>
</linearGradient>
</defs>
</svg>
