<svg width="155" height="29" viewBox="0 0 155 29" fill="none" xmlns="http://www.w3.org/2000/svg">
<path d="M0 7C0 3.13401 3.13401 0 7 0H150C152.761 0 155 2.23858 155 5V11C155 20.9411 146.941 29 137 29H7C3.13401 29 0 25.866 0 22V7Z" fill="url(#paint0_linear_2051_55)"/>
<path d="M85.9804 16.403L77.0231 24L68 16.403L70.8516 6M79.6577 12.292L83.1155 6.06844M83.1679 6.06844L86 16.3346M70.8979 6L74.3557 12.2236M74.3886 12.2965H79.6577" stroke="white" stroke-opacity="0.1" stroke-width="2" stroke-linecap="round" stroke-linejoin="round"/>
<path d="M43.1903 19.4034V17.0199H43.5852C43.7197 16.9233 43.8428 16.7869 43.9545 16.6108C44.0663 16.4328 44.1619 16.1875 44.2415 15.875C44.321 15.5606 44.3778 15.1496 44.4119 14.642L44.5767 12.1818H48.4261V17.0199H49.0625V19.3977H47.8807V18H44.3722V19.4034H43.1903ZM45.0057 17.0199H47.2443V13.196H45.6847L45.5938 14.642C45.5691 15.0265 45.5284 15.3674 45.4716 15.6648C45.4167 15.9621 45.3494 16.2225 45.2699 16.446C45.1922 16.6676 45.1042 16.8589 45.0057 17.0199ZM49.8104 12.1818H51.0376V15.8409H51.0859L53.6001 12.1818H54.6768V18H53.4467V14.3381H53.4041L50.8757 18H49.8104V12.1818ZM55.3778 19.4034V17.0199H55.7727C55.9072 16.9233 56.0303 16.7869 56.142 16.6108C56.2538 16.4328 56.3494 16.1875 56.429 15.875C56.5085 15.5606 56.5653 15.1496 56.5994 14.642L56.7642 12.1818H60.6136V17.0199H61.25V19.3977H60.0682V18H56.5597V19.4034H55.3778ZM57.1932 17.0199H59.4318V13.196H57.8722L57.7812 14.642C57.7566 15.0265 57.7159 15.3674 57.6591 15.6648C57.6042 15.9621 57.5369 16.2225 57.4574 16.446C57.3797 16.6676 57.2917 16.8589 57.1932 17.0199ZM66.4297 12.1818V18H65.2365V12.1818H66.4297ZM61.7223 18L63.5462 14.9318L61.799 12.1818H63.3132L64.62 14.5767H67.0774L68.3501 12.1818H69.8587L68.1541 14.9233L69.9439 18H68.4751L67.245 15.7131H64.4411L63.1797 18H61.7223ZM70.6776 18V12.1818H74.598V13.196H71.9077V14.5824H74.3963V15.5966H71.9077V16.9858H74.6094V18H70.6776ZM75.576 12.1818H76.8033V15.8409H76.8516L79.3658 12.1818H80.4425V18H79.2124V14.3381H79.1697L76.6413 18H75.576V12.1818ZM78.576 10.6591H79.4197C79.4179 11.0038 79.29 11.2812 79.0362 11.4915C78.7843 11.7017 78.4434 11.8068 78.0135 11.8068C77.5817 11.8068 77.2398 11.7017 76.9879 11.4915C76.736 11.2812 76.6101 11.0038 76.6101 10.6591H77.4482C77.4463 10.7898 77.4879 10.9072 77.5732 11.0114C77.6603 11.1155 77.8071 11.1676 78.0135 11.1676C78.2143 11.1676 78.3582 11.1165 78.4453 11.0142C78.5324 10.9119 78.576 10.7936 78.576 10.6591ZM86.8303 18L84.9609 15.5199H84.5405V18H83.3104V12.1818H84.5405V14.5057H84.7876L86.7195 12.1818H88.2507L85.9808 14.8807L88.3558 18H86.8303ZM88.6591 18V17.0114L88.8239 16.9972C89.036 16.9801 89.2074 16.8996 89.3381 16.7557C89.4688 16.6098 89.5663 16.3778 89.6307 16.0597C89.697 15.7396 89.7396 15.3097 89.7585 14.7699L89.8551 12.1818H93.804V18H92.608V13.1676H90.9972L90.9062 15.1932C90.8759 15.8447 90.7983 16.3769 90.6733 16.7898C90.5502 17.2027 90.3532 17.5076 90.0824 17.7045C89.8134 17.9015 89.4451 18 88.9773 18H88.6591ZM95.446 18.0795V17.0795H95.7614C95.9186 17.0795 96.0455 17.0606 96.142 17.0227C96.2386 16.983 96.3153 16.9252 96.3722 16.8494C96.4309 16.7718 96.4801 16.6752 96.5199 16.5597L96.5909 16.3693L94.4773 12.1818H95.75L97.1193 15.0455L98.2642 12.1818H99.5199L97.5142 16.858C97.4176 17.0739 97.303 17.2746 97.1705 17.4602C97.0398 17.6458 96.8722 17.7955 96.6676 17.9091C96.4631 18.0227 96.2017 18.0795 95.8835 18.0795H95.446ZM100.185 18V12.1818H104.046V13.196H101.415V14.3324H102.362C102.822 14.3324 103.219 14.4072 103.552 14.5568C103.887 14.7045 104.146 14.9138 104.327 15.1847C104.509 15.4555 104.6 15.7746 104.6 16.142C104.6 16.5076 104.509 16.8305 104.327 17.1108C104.146 17.3892 103.887 17.607 103.552 17.7642C103.219 17.9214 102.822 18 102.362 18H100.185ZM101.415 17.0114H102.362C102.581 17.0114 102.767 16.9716 102.918 16.892C103.07 16.8106 103.184 16.7036 103.262 16.571C103.342 16.4366 103.381 16.2898 103.381 16.1307C103.381 15.8996 103.293 15.7045 103.117 15.5455C102.943 15.3845 102.691 15.304 102.362 15.304H101.415V17.0114ZM106.399 18H105.081L107.089 12.1818H108.675L110.68 18H109.362L107.905 13.5114H107.859L106.399 18ZM106.317 15.7131H109.43V16.6733H106.317V15.7131Z" fill="white"/>
<defs>
<linearGradient id="paint0_linear_2051_55" x1="0" y1="29" x2="154.467" y2="-2.60381" gradientUnits="userSpaceOnUse">
<stop stop-color="#3B075E"/>
<stop offset="1" stop-color="#9900FF"/>
</linearGradient>
</defs>
</svg>
