<svg width="138" height="28" viewBox="0 0 138 28" fill="none" xmlns="http://www.w3.org/2000/svg">
<path d="M0 7C0 3.13401 3.13401 0 7 0H131C134.866 0 138 3.13401 138 7V10C138 19.9411 129.941 28 120 28H7C3.13401 28 0 24.866 0 21V7Z" fill="url(#paint0_linear_1933_86)"/>
<path d="M76.9825 15.2471L69.0206 22L61 15.2471L63.5348 6M71.3624 11.5929L74.436 6.06083M74.4826 6.06083L77 15.1863M63.5759 6L66.6495 11.5321M66.6788 11.5969H71.3624" stroke="white" stroke-opacity="0.4" stroke-width="2" stroke-linecap="round" stroke-linejoin="round"/>
<path d="M58.9343 13.6914H57.8455C57.8256 13.5505 57.785 13.4254 57.7237 13.3161C57.6624 13.205 57.5837 13.1106 57.4876 13.0327C57.3915 12.9548 57.2804 12.8951 57.1545 12.8537C57.0302 12.8123 56.8951 12.7915 56.7493 12.7915C56.4858 12.7915 56.2563 12.857 56.0607 12.9879C55.8652 13.1172 55.7135 13.3061 55.6058 13.5547C55.4981 13.8016 55.4442 14.1016 55.4442 14.4545C55.4442 14.8175 55.4981 15.1224 55.6058 15.3693C55.7152 15.6162 55.8677 15.8027 56.0632 15.9286C56.2588 16.0546 56.485 16.1175 56.7418 16.1175C56.886 16.1175 57.0194 16.0985 57.142 16.0604C57.2663 16.0223 57.3765 15.9667 57.4727 15.8938C57.5688 15.8192 57.6483 15.7289 57.7113 15.6229C57.7759 15.5168 57.8207 15.3958 57.8455 15.2599L58.9343 15.2649C58.9061 15.4986 58.8357 15.724 58.723 15.9411C58.612 16.1565 58.462 16.3496 58.2731 16.5202C58.0858 16.6893 57.8621 16.8235 57.6019 16.9229C57.3434 17.0207 57.0509 17.0696 56.7244 17.0696C56.2704 17.0696 55.8643 16.9669 55.5064 16.7614C55.1501 16.5559 54.8684 16.2584 54.6612 15.869C54.4557 15.4795 54.353 15.008 54.353 14.4545C54.353 13.8994 54.4574 13.4271 54.6662 13.0376C54.875 12.6482 55.1584 12.3516 55.5163 12.1477C55.8743 11.9422 56.277 11.8395 56.7244 11.8395C57.0194 11.8395 57.2929 11.8809 57.5447 11.9638C57.7983 12.0466 58.0228 12.1676 58.2184 12.3267C58.4139 12.4841 58.573 12.6772 58.6957 12.9059C58.82 13.1346 58.8995 13.3964 58.9343 13.6914ZM59.7061 17V11.9091H60.7825V16.1126H62.965V17H59.7061ZM66.8224 11.9091H67.8987V15.2152C67.8987 15.5864 67.81 15.9112 67.6327 16.1896C67.4571 16.468 67.211 16.6851 66.8944 16.8409C66.5779 16.995 66.2092 17.0721 65.7883 17.0721C65.3657 17.0721 64.9961 16.995 64.6796 16.8409C64.3631 16.6851 64.117 16.468 63.9413 16.1896C63.7657 15.9112 63.6778 15.5864 63.6778 15.2152V11.9091H64.7542V15.1232C64.7542 15.3171 64.7964 15.4895 64.8809 15.6403C64.9671 15.7911 65.0881 15.9096 65.2439 15.9957C65.3997 16.0819 65.5811 16.125 65.7883 16.125C65.9971 16.125 66.1785 16.0819 66.3327 15.9957C66.4884 15.9096 66.6086 15.7911 66.6931 15.6403C66.7793 15.4895 66.8224 15.3171 66.8224 15.1232V11.9091ZM68.7843 17V11.9091H70.8226C71.1971 11.9091 71.5095 11.9646 71.7598 12.0756C72.01 12.1867 72.1981 12.3408 72.324 12.538C72.45 12.7335 72.513 12.9589 72.513 13.2141C72.513 13.413 72.4732 13.5878 72.3936 13.7386C72.3141 13.8878 72.2047 14.0104 72.0655 14.1065C71.928 14.201 71.7705 14.2681 71.5932 14.3079V14.3576C71.7871 14.3659 71.9686 14.4206 72.1376 14.5217C72.3083 14.6228 72.4467 14.7644 72.5527 14.9467C72.6588 15.1274 72.7118 15.3428 72.7118 15.593C72.7118 15.8632 72.6447 16.1043 72.5105 16.3164C72.3779 16.5269 72.1815 16.6934 71.9213 16.8161C71.6612 16.9387 71.3405 17 70.9593 17H68.7843ZM69.8606 16.12H70.7381C71.0381 16.12 71.2568 16.0629 71.3944 15.9485C71.5319 15.8325 71.6007 15.6784 71.6007 15.4862C71.6007 15.3453 71.5667 15.221 71.4988 15.1133C71.4308 15.0056 71.3339 14.921 71.2079 14.8597C71.0836 14.7984 70.9353 14.7678 70.763 14.7678H69.8606V16.12ZM69.8606 14.0394H70.6586C70.806 14.0394 70.937 14.0137 71.0513 13.9624C71.1673 13.9093 71.2585 13.8348 71.3248 13.7386C71.3927 13.6425 71.4267 13.5273 71.4267 13.3931C71.4267 13.2092 71.3612 13.0608 71.2303 12.9482C71.101 12.8355 70.9171 12.7791 70.6784 12.7791H69.8606V14.0394ZM76.837 17H75.0323V11.9091H76.8519C77.364 11.9091 77.8048 12.011 78.1744 12.2148C78.5439 12.417 78.8281 12.7079 79.027 13.0874C79.2275 13.4669 79.3278 13.9209 79.3278 14.4496C79.3278 14.9799 79.2275 15.4356 79.027 15.8168C78.8281 16.1979 78.5423 16.4904 78.1694 16.6942C77.7982 16.8981 77.354 17 76.837 17ZM76.1087 16.0778H76.7923C77.1104 16.0778 77.3781 16.0214 77.5952 15.9087C77.8139 15.7944 77.978 15.6179 78.0874 15.3793C78.1984 15.139 78.2539 14.8291 78.2539 14.4496C78.2539 14.0734 78.1984 13.766 78.0874 13.5273C77.978 13.2887 77.8147 13.113 77.5977 13.0004C77.3806 12.8877 77.1129 12.8313 76.7947 12.8313H76.1087V16.0778ZM82.1634 11.9091H83.2274V15.4588C83.2274 15.7869 83.1536 16.072 83.0061 16.3139C82.8603 16.5559 82.6573 16.7423 82.3971 16.8732C82.1369 17.0041 81.8345 17.0696 81.4898 17.0696C81.1832 17.0696 80.9048 17.0157 80.6546 16.908C80.406 16.7987 80.2088 16.6329 80.0629 16.4109C79.9171 16.1871 79.845 15.9062 79.8467 15.5682H80.9181C80.9214 15.7024 80.9487 15.8176 81.0001 15.9137C81.0531 16.0082 81.1252 16.0811 81.2164 16.1325C81.3092 16.1822 81.4185 16.207 81.5445 16.207C81.6771 16.207 81.7889 16.1789 81.8801 16.1225C81.9729 16.0645 82.0433 15.98 82.0914 15.869C82.1394 15.7579 82.1634 15.6212 82.1634 15.4588V11.9091Z" fill="white"/>
<defs>
<linearGradient id="paint0_linear_1933_86" x1="0" y1="28" x2="138.358" y2="1.89677" gradientUnits="userSpaceOnUse">
<stop stop-color="#3F0267"/>
<stop offset="1" stop-color="#9900FF"/>
</linearGradient>
</defs>
</svg>
