<svg width="155" height="29" viewBox="0 0 155 29" fill="none" xmlns="http://www.w3.org/2000/svg">
<path d="M0 7C0 3.13401 3.13401 0 7 0H150C152.761 0 155 2.23858 155 5V11C155 20.9411 146.941 29 137 29H7C3.13401 29 0 25.866 0 22V7Z" fill="url(#paint0_linear_2051_35)"/>
<path d="M85.9804 16.403L77.0231 24L68 16.403L70.8516 6M79.6577 12.292L83.1155 6.06844M83.1679 6.06844L86 16.3346M70.8979 6L74.3557 12.2236M74.3886 12.2965H79.6577" stroke="white" stroke-opacity="0.1" stroke-width="2" stroke-linecap="round" stroke-linejoin="round"/>
<path d="M35.0256 18L33.1562 15.5199H32.7358V18H31.5057V12.1818H32.7358V14.5057H32.983L34.9148 12.1818H36.446L34.1761 14.8807L36.5511 18H35.0256ZM37.7976 18.0795V17.0795H38.1129C38.2701 17.0795 38.397 17.0606 38.4936 17.0227C38.5902 16.983 38.6669 16.9252 38.7237 16.8494C38.7824 16.7718 38.8317 16.6752 38.8714 16.5597L38.9425 16.3693L36.8288 12.1818H38.1016L39.4709 15.0455L40.6158 12.1818H41.8714L39.8658 16.858C39.7692 17.0739 39.6546 17.2746 39.522 17.4602C39.3913 17.6458 39.2237 17.7955 39.0192 17.9091C38.8146 18.0227 38.5533 18.0795 38.2351 18.0795H37.7976ZM42.5369 18V12.1818H44.8324C45.2737 12.1818 45.6496 12.2661 45.9602 12.4347C46.2708 12.6013 46.5076 12.8333 46.6705 13.1307C46.8352 13.4261 46.9176 13.767 46.9176 14.1534C46.9176 14.5398 46.8343 14.8807 46.6676 15.1761C46.5009 15.4716 46.2595 15.7017 45.9432 15.8665C45.6288 16.0312 45.2481 16.1136 44.8011 16.1136H43.3381V15.1278H44.6023C44.839 15.1278 45.0341 15.0871 45.1875 15.0057C45.3428 14.9223 45.4583 14.8078 45.5341 14.6619C45.6117 14.5142 45.6506 14.3447 45.6506 14.1534C45.6506 13.9602 45.6117 13.7917 45.5341 13.6477C45.4583 13.5019 45.3428 13.3892 45.1875 13.3097C45.0322 13.2282 44.8352 13.1875 44.5966 13.1875H43.767V18H42.5369ZM48.0476 18H46.7294L48.7379 12.1818H50.3232L52.3288 18H51.0107L49.5533 13.5114H49.5078L48.0476 18ZM47.9652 15.7131H51.0788V16.6733H47.9652V15.7131ZM52.0966 13.196V12.1818H56.875V13.196H55.0938V18H53.8778V13.196H52.0966ZM62.7429 15.0909C62.7429 15.7254 62.6226 16.2652 62.3821 16.7102C62.1435 17.1553 61.8177 17.4953 61.4048 17.7301C60.9938 17.9631 60.5317 18.0795 60.0185 18.0795C59.5014 18.0795 59.0374 17.9621 58.6264 17.7273C58.2154 17.4924 57.8906 17.1525 57.652 16.7074C57.4134 16.2623 57.294 15.7235 57.294 15.0909C57.294 14.4564 57.4134 13.9167 57.652 13.4716C57.8906 13.0265 58.2154 12.6875 58.6264 12.4545C59.0374 12.2197 59.5014 12.1023 60.0185 12.1023C60.5317 12.1023 60.9938 12.2197 61.4048 12.4545C61.8177 12.6875 62.1435 13.0265 62.3821 13.4716C62.6226 13.9167 62.7429 14.4564 62.7429 15.0909ZM61.4957 15.0909C61.4957 14.6799 61.4342 14.3333 61.3111 14.0511C61.1899 13.7689 61.0185 13.5549 60.7969 13.4091C60.5753 13.2633 60.3158 13.1903 60.0185 13.1903C59.7211 13.1903 59.4616 13.2633 59.2401 13.4091C59.0185 13.5549 58.8461 13.7689 58.723 14.0511C58.6018 14.3333 58.5412 14.6799 58.5412 15.0909C58.5412 15.5019 58.6018 15.8485 58.723 16.1307C58.8461 16.4129 59.0185 16.6269 59.2401 16.7727C59.4616 16.9186 59.7211 16.9915 60.0185 16.9915C60.3158 16.9915 60.5753 16.9186 60.7969 16.7727C61.0185 16.6269 61.1899 16.4129 61.3111 16.1307C61.4342 15.8485 61.4957 15.5019 61.4957 15.0909ZM63.6541 18V12.1818H65.9496C66.3909 12.1818 66.7668 12.2661 67.0774 12.4347C67.388 12.6013 67.6248 12.8333 67.7876 13.1307C67.9524 13.4261 68.0348 13.767 68.0348 14.1534C68.0348 14.5398 67.9515 14.8807 67.7848 15.1761C67.6181 15.4716 67.3767 15.7017 67.0604 15.8665C66.746 16.0312 66.3653 16.1136 65.9183 16.1136H64.4553V15.1278H65.7195C65.9562 15.1278 66.1513 15.0871 66.3047 15.0057C66.46 14.9223 66.5755 14.8078 66.6513 14.6619C66.7289 14.5142 66.7678 14.3447 66.7678 14.1534C66.7678 13.9602 66.7289 13.7917 66.6513 13.6477C66.5755 13.5019 66.46 13.3892 66.3047 13.3097C66.1494 13.2282 65.9524 13.1875 65.7138 13.1875H64.8842V18H63.6541ZM70.6854 12.1818H72.2024L73.8047 16.0909H73.8729L75.4751 12.1818H76.9922V18H75.799V14.2131H75.7507L74.245 17.9716H73.4325L71.9268 14.1989H71.8786V18H70.6854V12.1818ZM83.3523 15.0909C83.3523 15.7254 83.232 16.2652 82.9915 16.7102C82.7528 17.1553 82.4271 17.4953 82.0142 17.7301C81.6032 17.9631 81.1411 18.0795 80.6278 18.0795C80.1108 18.0795 79.6468 17.9621 79.2358 17.7273C78.8248 17.4924 78.5 17.1525 78.2614 16.7074C78.0227 16.2623 77.9034 15.7235 77.9034 15.0909C77.9034 14.4564 78.0227 13.9167 78.2614 13.4716C78.5 13.0265 78.8248 12.6875 79.2358 12.4545C79.6468 12.2197 80.1108 12.1023 80.6278 12.1023C81.1411 12.1023 81.6032 12.2197 82.0142 12.4545C82.4271 12.6875 82.7528 13.0265 82.9915 13.4716C83.232 13.9167 83.3523 14.4564 83.3523 15.0909ZM82.1051 15.0909C82.1051 14.6799 82.0436 14.3333 81.9205 14.0511C81.7992 13.7689 81.6278 13.5549 81.4062 13.4091C81.1847 13.2633 80.9252 13.1903 80.6278 13.1903C80.3305 13.1903 80.071 13.2633 79.8494 13.4091C79.6278 13.5549 79.4555 13.7689 79.3324 14.0511C79.2112 14.3333 79.1506 14.6799 79.1506 15.0909C79.1506 15.5019 79.2112 15.8485 79.3324 16.1307C79.4555 16.4129 79.6278 16.6269 79.8494 16.7727C80.071 16.9186 80.3305 16.9915 80.6278 16.9915C80.9252 16.9915 81.1847 16.9186 81.4062 16.7727C81.6278 16.6269 81.7992 16.4129 81.9205 16.1307C82.0436 15.8485 82.1051 15.5019 82.1051 15.0909ZM83.9482 19.4034V17.0199H84.343C84.4775 16.9233 84.6006 16.7869 84.7124 16.6108C84.8241 16.4328 84.9197 16.1875 84.9993 15.875C85.0788 15.5606 85.1357 15.1496 85.1697 14.642L85.3345 12.1818H89.1839V17.0199H89.8203V19.3977H88.6385V18H85.13V19.4034H83.9482ZM85.7635 17.0199H88.0021V13.196H86.4425L86.3516 14.642C86.3269 15.0265 86.2862 15.3674 86.2294 15.6648C86.1745 15.9621 86.1072 16.2225 86.0277 16.446C85.95 16.6676 85.862 16.8589 85.7635 17.0199ZM90.5682 18V12.1818H94.4886V13.196H91.7983V14.5824H94.2869V15.5966H91.7983V16.9858H94.5V18H90.5682ZM95.4666 18V12.1818H97.7621C98.2034 12.1818 98.5793 12.2661 98.8899 12.4347C99.2005 12.6013 99.4373 12.8333 99.6001 13.1307C99.7649 13.4261 99.8473 13.767 99.8473 14.1534C99.8473 14.5398 99.764 14.8807 99.5973 15.1761C99.4306 15.4716 99.1892 15.7017 98.8729 15.8665C98.5585 16.0312 98.1778 16.1136 97.7308 16.1136H96.2678V15.1278H97.532C97.7687 15.1278 97.9638 15.0871 98.1172 15.0057C98.2725 14.9223 98.388 14.8078 98.4638 14.6619C98.5414 14.5142 98.5803 14.3447 98.5803 14.1534C98.5803 13.9602 98.5414 13.7917 98.4638 13.6477C98.388 13.5019 98.2725 13.3892 98.1172 13.3097C97.9619 13.2282 97.7649 13.1875 97.5263 13.1875H96.6967V18H95.4666ZM100.977 18H99.6591L101.668 12.1818H103.253L105.259 18H103.94L102.483 13.5114H102.438L100.977 18ZM100.895 15.7131H104.009V16.6733H100.895V15.7131ZM111.564 17.017L111.493 19.375H110.322V18H109.913V17.017H111.564ZM105.959 18V12.1818H107.141V17.0114H109.561V12.1818H110.757V18H105.959ZM112.31 12.1818H113.538V15.8409H113.586L116.1 12.1818H117.177V18H115.947V14.3381H115.904L113.376 18H112.31V12.1818ZM118.193 12.1818H119.42V15.8409H119.469L121.983 12.1818H123.06V18H121.83V14.3381H121.787L119.259 18H118.193V12.1818Z" fill="white"/>
<defs>
<linearGradient id="paint0_linear_2051_35" x1="0" y1="29" x2="154.467" y2="-2.60381" gradientUnits="userSpaceOnUse">
<stop stop-color="#280D61"/>
<stop offset="1" stop-color="#652DDB"/>
</linearGradient>
</defs>
</svg>
