<svg width="138" height="28" viewBox="0 0 138 28" fill="none" xmlns="http://www.w3.org/2000/svg">
<path d="M0 7C0 3.13401 3.13401 0 7 0H131C134.866 0 138 3.13401 138 7V10C138 19.9411 129.941 28 120 28H7C3.13401 28 0 24.866 0 21V7Z" fill="url(#paint0_linear_1933_91)"/>
<path d="M76.9825 15.2471L69.0206 22L61 15.2471L63.5348 6M71.3624 11.5929L74.436 6.06083M74.4826 6.06083L77 15.1863M63.5759 6L66.6495 11.5321M66.6788 11.5969H71.3624" stroke="white" stroke-opacity="0.4" stroke-width="2" stroke-linecap="round" stroke-linejoin="round"/>
<path d="M32.5224 17L30.8867 14.8299H30.5188V17H29.4425V11.9091H30.5188V13.9425H30.7351L32.4254 11.9091H33.7653L31.7791 14.2706L33.8572 17H32.5224ZM34.9479 17.0696V16.1946H35.2238C35.3614 16.1946 35.4724 16.178 35.5569 16.1449C35.6414 16.1101 35.7085 16.0595 35.7583 15.9933C35.8096 15.9253 35.8527 15.8408 35.8875 15.7397L35.9497 15.5732L34.1002 11.9091H35.2139L36.412 14.4148L37.4138 11.9091H38.5125L36.7575 16.0007C36.673 16.1896 36.5728 16.3653 36.4568 16.5277C36.3424 16.6901 36.1958 16.821 36.0168 16.9205C35.8378 17.0199 35.6091 17.0696 35.3307 17.0696H34.9479ZM39.0948 17V11.9091H41.1033C41.4895 11.9091 41.8184 11.9828 42.0902 12.1303C42.362 12.2762 42.5691 12.4792 42.7116 12.7393C42.8558 12.9979 42.9279 13.2962 42.9279 13.6342C42.9279 13.9723 42.855 14.2706 42.7092 14.5291C42.5633 14.7876 42.352 14.989 42.0753 15.1332C41.8002 15.2773 41.4671 15.3494 41.076 15.3494H39.7958V14.4869H40.902C41.1091 14.4869 41.2798 14.4512 41.4141 14.38C41.55 14.3071 41.651 14.2068 41.7173 14.0792C41.7853 13.9499 41.8192 13.8016 41.8192 13.6342C41.8192 13.4652 41.7853 13.3177 41.7173 13.1918C41.651 13.0642 41.55 12.9656 41.4141 12.896C41.2782 12.8247 41.1058 12.7891 40.897 12.7891H40.1712V17H39.0948ZM43.9166 17H42.7632L44.5207 11.9091H45.9078L47.6627 17H46.5093L45.2341 13.0724H45.1943L43.9166 17ZM43.8445 14.9989H46.569V15.8391H43.8445V14.9989ZM47.4595 12.7965V11.9091H51.6406V12.7965H50.082V17H49.0181V12.7965H47.4595ZM56.775 14.4545C56.775 15.0097 56.6698 15.482 56.4593 15.8714C56.2505 16.2609 55.9655 16.5584 55.6042 16.7638C55.2446 16.9677 54.8403 17.0696 54.3912 17.0696C53.9387 17.0696 53.5327 16.9669 53.1731 16.7614C52.8135 16.5559 52.5293 16.2584 52.3205 15.869C52.1117 15.4795 52.0073 15.008 52.0073 14.4545C52.0073 13.8994 52.1117 13.4271 52.3205 13.0376C52.5293 12.6482 52.8135 12.3516 53.1731 12.1477C53.5327 11.9422 53.9387 11.8395 54.3912 11.8395C54.8403 11.8395 55.2446 11.9422 55.6042 12.1477C55.9655 12.3516 56.2505 12.6482 56.4593 13.0376C56.6698 13.4271 56.775 13.8994 56.775 14.4545ZM55.6838 14.4545C55.6838 14.0949 55.6299 13.7917 55.5222 13.5447C55.4161 13.2978 55.2662 13.1106 55.0723 12.983C54.8784 12.8554 54.6513 12.7915 54.3912 12.7915C54.131 12.7915 53.9039 12.8554 53.71 12.983C53.5162 13.1106 53.3654 13.2978 53.2576 13.5447C53.1516 13.7917 53.0985 14.0949 53.0985 14.4545C53.0985 14.8142 53.1516 15.1174 53.2576 15.3643C53.3654 15.6113 53.5162 15.7985 53.71 15.9261C53.9039 16.0537 54.131 16.1175 54.3912 16.1175C54.6513 16.1175 54.8784 16.0537 55.0723 15.9261C55.2662 15.7985 55.4161 15.6113 55.5222 15.3643C55.6299 15.1174 55.6838 14.8142 55.6838 14.4545ZM57.5724 17V11.9091H59.5809C59.967 11.9091 60.296 11.9828 60.5677 12.1303C60.8395 12.2762 61.0467 12.4792 61.1892 12.7393C61.3334 12.9979 61.4055 13.2962 61.4055 13.6342C61.4055 13.9723 61.3325 14.2706 61.1867 14.5291C61.0409 14.7876 60.8296 14.989 60.5528 15.1332C60.2777 15.2773 59.9446 15.3494 59.5535 15.3494H58.2733V14.4869H59.3795C59.5867 14.4869 59.7574 14.4512 59.8916 14.38C60.0275 14.3071 60.1286 14.2068 60.1949 14.0792C60.2628 13.9499 60.2968 13.8016 60.2968 13.6342C60.2968 13.4652 60.2628 13.3177 60.1949 13.1918C60.1286 13.0642 60.0275 12.9656 59.8916 12.896C59.7557 12.8247 59.5834 12.7891 59.3746 12.7891H58.6487V17H57.5724ZM63.7247 11.9091H65.0521L66.4541 15.3295H66.5138L67.9157 11.9091H69.2432V17H68.1991V13.6864H68.1569L66.8394 16.9751H66.1285L64.811 13.674H64.7687V17H63.7247V11.9091ZM74.8082 14.4545C74.8082 15.0097 74.703 15.482 74.4925 15.8714C74.2837 16.2609 73.9987 16.5584 73.6374 16.7638C73.2778 16.9677 72.8735 17.0696 72.4244 17.0696C71.9719 17.0696 71.5659 16.9669 71.2063 16.7614C70.8467 16.5559 70.5625 16.2584 70.3537 15.869C70.1449 15.4795 70.0405 15.008 70.0405 14.4545C70.0405 13.8994 70.1449 13.4271 70.3537 13.0376C70.5625 12.6482 70.8467 12.3516 71.2063 12.1477C71.5659 11.9422 71.9719 11.8395 72.4244 11.8395C72.8735 11.8395 73.2778 11.9422 73.6374 12.1477C73.9987 12.3516 74.2837 12.6482 74.4925 13.0376C74.703 13.4271 74.8082 13.8994 74.8082 14.4545ZM73.717 14.4545C73.717 14.0949 73.6631 13.7917 73.5554 13.5447C73.4493 13.2978 73.2994 13.1106 73.1055 12.983C72.9116 12.8554 72.6845 12.7915 72.4244 12.7915C72.1642 12.7915 71.9371 12.8554 71.7433 12.983C71.5494 13.1106 71.3986 13.2978 71.2908 13.5447C71.1848 13.7917 71.1317 14.0949 71.1317 14.4545C71.1317 14.8142 71.1848 15.1174 71.2908 15.3643C71.3986 15.6113 71.5494 15.7985 71.7433 15.9261C71.9371 16.0537 72.1642 16.1175 72.4244 16.1175C72.6845 16.1175 72.9116 16.0537 73.1055 15.9261C73.2994 15.7985 73.4493 15.6113 73.5554 15.3643C73.6631 15.1174 73.717 14.8142 73.717 14.4545ZM75.3296 18.228V16.1424H75.6752C75.7928 16.0579 75.9005 15.9386 75.9983 15.7844C76.0961 15.6287 76.1798 15.4141 76.2494 15.1406C76.319 14.8655 76.3687 14.5059 76.3985 14.0618L76.5427 11.9091H79.911V16.1424H80.4678V18.223H79.4337V17H76.3637V18.228H75.3296ZM76.9181 16.1424H78.8769V12.7965H77.5122L77.4326 14.0618C77.4111 14.3982 77.3754 14.6965 77.3257 14.9567C77.2777 15.2169 77.2188 15.4447 77.1492 15.6403C77.0813 15.8342 77.0042 16.0015 76.9181 16.1424ZM81.1222 17V11.9091H84.5526V12.7965H82.1985V14.0096H84.3761V14.897H82.1985V16.1126H84.5625V17H81.1222ZM85.4083 17V11.9091H87.4168C87.8029 11.9091 88.1319 11.9828 88.4037 12.1303C88.6755 12.2762 88.8826 12.4792 89.0251 12.7393C89.1693 12.9979 89.2414 13.2962 89.2414 13.6342C89.2414 13.9723 89.1685 14.2706 89.0226 14.5291C88.8768 14.7876 88.6655 14.989 88.3888 15.1332C88.1137 15.2773 87.7806 15.3494 87.3895 15.3494H86.1093V14.4869H87.2155C87.4226 14.4869 87.5933 14.4512 87.7275 14.38C87.8634 14.3071 87.9645 14.2068 88.0308 14.0792C88.0988 13.9499 88.1327 13.8016 88.1327 13.6342C88.1327 13.4652 88.0988 13.3177 88.0308 13.1918C87.9645 13.0642 87.8634 12.9656 87.7275 12.896C87.5916 12.8247 87.4193 12.7891 87.2105 12.7891H86.4846V17H85.4083ZM90.2301 17H89.0767L90.8342 11.9091H92.2212L93.9762 17H92.8228L91.5476 13.0724H91.5078L90.2301 17ZM90.158 14.9989H92.8825V15.8391H90.158V14.9989ZM99.4934 16.1399L99.4313 18.2031H98.4071V17H98.0492V16.1399H99.4934ZM94.589 17V11.9091H95.623V16.1349H97.7409V11.9091H98.7875V17H94.589ZM100.147 11.9091H101.22V15.1108H101.263L103.463 11.9091H104.405V17H103.328V13.7958H103.291L101.079 17H100.147V11.9091ZM105.294 11.9091H106.368V15.1108H106.41L108.61 11.9091H109.552V17H108.476V13.7958H108.439L106.226 17H105.294V11.9091Z" fill="white"/>
<defs>
<linearGradient id="paint0_linear_1933_91" x1="0" y1="28" x2="138.358" y2="1.89677" gradientUnits="userSpaceOnUse">
<stop stop-color="#2A0E66"/>
<stop offset="1" stop-color="#652DDB"/>
</linearGradient>
</defs>
</svg>
