<svg width="138" height="28" viewBox="0 0 138 28" fill="none" xmlns="http://www.w3.org/2000/svg">
<path d="M0 7C0 3.13401 3.13401 0 7 0H131C134.866 0 138 3.13401 138 7V10C138 19.9411 129.941 28 120 28H7C3.13401 28 0 24.866 0 21V7Z" fill="url(#paint0_linear_1933_92)"/>
<path d="M76.9825 15.2471L69.0206 22L61 15.2471L63.5348 6M71.3624 11.5929L74.436 6.06083M74.4826 6.06083L77 15.1863M63.5759 6L66.6495 11.5321M66.6788 11.5969H71.3624" stroke="white" stroke-opacity="0.4" stroke-width="2" stroke-linecap="round" stroke-linejoin="round"/>
<path d="M18.2944 17.0696C17.9232 17.0696 17.5926 17.0058 17.3026 16.8782C17.0142 16.7489 16.7863 16.5716 16.619 16.3462C16.4532 16.1192 16.3679 15.8574 16.3629 15.5607H17.4467C17.4534 15.685 17.494 15.7944 17.5685 15.8888C17.6448 15.9817 17.7459 16.0537 17.8718 16.1051C17.9978 16.1565 18.1394 16.1822 18.2969 16.1822C18.4609 16.1822 18.6059 16.1532 18.7319 16.0952C18.8578 16.0372 18.9564 15.9568 19.0277 15.854C19.099 15.7513 19.1346 15.6328 19.1346 15.4986C19.1346 15.3627 19.0965 15.2425 19.0202 15.1381C18.9457 15.0321 18.8379 14.9492 18.6971 14.8896C18.5579 14.8299 18.3922 14.8001 18.1999 14.8001H17.7251V14.0096H18.1999C18.3623 14.0096 18.5057 13.9814 18.63 13.9251C18.7559 13.8687 18.8537 13.7908 18.9233 13.6914C18.9929 13.5903 19.0277 13.4727 19.0277 13.3384C19.0277 13.2108 18.997 13.099 18.9357 13.0028C18.8761 12.9051 18.7915 12.8288 18.6822 12.7741C18.5745 12.7195 18.4485 12.6921 18.3043 12.6921C18.1585 12.6921 18.0251 12.7186 17.9041 12.7717C17.7831 12.823 17.6862 12.8968 17.6133 12.9929C17.5404 13.089 17.5014 13.2017 17.4964 13.331H16.4648C16.4698 13.0376 16.5535 12.7791 16.7159 12.5554C16.8783 12.3317 17.0971 12.1568 17.3722 12.0309C17.6489 11.9033 17.9613 11.8395 18.3093 11.8395C18.6606 11.8395 18.968 11.9033 19.2315 12.0309C19.495 12.1585 19.6997 12.3308 19.8455 12.5479C19.993 12.7634 20.0659 13.0053 20.0643 13.2738C20.0659 13.5588 19.9773 13.7966 19.7983 13.9872C19.621 14.1778 19.3898 14.2988 19.1048 14.3501V14.3899C19.4793 14.438 19.7643 14.5681 19.9599 14.7802C20.1571 14.9906 20.2549 15.2541 20.2532 15.5707C20.2549 15.8607 20.1712 16.1184 20.0021 16.3438C19.8348 16.5691 19.6036 16.7464 19.3086 16.8757C19.0136 17.005 18.6755 17.0696 18.2944 17.0696ZM21.9342 17H20.7808L22.5383 11.9091H23.9253L25.6803 17H24.5269L23.2517 13.0724H23.2119L21.9342 17ZM21.8621 14.9989H24.5866V15.8391H21.8621V14.9989ZM26.2931 11.9091H27.6205L29.0225 15.3295H29.0821L30.4841 11.9091H31.8115V17H30.7675V13.6864H30.7252L29.4078 16.9751H28.6968L27.3794 13.674H27.3371V17H26.2931V11.9091ZM33.2974 17.0646C33.1333 17.0646 32.9925 17.0066 32.8748 16.8906C32.7588 16.773 32.7008 16.6321 32.7008 16.468C32.7008 16.3056 32.7588 16.1664 32.8748 16.0504C32.9925 15.9344 33.1333 15.8764 33.2974 15.8764C33.4565 15.8764 33.5957 15.9344 33.715 16.0504C33.8343 16.1664 33.894 16.3056 33.894 16.468C33.894 16.5774 33.8658 16.6777 33.8095 16.7688C33.7548 16.8583 33.6827 16.9304 33.5932 16.9851C33.5037 17.0381 33.4051 17.0646 33.2974 17.0646ZM38.1615 11.9091V12.7965H35.8596V17H34.7833V11.9091H38.1615ZM38.5748 17V16.1349L38.7189 16.1225C38.9045 16.1076 39.0545 16.0372 39.1689 15.9112C39.2832 15.7836 39.3685 15.5806 39.4249 15.3022C39.4829 15.0221 39.5202 14.646 39.5368 14.1737L39.6213 11.9091H43.0765V17H42.03V12.7717H40.6206L40.541 14.544C40.5145 15.1141 40.4466 15.5798 40.3372 15.9411C40.2295 16.3023 40.0571 16.5691 39.8201 16.7415C39.5848 16.9138 39.2625 17 38.8532 17H38.5748ZM44.8414 17H43.688L45.4455 11.9091H46.8326L48.5875 17H47.4341L46.1589 13.0724H46.1191L44.8414 17ZM44.7694 14.9989H47.4938V15.8391H44.7694V14.9989ZM49.2003 17V11.9091H51.2386C51.6132 11.9091 51.9255 11.9646 52.1758 12.0756C52.426 12.1867 52.6141 12.3408 52.7401 12.538C52.866 12.7335 52.929 12.9589 52.929 13.2141C52.929 13.413 52.8892 13.5878 52.8097 13.7386C52.7301 13.8878 52.6207 14.0104 52.4815 14.1065C52.344 14.201 52.1866 14.2681 52.0092 14.3079V14.3576C52.2031 14.3659 52.3846 14.4206 52.5536 14.5217C52.7243 14.6228 52.8627 14.7644 52.9688 14.9467C53.0748 15.1274 53.1278 15.3428 53.1278 15.593C53.1278 15.8632 53.0607 16.1043 52.9265 16.3164C52.7939 16.5269 52.5975 16.6934 52.3374 16.8161C52.0772 16.9387 51.7565 17 51.3754 17H49.2003ZM50.2766 16.12H51.1541C51.4541 16.12 51.6728 16.0629 51.8104 15.9485C51.9479 15.8325 52.0167 15.6784 52.0167 15.4862C52.0167 15.3453 51.9827 15.221 51.9148 15.1133C51.8468 15.0056 51.7499 14.921 51.6239 14.8597C51.4996 14.7984 51.3513 14.7678 51.179 14.7678H50.2766V16.12ZM50.2766 14.0394H51.0746C51.2221 14.0394 51.353 14.0137 51.4673 13.9624C51.5833 13.9093 51.6745 13.8348 51.7408 13.7386C51.8087 13.6425 51.8427 13.5273 51.8427 13.3931C51.8427 13.2092 51.7772 13.0608 51.6463 12.9482C51.517 12.8355 51.3331 12.7791 51.0945 12.7791H50.2766V14.0394ZM53.8282 17V11.9091H54.9046V14.0096H57.0896V11.9091H58.1634V17H57.0896V14.897H54.9046V17H53.8282ZM63.7291 14.4545C63.7291 15.0097 63.6239 15.482 63.4134 15.8714C63.2046 16.2609 62.9196 16.5584 62.5583 16.7638C62.1987 16.9677 61.7944 17.0696 61.3453 17.0696C60.8928 17.0696 60.4868 16.9669 60.1272 16.7614C59.7676 16.5559 59.4834 16.2584 59.2746 15.869C59.0658 15.4795 58.9614 15.008 58.9614 14.4545C58.9614 13.8994 59.0658 13.4271 59.2746 13.0376C59.4834 12.6482 59.7676 12.3516 60.1272 12.1477C60.4868 11.9422 60.8928 11.8395 61.3453 11.8395C61.7944 11.8395 62.1987 11.9422 62.5583 12.1477C62.9196 12.3516 63.2046 12.6482 63.4134 13.0376C63.6239 13.4271 63.7291 13.8994 63.7291 14.4545ZM62.6379 14.4545C62.6379 14.0949 62.584 13.7917 62.4763 13.5447C62.3702 13.2978 62.2203 13.1106 62.0264 12.983C61.8325 12.8554 61.6054 12.7915 61.3453 12.7915C61.0851 12.7915 60.858 12.8554 60.6642 12.983C60.4703 13.1106 60.3195 13.2978 60.2117 13.5447C60.1057 13.7917 60.0526 14.0949 60.0526 14.4545C60.0526 14.8142 60.1057 15.1174 60.2117 15.3643C60.3195 15.6113 60.4703 15.7985 60.6642 15.9261C60.858 16.0537 61.0851 16.1175 61.3453 16.1175C61.6054 16.1175 61.8325 16.0537 62.0264 15.9261C62.2203 15.7985 62.3702 15.6113 62.4763 15.3643C62.584 15.1174 62.6379 14.8142 62.6379 14.4545ZM67.9047 11.9091V12.7965H65.6028V17H64.5265V11.9091H67.9047ZM73.0397 14.4545C73.0397 15.0097 72.9345 15.482 72.724 15.8714C72.5152 16.2609 72.2301 16.5584 71.8689 16.7638C71.5093 16.9677 71.1049 17.0696 70.6558 17.0696C70.2034 17.0696 69.7974 16.9669 69.4378 16.7614C69.0782 16.5559 68.7939 16.2584 68.5851 15.869C68.3763 15.4795 68.2719 15.008 68.2719 14.4545C68.2719 13.8994 68.3763 13.4271 68.5851 13.0376C68.7939 12.6482 69.0782 12.3516 69.4378 12.1477C69.7974 11.9422 70.2034 11.8395 70.6558 11.8395C71.1049 11.8395 71.5093 11.9422 71.8689 12.1477C72.2301 12.3516 72.5152 12.6482 72.724 13.0376C72.9345 13.4271 73.0397 13.8994 73.0397 14.4545ZM71.9484 14.4545C71.9484 14.0949 71.8946 13.7917 71.7868 13.5447C71.6808 13.2978 71.5308 13.1106 71.3369 12.983C71.143 12.8554 70.916 12.7915 70.6558 12.7915C70.3956 12.7915 70.1686 12.8554 69.9747 12.983C69.7808 13.1106 69.63 13.2978 69.5223 13.5447C69.4162 13.7917 69.3632 14.0949 69.3632 14.4545C69.3632 14.8142 69.4162 15.1174 69.5223 15.3643C69.63 15.6113 69.7808 15.7985 69.9747 15.9261C70.1686 16.0537 70.3956 16.1175 70.6558 16.1175C70.916 16.1175 71.143 16.0537 71.3369 15.9261C71.5308 15.7985 71.6808 15.6113 71.7868 15.3643C71.8946 15.1174 71.9484 14.8142 71.9484 14.4545ZM73.837 11.9091H75.1644L76.5664 15.3295H76.6261L78.0281 11.9091H79.3555V17H78.3114V13.6864H78.2692L76.9517 16.9751H76.2408L74.9233 13.674H74.881V17H73.837V11.9091ZM84.9205 14.4545C84.9205 15.0097 84.8153 15.482 84.6048 15.8714C84.396 16.2609 84.111 16.5584 83.7497 16.7638C83.3901 16.9677 82.9858 17.0696 82.5367 17.0696C82.0843 17.0696 81.6782 16.9669 81.3186 16.7614C80.959 16.5559 80.6748 16.2584 80.466 15.869C80.2572 15.4795 80.1528 15.008 80.1528 14.4545C80.1528 13.8994 80.2572 13.4271 80.466 13.0376C80.6748 12.6482 80.959 12.3516 81.3186 12.1477C81.6782 11.9422 82.0843 11.8395 82.5367 11.8395C82.9858 11.8395 83.3901 11.9422 83.7497 12.1477C84.111 12.3516 84.396 12.6482 84.6048 13.0376C84.8153 13.4271 84.9205 13.8994 84.9205 14.4545ZM83.8293 14.4545C83.8293 14.0949 83.7754 13.7917 83.6677 13.5447C83.5616 13.2978 83.4117 13.1106 83.2178 12.983C83.0239 12.8554 82.7968 12.7915 82.5367 12.7915C82.2765 12.7915 82.0494 12.8554 81.8556 12.983C81.6617 13.1106 81.5109 13.2978 81.4031 13.5447C81.2971 13.7917 81.2441 14.0949 81.2441 14.4545C81.2441 14.8142 81.2971 15.1174 81.4031 15.3643C81.5109 15.6113 81.6617 15.7985 81.8556 15.9261C82.0494 16.0537 82.2765 16.1175 82.5367 16.1175C82.7968 16.1175 83.0239 16.0537 83.2178 15.9261C83.4117 15.7985 83.5616 15.6113 83.6677 15.3643C83.7754 15.1174 83.8293 14.8142 83.8293 14.4545ZM85.4419 18.228V16.1424H85.7875C85.9051 16.0579 86.0128 15.9386 86.1106 15.7844C86.2084 15.6287 86.2921 15.4141 86.3617 15.1406C86.4313 14.8655 86.481 14.5059 86.5108 14.0618L86.655 11.9091H90.0233V16.1424H90.5801V18.223H89.546V17H86.476V18.228H85.4419ZM87.0304 16.1424H88.9892V12.7965H87.6245L87.5449 14.0618C87.5234 14.3982 87.4877 14.6965 87.438 14.9567C87.39 15.2169 87.3311 15.4447 87.2615 15.6403C87.1936 15.8342 87.1165 16.0015 87.0304 16.1424ZM91.2345 17V11.9091H94.6649V12.7965H92.3108V14.0096H94.4884V14.897H92.3108V16.1126H94.6748V17H91.2345ZM95.5206 17V11.9091H97.5291C97.9152 11.9091 98.2442 11.9828 98.516 12.1303C98.7878 12.2762 98.9949 12.4792 99.1374 12.7393C99.2816 12.9979 99.3537 13.2962 99.3537 13.6342C99.3537 13.9723 99.2808 14.2706 99.1349 14.5291C98.9891 14.7876 98.7778 14.989 98.5011 15.1332C98.226 15.2773 97.8929 15.3494 97.5018 15.3494H96.2216V14.4869H97.3278C97.5349 14.4869 97.7056 14.4512 97.8398 14.38C97.9757 14.3071 98.0768 14.2068 98.1431 14.0792C98.2111 13.9499 98.245 13.8016 98.245 13.6342C98.245 13.4652 98.2111 13.3177 98.1431 13.1918C98.0768 13.0642 97.9757 12.9656 97.8398 12.896C97.704 12.8247 97.5316 12.7891 97.3228 12.7891H96.5969V17H95.5206ZM100.342 17H99.189L100.946 11.9091H102.334L104.089 17H102.935L101.66 13.0724H101.62L100.342 17ZM100.27 14.9989H102.995V15.8391H100.27V14.9989ZM103.885 12.7965V11.9091H108.066V12.7965H106.508V17H105.444V12.7965H103.885ZM113.201 14.4545C113.201 15.0097 113.096 15.482 112.885 15.8714C112.676 16.2609 112.391 16.5584 112.03 16.7638C111.67 16.9677 111.266 17.0696 110.817 17.0696C110.365 17.0696 109.959 16.9669 109.599 16.7614C109.239 16.5559 108.955 16.2584 108.746 15.869C108.537 15.4795 108.433 15.008 108.433 14.4545C108.433 13.8994 108.537 13.4271 108.746 13.0376C108.955 12.6482 109.239 12.3516 109.599 12.1477C109.959 11.9422 110.365 11.8395 110.817 11.8395C111.266 11.8395 111.67 11.9422 112.03 12.1477C112.391 12.3516 112.676 12.6482 112.885 13.0376C113.096 13.4271 113.201 13.8994 113.201 14.4545ZM112.11 14.4545C112.11 14.0949 112.056 13.7917 111.948 13.5447C111.842 13.2978 111.692 13.1106 111.498 12.983C111.304 12.8554 111.077 12.7915 110.817 12.7915C110.557 12.7915 110.33 12.8554 110.136 12.983C109.942 13.1106 109.791 13.2978 109.683 13.5447C109.577 13.7917 109.524 14.0949 109.524 14.4545C109.524 14.8142 109.577 15.1174 109.683 15.3643C109.791 15.6113 109.942 15.7985 110.136 15.9261C110.33 16.0537 110.557 16.1175 110.817 16.1175C111.077 16.1175 111.304 16.0537 111.498 15.9261C111.692 15.7985 111.842 15.6113 111.948 15.3643C112.056 15.1174 112.11 14.8142 112.11 14.4545ZM113.998 17V11.9091H116.007C116.393 11.9091 116.722 11.9828 116.994 12.1303C117.265 12.2762 117.472 12.4792 117.615 12.7393C117.759 12.9979 117.831 13.2962 117.831 13.6342C117.831 13.9723 117.758 14.2706 117.612 14.5291C117.467 14.7876 117.255 14.989 116.979 15.1332C116.704 15.2773 116.37 15.3494 115.979 15.3494H114.699V14.4869H115.805C116.012 14.4869 116.183 14.4512 116.317 14.38C116.453 14.3071 116.554 14.2068 116.621 14.0792C116.689 13.9499 116.723 13.8016 116.723 13.6342C116.723 13.4652 116.689 13.3177 116.621 13.1918C116.554 13.0642 116.453 12.9656 116.317 12.896C116.181 12.8247 116.009 12.7891 115.8 12.7891H115.074V17H113.998ZM118.82 17H117.667L119.424 11.9091H120.811L122.566 17H121.413L120.137 13.0724H120.098L118.82 17ZM118.748 14.9989H121.472V15.8391H118.748V14.9989Z" fill="white"/>
<defs>
<linearGradient id="paint0_linear_1933_92" x1="0" y1="28" x2="138.358" y2="1.89677" gradientUnits="userSpaceOnUse">
<stop stop-color="#707008"/>
<stop offset="1" stop-color="#FFFF00"/>
</linearGradient>
</defs>
</svg>
