<svg width="155" height="30" viewBox="0 0 155 30" fill="none" xmlns="http://www.w3.org/2000/svg">
<path d="M0 7C0 3.13401 3.13401 0 7 0H148C151.866 0 155 3.13401 155 7V12C155 21.9411 146.941 30 137 30H7C3.13401 30 0 26.866 0 23V7Z" fill="url(#paint0_linear_1933_97)"/>
<path d="M84.9825 16.2471L77.0206 23L69 16.2471L71.5348 7M79.3624 12.5929L82.436 7.06083M82.4826 7.06083L85 16.1863M71.5759 7L74.6495 12.5321M74.6788 12.5969H79.3624" stroke="white" stroke-opacity="0.4" stroke-width="2" stroke-linecap="round" stroke-linejoin="round"/>
<path d="M29.2841 13.196V12.1818H34.0625V13.196H32.2812V18H31.0653V13.196H29.2841ZM34.8494 18V12.1818H38.7699V13.196H36.0795V14.5824H38.5682V15.5966H36.0795V16.9858H38.7812V18H34.8494ZM40.9013 12.1818L42.0746 14.1648H42.12L43.299 12.1818H44.6882L42.9126 15.0909L44.728 18H43.3132L42.12 16.0142H42.0746L40.8814 18H39.4723L41.2933 15.0909L39.5064 12.1818H40.9013ZM46.1513 18.0739C45.9638 18.0739 45.8028 18.0076 45.6683 17.875C45.5357 17.7405 45.4695 17.5795 45.4695 17.392C45.4695 17.2064 45.5357 17.0473 45.6683 16.9148C45.8028 16.7822 45.9638 16.7159 46.1513 16.7159C46.3331 16.7159 46.4922 16.7822 46.6286 16.9148C46.7649 17.0473 46.8331 17.2064 46.8331 17.392C46.8331 17.517 46.8009 17.6316 46.7365 17.7358C46.674 17.8381 46.5916 17.9205 46.4893 17.983C46.3871 18.0436 46.2744 18.0739 46.1513 18.0739ZM48.8523 18H47.5341L49.5426 12.1818H51.1278L53.1335 18H51.8153L50.358 13.5114H50.3125L48.8523 18ZM48.7699 15.7131H51.8835V16.6733H48.7699V15.7131ZM53.5185 19.4034V17.0199H53.9134C54.0478 16.9233 54.1709 16.7869 54.2827 16.6108C54.3944 16.4328 54.4901 16.1875 54.5696 15.875C54.6491 15.5606 54.706 15.1496 54.7401 14.642L54.9048 12.1818H58.7543V17.0199H59.3906V19.3977H58.2088V18H54.7003V19.4034H53.5185ZM55.3338 17.0199H57.5724V13.196H56.0128L55.9219 14.642C55.8973 15.0265 55.8565 15.3674 55.7997 15.6648C55.7448 15.9621 55.6776 16.2225 55.598 16.446C55.5204 16.6676 55.4323 16.8589 55.3338 17.0199ZM60.1385 12.1818H61.6555L63.2578 16.0909H63.326L64.9283 12.1818H66.4453V18H65.2521V14.2131H65.2038L63.6982 17.9716H62.8857L61.38 14.1989H61.3317V18H60.1385V12.1818ZM67.4588 12.1818H68.6861V15.8409H68.7344L71.2486 12.1818H72.3253V18H71.0952V14.3381H71.0526L68.5241 18H67.4588V12.1818ZM73.3416 18V12.1818H74.5717V14.5824H77.0689V12.1818H78.2962V18H77.0689V15.5966H74.5717V18H73.3416ZM79.3104 12.1818H80.5376V15.8409H80.5859L83.1001 12.1818H84.1768V18H82.9467V14.3381H82.9041L80.3757 18H79.3104V12.1818ZM90.3267 14.2188H89.0824C89.0597 14.0578 89.0133 13.9148 88.9432 13.7898C88.8731 13.6629 88.7831 13.5549 88.6733 13.4659C88.5634 13.3769 88.4366 13.3087 88.2926 13.2614C88.1506 13.214 87.9962 13.1903 87.8295 13.1903C87.5284 13.1903 87.2661 13.2652 87.0426 13.4148C86.8191 13.5625 86.6458 13.7784 86.5227 14.0625C86.3996 14.3447 86.3381 14.6875 86.3381 15.0909C86.3381 15.5057 86.3996 15.8542 86.5227 16.1364C86.6477 16.4186 86.822 16.6316 87.0455 16.7756C87.2689 16.9195 87.5275 16.9915 87.821 16.9915C87.9858 16.9915 88.1383 16.9697 88.2784 16.9261C88.4205 16.8826 88.5464 16.8191 88.6562 16.7358C88.7661 16.6506 88.857 16.5473 88.929 16.4261C89.0028 16.3049 89.054 16.1667 89.0824 16.0114L90.3267 16.017C90.2945 16.2841 90.214 16.5417 90.0852 16.7898C89.9583 17.036 89.7869 17.2566 89.571 17.4517C89.357 17.6449 89.1013 17.7983 88.804 17.9119C88.5085 18.0237 88.1742 18.0795 87.8011 18.0795C87.2822 18.0795 86.8182 17.9621 86.4091 17.7273C86.0019 17.4924 85.6799 17.1525 85.4432 16.7074C85.2083 16.2623 85.0909 15.7235 85.0909 15.0909C85.0909 14.4564 85.2102 13.9167 85.4489 13.4716C85.6875 13.0265 86.0114 12.6875 86.4205 12.4545C86.8295 12.2197 87.2898 12.1023 87.8011 12.1023C88.1383 12.1023 88.4508 12.1496 88.7386 12.2443C89.0284 12.339 89.285 12.4773 89.5085 12.6591C89.732 12.839 89.9138 13.0597 90.054 13.321C90.196 13.5824 90.2869 13.8816 90.3267 14.2188ZM90.9872 13.196V12.1818H95.7656V13.196H93.9844V18H92.7685V13.196H90.9872ZM96.5526 18V12.1818H98.848C99.2893 12.1818 99.6652 12.2661 99.9759 12.4347C100.286 12.6013 100.523 12.8333 100.686 13.1307C100.851 13.4261 100.933 13.767 100.933 14.1534C100.933 14.5398 100.85 14.8807 100.683 15.1761C100.517 15.4716 100.275 15.7017 99.9588 15.8665C99.6444 16.0312 99.2637 16.1136 98.8168 16.1136H97.3537V15.1278H98.6179C98.8546 15.1278 99.0497 15.0871 99.2031 15.0057C99.3584 14.9223 99.474 14.8078 99.5497 14.6619C99.6274 14.5142 99.6662 14.3447 99.6662 14.1534C99.6662 13.9602 99.6274 13.7917 99.5497 13.6477C99.474 13.5019 99.3584 13.3892 99.2031 13.3097C99.0478 13.2282 98.8509 13.1875 98.6122 13.1875H97.7827V18H96.5526ZM102.063 18H100.745L102.754 12.1818H104.339L106.344 18H105.026L103.569 13.5114H103.523L102.063 18ZM101.981 15.7131H105.094V16.6733H101.981V15.7131ZM112.65 17.017L112.579 19.375H111.408V18H110.999V17.017H112.65ZM107.045 18V12.1818H108.227V17.0114H110.647V12.1818H111.843V18H107.045ZM113.396 12.1818H114.624V15.8409H114.672L117.186 12.1818H118.263V18H117.033V14.3381H116.99L114.462 18H113.396V12.1818ZM123.745 18H122.518V13.1875H121.688C121.451 13.1875 121.254 13.2225 121.097 13.2926C120.942 13.3608 120.826 13.4612 120.748 13.5938C120.67 13.7263 120.631 13.8892 120.631 14.0824C120.631 14.2737 120.67 14.4337 120.748 14.5625C120.826 14.6913 120.942 14.7879 121.097 14.8523C121.253 14.9167 121.448 14.9489 121.683 14.9489H123.018V15.9375H121.484C121.039 15.9375 120.658 15.8636 120.342 15.7159C120.025 15.5682 119.784 15.3561 119.617 15.0795C119.451 14.8011 119.367 14.4687 119.367 14.0824C119.367 13.6979 119.449 13.3636 119.612 13.0795C119.776 12.7936 120.014 12.5729 120.325 12.4176C120.637 12.2604 121.013 12.1818 121.452 12.1818H123.745V18ZM120.606 15.3523H121.933L120.518 18H119.16L120.606 15.3523Z" fill="white"/>
<defs>
<linearGradient id="paint0_linear_1933_97" x1="0" y1="30" x2="154.875" y2="-0.631034" gradientUnits="userSpaceOnUse">
<stop stop-color="#083F91"/>
<stop offset="1" stop-color="#00FFFF"/>
</linearGradient>
</defs>
</svg>
