<svg width="155" height="29" viewBox="0 0 155 29" fill="none" xmlns="http://www.w3.org/2000/svg">
<path d="M0 7C0 3.13401 3.13401 0 7 0H150C152.761 0 155 2.23858 155 5V11C155 20.9411 146.941 29 137 29H7C3.13401 29 0 25.866 0 22V7Z" fill="url(#paint0_linear_2051_59)"/>
<path d="M85.9804 16.403L77.0231 24L68 16.403L70.8516 6M79.6577 12.292L83.1155 6.06844M83.1679 6.06844L86 16.3346M70.8979 6L74.3557 12.2236M74.3886 12.2965H79.6577" stroke="white" stroke-opacity="0.1" stroke-width="2" stroke-linecap="round" stroke-linejoin="round"/>
<path d="M32.5057 12.1818H34.0227L35.625 16.0909H35.6932L37.2955 12.1818H38.8125V18H37.6193V14.2131H37.571L36.0653 17.9716H35.2528L33.7472 14.1989H33.6989V18H32.5057V12.1818ZM45.1726 15.0909C45.1726 15.7254 45.0523 16.2652 44.8118 16.7102C44.5732 17.1553 44.2474 17.4953 43.8345 17.7301C43.4235 17.9631 42.9614 18.0795 42.4482 18.0795C41.9311 18.0795 41.4671 17.9621 41.0561 17.7273C40.6451 17.4924 40.3203 17.1525 40.0817 16.7074C39.843 16.2623 39.7237 15.7235 39.7237 15.0909C39.7237 14.4564 39.843 13.9167 40.0817 13.4716C40.3203 13.0265 40.6451 12.6875 41.0561 12.4545C41.4671 12.2197 41.9311 12.1023 42.4482 12.1023C42.9614 12.1023 43.4235 12.2197 43.8345 12.4545C44.2474 12.6875 44.5732 13.0265 44.8118 13.4716C45.0523 13.9167 45.1726 14.4564 45.1726 15.0909ZM43.9254 15.0909C43.9254 14.6799 43.8639 14.3333 43.7408 14.0511C43.6196 13.7689 43.4482 13.5549 43.2266 13.4091C43.005 13.2633 42.7455 13.1903 42.4482 13.1903C42.1508 13.1903 41.8913 13.2633 41.6697 13.4091C41.4482 13.5549 41.2758 13.7689 41.1527 14.0511C41.0315 14.3333 40.9709 14.6799 40.9709 15.0909C40.9709 15.5019 41.0315 15.8485 41.1527 16.1307C41.2758 16.4129 41.4482 16.6269 41.6697 16.7727C41.8913 16.9186 42.1508 16.9915 42.4482 16.9915C42.7455 16.9915 43.005 16.9186 43.2266 16.7727C43.4482 16.6269 43.6196 16.4129 43.7408 16.1307C43.8639 15.8485 43.9254 15.5019 43.9254 15.0909ZM45.7685 19.4034V17.0199H46.1634C46.2978 16.9233 46.4209 16.7869 46.5327 16.6108C46.6444 16.4328 46.7401 16.1875 46.8196 15.875C46.8991 15.5606 46.956 15.1496 46.9901 14.642L47.1548 12.1818H51.0043V17.0199H51.6406V19.3977H50.4588V18H46.9503V19.4034H45.7685ZM47.5838 17.0199H49.8224V13.196H48.2628L48.1719 14.642C48.1473 15.0265 48.1065 15.3674 48.0497 15.6648C47.9948 15.9621 47.9276 16.2225 47.848 16.446C47.7704 16.6676 47.6823 16.8589 47.5838 17.0199ZM52.3885 18V12.1818H56.3089V13.196H53.6186V14.5824H56.1072V15.5966H53.6186V16.9858H56.3203V18H52.3885ZM57.2869 18V12.1818H59.5824C60.0237 12.1818 60.3996 12.2661 60.7102 12.4347C61.0208 12.6013 61.2576 12.8333 61.4205 13.1307C61.5852 13.4261 61.6676 13.767 61.6676 14.1534C61.6676 14.5398 61.5843 14.8807 61.4176 15.1761C61.2509 15.4716 61.0095 15.7017 60.6932 15.8665C60.3788 16.0312 59.9981 16.1136 59.5511 16.1136H58.0881V15.1278H59.3523C59.589 15.1278 59.7841 15.0871 59.9375 15.0057C60.0928 14.9223 60.2083 14.8078 60.2841 14.6619C60.3617 14.5142 60.4006 14.3447 60.4006 14.1534C60.4006 13.9602 60.3617 13.7917 60.2841 13.6477C60.2083 13.5019 60.0928 13.3892 59.9375 13.3097C59.7822 13.2282 59.5852 13.1875 59.3466 13.1875H58.517V18H57.2869ZM62.7976 18H61.4794L63.4879 12.1818H65.0732L67.0788 18H65.7607L64.3033 13.5114H64.2578L62.7976 18ZM62.7152 15.7131H65.8288V16.6733H62.7152V15.7131ZM66.8466 13.196V12.1818H71.625V13.196H69.8438V18H68.6278V13.196H66.8466ZM77.4929 15.0909C77.4929 15.7254 77.3726 16.2652 77.1321 16.7102C76.8935 17.1553 76.5677 17.4953 76.1548 17.7301C75.7438 17.9631 75.2817 18.0795 74.7685 18.0795C74.2514 18.0795 73.7874 17.9621 73.3764 17.7273C72.9654 17.4924 72.6406 17.1525 72.402 16.7074C72.1634 16.2623 72.044 15.7235 72.044 15.0909C72.044 14.4564 72.1634 13.9167 72.402 13.4716C72.6406 13.0265 72.9654 12.6875 73.3764 12.4545C73.7874 12.2197 74.2514 12.1023 74.7685 12.1023C75.2817 12.1023 75.7438 12.2197 76.1548 12.4545C76.5677 12.6875 76.8935 13.0265 77.1321 13.4716C77.3726 13.9167 77.4929 14.4564 77.4929 15.0909ZM76.2457 15.0909C76.2457 14.6799 76.1842 14.3333 76.0611 14.0511C75.9399 13.7689 75.7685 13.5549 75.5469 13.4091C75.3253 13.2633 75.0658 13.1903 74.7685 13.1903C74.4711 13.1903 74.2116 13.2633 73.9901 13.4091C73.7685 13.5549 73.5961 13.7689 73.473 14.0511C73.3518 14.3333 73.2912 14.6799 73.2912 15.0909C73.2912 15.5019 73.3518 15.8485 73.473 16.1307C73.5961 16.4129 73.7685 16.6269 73.9901 16.7727C74.2116 16.9186 74.4711 16.9915 74.7685 16.9915C75.0658 16.9915 75.3253 16.9186 75.5469 16.7727C75.7685 16.6269 75.9399 16.4129 76.0611 16.1307C76.1842 15.8485 76.2457 15.5019 76.2457 15.0909ZM78.4041 18V12.1818H80.6996C81.1409 12.1818 81.5168 12.2661 81.8274 12.4347C82.138 12.6013 82.3748 12.8333 82.5376 13.1307C82.7024 13.4261 82.7848 13.767 82.7848 14.1534C82.7848 14.5398 82.7015 14.8807 82.5348 15.1761C82.3681 15.4716 82.1267 15.7017 81.8104 15.8665C81.496 16.0312 81.1153 16.1136 80.6683 16.1136H79.2053V15.1278H80.4695C80.7062 15.1278 80.9013 15.0871 81.0547 15.0057C81.21 14.9223 81.3255 14.8078 81.4013 14.6619C81.4789 14.5142 81.5178 14.3447 81.5178 14.1534C81.5178 13.9602 81.4789 13.7917 81.4013 13.6477C81.3255 13.5019 81.21 13.3892 81.0547 13.3097C80.8994 13.2282 80.7024 13.1875 80.4638 13.1875H79.6342V18H78.4041ZM87.7365 12.8068H89.0376C89.5036 12.8068 89.9164 12.9053 90.2763 13.1023C90.638 13.2992 90.9212 13.5767 91.1257 13.9347C91.3321 14.2907 91.4354 14.7093 91.4354 15.1903C91.4354 15.6562 91.3321 16.0625 91.1257 16.4091C90.9212 16.7557 90.638 17.0256 90.2763 17.2188C89.9164 17.41 89.5036 17.5057 89.0376 17.5057H87.7365C87.2687 17.5057 86.8539 17.411 86.4922 17.2216C86.1304 17.0303 85.8464 16.7614 85.6399 16.4148C85.4354 16.0682 85.3331 15.6591 85.3331 15.1875C85.3331 14.7064 85.4363 14.2879 85.6428 13.9318C85.8511 13.5739 86.1361 13.2973 86.4979 13.1023C86.8596 12.9053 87.2725 12.8068 87.7365 12.8068ZM87.7365 13.8352C87.4865 13.8352 87.2659 13.8854 87.0746 13.9858C86.8852 14.0843 86.7375 14.2339 86.6314 14.4347C86.5253 14.6354 86.4723 14.8864 86.4723 15.1875C86.4723 15.4754 86.5263 15.715 86.6342 15.9062C86.7441 16.0975 86.8937 16.2405 87.0831 16.3352C87.2725 16.4299 87.4903 16.4773 87.7365 16.4773H89.0462C89.2943 16.4773 89.5111 16.429 89.6967 16.3324C89.8842 16.2358 90.0291 16.0919 90.1314 15.9006C90.2356 15.7093 90.2876 15.4725 90.2876 15.1903C90.2876 14.8892 90.2356 14.6383 90.1314 14.4375C90.0291 14.2367 89.8842 14.0862 89.6967 13.9858C89.5111 13.8854 89.2943 13.8352 89.0462 13.8352H87.7365ZM88.9695 12.0795V18.2386H87.8018V12.0795H88.9695ZM97.6882 15.0909C97.6882 15.7254 97.5679 16.2652 97.3274 16.7102C97.0888 17.1553 96.763 17.4953 96.3501 17.7301C95.9392 17.9631 95.477 18.0795 94.9638 18.0795C94.4467 18.0795 93.9827 17.9621 93.5717 17.7273C93.1607 17.4924 92.8359 17.1525 92.5973 16.7074C92.3587 16.2623 92.2393 15.7235 92.2393 15.0909C92.2393 14.4564 92.3587 13.9167 92.5973 13.4716C92.8359 13.0265 93.1607 12.6875 93.5717 12.4545C93.9827 12.2197 94.4467 12.1023 94.9638 12.1023C95.477 12.1023 95.9392 12.2197 96.3501 12.4545C96.763 12.6875 97.0888 13.0265 97.3274 13.4716C97.5679 13.9167 97.6882 14.4564 97.6882 15.0909ZM96.4411 15.0909C96.4411 14.6799 96.3795 14.3333 96.2564 14.0511C96.1352 13.7689 95.9638 13.5549 95.7422 13.4091C95.5206 13.2633 95.2611 13.1903 94.9638 13.1903C94.6664 13.1903 94.407 13.2633 94.1854 13.4091C93.9638 13.5549 93.7914 13.7689 93.6683 14.0511C93.5471 14.3333 93.4865 14.6799 93.4865 15.0909C93.4865 15.5019 93.5471 15.8485 93.6683 16.1307C93.7914 16.4129 93.9638 16.6269 94.1854 16.7727C94.407 16.9186 94.6664 16.9915 94.9638 16.9915C95.2611 16.9915 95.5206 16.9186 95.7422 16.7727C95.9638 16.6269 96.1352 16.4129 96.2564 16.1307C96.3795 15.8485 96.4411 15.5019 96.4411 15.0909ZM98.5994 18V12.1818H100.895C101.336 12.1818 101.712 12.2661 102.023 12.4347C102.333 12.6013 102.57 12.8333 102.733 13.1307C102.898 13.4261 102.98 13.767 102.98 14.1534C102.98 14.5398 102.897 14.8807 102.73 15.1761C102.563 15.4716 102.322 15.7017 102.006 15.8665C101.691 16.0312 101.311 16.1136 100.864 16.1136H99.4006V15.1278H100.665C100.902 15.1278 101.097 15.0871 101.25 15.0057C101.405 14.9223 101.521 14.8078 101.597 14.6619C101.674 14.5142 101.713 14.3447 101.713 14.1534C101.713 13.9602 101.674 13.7917 101.597 13.6477C101.521 13.5019 101.405 13.3892 101.25 13.3097C101.095 13.2282 100.898 13.1875 100.659 13.1875H99.8295V18H98.5994ZM104.407 18.0795V17.0795H104.722C104.879 17.0795 105.006 17.0606 105.103 17.0227C105.2 16.983 105.276 16.9252 105.333 16.8494C105.392 16.7718 105.441 16.6752 105.481 16.5597L105.552 16.3693L103.438 12.1818H104.711L106.08 15.0455L107.225 12.1818H108.481L106.475 16.858C106.379 17.0739 106.264 17.2746 106.131 17.4602C106.001 17.6458 105.833 17.7955 105.629 17.9091C105.424 18.0227 105.163 18.0795 104.844 18.0795H104.407ZM109.146 12.1818H110.663L112.266 16.0909H112.334L113.936 12.1818H115.453V18H114.26V14.2131H114.212L112.706 17.9716H111.893L110.388 14.1989H110.339V18H109.146V12.1818ZM117.469 18H116.151L118.16 12.1818H119.745L121.751 18H120.433L118.975 13.5114H118.93L117.469 18ZM117.387 15.7131H120.501V16.6733H117.387V15.7131Z" fill="white"/>
<defs>
<linearGradient id="paint0_linear_2051_59" x1="0" y1="29" x2="154.467" y2="-2.60381" gradientUnits="userSpaceOnUse">
<stop stop-color="#580A32"/>
<stop offset="1" stop-color="#E1579E"/>
</linearGradient>
</defs>
</svg>
