<svg width="138" height="28" viewBox="0 0 138 28" fill="none" xmlns="http://www.w3.org/2000/svg">
<path d="M0 7C0 3.13401 3.13401 0 7 0H131C134.866 0 138 3.13401 138 7V10C138 19.9411 129.941 28 120 28H7C3.13401 28 0 24.866 0 21V7Z" fill="url(#paint0_linear_1933_97)"/>
<path d="M76.9825 15.2471L69.0206 22L61 15.2471L63.5348 6M71.3624 11.5929L74.436 6.06083M74.4826 6.06083L77 15.1863M63.5759 6L66.6495 11.5321M66.6788 11.5969H71.3624" stroke="white" stroke-opacity="0.4" stroke-width="2" stroke-linecap="round" stroke-linejoin="round"/>
<path d="M27.2486 12.7965V11.9091H31.4297V12.7965H29.8711V17H28.8072V12.7965H27.2486ZM32.1183 17V11.9091H35.5487V12.7965H33.1946V14.0096H35.3722V14.897H33.1946V16.1126H35.5586V17H32.1183ZM37.4136 11.9091L38.4403 13.6442H38.48L39.5116 11.9091H40.7272L39.1736 14.4545L40.762 17H39.5241L38.48 15.2624H38.4403L37.3962 17H36.1633L37.7567 14.4545L36.1931 11.9091H37.4136ZM42.0074 17.0646C41.8433 17.0646 41.7024 17.0066 41.5848 16.8906C41.4688 16.773 41.4108 16.6321 41.4108 16.468C41.4108 16.3056 41.4688 16.1664 41.5848 16.0504C41.7024 15.9344 41.8433 15.8764 42.0074 15.8764C42.1665 15.8764 42.3057 15.9344 42.425 16.0504C42.5443 16.1664 42.604 16.3056 42.604 16.468C42.604 16.5774 42.5758 16.6777 42.5194 16.7688C42.4648 16.8583 42.3927 16.9304 42.3032 16.9851C42.2137 17.0381 42.1151 17.0646 42.0074 17.0646ZM44.3707 17H43.2173L44.9748 11.9091H46.3619L48.1168 17H46.9634L45.6882 13.0724H45.6484L44.3707 17ZM44.2987 14.9989H47.0231V15.8391H44.2987V14.9989ZM48.4537 18.228V16.1424H48.7992C48.9168 16.0579 49.0246 15.9386 49.1223 15.7844C49.2201 15.6287 49.3038 15.4141 49.3734 15.1406C49.443 14.8655 49.4927 14.5059 49.5225 14.0618L49.6667 11.9091H53.035V16.1424H53.5918V18.223H52.5577V17H49.4877V18.228H48.4537ZM50.0421 16.1424H52.0009V12.7965H50.6362L50.5566 14.0618C50.5351 14.3982 50.4995 14.6965 50.4498 14.9567C50.4017 15.2169 50.3429 15.4447 50.2733 15.6403C50.2053 15.8342 50.1283 16.0015 50.0421 16.1424ZM54.2462 11.9091H55.5736L56.9756 15.3295H57.0352L58.4372 11.9091H59.7646V17H58.7206V13.6864H58.6784L57.3609 16.9751H56.6499L55.3325 13.674H55.2902V17H54.2462V11.9091ZM60.6515 11.9091H61.7253V15.1108H61.7676L63.9675 11.9091H64.9096V17H63.8333V13.7958H63.796L61.5836 17H60.6515V11.9091ZM65.7989 17V11.9091H66.8753V14.0096H69.0603V11.9091H70.1341V17H69.0603V14.897H66.8753V17H65.7989ZM71.0216 11.9091H72.0954V15.1108H72.1377L74.3376 11.9091H75.2797V17H74.2034V13.7958H74.1661L71.9537 17H71.0216V11.9091ZM80.6609 13.6914H79.5721C79.5522 13.5505 79.5116 13.4254 79.4503 13.3161C79.389 13.205 79.3103 13.1106 79.2141 13.0327C79.118 12.9548 79.007 12.8951 78.881 12.8537C78.7567 12.8123 78.6217 12.7915 78.4759 12.7915C78.2124 12.7915 77.9828 12.857 77.7873 12.9879C77.5917 13.1172 77.4401 13.3061 77.3324 13.5547C77.2247 13.8016 77.1708 14.1016 77.1708 14.4545C77.1708 14.8175 77.2247 15.1224 77.3324 15.3693C77.4418 15.6162 77.5942 15.8027 77.7898 15.9286C77.9853 16.0546 78.2115 16.1175 78.4684 16.1175C78.6126 16.1175 78.746 16.0985 78.8686 16.0604C78.9929 16.0223 79.1031 15.9667 79.1992 15.8938C79.2953 15.8192 79.3749 15.7289 79.4379 15.6229C79.5025 15.5168 79.5472 15.3958 79.5721 15.2599L80.6609 15.2649C80.6327 15.4986 80.5623 15.724 80.4496 15.9411C80.3385 16.1565 80.1886 16.3496 79.9996 16.5202C79.8124 16.6893 79.5887 16.8235 79.3285 16.9229C79.07 17.0207 78.7775 17.0696 78.451 17.0696C77.9969 17.0696 77.5909 16.9669 77.233 16.7614C76.8767 16.5559 76.5949 16.2584 76.3878 15.869C76.1823 15.4795 76.0795 15.008 76.0795 14.4545C76.0795 13.8994 76.1839 13.4271 76.3928 13.0376C76.6016 12.6482 76.8849 12.3516 77.2429 12.1477C77.6009 11.9422 78.0036 11.8395 78.451 11.8395C78.746 11.8395 79.0194 11.8809 79.2713 11.9638C79.5249 12.0466 79.7494 12.1676 79.945 12.3267C80.1405 12.4841 80.2996 12.6772 80.4222 12.9059C80.5465 13.1346 80.6261 13.3964 80.6609 13.6914ZM81.2388 12.7965V11.9091H85.4199V12.7965H83.8613V17H82.7974V12.7965H81.2388ZM86.1085 17V11.9091H88.117C88.5031 11.9091 88.8321 11.9828 89.1039 12.1303C89.3757 12.2762 89.5828 12.4792 89.7253 12.7393C89.8695 12.9979 89.9416 13.2962 89.9416 13.6342C89.9416 13.9723 89.8687 14.2706 89.7228 14.5291C89.577 14.7876 89.3657 14.989 89.089 15.1332C88.8139 15.2773 88.4808 15.3494 88.0897 15.3494H86.8095V14.4869H87.9157C88.1228 14.4869 88.2935 14.4512 88.4277 14.38C88.5636 14.3071 88.6647 14.2068 88.731 14.0792C88.7989 13.9499 88.8329 13.8016 88.8329 13.6342C88.8329 13.4652 88.7989 13.3177 88.731 13.1918C88.6647 13.0642 88.5636 12.9656 88.4277 12.896C88.2918 12.8247 88.1195 12.7891 87.9107 12.7891H87.1848V17H86.1085ZM90.9303 17H89.7769L91.5344 11.9091H92.9214L94.6764 17H93.523L92.2478 13.0724H92.208L90.9303 17ZM90.8582 14.9989H93.5827V15.8391H90.8582V14.9989ZM100.194 16.1399L100.131 18.2031H99.1073V17H98.7494V16.1399H100.194ZM95.2892 17V11.9091H96.3232V16.1349H98.4411V11.9091H99.4877V17H95.2892ZM100.847 11.9091H101.921V15.1108H101.963L104.163 11.9091H105.105V17H104.029V13.7958H103.991L101.779 17H100.847V11.9091ZM109.902 17H108.828V12.7891H108.102C107.895 12.7891 107.723 12.8197 107.585 12.881C107.449 12.9407 107.347 13.0285 107.279 13.1445C107.211 13.2605 107.177 13.4031 107.177 13.5721C107.177 13.7395 107.211 13.8795 107.279 13.9922C107.347 14.1049 107.449 14.1894 107.585 14.2457C107.721 14.3021 107.892 14.3303 108.097 14.3303H109.266V15.1953H107.923C107.534 15.1953 107.201 15.1307 106.924 15.0014C106.647 14.8722 106.436 14.6866 106.29 14.4446C106.144 14.201 106.071 13.9102 106.071 13.5721C106.071 13.2357 106.143 12.9432 106.285 12.6946C106.429 12.4444 106.637 12.2513 106.909 12.1154C107.182 11.9779 107.511 11.9091 107.896 11.9091H109.902V17ZM107.155 14.6832H108.316L107.078 17H105.89L107.155 14.6832Z" fill="white"/>
<defs>
<linearGradient id="paint0_linear_1933_97" x1="0" y1="28" x2="138.358" y2="1.89677" gradientUnits="userSpaceOnUse">
<stop stop-color="#083F91"/>
<stop offset="1" stop-color="#00FFFF"/>
</linearGradient>
</defs>
</svg>
