<svg width="138" height="28" viewBox="0 0 138 28" fill="none" xmlns="http://www.w3.org/2000/svg">
<path d="M0 7C0 3.13401 3.13401 0 7 0H131C134.866 0 138 3.13401 138 7V10C138 19.9411 129.941 28 120 28H7C3.13401 28 0 24.866 0 21V7Z" fill="url(#paint0_linear_1933_98)"/>
<path d="M76.9825 15.2471L69.0206 22L61 15.2471L63.5348 6M71.3624 11.5929L74.436 6.06083M74.4826 6.06083L77 15.1863M63.5759 6L66.6495 11.5321M66.6788 11.5969H71.3624" stroke="white" stroke-opacity="0.2" stroke-width="2" stroke-linecap="round" stroke-linejoin="round"/>
<path d="M36.32 17H35.1665L36.924 11.9091H38.3111L40.0661 17H38.9126L37.6374 13.0724H37.5977L36.32 17ZM36.2479 14.9989H38.9723V15.8391H36.2479V14.9989ZM40.4029 18.228V16.1424H40.7484C40.8661 16.0579 40.9738 15.9386 41.0716 15.7844C41.1693 15.6287 41.253 15.4141 41.3226 15.1406C41.3922 14.8655 41.4419 14.5059 41.4718 14.0618L41.6159 11.9091H44.9842V16.1424H45.541V18.223H44.5069V17H41.437V18.228H40.4029ZM41.9913 16.1424H43.9501V12.7965H42.5854L42.5059 14.0618C42.4843 14.3982 42.4487 14.6965 42.399 14.9567C42.3509 15.2169 42.2921 15.4447 42.2225 15.6403C42.1545 15.8342 42.0775 16.0015 41.9913 16.1424ZM46.1954 11.9091H47.5228L48.9248 15.3295H48.9845L50.3865 11.9091H51.7139V17H50.6698V13.6864H50.6276L49.3101 16.9751H48.5992L47.2817 13.674H47.2394V17H46.1954V11.9091ZM52.6007 11.9091H53.6745V15.1108H53.7168L55.9167 11.9091H56.8588V17H55.7825V13.7958H55.7452L53.5328 17H52.6007V11.9091ZM57.7481 17V11.9091H58.8245V14.0096H61.0095V11.9091H62.0834V17H61.0095V14.897H58.8245V17H57.7481ZM62.9708 11.9091H64.0447V15.1108H64.0869L66.2868 11.9091H67.229V17H66.1526V13.7958H66.1153L63.903 17H62.9708V11.9091ZM72.6101 13.6914H71.5213C71.5014 13.5505 71.4608 13.4254 71.3995 13.3161C71.3382 13.205 71.2595 13.1106 71.1634 13.0327C71.0672 12.9548 70.9562 12.8951 70.8303 12.8537C70.706 12.8123 70.5709 12.7915 70.4251 12.7915C70.1616 12.7915 69.9321 12.857 69.7365 12.9879C69.541 13.1172 69.3893 13.3061 69.2816 13.5547C69.1739 13.8016 69.12 14.1016 69.12 14.4545C69.12 14.8175 69.1739 15.1224 69.2816 15.3693C69.391 15.6162 69.5434 15.8027 69.739 15.9286C69.9345 16.0546 70.1607 16.1175 70.4176 16.1175C70.5618 16.1175 70.6952 16.0985 70.8178 16.0604C70.9421 16.0223 71.0523 15.9667 71.1484 15.8938C71.2446 15.8192 71.3241 15.7289 71.3871 15.6229C71.4517 15.5168 71.4964 15.3958 71.5213 15.2599L72.6101 15.2649C72.5819 15.4986 72.5115 15.724 72.3988 15.9411C72.2878 16.1565 72.1378 16.3496 71.9489 16.5202C71.7616 16.6893 71.5379 16.8235 71.2777 16.9229C71.0192 17.0207 70.7267 17.0696 70.4002 17.0696C69.9461 17.0696 69.5401 16.9669 69.1822 16.7614C68.8259 16.5559 68.5442 16.2584 68.337 15.869C68.1315 15.4795 68.0288 15.008 68.0288 14.4545C68.0288 13.8994 68.1332 13.4271 68.342 13.0376C68.5508 12.6482 68.8342 12.3516 69.1921 12.1477C69.5501 11.9422 69.9528 11.8395 70.4002 11.8395C70.6952 11.8395 70.9686 11.8809 71.2205 11.9638C71.4741 12.0466 71.6986 12.1676 71.8942 12.3267C72.0897 12.4841 72.2488 12.6772 72.3714 12.9059C72.4957 13.1346 72.5753 13.3964 72.6101 13.6914ZM73.188 12.7965V11.9091H77.3691V12.7965H75.8105V17H74.7466V12.7965H73.188ZM78.0577 17V11.9091H80.0662C80.4524 11.9091 80.7813 11.9828 81.0531 12.1303C81.3249 12.2762 81.532 12.4792 81.6745 12.7393C81.8187 12.9979 81.8908 13.2962 81.8908 13.6342C81.8908 13.9723 81.8179 14.2706 81.6721 14.5291C81.5262 14.7876 81.3149 14.989 81.0382 15.1332C80.7631 15.2773 80.43 15.3494 80.0389 15.3494H78.7587V14.4869H79.8649C80.072 14.4869 80.2427 14.4512 80.377 14.38C80.5128 14.3071 80.6139 14.2068 80.6802 14.0792C80.7482 13.9499 80.7821 13.8016 80.7821 13.6342C80.7821 13.4652 80.7482 13.3177 80.6802 13.1918C80.6139 13.0642 80.5128 12.9656 80.377 12.896C80.2411 12.8247 80.0687 12.7891 79.8599 12.7891H79.1341V17H78.0577ZM82.8795 17H81.7261L83.4836 11.9091H84.8706L86.6256 17H85.4722L84.197 13.0724H84.1572L82.8795 17ZM82.8074 14.9989H85.5319V15.8391H82.8074V14.9989ZM92.1428 16.1399L92.0807 18.2031H91.0566V17H90.6986V16.1399H92.1428ZM87.2384 17V11.9091H88.2725V16.1349H90.3904V11.9091H91.4369V17H87.2384ZM92.796 11.9091H93.8699V15.1108H93.9121L96.112 11.9091H97.0542V17H95.9778V13.7958H95.9405L93.7282 17H92.796V11.9091ZM101.851 17H100.777V12.7891H100.051C99.8443 12.7891 99.6719 12.8197 99.5344 12.881C99.3985 12.9407 99.2965 13.0285 99.2286 13.1445C99.1607 13.2605 99.1267 13.4031 99.1267 13.5721C99.1267 13.7395 99.1607 13.8795 99.2286 13.9922C99.2965 14.1049 99.3985 14.1894 99.5344 14.2457C99.6702 14.3021 99.8409 14.3303 100.046 14.3303H101.215V15.1953H99.8724C99.483 15.1953 99.1499 15.1307 98.8731 15.0014C98.5964 14.8722 98.3851 14.6866 98.2393 14.4446C98.0934 14.201 98.0205 13.9102 98.0205 13.5721C98.0205 13.2357 98.0918 12.9432 98.2343 12.6946C98.3785 12.4444 98.5864 12.2513 98.8582 12.1154C99.1317 11.9779 99.4606 11.9091 99.8451 11.9091H101.851V17ZM99.1043 14.6832H100.265L99.0273 17H97.839L99.1043 14.6832Z" fill="white"/>
<defs>
<linearGradient id="paint0_linear_1933_98" x1="0" y1="28" x2="138.358" y2="1.89677" gradientUnits="userSpaceOnUse">
<stop stop-color="#A90303"/>
<stop offset="1" stop-color="#F11111"/>
</linearGradient>
</defs>
</svg>
