<svg width="138" height="28" viewBox="0 0 138 28" fill="none" xmlns="http://www.w3.org/2000/svg">
<path d="M0 7C0 3.13401 3.13401 0 7 0H131C134.866 0 138 3.13401 138 7V10C138 19.9411 129.941 28 120 28H7C3.13401 28 0 24.866 0 21V7Z" fill="url(#paint0_linear_1933_94)"/>
<path d="M76.9825 15.2471L69.0206 22L61 15.2471L63.5348 6M71.3624 11.5929L74.436 6.06083M74.4826 6.06083L77 15.1863M63.5759 6L66.6495 11.5321M66.6788 11.5969H71.3624" stroke="white" stroke-opacity="0.4" stroke-width="2" stroke-linecap="round" stroke-linejoin="round"/>
<path d="M18.4425 11.9091H19.5163V15.1108H19.5586L21.7585 11.9091H22.7006V17H21.6243V13.7958H21.587L19.3746 17H18.4425V11.9091ZM26.9681 11.9091V12.7965H24.6663V17H23.5899V11.9091H26.9681ZM27.6573 17V11.9091H29.6658C30.052 11.9091 30.3809 11.9828 30.6527 12.1303C30.9245 12.2762 31.1316 12.4792 31.2741 12.7393C31.4183 12.9979 31.4904 13.2962 31.4904 13.6342C31.4904 13.9723 31.4175 14.2706 31.2717 14.5291C31.1258 14.7876 30.9145 14.989 30.6378 15.1332C30.3627 15.2773 30.0296 15.3494 29.6385 15.3494H28.3583V14.4869H29.4645C29.6716 14.4869 29.8423 14.4512 29.9766 14.38C30.1125 14.3071 30.2135 14.2068 30.2798 14.0792C30.3478 13.9499 30.3817 13.8016 30.3817 13.6342C30.3817 13.4652 30.3478 13.3177 30.2798 13.1918C30.2135 13.0642 30.1125 12.9656 29.9766 12.896C29.8407 12.8247 29.6683 12.7891 29.4595 12.7891H28.7337V17H27.6573ZM36.8678 14.4545C36.8678 15.0097 36.7626 15.482 36.5521 15.8714C36.3433 16.2609 36.0583 16.5584 35.697 16.7638C35.3374 16.9677 34.933 17.0696 34.4839 17.0696C34.0315 17.0696 33.6255 16.9669 33.2659 16.7614C32.9063 16.5559 32.6221 16.2584 32.4133 15.869C32.2045 15.4795 32.1001 15.008 32.1001 14.4545C32.1001 13.8994 32.2045 13.4271 32.4133 13.0376C32.6221 12.6482 32.9063 12.3516 33.2659 12.1477C33.6255 11.9422 34.0315 11.8395 34.4839 11.8395C34.933 11.8395 35.3374 11.9422 35.697 12.1477C36.0583 12.3516 36.3433 12.6482 36.5521 13.0376C36.7626 13.4271 36.8678 13.8994 36.8678 14.4545ZM35.7765 14.4545C35.7765 14.0949 35.7227 13.7917 35.615 13.5447C35.5089 13.2978 35.3589 13.1106 35.165 12.983C34.9711 12.8554 34.7441 12.7915 34.4839 12.7915C34.2238 12.7915 33.9967 12.8554 33.8028 12.983C33.6089 13.1106 33.4581 13.2978 33.3504 13.5447C33.2443 13.7917 33.1913 14.0949 33.1913 14.4545C33.1913 14.8142 33.2443 15.1174 33.3504 15.3643C33.4581 15.6113 33.6089 15.7985 33.8028 15.9261C33.9967 16.0537 34.2238 16.1175 34.4839 16.1175C34.7441 16.1175 34.9711 16.0537 35.165 15.9261C35.3589 15.7985 35.5089 15.6113 35.615 15.3643C35.7227 15.1174 35.7765 14.8142 35.7765 14.4545ZM37.6651 17V11.9091H39.7035C40.078 11.9091 40.3904 11.9646 40.6406 12.0756C40.8909 12.1867 41.079 12.3408 41.2049 12.538C41.3308 12.7335 41.3938 12.9589 41.3938 13.2141C41.3938 13.413 41.354 13.5878 41.2745 13.7386C41.195 13.8878 41.0856 14.0104 40.9464 14.1065C40.8088 14.201 40.6514 14.2681 40.4741 14.3079V14.3576C40.668 14.3659 40.8494 14.4206 41.0185 14.5217C41.1892 14.6228 41.3275 14.7644 41.4336 14.9467C41.5397 15.1274 41.5927 15.3428 41.5927 15.593C41.5927 15.8632 41.5256 16.1043 41.3913 16.3164C41.2588 16.5269 41.0624 16.6934 40.8022 16.8161C40.542 16.9387 40.2214 17 39.8402 17H37.6651ZM38.7415 16.12H39.619C39.9189 16.12 40.1377 16.0629 40.2752 15.9485C40.4128 15.8325 40.4815 15.6784 40.4815 15.4862C40.4815 15.3453 40.4476 15.221 40.3796 15.1133C40.3117 15.0056 40.2147 14.921 40.0888 14.8597C39.9645 14.7984 39.8162 14.7678 39.6438 14.7678H38.7415V16.12ZM38.7415 14.0394H39.5394C39.6869 14.0394 39.8178 14.0137 39.9322 13.9624C40.0482 13.9093 40.1393 13.8348 40.2056 13.7386C40.2736 13.6425 40.3075 13.5273 40.3075 13.3931C40.3075 13.2092 40.2421 13.0608 40.1112 12.9482C39.9819 12.8355 39.7979 12.7791 39.5593 12.7791H38.7415V14.0394ZM43.1705 17H42.0171L43.7746 11.9091H45.1617L46.9166 17H45.7632L44.488 13.0724H44.4482L43.1705 17ZM43.0985 14.9989H45.8229V15.8391H43.0985V14.9989ZM51.4371 17H50.3632V12.7891H49.6373C49.4302 12.7891 49.2578 12.8197 49.1203 12.881C48.9844 12.9407 48.8825 13.0285 48.8145 13.1445C48.7466 13.2605 48.7126 13.4031 48.7126 13.5721C48.7126 13.7395 48.7466 13.8795 48.8145 13.9922C48.8825 14.1049 48.9844 14.1894 49.1203 14.2457C49.2562 14.3021 49.4269 14.3303 49.6324 14.3303H50.8007V15.1953H49.4584C49.0689 15.1953 48.7358 15.1307 48.4591 15.0014C48.1823 14.8722 47.971 14.6866 47.8252 14.4446C47.6794 14.201 47.6064 13.9102 47.6064 13.5721C47.6064 13.2357 47.6777 12.9432 47.8202 12.6946C47.9644 12.4444 48.1724 12.2513 48.4442 12.1154C48.7176 11.9779 49.0465 11.9091 49.431 11.9091H51.4371V17ZM48.6903 14.6832H49.8511L48.6132 17H47.425L48.6903 14.6832ZM54.819 17H53.6656L55.423 11.9091H56.8101L58.5651 17H57.4117L56.1365 13.0724H56.0967L54.819 17ZM54.7469 14.9989H57.4713V15.8391H54.7469V14.9989ZM58.9019 18.228V16.1424H59.2474C59.3651 16.0579 59.4728 15.9386 59.5706 15.7844C59.6684 15.6287 59.752 15.4141 59.8216 15.1406C59.8912 14.8655 59.941 14.5059 59.9708 14.0618L60.115 11.9091H63.4832V16.1424H64.04V18.223H63.0059V17H59.936V18.228H58.9019ZM60.4903 16.1424H62.4491V12.7965H61.0844L61.0049 14.0618C60.9833 14.3982 60.9477 14.6965 60.898 14.9567C60.8499 15.2169 60.7911 15.4447 60.7215 15.6403C60.6536 15.8342 60.5765 16.0015 60.4903 16.1424ZM64.6944 11.9091H66.0218L67.4238 15.3295H67.4835L68.8855 11.9091H70.2129V17H69.1689V13.6864H69.1266L67.8091 16.9751H67.0982L65.7807 13.674H65.7385V17H64.6944V11.9091ZM71.0997 11.9091H72.1736V15.1108H72.2158L74.4157 11.9091H75.3579V17H74.2815V13.7958H74.2442L72.0319 17H71.0997V11.9091ZM76.2472 17V11.9091H77.3235V14.0096H79.5085V11.9091H80.5824V17H79.5085V14.897H77.3235V17H76.2472ZM81.4698 11.9091H82.5437V15.1108H82.5859L84.7859 11.9091H85.728V17H84.6516V13.7958H84.6143L82.402 17H81.4698V11.9091ZM91.1091 13.6914H90.0203C90.0004 13.5505 89.9598 13.4254 89.8985 13.3161C89.8372 13.205 89.7585 13.1106 89.6624 13.0327C89.5663 12.9548 89.4552 12.8951 89.3293 12.8537C89.205 12.8123 89.0699 12.7915 88.9241 12.7915C88.6606 12.7915 88.4311 12.857 88.2355 12.9879C88.04 13.1172 87.8883 13.3061 87.7806 13.5547C87.6729 13.8016 87.6191 14.1016 87.6191 14.4545C87.6191 14.8175 87.6729 15.1224 87.7806 15.3693C87.89 15.6162 88.0425 15.8027 88.238 15.9286C88.4336 16.0546 88.6598 16.1175 88.9166 16.1175C89.0608 16.1175 89.1942 16.0985 89.3169 16.0604C89.4411 16.0223 89.5513 15.9667 89.6475 15.8938C89.7436 15.8192 89.8231 15.7289 89.8861 15.6229C89.9507 15.5168 89.9955 15.3958 90.0203 15.2599L91.1091 15.2649C91.0809 15.4986 91.0105 15.724 90.8978 15.9411C90.7868 16.1565 90.6368 16.3496 90.4479 16.5202C90.2606 16.6893 90.0369 16.8235 89.7767 16.9229C89.5182 17.0207 89.2257 17.0696 88.8992 17.0696C88.4452 17.0696 88.0392 16.9669 87.6812 16.7614C87.3249 16.5559 87.0432 16.2584 86.836 15.869C86.6305 15.4795 86.5278 15.008 86.5278 14.4545C86.5278 13.8994 86.6322 13.4271 86.841 13.0376C87.0498 12.6482 87.3332 12.3516 87.6911 12.1477C88.0491 11.9422 88.4518 11.8395 88.8992 11.8395C89.1942 11.8395 89.4677 11.8809 89.7195 11.9638C89.9731 12.0466 90.1977 12.1676 90.3932 12.3267C90.5887 12.4841 90.7478 12.6772 90.8705 12.9059C90.9948 13.1346 91.0743 13.3964 91.1091 13.6914ZM91.6871 12.7965V11.9091H95.8682V12.7965H94.3096V17H93.2456V12.7965H91.6871ZM96.5567 17V11.9091H98.5653C98.9514 11.9091 99.2803 11.9828 99.5521 12.1303C99.8239 12.2762 100.031 12.4792 100.174 12.7393C100.318 12.9979 100.39 13.2962 100.39 13.6342C100.39 13.9723 100.317 14.2706 100.171 14.5291C100.025 14.7876 99.814 14.989 99.5372 15.1332C99.2621 15.2773 98.929 15.3494 98.5379 15.3494H97.2577V14.4869H98.3639C98.5711 14.4869 98.7417 14.4512 98.876 14.38C99.0119 14.3071 99.113 14.2068 99.1792 14.0792C99.2472 13.9499 99.2812 13.8016 99.2812 13.6342C99.2812 13.4652 99.2472 13.3177 99.1792 13.1918C99.113 13.0642 99.0119 12.9656 98.876 12.896C98.7401 12.8247 98.5677 12.7891 98.3589 12.7891H97.6331V17H96.5567ZM101.379 17H100.225L101.983 11.9091H103.37L105.125 17H103.971L102.696 13.0724H102.656L101.379 17ZM101.306 14.9989H104.031V15.8391H101.306V14.9989ZM110.642 16.1399L110.58 18.2031H109.556V17H109.198V16.1399H110.642ZM105.737 17V11.9091H106.771V16.1349H108.889V11.9091H109.936V17H105.737ZM111.295 11.9091H112.369V15.1108H112.411L114.611 11.9091H115.553V17H114.477V13.7958H114.44L112.227 17H111.295V11.9091ZM120.35 17H119.276V12.7891H118.55C118.343 12.7891 118.171 12.8197 118.033 12.881C117.897 12.9407 117.796 13.0285 117.728 13.1445C117.66 13.2605 117.626 13.4031 117.626 13.5721C117.626 13.7395 117.66 13.8795 117.728 13.9922C117.796 14.1049 117.897 14.1894 118.033 14.2457C118.169 14.3021 118.34 14.3303 118.545 14.3303H119.714V15.1953H118.371C117.982 15.1953 117.649 15.1307 117.372 15.0014C117.095 14.8722 116.884 14.6866 116.738 14.4446C116.592 14.201 116.52 13.9102 116.52 13.5721C116.52 13.2357 116.591 12.9432 116.733 12.6946C116.877 12.4444 117.085 12.2513 117.357 12.1154C117.631 11.9779 117.96 11.9091 118.344 11.9091H120.35V17ZM117.603 14.6832H118.764L117.526 17H116.338L117.603 14.6832Z" fill="white"/>
<defs>
<linearGradient id="paint0_linear_1933_94" x1="0" y1="28" x2="138.358" y2="1.89677" gradientUnits="userSpaceOnUse">
<stop stop-color="#066C23"/>
<stop offset="1" stop-color="#11F150"/>
</linearGradient>
</defs>
</svg>
