<svg width="155" height="29" viewBox="0 0 155 29" fill="none" xmlns="http://www.w3.org/2000/svg">
<path d="M0 7C0 3.13401 3.13401 0 7 0H150C152.761 0 155 2.23858 155 5V11C155 20.9411 146.941 29 137 29H7C3.13401 29 0 25.866 0 22V7Z" fill="url(#paint0_linear_2051_27)"/>
<path d="M85.9804 16.403L77.0231 24L68 16.403L70.8516 6M79.6577 12.292L83.1155 6.06844M83.1679 6.06844L86 16.3346M70.8979 6L74.3557 12.2236M74.3886 12.2965H79.6577" stroke="white" stroke-opacity="0.1" stroke-width="2" stroke-linecap="round" stroke-linejoin="round"/>
<path d="M34.3665 12.1818V13.196H31.7358V18H30.5057V12.1818H34.3665ZM34.8388 18V17.0114L35.0036 16.9972C35.2157 16.9801 35.3871 16.8996 35.5178 16.7557C35.6484 16.6098 35.746 16.3778 35.8104 16.0597C35.8767 15.7396 35.9193 15.3097 35.9382 14.7699L36.0348 12.1818H39.9837V18H38.7876V13.1676H37.1768L37.0859 15.1932C37.0556 15.8447 36.978 16.3769 36.853 16.7898C36.7299 17.2027 36.5329 17.5076 36.2621 17.7045C35.9931 17.9015 35.6248 18 35.157 18H34.8388ZM42.0007 18H40.6825L42.6911 12.1818H44.2763L46.282 18H44.9638L43.5064 13.5114H43.4609L42.0007 18ZM41.9183 15.7131H45.032V16.6733H41.9183V15.7131ZM46.9822 18V12.1818H49.3118C49.7398 12.1818 50.0968 12.2453 50.3828 12.3722C50.6688 12.4991 50.8838 12.6752 51.0277 12.9006C51.1716 13.1241 51.2436 13.3816 51.2436 13.6733C51.2436 13.9006 51.1982 14.1004 51.1072 14.2727C51.0163 14.4432 50.8913 14.5833 50.7322 14.6932C50.575 14.8011 50.3951 14.8778 50.1925 14.9233V14.9801C50.4141 14.9896 50.6214 15.0521 50.8146 15.1676C51.0097 15.2831 51.1679 15.4451 51.2891 15.6534C51.4103 15.8598 51.4709 16.1061 51.4709 16.392C51.4709 16.7008 51.3942 16.9763 51.2408 17.2188C51.0893 17.4593 50.8648 17.6496 50.5675 17.7898C50.2701 17.9299 49.9036 18 49.468 18H46.9822ZM48.2124 16.9943H49.2152C49.558 16.9943 49.808 16.929 49.9652 16.7983C50.1224 16.6657 50.201 16.4896 50.201 16.2699C50.201 16.1089 50.1622 15.9669 50.0845 15.8438C50.0069 15.7206 49.8961 15.6241 49.7521 15.554C49.6101 15.4839 49.4406 15.4489 49.2436 15.4489H48.2124V16.9943ZM48.2124 14.6165H49.1243C49.2929 14.6165 49.4425 14.5871 49.5732 14.5284C49.7057 14.4678 49.8099 14.3826 49.8857 14.2727C49.9633 14.1629 50.0021 14.0312 50.0021 13.8778C50.0021 13.6676 49.9273 13.4981 49.7777 13.3693C49.63 13.2405 49.4197 13.1761 49.147 13.1761H48.2124V14.6165ZM52.2713 18V12.1818H53.5014V14.5824H55.9986V12.1818H57.2259V18H55.9986V15.5966H53.5014V18H52.2713ZM59.0497 14.3324H60.4361C60.8982 14.3324 61.2959 14.4072 61.6293 14.5568C61.9645 14.7045 62.223 14.9138 62.4048 15.1847C62.5866 15.4555 62.6766 15.7746 62.6747 16.142C62.6766 16.5076 62.5866 16.8305 62.4048 17.1108C62.223 17.3892 61.9645 17.607 61.6293 17.7642C61.2959 17.9214 60.8982 18 60.4361 18H58.2628V12.1818H59.4901V17.0114H60.4361C60.6577 17.0114 60.8442 16.9716 60.9957 16.892C61.1473 16.8106 61.2618 16.7036 61.3395 16.571C61.419 16.4366 61.4579 16.2898 61.456 16.1307C61.4579 15.8996 61.3707 15.7045 61.1946 15.5455C61.0204 15.3845 60.7675 15.304 60.4361 15.304H59.0497V14.3324ZM64.3764 12.1818V18H63.1491V12.1818H64.3764ZM65.3885 12.1818H66.6158V15.8409H66.6641L69.1783 12.1818H70.255V18H69.0249V14.3381H68.9822L66.4538 18H65.3885V12.1818ZM68.3885 10.6591H69.2322C69.2304 11.0038 69.1025 11.2812 68.8487 11.4915C68.5968 11.7017 68.2559 11.8068 67.826 11.8068C67.3942 11.8068 67.0523 11.7017 66.8004 11.4915C66.5485 11.2812 66.4226 11.0038 66.4226 10.6591H67.2607C67.2588 10.7898 67.3004 10.9072 67.3857 11.0114C67.4728 11.1155 67.6196 11.1676 67.826 11.1676C68.0268 11.1676 68.1707 11.1165 68.2578 11.0142C68.3449 10.9119 68.3885 10.7936 68.3885 10.6591ZM73.1229 12.1818H74.6399L76.2422 16.0909H76.3104L77.9126 12.1818H79.4297V18H78.2365V14.2131H78.1882L76.6825 17.9716H75.87L74.3643 14.1989H74.3161V18H73.1229V12.1818ZM85.7898 15.0909C85.7898 15.7254 85.6695 16.2652 85.429 16.7102C85.1903 17.1553 84.8646 17.4953 84.4517 17.7301C84.0407 17.9631 83.5786 18.0795 83.0653 18.0795C82.5483 18.0795 82.0843 17.9621 81.6733 17.7273C81.2623 17.4924 80.9375 17.1525 80.6989 16.7074C80.4602 16.2623 80.3409 15.7235 80.3409 15.0909C80.3409 14.4564 80.4602 13.9167 80.6989 13.4716C80.9375 13.0265 81.2623 12.6875 81.6733 12.4545C82.0843 12.2197 82.5483 12.1023 83.0653 12.1023C83.5786 12.1023 84.0407 12.2197 84.4517 12.4545C84.8646 12.6875 85.1903 13.0265 85.429 13.4716C85.6695 13.9167 85.7898 14.4564 85.7898 15.0909ZM84.5426 15.0909C84.5426 14.6799 84.4811 14.3333 84.358 14.0511C84.2367 13.7689 84.0653 13.5549 83.8438 13.4091C83.6222 13.2633 83.3627 13.1903 83.0653 13.1903C82.768 13.1903 82.5085 13.2633 82.2869 13.4091C82.0653 13.5549 81.893 13.7689 81.7699 14.0511C81.6487 14.3333 81.5881 14.6799 81.5881 15.0909C81.5881 15.5019 81.6487 15.8485 81.7699 16.1307C81.893 16.4129 82.0653 16.6269 82.2869 16.7727C82.5085 16.9186 82.768 16.9915 83.0653 16.9915C83.3627 16.9915 83.6222 16.9186 83.8438 16.7727C84.0653 16.6269 84.2367 16.4129 84.358 16.1307C84.4811 15.8485 84.5426 15.5019 84.5426 15.0909ZM86.3857 19.4034V17.0199H86.7805C86.915 16.9233 87.0381 16.7869 87.1499 16.6108C87.2616 16.4328 87.3572 16.1875 87.4368 15.875C87.5163 15.5606 87.5732 15.1496 87.6072 14.642L87.772 12.1818H91.6214V17.0199H92.2578V19.3977H91.076V18H87.5675V19.4034H86.3857ZM88.201 17.0199H90.4396V13.196H88.88L88.7891 14.642C88.7644 15.0265 88.7237 15.3674 88.6669 15.6648C88.612 15.9621 88.5447 16.2225 88.4652 16.446C88.3875 16.6676 88.2995 16.8589 88.201 17.0199ZM93.0057 18V12.1818H96.9261V13.196H94.2358V14.5824H96.7244V15.5966H94.2358V16.9858H96.9375V18H93.0057ZM97.9041 18V12.1818H100.2C100.641 12.1818 101.017 12.2661 101.327 12.4347C101.638 12.6013 101.875 12.8333 102.038 13.1307C102.202 13.4261 102.285 13.767 102.285 14.1534C102.285 14.5398 102.201 14.8807 102.035 15.1761C101.868 15.4716 101.627 15.7017 101.31 15.8665C100.996 16.0312 100.615 16.1136 100.168 16.1136H98.7053V15.1278H99.9695C100.206 15.1278 100.401 15.0871 100.555 15.0057C100.71 14.9223 100.826 14.8078 100.901 14.6619C100.979 14.5142 101.018 14.3447 101.018 14.1534C101.018 13.9602 100.979 13.7917 100.901 13.6477C100.826 13.5019 100.71 13.3892 100.555 13.3097C100.399 13.2282 100.202 13.1875 99.9638 13.1875H99.1342V18H97.9041ZM103.415 18H102.097L104.105 12.1818H105.69L107.696 18H106.378L104.92 13.5114H104.875L103.415 18ZM103.332 15.7131H106.446V16.6733H103.332V15.7131ZM107.464 13.196V12.1818H112.242V13.196H110.461V18H109.245V13.196H107.464ZM118.11 15.0909C118.11 15.7254 117.99 16.2652 117.749 16.7102C117.511 17.1553 117.185 17.4953 116.772 17.7301C116.361 17.9631 115.899 18.0795 115.386 18.0795C114.869 18.0795 114.405 17.9621 113.994 17.7273C113.583 17.4924 113.258 17.1525 113.019 16.7074C112.781 16.2623 112.661 15.7235 112.661 15.0909C112.661 14.4564 112.781 13.9167 113.019 13.4716C113.258 13.0265 113.583 12.6875 113.994 12.4545C114.405 12.2197 114.869 12.1023 115.386 12.1023C115.899 12.1023 116.361 12.2197 116.772 12.4545C117.185 12.6875 117.511 13.0265 117.749 13.4716C117.99 13.9167 118.11 14.4564 118.11 15.0909ZM116.863 15.0909C116.863 14.6799 116.801 14.3333 116.678 14.0511C116.557 13.7689 116.386 13.5549 116.164 13.4091C115.942 13.2633 115.683 13.1903 115.386 13.1903C115.088 13.1903 114.829 13.2633 114.607 13.4091C114.386 13.5549 114.213 13.7689 114.09 14.0511C113.969 14.3333 113.908 14.6799 113.908 15.0909C113.908 15.5019 113.969 15.8485 114.09 16.1307C114.213 16.4129 114.386 16.6269 114.607 16.7727C114.829 16.9186 115.088 16.9915 115.386 16.9915C115.683 16.9915 115.942 16.9186 116.164 16.7727C116.386 16.6269 116.557 16.4129 116.678 16.1307C116.801 15.8485 116.863 15.5019 116.863 15.0909ZM119.021 18V12.1818H121.317C121.758 12.1818 122.134 12.2661 122.445 12.4347C122.755 12.6013 122.992 12.8333 123.155 13.1307C123.32 13.4261 123.402 13.767 123.402 14.1534C123.402 14.5398 123.319 14.8807 123.152 15.1761C122.985 15.4716 122.744 15.7017 122.428 15.8665C122.113 16.0312 121.732 16.1136 121.286 16.1136H119.822V15.1278H121.087C121.323 15.1278 121.518 15.0871 121.672 15.0057C121.827 14.9223 121.943 14.8078 122.018 14.6619C122.096 14.5142 122.135 14.3447 122.135 14.1534C122.135 13.9602 122.096 13.7917 122.018 13.6477C121.943 13.5019 121.827 13.3892 121.672 13.3097C121.517 13.2282 121.32 13.1875 121.081 13.1875H120.251V18H119.021Z" fill="white"/>
<defs>
<linearGradient id="paint0_linear_2051_27" x1="0" y1="29" x2="154.467" y2="-2.60381" gradientUnits="userSpaceOnUse">
<stop stop-color="#055211"/>
<stop offset="1" stop-color="#1AB633"/>
</linearGradient>
</defs>
</svg>
