<svg width="138" height="28" viewBox="0 0 138 28" fill="none" xmlns="http://www.w3.org/2000/svg">
<path d="M0 7C0 3.13401 3.13401 0 7 0H131C134.866 0 138 3.13401 138 7V10C138 19.9411 129.941 28 120 28H7C3.13401 28 0 24.866 0 21V7Z" fill="url(#paint0_linear_1933_93)"/>
<path d="M76.9825 15.2471L69.0206 22L61 15.2471L63.5348 6M71.3624 11.5929L74.436 6.06083M74.4826 6.06083L77 15.1863M63.5759 6L66.6495 11.5321M66.6788 11.5969H71.3624" stroke="white" stroke-opacity="0.4" stroke-width="2" stroke-linecap="round" stroke-linejoin="round"/>
<path d="M31.8207 11.9091V12.7965H29.5188V17H28.4425V11.9091H31.8207ZM32.2339 17V16.1349L32.3781 16.1225C32.5637 16.1076 32.7137 16.0372 32.828 15.9112C32.9424 15.7836 33.0277 15.5806 33.0841 15.3022C33.1421 15.0221 33.1794 14.646 33.1959 14.1737L33.2805 11.9091H36.7357V17H35.6892V12.7717H34.2797L34.2002 14.544C34.1737 15.1141 34.1057 15.5798 33.9964 15.9411C33.8886 16.3023 33.7163 16.5691 33.4793 16.7415C33.244 16.9138 32.9217 17 32.5123 17H32.2339ZM38.5006 17H37.3472L39.1047 11.9091H40.4917L42.2467 17H41.0933L39.8181 13.0724H39.7783L38.5006 17ZM38.4285 14.9989H41.153V15.8391H38.4285V14.9989ZM42.8595 17V11.9091H44.8978C45.2723 11.9091 45.5847 11.9646 45.835 12.0756C46.0852 12.1867 46.2733 12.3408 46.3992 12.538C46.5252 12.7335 46.5882 12.9589 46.5882 13.2141C46.5882 13.413 46.5484 13.5878 46.4688 13.7386C46.3893 13.8878 46.2799 14.0104 46.1407 14.1065C46.0032 14.201 45.8457 14.2681 45.6684 14.3079V14.3576C45.8623 14.3659 46.0438 14.4206 46.2128 14.5217C46.3835 14.6228 46.5219 14.7644 46.6279 14.9467C46.734 15.1274 46.787 15.3428 46.787 15.593C46.787 15.8632 46.7199 16.1043 46.5857 16.3164C46.4531 16.5269 46.2567 16.6934 45.9965 16.8161C45.7364 16.9387 45.4157 17 45.0345 17H42.8595ZM43.9358 16.12H44.8133C45.1133 16.12 45.332 16.0629 45.4695 15.9485C45.6071 15.8325 45.6759 15.6784 45.6759 15.4862C45.6759 15.3453 45.6419 15.221 45.574 15.1133C45.506 15.0056 45.4091 14.921 45.2831 14.8597C45.1588 14.7984 45.0105 14.7678 44.8382 14.7678H43.9358V16.12ZM43.9358 14.0394H44.7338C44.8812 14.0394 45.0122 14.0137 45.1265 13.9624C45.2425 13.9093 45.3337 13.8348 45.3999 13.7386C45.4679 13.6425 45.5019 13.5273 45.5019 13.3931C45.5019 13.2092 45.4364 13.0608 45.3055 12.9482C45.1762 12.8355 44.9923 12.7791 44.7536 12.7791H43.9358V14.0394ZM47.4874 17V11.9091H48.5637V14.0096H50.7488V11.9091H51.8226V17H50.7488V14.897H48.5637V17H47.4874ZM53.4185 13.7908H54.6316C55.0359 13.7908 55.3839 13.8563 55.6756 13.9872C55.9689 14.1165 56.1951 14.2996 56.3542 14.5366C56.5133 14.7736 56.592 15.0528 56.5904 15.3743C56.592 15.6941 56.5133 15.9767 56.3542 16.2219C56.1951 16.4656 55.9689 16.6561 55.6756 16.7937C55.3839 16.9312 55.0359 17 54.6316 17H52.7299V11.9091H53.8038V16.1349H54.6316C54.8255 16.1349 54.9887 16.1001 55.1213 16.0305C55.2538 15.9593 55.3541 15.8656 55.4221 15.7496C55.4917 15.632 55.5256 15.5036 55.524 15.3643C55.5256 15.1622 55.4494 14.9915 55.2953 14.8523C55.1428 14.7114 54.9216 14.641 54.6316 14.641H53.4185V13.7908ZM58.0794 11.9091V17H57.0055V11.9091H58.0794ZM58.9649 11.9091H60.0388V15.1108H60.0811L62.281 11.9091H63.2231V17H62.1468V13.7958H62.1095L59.8971 17H58.9649V11.9091ZM61.5899 10.5767H62.3282C62.3266 10.8783 62.2147 11.1211 61.9926 11.305C61.7722 11.489 61.4739 11.581 61.0977 11.581C60.7199 11.581 60.4208 11.489 60.2004 11.305C59.98 11.1211 59.8698 10.8783 59.8698 10.5767H60.6031C60.6014 10.6911 60.6379 10.7938 60.7124 10.8849C60.7887 10.9761 60.9171 11.0217 61.0977 11.0217C61.2734 11.0217 61.3994 10.9769 61.4756 10.8874C61.5518 10.7979 61.5899 10.6944 61.5899 10.5767ZM65.7325 11.9091H67.0599L68.4619 15.3295H68.5216L69.9236 11.9091H71.251V17H70.2069V13.6864H70.1647L68.8472 16.9751H68.1363L66.8188 13.674H66.7765V17H65.7325V11.9091ZM76.8161 14.4545C76.8161 15.0097 76.7108 15.482 76.5004 15.8714C76.2915 16.2609 76.0065 16.5584 75.6452 16.7638C75.2856 16.9677 74.8813 17.0696 74.4322 17.0696C73.9798 17.0696 73.5737 16.9669 73.2141 16.7614C72.8545 16.5559 72.5703 16.2584 72.3615 15.869C72.1527 15.4795 72.0483 15.008 72.0483 14.4545C72.0483 13.8994 72.1527 13.4271 72.3615 13.0376C72.5703 12.6482 72.8545 12.3516 73.2141 12.1477C73.5737 11.9422 73.9798 11.8395 74.4322 11.8395C74.8813 11.8395 75.2856 11.9422 75.6452 12.1477C76.0065 12.3516 76.2915 12.6482 76.5004 13.0376C76.7108 13.4271 76.8161 13.8994 76.8161 14.4545ZM75.7248 14.4545C75.7248 14.0949 75.6709 13.7917 75.5632 13.5447C75.4571 13.2978 75.3072 13.1106 75.1133 12.983C74.9194 12.8554 74.6924 12.7915 74.4322 12.7915C74.172 12.7915 73.945 12.8554 73.7511 12.983C73.5572 13.1106 73.4064 13.2978 73.2987 13.5447C73.1926 13.7917 73.1396 14.0949 73.1396 14.4545C73.1396 14.8142 73.1926 15.1174 73.2987 15.3643C73.4064 15.6113 73.5572 15.7985 73.7511 15.9261C73.945 16.0537 74.172 16.1175 74.4322 16.1175C74.6924 16.1175 74.9194 16.0537 75.1133 15.9261C75.3072 15.7985 75.4571 15.6113 75.5632 15.3643C75.6709 15.1174 75.7248 14.8142 75.7248 14.4545ZM77.3374 18.228V16.1424H77.683C77.8006 16.0579 77.9084 15.9386 78.0061 15.7844C78.1039 15.6287 78.1876 15.4141 78.2572 15.1406C78.3268 14.8655 78.3765 14.5059 78.4063 14.0618L78.5505 11.9091H81.9188V16.1424H82.4756V18.223H81.4415V17H78.3715V18.228H77.3374ZM78.9259 16.1424H80.8847V12.7965H79.52L79.4404 14.0618C79.4189 14.3982 79.3833 14.6965 79.3335 14.9567C79.2855 15.2169 79.2267 15.4447 79.157 15.6403C79.0891 15.8342 79.012 16.0015 78.9259 16.1424ZM83.13 17V11.9091H86.5604V12.7965H84.2063V14.0096H86.3839V14.897H84.2063V16.1126H86.5703V17H83.13ZM87.4161 17V11.9091H89.4246C89.8108 11.9091 90.1397 11.9828 90.4115 12.1303C90.6833 12.2762 90.8904 12.4792 91.0329 12.7393C91.1771 12.9979 91.2492 13.2962 91.2492 13.6342C91.2492 13.9723 91.1763 14.2706 91.0305 14.5291C90.8846 14.7876 90.6733 14.989 90.3966 15.1332C90.1215 15.2773 89.7884 15.3494 89.3973 15.3494H88.1171V14.4869H89.2233C89.4304 14.4869 89.6011 14.4512 89.7354 14.38C89.8712 14.3071 89.9723 14.2068 90.0386 14.0792C90.1066 13.9499 90.1405 13.8016 90.1405 13.6342C90.1405 13.4652 90.1066 13.3177 90.0386 13.1918C89.9723 13.0642 89.8712 12.9656 89.7354 12.896C89.5995 12.8247 89.4271 12.7891 89.2183 12.7891H88.4925V17H87.4161ZM92.2379 17H91.0845L92.842 11.9091H94.229L95.984 17H94.8306L93.5554 13.0724H93.5156L92.2379 17ZM92.1658 14.9989H94.8903V15.8391H92.1658V14.9989ZM95.7808 12.7965V11.9091H99.9619V12.7965H98.4033V17H97.3394V12.7965H95.7808ZM105.096 14.4545C105.096 15.0097 104.991 15.482 104.781 15.8714C104.572 16.2609 104.287 16.5584 103.926 16.7638C103.566 16.9677 103.162 17.0696 102.712 17.0696C102.26 17.0696 101.854 16.9669 101.494 16.7614C101.135 16.5559 100.851 16.2584 100.642 15.869C100.433 15.4795 100.329 15.008 100.329 14.4545C100.329 13.8994 100.433 13.4271 100.642 13.0376C100.851 12.6482 101.135 12.3516 101.494 12.1477C101.854 11.9422 102.26 11.8395 102.712 11.8395C103.162 11.8395 103.566 11.9422 103.926 12.1477C104.287 12.3516 104.572 12.6482 104.781 13.0376C104.991 13.4271 105.096 13.8994 105.096 14.4545ZM104.005 14.4545C104.005 14.0949 103.951 13.7917 103.843 13.5447C103.737 13.2978 103.587 13.1106 103.394 12.983C103.2 12.8554 102.973 12.7915 102.712 12.7915C102.452 12.7915 102.225 12.8554 102.031 12.983C101.837 13.1106 101.687 13.2978 101.579 13.5447C101.473 13.7917 101.42 14.0949 101.42 14.4545C101.42 14.8142 101.473 15.1174 101.579 15.3643C101.687 15.6113 101.837 15.7985 102.031 15.9261C102.225 16.0537 102.452 16.1175 102.712 16.1175C102.973 16.1175 103.2 16.0537 103.394 15.9261C103.587 15.7985 103.737 15.6113 103.843 15.3643C103.951 15.1174 104.005 14.8142 104.005 14.4545ZM105.894 17V11.9091H107.902C108.288 11.9091 108.617 11.9828 108.889 12.1303C109.161 12.2762 109.368 12.4792 109.51 12.7393C109.655 12.9979 109.727 13.2962 109.727 13.6342C109.727 13.9723 109.654 14.2706 109.508 14.5291C109.362 14.7876 109.151 14.989 108.874 15.1332C108.599 15.2773 108.266 15.3494 107.875 15.3494H106.595V14.4869H107.701C107.908 14.4869 108.079 14.4512 108.213 14.38C108.349 14.3071 108.45 14.2068 108.516 14.0792C108.584 13.9499 108.618 13.8016 108.618 13.6342C108.618 13.4652 108.584 13.3177 108.516 13.1918C108.45 13.0642 108.349 12.9656 108.213 12.896C108.077 12.8247 107.905 12.7891 107.696 12.7891H106.97V17H105.894Z" fill="white"/>
<defs>
<linearGradient id="paint0_linear_1933_93" x1="0" y1="28" x2="138.358" y2="1.89677" gradientUnits="userSpaceOnUse">
<stop stop-color="#0B4B15"/>
<stop offset="1" stop-color="#1F8B30"/>
</linearGradient>
</defs>
</svg>
