<svg width="138" height="28" viewBox="0 0 138 28" fill="none" xmlns="http://www.w3.org/2000/svg">
<path d="M0 7C0 3.13401 3.13401 0 7 0H131C134.866 0 138 3.13401 138 7V10C138 19.9411 129.941 28 120 28H7C3.13401 28 0 24.866 0 21V7Z" fill="url(#paint0_linear_1933_88)"/>
<path d="M76.9825 15.2471L69.0206 22L61 15.2471L63.5348 6M71.3624 11.5929L74.436 6.06083M74.4826 6.06083L77 15.1863M63.5759 6L66.6495 11.5321M66.6788 11.5969H71.3624" stroke="white" stroke-opacity="0.4" stroke-width="2" stroke-linecap="round" stroke-linejoin="round"/>
<path d="M47.4425 11.9091H48.7699L50.1719 15.3295H50.2315L51.6335 11.9091H52.9609V17H51.9169V13.6864H51.8746L50.5572 16.9751H49.8462L48.5288 13.674H48.4865V17H47.4425V11.9091ZM58.526 14.4545C58.526 15.0097 58.4208 15.482 58.2103 15.8714C58.0015 16.2609 57.7165 16.5584 57.3552 16.7638C56.9956 16.9677 56.5912 17.0696 56.1421 17.0696C55.6897 17.0696 55.2837 16.9669 54.9241 16.7614C54.5645 16.5559 54.2803 16.2584 54.0715 15.869C53.8627 15.4795 53.7583 15.008 53.7583 14.4545C53.7583 13.8994 53.8627 13.4271 54.0715 13.0376C54.2803 12.6482 54.5645 12.3516 54.9241 12.1477C55.2837 11.9422 55.6897 11.8395 56.1421 11.8395C56.5912 11.8395 56.9956 11.9422 57.3552 12.1477C57.7165 12.3516 58.0015 12.6482 58.2103 13.0376C58.4208 13.4271 58.526 13.8994 58.526 14.4545ZM57.4347 14.4545C57.4347 14.0949 57.3809 13.7917 57.2732 13.5447C57.1671 13.2978 57.0171 13.1106 56.8232 12.983C56.6294 12.8554 56.4023 12.7915 56.1421 12.7915C55.882 12.7915 55.6549 12.8554 55.461 12.983C55.2671 13.1106 55.1163 13.2978 55.0086 13.5447C54.9026 13.7917 54.8495 14.0949 54.8495 14.4545C54.8495 14.8142 54.9026 15.1174 55.0086 15.3643C55.1163 15.6113 55.2671 15.7985 55.461 15.9261C55.6549 16.0537 55.882 16.1175 56.1421 16.1175C56.4023 16.1175 56.6294 16.0537 56.8232 15.9261C57.0171 15.7985 57.1671 15.6113 57.2732 15.3643C57.3809 15.1174 57.4347 14.8142 57.4347 14.4545ZM59.0474 18.228V16.1424H59.3929C59.5106 16.0579 59.6183 15.9386 59.7161 15.7844C59.8139 15.6287 59.8975 15.4141 59.9672 15.1406C60.0368 14.8655 60.0865 14.5059 60.1163 14.0618L60.2605 11.9091H63.6287V16.1424H64.1855V18.223H63.1515V17H60.0815V18.228H59.0474ZM60.6358 16.1424H62.5946V12.7965H61.2299L61.1504 14.0618C61.1288 14.3982 61.0932 14.6965 61.0435 14.9567C60.9954 15.2169 60.9366 15.4447 60.867 15.6403C60.7991 15.8342 60.722 16.0015 60.6358 16.1424ZM64.8399 17V11.9091H68.2703V12.7965H65.9163V14.0096H68.0938V14.897H65.9163V16.1126H68.2803V17H64.8399ZM69.1261 17V11.9091H71.1346C71.5207 11.9091 71.8497 11.9828 72.1214 12.1303C72.3932 12.2762 72.6004 12.4792 72.7429 12.7393C72.8871 12.9979 72.9592 13.2962 72.9592 13.6342C72.9592 13.9723 72.8862 14.2706 72.7404 14.5291C72.5946 14.7876 72.3833 14.989 72.1065 15.1332C71.8314 15.2773 71.4983 15.3494 71.1072 15.3494H69.8271V14.4869H70.9332C71.1404 14.4869 71.3111 14.4512 71.4453 14.38C71.5812 14.3071 71.6823 14.2068 71.7486 14.0792C71.8165 13.9499 71.8505 13.8016 71.8505 13.6342C71.8505 13.4652 71.8165 13.3177 71.7486 13.1918C71.6823 13.0642 71.5812 12.9656 71.4453 12.896C71.3094 12.8247 71.1371 12.7891 70.9283 12.7891H70.2024V17H69.1261ZM73.9479 17H72.7945L74.5519 11.9091H75.939L77.694 17H76.5406L75.2654 13.0724H75.2256L73.9479 17ZM73.8758 14.9989H76.6002V15.8391H73.8758V14.9989ZM77.4908 12.7965V11.9091H81.6719V12.7965H80.1133V17H79.0494V12.7965H77.4908ZM86.8063 14.4545C86.8063 15.0097 86.7011 15.482 86.4906 15.8714C86.2818 16.2609 85.9967 16.5584 85.6355 16.7638C85.2759 16.9677 84.8715 17.0696 84.4224 17.0696C83.97 17.0696 83.564 16.9669 83.2044 16.7614C82.8448 16.5559 82.5605 16.2584 82.3517 15.869C82.1429 15.4795 82.0385 15.008 82.0385 14.4545C82.0385 13.8994 82.1429 13.4271 82.3517 13.0376C82.5605 12.6482 82.8448 12.3516 83.2044 12.1477C83.564 11.9422 83.97 11.8395 84.4224 11.8395C84.8715 11.8395 85.2759 11.9422 85.6355 12.1477C85.9967 12.3516 86.2818 12.6482 86.4906 13.0376C86.7011 13.4271 86.8063 13.8994 86.8063 14.4545ZM85.715 14.4545C85.715 14.0949 85.6612 13.7917 85.5534 13.5447C85.4474 13.2978 85.2974 13.1106 85.1035 12.983C84.9096 12.8554 84.6826 12.7915 84.4224 12.7915C84.1622 12.7915 83.9352 12.8554 83.7413 12.983C83.5474 13.1106 83.3966 13.2978 83.2889 13.5447C83.1828 13.7917 83.1298 14.0949 83.1298 14.4545C83.1298 14.8142 83.1828 15.1174 83.2889 15.3643C83.3966 15.6113 83.5474 15.7985 83.7413 15.9261C83.9352 16.0537 84.1622 16.1175 84.4224 16.1175C84.6826 16.1175 84.9096 16.0537 85.1035 15.9261C85.2974 15.7985 85.4474 15.6113 85.5534 15.3643C85.6612 15.1174 85.715 14.8142 85.715 14.4545ZM87.6036 17V11.9091H89.6121C89.9983 11.9091 90.3272 11.9828 90.599 12.1303C90.8708 12.2762 91.0779 12.4792 91.2204 12.7393C91.3646 12.9979 91.4367 13.2962 91.4367 13.6342C91.4367 13.9723 91.3638 14.2706 91.218 14.5291C91.0721 14.7876 90.8608 14.989 90.5841 15.1332C90.309 15.2773 89.9759 15.3494 89.5848 15.3494H88.3046V14.4869H89.4108C89.6179 14.4869 89.7886 14.4512 89.9229 14.38C90.0587 14.3071 90.1598 14.2068 90.2261 14.0792C90.2941 13.9499 90.328 13.8016 90.328 13.6342C90.328 13.4652 90.2941 13.3177 90.2261 13.1918C90.1598 13.0642 90.0587 12.9656 89.9229 12.896C89.787 12.8247 89.6146 12.7891 89.4058 12.7891H88.68V17H87.6036Z" fill="white"/>
<defs>
<linearGradient id="paint0_linear_1933_88" x1="0" y1="28" x2="138.358" y2="1.89677" gradientUnits="userSpaceOnUse">
<stop stop-color="#114359"/>
<stop offset="1" stop-color="#54ACD2"/>
</linearGradient>
</defs>
</svg>
