<svg width="138" height="28" viewBox="0 0 138 28" fill="none" xmlns="http://www.w3.org/2000/svg">
<path d="M0 7C0 3.13401 3.13401 0 7 0H131C134.866 0 138 3.13401 138 7V10C138 19.9411 129.941 28 120 28H7C3.13401 28 0 24.866 0 21V7Z" fill="url(#paint0_linear_1933_87)"/>
<path d="M76.9825 15.2471L69.0206 22L61 15.2471L63.5348 6M71.3624 11.5929L74.436 6.06083M74.4826 6.06083L77 15.1863M63.5759 6L66.6495 11.5321M66.6788 11.5969H71.3624" stroke="white" stroke-opacity="0.4" stroke-width="2" stroke-linecap="round" stroke-linejoin="round"/>
<path d="M33.9343 13.6914H32.8455C32.8256 13.5505 32.785 13.4254 32.7237 13.3161C32.6624 13.205 32.5837 13.1106 32.4876 13.0327C32.3915 12.9548 32.2804 12.8951 32.1545 12.8537C32.0302 12.8123 31.8951 12.7915 31.7493 12.7915C31.4858 12.7915 31.2563 12.857 31.0607 12.9879C30.8652 13.1172 30.7135 13.3061 30.6058 13.5547C30.4981 13.8016 30.4442 14.1016 30.4442 14.4545C30.4442 14.8175 30.4981 15.1224 30.6058 15.3693C30.7152 15.6162 30.8677 15.8027 31.0632 15.9286C31.2588 16.0546 31.485 16.1175 31.7418 16.1175C31.886 16.1175 32.0194 16.0985 32.142 16.0604C32.2663 16.0223 32.3765 15.9667 32.4727 15.8938C32.5688 15.8192 32.6483 15.7289 32.7113 15.6229C32.7759 15.5168 32.8207 15.3958 32.8455 15.2599L33.9343 15.2649C33.9061 15.4986 33.8357 15.724 33.723 15.9411C33.612 16.1565 33.462 16.3496 33.2731 16.5202C33.0858 16.6893 32.8621 16.8235 32.6019 16.9229C32.3434 17.0207 32.0509 17.0696 31.7244 17.0696C31.2704 17.0696 30.8643 16.9669 30.5064 16.7614C30.1501 16.5559 29.8684 16.2584 29.6612 15.869C29.4557 15.4795 29.353 15.008 29.353 14.4545C29.353 13.8994 29.4574 13.4271 29.6662 13.0376C29.875 12.6482 30.1584 12.3516 30.5163 12.1477C30.8743 11.9422 31.277 11.8395 31.7244 11.8395C32.0194 11.8395 32.2929 11.8809 32.5447 11.9638C32.7983 12.0466 33.0228 12.1676 33.2184 12.3267C33.4139 12.4841 33.573 12.6772 33.6957 12.9059C33.82 13.1346 33.8995 13.3964 33.9343 13.6914ZM34.5123 12.7965V11.9091H38.6934V12.7965H37.1348V17H36.0708V12.7965H34.5123ZM39.6373 17H38.4839L40.2414 11.9091H41.6285L43.3834 17H42.23L40.9548 13.0724H40.915L39.6373 17ZM39.5653 14.9989H42.2897V15.8391H39.5653V14.9989ZM47.874 11.9091V17H46.83V11.9091H47.874ZM43.7551 17L45.3509 14.3153L43.8222 11.9091H45.1471L46.2906 14.0046H48.4408L49.5544 11.9091H50.8744L49.3829 14.3079L50.949 17H49.6638L48.5874 14.9989H46.134L45.0303 17H43.7551ZM51.5909 17V11.9091H55.0213V12.7965H52.6673V14.0096H54.8448V14.897H52.6673V16.1126H55.0312V17H51.5909ZM52.5554 11.3871C52.4129 11.3871 52.2902 11.3374 52.1875 11.2379C52.0848 11.1368 52.0334 11.0175 52.0334 10.88C52.0334 10.7391 52.0848 10.6198 52.1875 10.522C52.2902 10.4242 52.4129 10.3754 52.5554 10.3754C52.6996 10.3754 52.8214 10.4242 52.9208 10.522C53.0219 10.6198 53.0724 10.7391 53.0724 10.88C53.0724 11.0175 53.0219 11.1368 52.9208 11.2379C52.8214 11.3374 52.6996 11.3871 52.5554 11.3871ZM54.0767 11.3871C53.9342 11.3871 53.8116 11.3374 53.7088 11.2379C53.6061 11.1368 53.5547 11.0175 53.5547 10.88C53.5547 10.7391 53.6061 10.6198 53.7088 10.522C53.8116 10.4242 53.9342 10.3754 54.0767 10.3754C54.2209 10.3754 54.3427 10.4242 54.4421 10.522C54.5432 10.6198 54.5938 10.7391 54.5938 10.88C54.5938 11.0175 54.5432 11.1368 54.4421 11.2379C54.3427 11.3374 54.2209 11.3871 54.0767 11.3871ZM55.877 17V11.9091H57.8856C58.2717 11.9091 58.6006 11.9828 58.8724 12.1303C59.1442 12.2762 59.3514 12.4792 59.4939 12.7393C59.6381 12.9979 59.7101 13.2962 59.7101 13.6342C59.7101 13.9723 59.6372 14.2706 59.4914 14.5291C59.3456 14.7876 59.1343 14.989 58.8575 15.1332C58.5824 15.2773 58.2493 15.3494 57.8582 15.3494H56.578V14.4869H57.6842C57.8914 14.4869 58.0621 14.4512 58.1963 14.38C58.3322 14.3071 58.4333 14.2068 58.4996 14.0792C58.5675 13.9499 58.6015 13.8016 58.6015 13.6342C58.6015 13.4652 58.5675 13.3177 58.4996 13.1918C58.4333 13.0642 58.3322 12.9656 58.1963 12.896C58.0604 12.8247 57.8881 12.7891 57.6792 12.7891H56.9534V17H55.877ZM62.0294 11.9091H63.3568L64.7588 15.3295H64.8184L66.2204 11.9091H67.5479V17H66.5038V13.6864H66.4616L65.1441 16.9751H64.4331L63.1157 13.674H63.0734V17H62.0294V11.9091ZM73.1129 14.4545C73.1129 15.0097 73.0077 15.482 72.7972 15.8714C72.5884 16.2609 72.3034 16.5584 71.9421 16.7638C71.5825 16.9677 71.1781 17.0696 70.729 17.0696C70.2766 17.0696 69.8706 16.9669 69.511 16.7614C69.1514 16.5559 68.8672 16.2584 68.6584 15.869C68.4496 15.4795 68.3452 15.008 68.3452 14.4545C68.3452 13.8994 68.4496 13.4271 68.6584 13.0376C68.8672 12.6482 69.1514 12.3516 69.511 12.1477C69.8706 11.9422 70.2766 11.8395 70.729 11.8395C71.1781 11.8395 71.5825 11.9422 71.9421 12.1477C72.3034 12.3516 72.5884 12.6482 72.7972 13.0376C73.0077 13.4271 73.1129 13.8994 73.1129 14.4545ZM72.0217 14.4545C72.0217 14.0949 71.9678 13.7917 71.8601 13.5447C71.754 13.2978 71.604 13.1106 71.4102 12.983C71.2163 12.8554 70.9892 12.7915 70.729 12.7915C70.4689 12.7915 70.2418 12.8554 70.0479 12.983C69.854 13.1106 69.7032 13.2978 69.5955 13.5447C69.4895 13.7917 69.4364 14.0949 69.4364 14.4545C69.4364 14.8142 69.4895 15.1174 69.5955 15.3643C69.7032 15.6113 69.854 15.7985 70.0479 15.9261C70.2418 16.0537 70.4689 16.1175 70.729 16.1175C70.9892 16.1175 71.2163 16.0537 71.4102 15.9261C71.604 15.7985 71.754 15.6113 71.8601 15.3643C71.9678 15.1174 72.0217 14.8142 72.0217 14.4545ZM73.6343 18.228V16.1424H73.9798C74.0975 16.0579 74.2052 15.9386 74.303 15.7844C74.4008 15.6287 74.4845 15.4141 74.5541 15.1406C74.6237 14.8655 74.6734 14.5059 74.7032 14.0618L74.8474 11.9091H78.2156V16.1424H78.7725V18.223H77.7384V17H74.6684V18.228H73.6343ZM75.2227 16.1424H77.1816V12.7965H75.8169L75.7373 14.0618C75.7158 14.3982 75.6801 14.6965 75.6304 14.9567C75.5824 15.2169 75.5235 15.4447 75.4539 15.6403C75.386 15.8342 75.3089 16.0015 75.2227 16.1424ZM79.4268 17V11.9091H82.8572V12.7965H80.5032V14.0096H82.6808V14.897H80.5032V16.1126H82.8672V17H79.4268ZM83.713 17V11.9091H85.7215C86.1076 11.9091 86.4366 11.9828 86.7084 12.1303C86.9801 12.2762 87.1873 12.4792 87.3298 12.7393C87.474 12.9979 87.5461 13.2962 87.5461 13.6342C87.5461 13.9723 87.4732 14.2706 87.3273 14.5291C87.1815 14.7876 86.9702 14.989 86.6934 15.1332C86.4184 15.2773 86.0853 15.3494 85.6942 15.3494H84.414V14.4869H85.5202C85.7273 14.4869 85.898 14.4512 86.0322 14.38C86.1681 14.3071 86.2692 14.2068 86.3355 14.0792C86.4034 13.9499 86.4374 13.8016 86.4374 13.6342C86.4374 13.4652 86.4034 13.3177 86.3355 13.1918C86.2692 13.0642 86.1681 12.9656 86.0322 12.896C85.8963 12.8247 85.724 12.7891 85.5152 12.7891H84.7893V17H83.713ZM88.5348 17H87.3814L89.1388 11.9091H90.5259L92.2809 17H91.1275L89.8523 13.0724H89.8125L88.5348 17ZM88.4627 14.9989H91.1871V15.8391H88.4627V14.9989ZM97.7981 16.1399L97.736 18.2031H96.7118V17H96.3539V16.1399H97.7981ZM92.8936 17V11.9091H93.9277V16.1349H96.0456V11.9091H97.0922V17H92.8936ZM98.4513 11.9091H99.5251V15.1108H99.5674L101.767 11.9091H102.709V17H101.633V13.7958H101.596L99.3834 17H98.4513V11.9091ZM103.599 11.9091H104.673V15.1108H104.715L106.915 11.9091H107.857V17H106.781V13.7958H106.743L104.531 17H103.599V11.9091Z" fill="white"/>
<defs>
<linearGradient id="paint0_linear_1933_87" x1="0" y1="28" x2="138.358" y2="1.89677" gradientUnits="userSpaceOnUse">
<stop stop-color="#135333"/>
<stop offset="1" stop-color="#67F5AE"/>
</linearGradient>
</defs>
</svg>
