<svg width="138" height="28" viewBox="0 0 138 28" fill="none" xmlns="http://www.w3.org/2000/svg">
<path d="M0 7C0 3.13401 3.13401 0 7 0H131C134.866 0 138 3.13401 138 7V10C138 19.9411 129.941 28 120 28H7C3.13401 28 0 24.866 0 21V7Z" fill="url(#paint0_linear_1933_89)"/>
<path d="M76.9825 15.2471L69.0206 22L61 15.2471L63.5348 6M71.3624 11.5929L74.436 6.06083M74.4826 6.06083L77 15.1863M63.5759 6L66.6495 11.5321M66.6788 11.5969H71.3624" stroke="white" stroke-opacity="0.4" stroke-width="2" stroke-linecap="round" stroke-linejoin="round"/>
<path d="M31.9343 13.6914H30.8455C30.8256 13.5505 30.785 13.4254 30.7237 13.3161C30.6624 13.205 30.5837 13.1106 30.4876 13.0327C30.3915 12.9548 30.2804 12.8951 30.1545 12.8537C30.0302 12.8123 29.8951 12.7915 29.7493 12.7915C29.4858 12.7915 29.2563 12.857 29.0607 12.9879C28.8652 13.1172 28.7135 13.3061 28.6058 13.5547C28.4981 13.8016 28.4442 14.1016 28.4442 14.4545C28.4442 14.8175 28.4981 15.1224 28.6058 15.3693C28.7152 15.6162 28.8677 15.8027 29.0632 15.9286C29.2588 16.0546 29.485 16.1175 29.7418 16.1175C29.886 16.1175 30.0194 16.0985 30.142 16.0604C30.2663 16.0223 30.3765 15.9667 30.4727 15.8938C30.5688 15.8192 30.6483 15.7289 30.7113 15.6229C30.7759 15.5168 30.8207 15.3958 30.8455 15.2599L31.9343 15.2649C31.9061 15.4986 31.8357 15.724 31.723 15.9411C31.612 16.1565 31.462 16.3496 31.2731 16.5202C31.0858 16.6893 30.8621 16.8235 30.6019 16.9229C30.3434 17.0207 30.0509 17.0696 29.7244 17.0696C29.2704 17.0696 28.8643 16.9669 28.5064 16.7614C28.1501 16.5559 27.8684 16.2584 27.6612 15.869C27.4557 15.4795 27.353 15.008 27.353 14.4545C27.353 13.8994 27.4574 13.4271 27.6662 13.0376C27.875 12.6482 28.1584 12.3516 28.5163 12.1477C28.8743 11.9422 29.277 11.8395 29.7244 11.8395C30.0194 11.8395 30.2929 11.8809 30.5447 11.9638C30.7983 12.0466 31.0228 12.1676 31.2184 12.3267C31.4139 12.4841 31.573 12.6772 31.6957 12.9059C31.82 13.1346 31.8995 13.3964 31.9343 13.6914ZM32.5123 12.7965V11.9091H36.6934V12.7965H35.1348V17H34.0708V12.7965H32.5123ZM37.6373 17H36.4839L38.2414 11.9091H39.6285L41.3834 17H40.23L38.9548 13.0724H38.915L37.6373 17ZM37.5653 14.9989H40.2897V15.8391H37.5653V14.9989ZM41.9962 17V11.9091H44.0047C44.3908 11.9091 44.7198 11.9828 44.9916 12.1303C45.2633 12.2762 45.4705 12.4792 45.613 12.7393C45.7572 12.9979 45.8293 13.2962 45.8293 13.6342C45.8293 13.9723 45.7564 14.2706 45.6105 14.5291C45.4647 14.7876 45.2534 14.989 44.9767 15.1332C44.7016 15.2773 44.3685 15.3494 43.9774 15.3494H42.6972V14.4869H43.8034C44.0105 14.4869 44.1812 14.4512 44.3154 14.38C44.4513 14.3071 44.5524 14.2068 44.6187 14.0792C44.6866 13.9499 44.7206 13.8016 44.7206 13.6342C44.7206 13.4652 44.6866 13.3177 44.6187 13.1918C44.5524 13.0642 44.4513 12.9656 44.3154 12.896C44.1795 12.8247 44.0072 12.7891 43.7984 12.7891H43.0725V17H41.9962ZM46.7322 11.9091H47.7837V16.1349H49.2454V11.9091H50.2919V16.1349H51.7362V11.9091H52.7827V17H46.7322V11.9091ZM53.8702 11.9091H54.9441V15.1108H54.9863L57.1863 11.9091H58.1284V17H57.052V13.7958H57.0147L54.8024 17H53.8702V11.9091ZM59.0177 11.9091H60.0915V15.1108H60.1338L62.3337 11.9091H63.2758V17H62.1995V13.7958H62.1622L59.9498 17H59.0177V11.9091ZM61.6427 10.5767H62.3809C62.3793 10.8783 62.2674 11.1211 62.0454 11.305C61.825 11.489 61.5267 11.581 61.1505 11.581C60.7726 11.581 60.4735 11.489 60.2531 11.305C60.0327 11.1211 59.9225 10.8783 59.9225 10.5767H60.6558C60.6541 10.6911 60.6906 10.7938 60.7652 10.8849C60.8414 10.9761 60.9698 11.0217 61.1505 11.0217C61.3261 11.0217 61.4521 10.9769 61.5283 10.8874C61.6046 10.7979 61.6427 10.6944 61.6427 10.5767ZM65.7852 11.9091H67.1127L68.5146 15.3295H68.5743L69.9763 11.9091H71.3037V17H70.2597V13.6864H70.2174L68.8999 16.9751H68.189L66.8715 13.674H66.8293V17H65.7852V11.9091ZM76.8688 14.4545C76.8688 15.0097 76.7636 15.482 76.5531 15.8714C76.3443 16.2609 76.0592 16.5584 75.698 16.7638C75.3384 16.9677 74.934 17.0696 74.4849 17.0696C74.0325 17.0696 73.6265 16.9669 73.2669 16.7614C72.9073 16.5559 72.623 16.2584 72.4142 15.869C72.2054 15.4795 72.101 15.008 72.101 14.4545C72.101 13.8994 72.2054 13.4271 72.4142 13.0376C72.623 12.6482 72.9073 12.3516 73.2669 12.1477C73.6265 11.9422 74.0325 11.8395 74.4849 11.8395C74.934 11.8395 75.3384 11.9422 75.698 12.1477C76.0592 12.3516 76.3443 12.6482 76.5531 13.0376C76.7636 13.4271 76.8688 13.8994 76.8688 14.4545ZM75.7775 14.4545C75.7775 14.0949 75.7237 13.7917 75.6159 13.5447C75.5099 13.2978 75.3599 13.1106 75.166 12.983C74.9721 12.8554 74.7451 12.7915 74.4849 12.7915C74.2247 12.7915 73.9977 12.8554 73.8038 12.983C73.6099 13.1106 73.4591 13.2978 73.3514 13.5447C73.2453 13.7917 73.1923 14.0949 73.1923 14.4545C73.1923 14.8142 73.2453 15.1174 73.3514 15.3643C73.4591 15.6113 73.6099 15.7985 73.8038 15.9261C73.9977 16.0537 74.2247 16.1175 74.4849 16.1175C74.7451 16.1175 74.9721 16.0537 75.166 15.9261C75.3599 15.7985 75.5099 15.6113 75.6159 15.3643C75.7237 15.1174 75.7775 14.8142 75.7775 14.4545ZM77.3902 18.228V16.1424H77.7357C77.8534 16.0579 77.9611 15.9386 78.0589 15.7844C78.1566 15.6287 78.2403 15.4141 78.3099 15.1406C78.3795 14.8655 78.4292 14.5059 78.4591 14.0618L78.6032 11.9091H81.9715V16.1424H82.5283V18.223H81.4942V17H78.4243V18.228H77.3902ZM78.9786 16.1424H80.9374V12.7965H79.5727L79.4932 14.0618C79.4716 14.3982 79.436 14.6965 79.3863 14.9567C79.3382 15.2169 79.2794 15.4447 79.2098 15.6403C79.1418 15.8342 79.0648 16.0015 78.9786 16.1424ZM83.1827 17V11.9091H86.6131V12.7965H84.2591V14.0096H86.4366V14.897H84.2591V16.1126H86.623V17H83.1827ZM87.4688 17V11.9091H89.4774C89.8635 11.9091 90.1924 11.9828 90.4642 12.1303C90.736 12.2762 90.9432 12.4792 91.0857 12.7393C91.2298 12.9979 91.3019 13.2962 91.3019 13.6342C91.3019 13.9723 91.229 14.2706 91.0832 14.5291C90.9374 14.7876 90.7261 14.989 90.4493 15.1332C90.1742 15.2773 89.8411 15.3494 89.45 15.3494H88.1698V14.4869H89.276C89.4832 14.4869 89.6539 14.4512 89.7881 14.38C89.924 14.3071 90.0251 14.2068 90.0914 14.0792C90.1593 13.9499 90.1933 13.8016 90.1933 13.6342C90.1933 13.4652 90.1593 13.3177 90.0914 13.1918C90.0251 13.0642 89.924 12.9656 89.7881 12.896C89.6522 12.8247 89.4798 12.7891 89.271 12.7891H88.5452V17H87.4688ZM92.2907 17H91.1373L92.8947 11.9091H94.2818L96.0368 17H94.8833L93.6081 13.0724H93.5684L92.2907 17ZM92.2186 14.9989H94.943V15.8391H92.2186V14.9989ZM95.8335 12.7965V11.9091H100.015V12.7965H98.4561V17H97.3921V12.7965H95.8335ZM105.149 14.4545C105.149 15.0097 105.044 15.482 104.833 15.8714C104.625 16.2609 104.34 16.5584 103.978 16.7638C103.619 16.9677 103.214 17.0696 102.765 17.0696C102.313 17.0696 101.907 16.9669 101.547 16.7614C101.188 16.5559 100.903 16.2584 100.695 15.869C100.486 15.4795 100.381 15.008 100.381 14.4545C100.381 13.8994 100.486 13.4271 100.695 13.0376C100.903 12.6482 101.188 12.3516 101.547 12.1477C101.907 11.9422 102.313 11.8395 102.765 11.8395C103.214 11.8395 103.619 11.9422 103.978 12.1477C104.34 12.3516 104.625 12.6482 104.833 13.0376C105.044 13.4271 105.149 13.8994 105.149 14.4545ZM104.058 14.4545C104.058 14.0949 104.004 13.7917 103.896 13.5447C103.79 13.2978 103.64 13.1106 103.446 12.983C103.252 12.8554 103.025 12.7915 102.765 12.7915C102.505 12.7915 102.278 12.8554 102.084 12.983C101.89 13.1106 101.739 13.2978 101.632 13.5447C101.526 13.7917 101.473 14.0949 101.473 14.4545C101.473 14.8142 101.526 15.1174 101.632 15.3643C101.739 15.6113 101.89 15.7985 102.084 15.9261C102.278 16.0537 102.505 16.1175 102.765 16.1175C103.025 16.1175 103.252 16.0537 103.446 15.9261C103.64 15.7985 103.79 15.6113 103.896 15.3643C104.004 15.1174 104.058 14.8142 104.058 14.4545ZM105.946 17V11.9091H107.955C108.341 11.9091 108.67 11.9828 108.942 12.1303C109.214 12.2762 109.421 12.4792 109.563 12.7393C109.707 12.9979 109.779 13.2962 109.779 13.6342C109.779 13.9723 109.707 14.2706 109.561 14.5291C109.415 14.7876 109.204 14.989 108.927 15.1332C108.652 15.2773 108.319 15.3494 107.928 15.3494H106.647V14.4869H107.754C107.961 14.4869 108.131 14.4512 108.266 14.38C108.402 14.3071 108.503 14.2068 108.569 14.0792C108.637 13.9499 108.671 13.8016 108.671 13.6342C108.671 13.4652 108.637 13.3177 108.569 13.1918C108.503 13.0642 108.402 12.9656 108.266 12.896C108.13 12.8247 107.957 12.7891 107.749 12.7891H107.023V17H105.946Z" fill="white"/>
<defs>
<linearGradient id="paint0_linear_1933_89" x1="0" y1="28" x2="138.358" y2="1.89677" gradientUnits="userSpaceOnUse">
<stop stop-color="#6A3810"/>
<stop offset="1" stop-color="#E67216"/>
</linearGradient>
</defs>
</svg>
