<svg width="138" height="28" viewBox="0 0 138 28" fill="none" xmlns="http://www.w3.org/2000/svg">
<path d="M0 7C0 3.13401 3.13401 0 7 0H131C134.866 0 138 3.13401 138 7V10C138 19.9411 129.941 28 120 28H7C3.13401 28 0 24.866 0 21V7Z" fill="url(#paint0_linear_1933_96)"/>
<path d="M76.9825 15.2471L69.0206 22L61 15.2471L63.5348 6M71.3624 11.5929L74.436 6.06083M74.4826 6.06083L77 15.1863M63.5759 6L66.6495 11.5321M66.6788 11.5969H71.3624" stroke="white" stroke-opacity="0.4" stroke-width="2" stroke-linecap="round" stroke-linejoin="round"/>
<path d="M47.7702 11.9091V17H46.7063V12.7841H44.6481V17H43.5842V11.9091H47.7702ZM48.795 17V11.9091H50.8035C51.1897 11.9091 51.5186 11.9828 51.7904 12.1303C52.0622 12.2762 52.2693 12.4792 52.4118 12.7393C52.556 12.9979 52.6281 13.2962 52.6281 13.6342C52.6281 13.9723 52.5552 14.2706 52.4094 14.5291C52.2635 14.7876 52.0522 14.989 51.7755 15.1332C51.5004 15.2773 51.1673 15.3494 50.7762 15.3494H49.496V14.4869H50.6022C50.8093 14.4869 50.98 14.4512 51.1143 14.38C51.2501 14.3071 51.3512 14.2068 51.4175 14.0792C51.4855 13.9499 51.5194 13.8016 51.5194 13.6342C51.5194 13.4652 51.4855 13.3177 51.4175 13.1918C51.3512 13.0642 51.2501 12.9656 51.1143 12.896C50.9784 12.8247 50.806 12.7891 50.5972 12.7891H49.8714V17H48.795ZM53.3272 11.9091H54.4011V15.1108H54.4434L56.6433 11.9091H57.5854V17H56.5091V13.7958H56.4718L54.2594 17H53.3272V11.9091ZM58.1988 17V16.1349L58.343 16.1225C58.5286 16.1076 58.6785 16.0372 58.7929 15.9112C58.9072 15.7836 58.9926 15.5806 59.0489 15.3022C59.1069 15.0221 59.1442 14.646 59.1608 14.1737L59.2453 11.9091H62.7006V17H61.654V12.7717H60.2446L60.165 14.544C60.1385 15.1141 60.0706 15.5798 59.9612 15.9411C59.8535 16.3023 59.6811 16.5691 59.4442 16.7415C59.2088 16.9138 58.8865 17 58.4772 17H58.1988ZM68.2662 14.4545C68.2662 15.0097 68.161 15.482 67.9506 15.8714C67.7417 16.2609 67.4567 16.5584 67.0954 16.7638C66.7358 16.9677 66.3315 17.0696 65.8824 17.0696C65.43 17.0696 65.0239 16.9669 64.6643 16.7614C64.3047 16.5559 64.0205 16.2584 63.8117 15.869C63.6029 15.4795 63.4985 15.008 63.4985 14.4545C63.4985 13.8994 63.6029 13.4271 63.8117 13.0376C64.0205 12.6482 64.3047 12.3516 64.6643 12.1477C65.0239 11.9422 65.43 11.8395 65.8824 11.8395C66.3315 11.8395 66.7358 11.9422 67.0954 12.1477C67.4567 12.3516 67.7417 12.6482 67.9506 13.0376C68.161 13.4271 68.2662 13.8994 68.2662 14.4545ZM67.175 14.4545C67.175 14.0949 67.1211 13.7917 67.0134 13.5447C66.9073 13.2978 66.7574 13.1106 66.5635 12.983C66.3696 12.8554 66.1425 12.7915 65.8824 12.7915C65.6222 12.7915 65.3952 12.8554 65.2013 12.983C65.0074 13.1106 64.8566 13.2978 64.7488 13.5447C64.6428 13.7917 64.5898 14.0949 64.5898 14.4545C64.5898 14.8142 64.6428 15.1174 64.7488 15.3643C64.8566 15.6113 65.0074 15.7985 65.2013 15.9261C65.3952 16.0537 65.6222 16.1175 65.8824 16.1175C66.1425 16.1175 66.3696 16.0537 66.5635 15.9261C66.7574 15.7985 66.9073 15.6113 67.0134 15.3643C67.1211 15.1174 67.175 14.8142 67.175 14.4545ZM72.7021 11.9091V17H71.6581V11.9091H72.7021ZM68.5832 17L70.1791 14.3153L68.6503 11.9091H69.9752L71.1187 14.0046H73.2689L74.3825 11.9091H75.7025L74.211 14.3079L75.7771 17H74.4919L73.4156 14.9989H70.9621L69.8584 17H68.5832ZM76.419 17V11.9091H79.8494V12.7965H77.4954V14.0096H79.6729V14.897H77.4954V16.1126H79.8594V17H76.419ZM80.7052 17V11.9091H81.7815V14.0096H83.9665V11.9091H85.0404V17H83.9665V14.897H81.7815V17H80.7052ZM85.9278 11.9091H87.0017V15.1108H87.0439L89.2439 11.9091H90.186V17H89.1096V13.7958H89.0724L86.86 17H85.9278V11.9091ZM91.0753 17V11.9091H94.5057V12.7965H92.1516V14.0096H94.3292V14.897H92.1516V16.1126H94.5156V17H91.0753Z" fill="white"/>
<defs>
<linearGradient id="paint0_linear_1933_96" x1="0" y1="28" x2="138.358" y2="1.89677" gradientUnits="userSpaceOnUse">
<stop stop-color="#093E70"/>
<stop offset="1" stop-color="#1185F1"/>
</linearGradient>
</defs>
</svg>
