<svg width="155" height="29" viewBox="0 0 155 29" fill="none" xmlns="http://www.w3.org/2000/svg">
<path d="M0 7C0 3.13401 3.13401 0 7 0H150C152.761 0 155 2.23858 155 5V11C155 20.9411 146.941 29 137 29H7C3.13401 29 0 25.866 0 22V7Z" fill="url(#paint0_linear_1933_96)"/>
<path d="M85.9804 16.403L77.0231 24L68 16.403L70.8516 6M79.6577 12.292L83.1155 6.06844M83.1679 6.06844L86 16.3346M70.8979 6L74.3557 12.2236M74.3886 12.2965H79.6577" stroke="white" stroke-opacity="0.1" stroke-width="2" stroke-linecap="round" stroke-linejoin="round"/>
<path d="M50.1332 11.4545V18H48.7653V12.5795H46.119V18H44.7511V11.4545H50.1332ZM51.4507 18V11.4545H54.0331C54.5296 11.4545 54.9525 11.5494 55.3019 11.739C55.6514 11.9265 55.9177 12.1875 56.1009 12.522C56.2863 12.8544 56.379 13.2379 56.379 13.6726C56.379 14.1072 56.2852 14.4908 56.0977 14.8232C55.9102 15.1555 55.6386 15.4144 55.2828 15.5998C54.9291 15.7852 54.5008 15.8778 53.998 15.8778H52.352V14.7688H53.7742C54.0406 14.7688 54.26 14.723 54.4326 14.6314C54.6073 14.5376 54.7373 14.4087 54.8225 14.2447C54.9099 14.0785 54.9536 13.8878 54.9536 13.6726C54.9536 13.4553 54.9099 13.2656 54.8225 13.1037C54.7373 12.9396 54.6073 12.8129 54.4326 12.7234C54.2579 12.6317 54.0363 12.5859 53.7678 12.5859H52.8346V18H51.4507ZM57.2779 11.4545H58.6586V15.571H58.7129L61.5414 11.4545H62.7527V18H61.3688V13.8803H61.3208L58.4764 18H57.2779V11.4545ZM63.5413 18V16.8878L63.7267 16.8718C63.9653 16.8526 64.1581 16.7621 64.3051 16.6001C64.4521 16.4361 64.5619 16.1751 64.6343 15.8171C64.7089 15.457 64.7568 14.9734 64.7781 14.3661L64.8868 11.4545H69.3293V18H67.9838V12.5636H66.1716L66.0693 14.8423C66.0352 15.5753 65.9479 16.174 65.8073 16.6385C65.6688 17.103 65.4472 17.446 65.1425 17.6676C64.8399 17.8892 64.4255 18 63.8992 18H63.5413ZM76.4852 14.7273C76.4852 15.4411 76.3499 16.0483 76.0793 16.549C75.8108 17.0497 75.4443 17.4322 74.9798 17.6964C74.5175 17.9585 73.9976 18.0895 73.4202 18.0895C72.8385 18.0895 72.3165 17.9574 71.8541 17.6932C71.3918 17.429 71.0264 17.0465 70.7579 16.5458C70.4894 16.0451 70.3552 15.4389 70.3552 14.7273C70.3552 14.0135 70.4894 13.4062 70.7579 12.9055C71.0264 12.4048 71.3918 12.0234 71.8541 11.7614C72.3165 11.4972 72.8385 11.3651 73.4202 11.3651C73.9976 11.3651 74.5175 11.4972 74.9798 11.7614C75.4443 12.0234 75.8108 12.4048 76.0793 12.9055C76.3499 13.4062 76.4852 14.0135 76.4852 14.7273ZM75.0821 14.7273C75.0821 14.2649 75.0129 13.875 74.8744 13.5575C74.738 13.2401 74.5452 12.9993 74.2959 12.8352C74.0466 12.6712 73.7547 12.5891 73.4202 12.5891C73.0857 12.5891 72.7938 12.6712 72.5445 12.8352C72.2952 12.9993 72.1013 13.2401 71.9628 13.5575C71.8264 13.875 71.7583 14.2649 71.7583 14.7273C71.7583 15.1896 71.8264 15.5795 71.9628 15.897C72.1013 16.2145 72.2952 16.4553 72.5445 16.6193C72.7938 16.7834 73.0857 16.8654 73.4202 16.8654C73.7547 16.8654 74.0466 16.7834 74.2959 16.6193C74.5452 16.4553 74.738 16.2145 74.8744 15.897C75.0129 15.5795 75.0821 15.1896 75.0821 14.7273ZM82.1885 11.4545V18H80.8461V11.4545H82.1885ZM76.8927 18L78.9445 14.5483L76.979 11.4545H78.6824L80.1526 14.1488H82.9172L84.349 11.4545H86.0461L84.1285 14.5387L86.142 18H84.4896L83.1057 15.4272H79.9513L78.5322 18H76.8927ZM86.9673 18V11.4545H91.3778V12.5955H88.3512V14.1552H91.1509V15.2962H88.3512V16.859H91.3906V18H86.9673ZM92.4781 18V11.4545H93.8619V14.1552H96.6713V11.4545H98.0519V18H96.6713V15.2962H93.8619V18H92.4781ZM99.1929 11.4545H100.574V15.571H100.628L103.456 11.4545H104.668V18H103.284V13.8803H103.236L100.391 18H99.1929V11.4545ZM105.811 18V11.4545H110.222V12.5955H107.195V14.1552H109.995V15.2962H107.195V16.859H110.234V18H105.811Z" fill="white"/>
<defs>
<linearGradient id="paint0_linear_1933_96" x1="0" y1="29" x2="154.467" y2="-2.60381" gradientUnits="userSpaceOnUse">
<stop stop-color="#061251"/>
<stop offset="1" stop-color="#0084FF"/>
</linearGradient>
</defs>
</svg>
