<svg width="155" height="29" viewBox="0 0 155 29" fill="none" xmlns="http://www.w3.org/2000/svg">
<path d="M0 7C0 3.13401 3.13401 0 7 0H150C152.761 0 155 2.23858 155 5V11C155 20.9411 146.941 29 137 29H7C3.13401 29 0 25.866 0 22V7Z" fill="url(#paint0_linear_2050_7)"/>
<path d="M85.9804 16.403L77.0231 24L68 16.403L70.8516 6M79.6577 12.292L83.1155 6.06844M83.1679 6.06844L86 16.3346M70.8979 6L74.3557 12.2236M74.3886 12.2965H79.6577" stroke="white" stroke-opacity="0.1" stroke-width="2" stroke-linecap="round" stroke-linejoin="round"/>
<path d="M34.6392 14.2188H33.3949C33.3722 14.0578 33.3258 13.9148 33.2557 13.7898C33.1856 13.6629 33.0956 13.5549 32.9858 13.4659C32.8759 13.3769 32.7491 13.3087 32.6051 13.2614C32.4631 13.214 32.3087 13.1903 32.142 13.1903C31.8409 13.1903 31.5786 13.2652 31.3551 13.4148C31.1316 13.5625 30.9583 13.7784 30.8352 14.0625C30.7121 14.3447 30.6506 14.6875 30.6506 15.0909C30.6506 15.5057 30.7121 15.8542 30.8352 16.1364C30.9602 16.4186 31.1345 16.6316 31.358 16.7756C31.5814 16.9195 31.84 16.9915 32.1335 16.9915C32.2983 16.9915 32.4508 16.9697 32.5909 16.9261C32.733 16.8826 32.8589 16.8191 32.9688 16.7358C33.0786 16.6506 33.1695 16.5473 33.2415 16.4261C33.3153 16.3049 33.3665 16.1667 33.3949 16.0114L34.6392 16.017C34.607 16.2841 34.5265 16.5417 34.3977 16.7898C34.2708 17.036 34.0994 17.2566 33.8835 17.4517C33.6695 17.6449 33.4138 17.7983 33.1165 17.9119C32.821 18.0237 32.4867 18.0795 32.1136 18.0795C31.5947 18.0795 31.1307 17.9621 30.7216 17.7273C30.3144 17.4924 29.9924 17.1525 29.7557 16.7074C29.5208 16.2623 29.4034 15.7235 29.4034 15.0909C29.4034 14.4564 29.5227 13.9167 29.7614 13.4716C30 13.0265 30.3239 12.6875 30.733 12.4545C31.142 12.2197 31.6023 12.1023 32.1136 12.1023C32.4508 12.1023 32.7633 12.1496 33.0511 12.2443C33.3409 12.339 33.5975 12.4773 33.821 12.6591C34.0445 12.839 34.2263 13.0597 34.3665 13.321C34.5085 13.5824 34.5994 13.8816 34.6392 14.2188ZM35.206 18V17.0114L35.3707 16.9972C35.5829 16.9801 35.7543 16.8996 35.8849 16.7557C36.0156 16.6098 36.1132 16.3778 36.1776 16.0597C36.2438 15.7396 36.2865 15.3097 36.3054 14.7699L36.402 12.1818H40.3509V18H39.1548V13.1676H37.544L37.4531 15.1932C37.4228 15.8447 37.3452 16.3769 37.2202 16.7898C37.0971 17.2027 36.9001 17.5076 36.6293 17.7045C36.3603 17.9015 35.992 18 35.5241 18H35.206ZM41.9929 18.0795V17.0795H42.3082C42.4654 17.0795 42.5923 17.0606 42.6889 17.0227C42.7855 16.983 42.8622 16.9252 42.919 16.8494C42.9777 16.7718 43.027 16.6752 43.0668 16.5597L43.1378 16.3693L41.0241 12.1818H42.2969L43.6662 15.0455L44.8111 12.1818H46.0668L44.0611 16.858C43.9645 17.0739 43.8499 17.2746 43.7173 17.4602C43.5866 17.6458 43.419 17.7955 43.2145 17.9091C43.0099 18.0227 42.7486 18.0795 42.4304 18.0795H41.9929ZM51.1641 12.1818V18H49.9709V12.1818H51.1641ZM46.4567 18L48.2805 14.9318L46.5334 12.1818H48.0476L49.3544 14.5767H51.8118L53.0845 12.1818H54.593L52.8885 14.9233L54.6783 18H53.2095L51.9794 15.7131H49.1754L47.9141 18H46.4567ZM55.4119 18V12.1818H59.3324V13.196H56.642V14.5824H59.1307V15.5966H56.642V16.9858H59.3438V18H55.4119ZM60.3104 18V12.1818H64.1712V13.196H61.5405V14.3324H62.4865C62.9467 14.3324 63.3435 14.4072 63.6768 14.5568C64.0121 14.7045 64.2706 14.9138 64.4524 15.1847C64.6342 15.4555 64.7251 15.7746 64.7251 16.142C64.7251 16.5076 64.6342 16.8305 64.4524 17.1108C64.2706 17.3892 64.0121 17.607 63.6768 17.7642C63.3435 17.9214 62.9467 18 62.4865 18H60.3104ZM61.5405 17.0114H62.4865C62.7062 17.0114 62.8918 16.9716 63.0433 16.892C63.1948 16.8106 63.3094 16.7036 63.3871 16.571C63.4666 16.4366 63.5064 16.2898 63.5064 16.1307C63.5064 15.8996 63.4183 15.7045 63.2422 15.5455C63.0679 15.3845 62.8161 15.304 62.4865 15.304H61.5405V17.0114ZM65.5213 18V12.1818H66.7514V14.5824H69.2486V12.1818H70.4759V18H69.2486V15.5966H66.7514V18H65.5213ZM72.2997 14.3324H73.6861C74.1482 14.3324 74.5459 14.4072 74.8793 14.5568C75.2145 14.7045 75.473 14.9138 75.6548 15.1847C75.8366 15.4555 75.9266 15.7746 75.9247 16.142C75.9266 16.5076 75.8366 16.8305 75.6548 17.1108C75.473 17.3892 75.2145 17.607 74.8793 17.7642C74.5459 17.9214 74.1482 18 73.6861 18H71.5128V12.1818H72.7401V17.0114H73.6861C73.9077 17.0114 74.0942 16.9716 74.2457 16.892C74.3973 16.8106 74.5118 16.7036 74.5895 16.571C74.669 16.4366 74.7079 16.2898 74.706 16.1307C74.7079 15.8996 74.6207 15.7045 74.4446 15.5455C74.2704 15.3845 74.0175 15.304 73.6861 15.304H72.2997V14.3324ZM77.6264 12.1818V18H76.3991V12.1818H77.6264ZM78.6385 12.1818H79.8658V15.8409H79.9141L82.4283 12.1818H83.505V18H82.2749V14.3381H82.2322L79.7038 18H78.6385V12.1818ZM81.6385 10.6591H82.4822C82.4804 11.0038 82.3525 11.2812 82.0987 11.4915C81.8468 11.7017 81.5059 11.8068 81.076 11.8068C80.6442 11.8068 80.3023 11.7017 80.0504 11.4915C79.7985 11.2812 79.6726 11.0038 79.6726 10.6591H80.5107C80.5088 10.7898 80.5504 10.9072 80.6357 11.0114C80.7228 11.1155 80.8696 11.1676 81.076 11.1676C81.2768 11.1676 81.4207 11.1165 81.5078 11.0142C81.5949 10.9119 81.6385 10.7936 81.6385 10.6591ZM87.3757 18H86.0575L88.0661 12.1818H89.6513L91.657 18H90.3388L88.8814 13.5114H88.8359L87.3757 18ZM87.2933 15.7131H90.407V16.6733H87.2933V15.7131ZM95.8771 18L94.0078 15.5199H93.5874V18H92.3572V12.1818H93.5874V14.5057H93.8345L95.7663 12.1818H97.2976L95.0277 14.8807L97.4027 18H95.8771ZM101.541 18L99.6719 15.5199H99.2514V18H98.0213V12.1818H99.2514V14.5057H99.4986L101.43 12.1818H102.962L100.692 14.8807L103.067 18H101.541ZM104.688 18H103.37L105.379 12.1818H106.964L108.969 18H107.651L106.194 13.5114H106.148L104.688 18ZM104.606 15.7131H107.719V16.6733H104.606V15.7131ZM109.704 18.0795V17.0795H110.019C110.176 17.0795 110.303 17.0606 110.4 17.0227C110.496 16.983 110.573 16.9252 110.63 16.8494C110.689 16.7718 110.738 16.6752 110.778 16.5597L110.849 16.3693L108.735 12.1818H110.008L111.377 15.0455L112.522 12.1818H113.778L111.772 16.858C111.675 17.0739 111.561 17.2746 111.428 17.4602C111.298 17.6458 111.13 17.7955 110.925 17.9091C110.721 18.0227 110.46 18.0795 110.141 18.0795H109.704ZM114.443 18V12.1818H115.673V14.5824H118.17V12.1818H119.398V18H118.17V15.5966H115.673V18H114.443ZM120.19 13.196V12.1818H124.969V13.196H123.188V18H121.972V13.196H120.19Z" fill="white"/>
<defs>
<linearGradient id="paint0_linear_2050_7" x1="0" y1="29" x2="154.467" y2="-2.60381" gradientUnits="userSpaceOnUse">
<stop stop-color="#061251"/>
<stop offset="1" stop-color="#0084FF"/>
</linearGradient>
</defs>
</svg>
