<svg width="138" height="28" viewBox="0 0 138 28" fill="none" xmlns="http://www.w3.org/2000/svg">
<path d="M0 7C0 3.13401 3.13401 0 7 0H131C134.866 0 138 3.13401 138 7V10C138 19.9411 129.941 28 120 28H7C3.13401 28 0 24.866 0 21V7Z" fill="url(#paint0_linear_1933_90)"/>
<path d="M76.9825 15.2471L69.0206 22L61 15.2471L63.5348 6M71.3624 11.5929L74.436 6.06083M74.4826 6.06083L77 15.1863M63.5759 6L66.6495 11.5321M66.6788 11.5969H71.3624" stroke="white" stroke-opacity="0.4" stroke-width="2" stroke-linecap="round" stroke-linejoin="round"/>
<path d="M20.9343 13.6914H19.8455C19.8256 13.5505 19.785 13.4254 19.7237 13.3161C19.6624 13.205 19.5837 13.1106 19.4876 13.0327C19.3915 12.9548 19.2804 12.8951 19.1545 12.8537C19.0302 12.8123 18.8951 12.7915 18.7493 12.7915C18.4858 12.7915 18.2563 12.857 18.0607 12.9879C17.8652 13.1172 17.7135 13.3061 17.6058 13.5547C17.4981 13.8016 17.4442 14.1016 17.4442 14.4545C17.4442 14.8175 17.4981 15.1224 17.6058 15.3693C17.7152 15.6162 17.8677 15.8027 18.0632 15.9286C18.2588 16.0546 18.485 16.1175 18.7418 16.1175C18.886 16.1175 19.0194 16.0985 19.142 16.0604C19.2663 16.0223 19.3765 15.9667 19.4727 15.8938C19.5688 15.8192 19.6483 15.7289 19.7113 15.6229C19.7759 15.5168 19.8207 15.3958 19.8455 15.2599L20.9343 15.2649C20.9061 15.4986 20.8357 15.724 20.723 15.9411C20.612 16.1565 20.462 16.3496 20.2731 16.5202C20.0858 16.6893 19.8621 16.8235 19.6019 16.9229C19.3434 17.0207 19.0509 17.0696 18.7244 17.0696C18.2704 17.0696 17.8643 16.9669 17.5064 16.7614C17.1501 16.5559 16.8684 16.2584 16.6612 15.869C16.4557 15.4795 16.353 15.008 16.353 14.4545C16.353 13.8994 16.4574 13.4271 16.6662 13.0376C16.875 12.6482 17.1584 12.3516 17.5163 12.1477C17.8743 11.9422 18.277 11.8395 18.7244 11.8395C19.0194 11.8395 19.2929 11.8809 19.5447 11.9638C19.7983 12.0466 20.0228 12.1676 20.2184 12.3267C20.4139 12.4841 20.573 12.6772 20.6957 12.9059C20.82 13.1346 20.8995 13.3964 20.9343 13.6914ZM21.4302 17V16.1349L21.5744 16.1225C21.76 16.1076 21.91 16.0372 22.0243 15.9112C22.1387 15.7836 22.224 15.5806 22.2804 15.3022C22.3384 15.0221 22.3757 14.646 22.3922 14.1737L22.4767 11.9091H25.932V17H24.8855V12.7717H23.476L23.3965 14.544C23.37 15.1141 23.302 15.5798 23.1926 15.9411C23.0849 16.3023 22.9126 16.5691 22.6756 16.7415C22.4403 16.9138 22.118 17 21.7086 17H21.4302ZM26.8194 17V11.9091H30.2498V12.7965H27.8958V14.0096H30.0733V14.897H27.8958V16.1126H30.2598V17H26.8194ZM30.8296 18.228V16.1424H31.1752C31.2928 16.0579 31.4005 15.9386 31.4983 15.7844C31.5961 15.6287 31.6798 15.4141 31.7494 15.1406C31.819 14.8655 31.8687 14.5059 31.8985 14.0618L32.0427 11.9091H35.411V16.1424H35.9678V18.223H34.9337V17H31.8637V18.228H30.8296ZM32.4181 16.1424H34.3769V12.7965H33.0122L32.9326 14.0618C32.9111 14.3982 32.8754 14.6965 32.8257 14.9567C32.7777 15.2169 32.7188 15.4447 32.6492 15.6403C32.5813 15.8342 32.5042 16.0015 32.4181 16.1424ZM40.5298 17H39.456V12.7891H38.7301C38.523 12.7891 38.3506 12.8197 38.2131 12.881C38.0772 12.9407 37.9753 13.0285 37.9073 13.1445C37.8394 13.2605 37.8054 13.4031 37.8054 13.5721C37.8054 13.7395 37.8394 13.8795 37.9073 13.9922C37.9753 14.1049 38.0772 14.1894 38.2131 14.2457C38.349 14.3021 38.5196 14.3303 38.7251 14.3303H39.8935V15.1953H38.5511C38.1617 15.1953 37.8286 15.1307 37.5518 15.0014C37.2751 14.8722 37.0638 14.6866 36.918 14.4446C36.7721 14.201 36.6992 13.9102 36.6992 13.5721C36.6992 13.2357 36.7705 12.9432 36.913 12.6946C37.0572 12.4444 37.2652 12.2513 37.5369 12.1154C37.8104 11.9779 38.1393 11.9091 38.5238 11.9091H40.5298V17ZM37.783 14.6832H38.9439L37.706 17H36.5178L37.783 14.6832ZM48.2178 16.1673L48.1482 18.1982H47.1713V17H46.7561V16.1673H48.2178ZM41.618 11.9091H42.6695V16.1349H44.1311V11.9091H45.1776V16.1349H46.6219V11.9091H47.6684V17H41.618V11.9091ZM48.8722 11.9091H49.946V15.1108H49.9883L52.1882 11.9091H53.1303V17H52.054V13.7958H52.0167L49.8043 17H48.8722V11.9091ZM54.0196 11.9091H55.0935V15.1108H55.1357L57.3357 11.9091H58.2778V17H57.2014V13.7958H57.1642L54.9518 17H54.0196V11.9091ZM56.6446 10.5767H57.3829C57.3812 10.8783 57.2694 11.1211 57.0473 11.305C56.8269 11.489 56.5286 11.581 56.1524 11.581C55.7746 11.581 55.4755 11.489 55.2551 11.305C55.0347 11.1211 54.9244 10.8783 54.9244 10.5767H55.6578C55.6561 10.6911 55.6926 10.7938 55.7671 10.8849C55.8434 10.9761 55.9718 11.0217 56.1524 11.0217C56.3281 11.0217 56.454 10.9769 56.5303 10.8874C56.6065 10.7979 56.6446 10.6944 56.6446 10.5767ZM62.6391 17.0696C62.2679 17.0696 61.9373 17.0058 61.6473 16.8782C61.3589 16.7489 61.1311 16.5716 60.9637 16.3462C60.798 16.1192 60.7126 15.8574 60.7077 15.5607H61.7915C61.7981 15.685 61.8387 15.7944 61.9133 15.8888C61.9895 15.9817 62.0906 16.0537 62.2165 16.1051C62.3425 16.1565 62.4842 16.1822 62.6416 16.1822C62.8057 16.1822 62.9507 16.1532 63.0766 16.0952C63.2026 16.0372 63.3012 15.9568 63.3724 15.854C63.4437 15.7513 63.4793 15.6328 63.4793 15.4986C63.4793 15.3627 63.4412 15.2425 63.365 15.1381C63.2904 15.0321 63.1827 14.9492 63.0418 14.8896C62.9026 14.8299 62.7369 14.8001 62.5447 14.8001H62.0699V14.0096H62.5447C62.7071 14.0096 62.8504 13.9814 62.9747 13.9251C63.1006 13.8687 63.1984 13.7908 63.268 13.6914C63.3376 13.5903 63.3724 13.4727 63.3724 13.3384C63.3724 13.2108 63.3418 13.099 63.2805 13.0028C63.2208 12.9051 63.1363 12.8288 63.0269 12.7741C62.9192 12.7195 62.7932 12.6921 62.6491 12.6921C62.5032 12.6921 62.3698 12.7186 62.2488 12.7717C62.1279 12.823 62.0309 12.8968 61.958 12.9929C61.8851 13.089 61.8461 13.2017 61.8412 13.331H60.8096C60.8145 13.0376 60.8982 12.7791 61.0606 12.5554C61.223 12.3317 61.4418 12.1568 61.7169 12.0309C61.9936 11.9033 62.306 11.8395 62.654 11.8395C63.0054 11.8395 63.3128 11.9033 63.5763 12.0309C63.8398 12.1585 64.0444 12.3308 64.1903 12.5479C64.3377 12.7634 64.4107 13.0053 64.409 13.2738C64.4107 13.5588 64.322 13.7966 64.143 13.9872C63.9657 14.1778 63.7345 14.2988 63.4495 14.3501V14.3899C63.824 14.438 64.109 14.5681 64.3046 14.7802C64.5018 14.9906 64.5996 15.2541 64.5979 15.5707C64.5996 15.8607 64.5159 16.1184 64.3469 16.3438C64.1795 16.5691 63.9483 16.7464 63.6533 16.8757C63.3583 17.005 63.0203 17.0696 62.6391 17.0696ZM66.2789 17H65.1255L66.883 11.9091H68.2701L70.025 17H68.8716L67.5964 13.0724H67.5566L66.2789 17ZM66.2069 14.9989H68.9313V15.8391H66.2069V14.9989ZM72.2579 11.9091H73.5853L74.9873 15.3295H75.047L76.449 11.9091H77.7764V17H76.7323V13.6864H76.6901L75.3726 16.9751H74.6617L73.3442 13.674H73.3019V17H72.2579V11.9091ZM83.3414 14.4545C83.3414 15.0097 83.2362 15.482 83.0257 15.8714C82.8169 16.2609 82.5319 16.5584 82.1706 16.7638C81.811 16.9677 81.4067 17.0696 80.9576 17.0696C80.5051 17.0696 80.0991 16.9669 79.7395 16.7614C79.3799 16.5559 79.0957 16.2584 78.8869 15.869C78.6781 15.4795 78.5737 15.008 78.5737 14.4545C78.5737 13.8994 78.6781 13.4271 78.8869 13.0376C79.0957 12.6482 79.3799 12.3516 79.7395 12.1477C80.0991 11.9422 80.5051 11.8395 80.9576 11.8395C81.4067 11.8395 81.811 11.9422 82.1706 12.1477C82.5319 12.3516 82.8169 12.6482 83.0257 13.0376C83.2362 13.4271 83.3414 13.8994 83.3414 14.4545ZM82.2502 14.4545C82.2502 14.0949 82.1963 13.7917 82.0886 13.5447C81.9825 13.2978 81.8326 13.1106 81.6387 12.983C81.4448 12.8554 81.2177 12.7915 80.9576 12.7915C80.6974 12.7915 80.4703 12.8554 80.2765 12.983C80.0826 13.1106 79.9318 13.2978 79.824 13.5447C79.718 13.7917 79.665 14.0949 79.665 14.4545C79.665 14.8142 79.718 15.1174 79.824 15.3643C79.9318 15.6113 80.0826 15.7985 80.2765 15.9261C80.4703 16.0537 80.6974 16.1175 80.9576 16.1175C81.2177 16.1175 81.4448 16.0537 81.6387 15.9261C81.8326 15.7985 81.9825 15.6113 82.0886 15.3643C82.1963 15.1174 82.2502 14.8142 82.2502 14.4545ZM83.8628 18.228V16.1424H84.2084C84.326 16.0579 84.4337 15.9386 84.5315 15.7844C84.6293 15.6287 84.713 15.4141 84.7826 15.1406C84.8522 14.8655 84.9019 14.5059 84.9317 14.0618L85.0759 11.9091H88.4442V16.1424H89.001V18.223H87.9669V17H84.8969V18.228H83.8628ZM85.4513 16.1424H87.4101V12.7965H86.0454L85.9658 14.0618C85.9443 14.3982 85.9086 14.6965 85.8589 14.9567C85.8109 15.2169 85.752 15.4447 85.6824 15.6403C85.6145 15.8342 85.5374 16.0015 85.4513 16.1424ZM89.6554 17V11.9091H93.0858V12.7965H90.7317V14.0096H92.9093V14.897H90.7317V16.1126H93.0957V17H89.6554ZM93.9415 17V11.9091H95.95C96.3361 11.9091 96.6651 11.9828 96.9369 12.1303C97.2087 12.2762 97.4158 12.4792 97.5583 12.7393C97.7025 12.9979 97.7746 13.2962 97.7746 13.6342C97.7746 13.9723 97.7017 14.2706 97.5558 14.5291C97.41 14.7876 97.1987 14.989 96.922 15.1332C96.6469 15.2773 96.3138 15.3494 95.9227 15.3494H94.6425V14.4869H95.7487C95.9558 14.4869 96.1265 14.4512 96.2607 14.38C96.3966 14.3071 96.4977 14.2068 96.564 14.0792C96.632 13.9499 96.6659 13.8016 96.6659 13.6342C96.6659 13.4652 96.632 13.3177 96.564 13.1918C96.4977 13.0642 96.3966 12.9656 96.2607 12.896C96.1249 12.8247 95.9525 12.7891 95.7437 12.7891H95.0178V17H93.9415ZM98.7633 17H97.6099L99.3674 11.9091H100.754L102.509 17H101.356L100.081 13.0724H100.041L98.7633 17ZM98.6912 14.9989H101.416V15.8391H98.6912V14.9989ZM108.027 16.1399L107.964 18.2031H106.94V17H106.582V16.1399H108.027ZM103.122 17V11.9091H104.156V16.1349H106.274V11.9091H107.321V17H103.122ZM108.68 11.9091H109.754V15.1108H109.796L111.996 11.9091H112.938V17H111.862V13.7958H111.824L109.612 17H108.68V11.9091ZM113.827 17V11.9091H117.258V12.7965H114.904V14.0096H117.081V14.897H114.904V16.1126H117.268V17H113.827ZM118.113 11.9091H119.187V15.1108H119.229L121.429 11.9091H122.372V17H121.295V13.7958H121.258L119.046 17H118.113V11.9091ZM120.738 10.5767H121.477C121.475 10.8783 121.363 11.1211 121.141 11.305C120.921 11.489 120.622 11.581 120.246 11.581C119.868 11.581 119.569 11.489 119.349 11.305C119.128 11.1211 119.018 10.8783 119.018 10.5767H119.752C119.75 10.6911 119.786 10.7938 119.861 10.8849C119.937 10.9761 120.066 11.0217 120.246 11.0217C120.422 11.0217 120.548 10.9769 120.624 10.8874C120.7 10.7979 120.738 10.6944 120.738 10.5767Z" fill="white"/>
<defs>
<linearGradient id="paint0_linear_1933_90" x1="0" y1="28" x2="138.358" y2="1.89677" gradientUnits="userSpaceOnUse">
<stop stop-color="#6A3E03"/>
<stop offset="1" stop-color="#FF9200"/>
</linearGradient>
</defs>
</svg>
