<svg width="155" height="29" viewBox="0 0 155 29" fill="none" xmlns="http://www.w3.org/2000/svg">
<path d="M0 7C0 3.13401 3.13401 0 7 0H150C152.761 0 155 2.23858 155 5V11C155 20.9411 146.941 29 137 29H7C3.13401 29 0 25.866 0 22V7Z" fill="url(#paint0_linear_2050_15)"/>
<path d="M85.9804 16.403L77.0231 24L68 16.403L70.8516 6M79.6577 12.292L83.1155 6.06844M83.1679 6.06844L86 16.3346M70.8979 6L74.3557 12.2236M74.3886 12.2965H79.6577" stroke="white" stroke-opacity="0.1" stroke-width="2" stroke-linecap="round" stroke-linejoin="round"/>
<path d="M44.6392 14.2188H43.3949C43.3722 14.0578 43.3258 13.9148 43.2557 13.7898C43.1856 13.6629 43.0956 13.5549 42.9858 13.4659C42.8759 13.3769 42.7491 13.3087 42.6051 13.2614C42.4631 13.214 42.3087 13.1903 42.142 13.1903C41.8409 13.1903 41.5786 13.2652 41.3551 13.4148C41.1316 13.5625 40.9583 13.7784 40.8352 14.0625C40.7121 14.3447 40.6506 14.6875 40.6506 15.0909C40.6506 15.5057 40.7121 15.8542 40.8352 16.1364C40.9602 16.4186 41.1345 16.6316 41.358 16.7756C41.5814 16.9195 41.84 16.9915 42.1335 16.9915C42.2983 16.9915 42.4508 16.9697 42.5909 16.9261C42.733 16.8826 42.8589 16.8191 42.9688 16.7358C43.0786 16.6506 43.1695 16.5473 43.2415 16.4261C43.3153 16.3049 43.3665 16.1667 43.3949 16.0114L44.6392 16.017C44.607 16.2841 44.5265 16.5417 44.3977 16.7898C44.2708 17.036 44.0994 17.2566 43.8835 17.4517C43.6695 17.6449 43.4138 17.7983 43.1165 17.9119C42.821 18.0237 42.4867 18.0795 42.1136 18.0795C41.5947 18.0795 41.1307 17.9621 40.7216 17.7273C40.3144 17.4924 39.9924 17.1525 39.7557 16.7074C39.5208 16.2623 39.4034 15.7235 39.4034 15.0909C39.4034 14.4564 39.5227 13.9167 39.7614 13.4716C40 13.0265 40.3239 12.6875 40.733 12.4545C41.142 12.2197 41.6023 12.1023 42.1136 12.1023C42.4508 12.1023 42.7633 12.1496 43.0511 12.2443C43.3409 12.339 43.5975 12.4773 43.821 12.6591C44.0445 12.839 44.2263 13.0597 44.3665 13.321C44.5085 13.5824 44.5994 13.8816 44.6392 14.2188ZM50.4673 12.1818V18H49.2514V13.1818H46.8991V18H45.6832V12.1818H50.4673ZM51.6385 18V12.1818H55.5589V13.196H52.8686V14.5824H55.3572V15.5966H52.8686V16.9858H55.5703V18H51.6385ZM62.142 17.017L62.071 19.375H60.9006V18H60.4915V17.017H62.142ZM56.5369 18V12.1818H57.7188V17.0114H60.1392V12.1818H61.3352V18H56.5369ZM63.5732 18.0739C63.3857 18.0739 63.2247 18.0076 63.0902 17.875C62.9576 17.7405 62.8913 17.5795 62.8913 17.392C62.8913 17.2064 62.9576 17.0473 63.0902 16.9148C63.2247 16.7822 63.3857 16.7159 63.5732 16.7159C63.755 16.7159 63.9141 16.7822 64.0504 16.9148C64.1868 17.0473 64.255 17.2064 64.255 17.392C64.255 17.517 64.2228 17.6316 64.1584 17.7358C64.0959 17.8381 64.0135 17.9205 63.9112 17.983C63.8089 18.0436 63.6963 18.0739 63.5732 18.0739ZM65.2713 12.1818H66.7884L68.3906 16.0909H68.4588L70.0611 12.1818H71.5781V18H70.3849V14.2131H70.3366L68.831 17.9716H68.0185L66.5128 14.1989H66.4645V18H65.2713V12.1818ZM77.9382 15.0909C77.9382 15.7254 77.8179 16.2652 77.5774 16.7102C77.3388 17.1553 77.013 17.4953 76.6001 17.7301C76.1892 17.9631 75.727 18.0795 75.2138 18.0795C74.6967 18.0795 74.2327 17.9621 73.8217 17.7273C73.4107 17.4924 73.0859 17.1525 72.8473 16.7074C72.6087 16.2623 72.4893 15.7235 72.4893 15.0909C72.4893 14.4564 72.6087 13.9167 72.8473 13.4716C73.0859 13.0265 73.4107 12.6875 73.8217 12.4545C74.2327 12.2197 74.6967 12.1023 75.2138 12.1023C75.727 12.1023 76.1892 12.2197 76.6001 12.4545C77.013 12.6875 77.3388 13.0265 77.5774 13.4716C77.8179 13.9167 77.9382 14.4564 77.9382 15.0909ZM76.6911 15.0909C76.6911 14.6799 76.6295 14.3333 76.5064 14.0511C76.3852 13.7689 76.2138 13.5549 75.9922 13.4091C75.7706 13.2633 75.5111 13.1903 75.2138 13.1903C74.9164 13.1903 74.657 13.2633 74.4354 13.4091C74.2138 13.5549 74.0414 13.7689 73.9183 14.0511C73.7971 14.3333 73.7365 14.6799 73.7365 15.0909C73.7365 15.5019 73.7971 15.8485 73.9183 16.1307C74.0414 16.4129 74.2138 16.6269 74.4354 16.7727C74.657 16.9186 74.9164 16.9915 75.2138 16.9915C75.5111 16.9915 75.7706 16.9186 75.9922 16.7727C76.2138 16.6269 76.3852 16.4129 76.5064 16.1307C76.6295 15.8485 76.6911 15.5019 76.6911 15.0909ZM78.5341 19.4034V17.0199H78.929C79.0634 16.9233 79.1866 16.7869 79.2983 16.6108C79.41 16.4328 79.5057 16.1875 79.5852 15.875C79.6648 15.5606 79.7216 15.1496 79.7557 14.642L79.9205 12.1818H83.7699V17.0199H84.4062V19.3977H83.2244V18H79.7159V19.4034H78.5341ZM80.3494 17.0199H82.5881V13.196H81.0284L80.9375 14.642C80.9129 15.0265 80.8722 15.3674 80.8153 15.6648C80.7604 15.9621 80.6932 16.2225 80.6136 16.446C80.536 16.6676 80.4479 16.8589 80.3494 17.0199ZM85.1541 18V12.1818H89.0746V13.196H86.3842V14.5824H88.8729V15.5966H86.3842V16.9858H89.0859V18H85.1541ZM90.0526 18V12.1818H92.348C92.7893 12.1818 93.1652 12.2661 93.4759 12.4347C93.7865 12.6013 94.0232 12.8333 94.1861 13.1307C94.3509 13.4261 94.4332 13.767 94.4332 14.1534C94.4332 14.5398 94.3499 14.8807 94.1832 15.1761C94.0166 15.4716 93.7751 15.7017 93.4588 15.8665C93.1444 16.0312 92.7637 16.1136 92.3168 16.1136H90.8537V15.1278H92.1179C92.3546 15.1278 92.5497 15.0871 92.7031 15.0057C92.8584 14.9223 92.974 14.8078 93.0497 14.6619C93.1274 14.5142 93.1662 14.3447 93.1662 14.1534C93.1662 13.9602 93.1274 13.7917 93.0497 13.6477C92.974 13.5019 92.8584 13.3892 92.7031 13.3097C92.5478 13.2282 92.3509 13.1875 92.1122 13.1875H91.2827V18H90.0526ZM95.5632 18H94.245L96.2536 12.1818H97.8388L99.8445 18H98.5263L97.0689 13.5114H97.0234L95.5632 18ZM95.4808 15.7131H98.5945V16.6733H95.4808V15.7131ZM99.6122 13.196V12.1818H104.391V13.196H102.609V18H101.393V13.196H99.6122ZM110.259 15.0909C110.259 15.7254 110.138 16.2652 109.898 16.7102C109.659 17.1553 109.333 17.4953 108.92 17.7301C108.509 17.9631 108.047 18.0795 107.534 18.0795C107.017 18.0795 106.553 17.9621 106.142 17.7273C105.731 17.4924 105.406 17.1525 105.168 16.7074C104.929 16.2623 104.81 15.7235 104.81 15.0909C104.81 14.4564 104.929 13.9167 105.168 13.4716C105.406 13.0265 105.731 12.6875 106.142 12.4545C106.553 12.2197 107.017 12.1023 107.534 12.1023C108.047 12.1023 108.509 12.2197 108.92 12.4545C109.333 12.6875 109.659 13.0265 109.898 13.4716C110.138 13.9167 110.259 14.4564 110.259 15.0909ZM109.011 15.0909C109.011 14.6799 108.95 14.3333 108.827 14.0511C108.705 13.7689 108.534 13.5549 108.312 13.4091C108.091 13.2633 107.831 13.1903 107.534 13.1903C107.237 13.1903 106.977 13.2633 106.756 13.4091C106.534 13.5549 106.362 13.7689 106.239 14.0511C106.117 14.3333 106.057 14.6799 106.057 15.0909C106.057 15.5019 106.117 15.8485 106.239 16.1307C106.362 16.4129 106.534 16.6269 106.756 16.7727C106.977 16.9186 107.237 16.9915 107.534 16.9915C107.831 16.9915 108.091 16.9186 108.312 16.7727C108.534 16.6269 108.705 16.4129 108.827 16.1307C108.95 15.8485 109.011 15.5019 109.011 15.0909ZM111.17 18V12.1818H113.465C113.906 12.1818 114.282 12.2661 114.593 12.4347C114.904 12.6013 115.14 12.8333 115.303 13.1307C115.468 13.4261 115.55 13.767 115.55 14.1534C115.55 14.5398 115.467 14.8807 115.3 15.1761C115.134 15.4716 114.892 15.7017 114.576 15.8665C114.262 16.0312 113.881 16.1136 113.434 16.1136H111.971V15.1278H113.235C113.472 15.1278 113.667 15.0871 113.82 15.0057C113.976 14.9223 114.091 14.8078 114.167 14.6619C114.245 14.5142 114.283 14.3447 114.283 14.1534C114.283 13.9602 114.245 13.7917 114.167 13.6477C114.091 13.5019 113.976 13.3892 113.82 13.3097C113.665 13.2282 113.468 13.1875 113.229 13.1875H112.4V18H111.17Z" fill="white"/>
<defs>
<linearGradient id="paint0_linear_2050_15" x1="0" y1="29" x2="154.467" y2="-2.60381" gradientUnits="userSpaceOnUse">
<stop stop-color="#820B0B"/>
<stop offset="1" stop-color="#FF0000"/>
</linearGradient>
</defs>
</svg>
