<svg width="138" height="28" viewBox="0 0 138 28" fill="none" xmlns="http://www.w3.org/2000/svg">
<path d="M0 7C0 3.13401 3.13401 0 7 0H131C134.866 0 138 3.13401 138 7V10C138 19.9411 129.941 28 120 28H7C3.13401 28 0 24.866 0 21V7Z" fill="url(#paint0_linear_1933_95)"/>
<path d="M76.9825 15.2471L69.0206 22L61 15.2471L63.5348 6M71.3624 11.5929L74.436 6.06083M74.4826 6.06083L77 15.1863M63.5759 6L66.6495 11.5321M66.6788 11.5969H71.3624" stroke="white" stroke-opacity="0.4" stroke-width="2" stroke-linecap="round" stroke-linejoin="round"/>
<path d="M39.9343 13.6914H38.8455C38.8256 13.5505 38.785 13.4254 38.7237 13.3161C38.6624 13.205 38.5837 13.1106 38.4876 13.0327C38.3915 12.9548 38.2804 12.8951 38.1545 12.8537C38.0302 12.8123 37.8951 12.7915 37.7493 12.7915C37.4858 12.7915 37.2563 12.857 37.0607 12.9879C36.8652 13.1172 36.7135 13.3061 36.6058 13.5547C36.4981 13.8016 36.4442 14.1016 36.4442 14.4545C36.4442 14.8175 36.4981 15.1224 36.6058 15.3693C36.7152 15.6162 36.8677 15.8027 37.0632 15.9286C37.2588 16.0546 37.485 16.1175 37.7418 16.1175C37.886 16.1175 38.0194 16.0985 38.142 16.0604C38.2663 16.0223 38.3765 15.9667 38.4727 15.8938C38.5688 15.8192 38.6483 15.7289 38.7113 15.6229C38.7759 15.5168 38.8207 15.3958 38.8455 15.2599L39.9343 15.2649C39.9061 15.4986 39.8357 15.724 39.723 15.9411C39.612 16.1565 39.462 16.3496 39.2731 16.5202C39.0858 16.6893 38.8621 16.8235 38.6019 16.9229C38.3434 17.0207 38.0509 17.0696 37.7244 17.0696C37.2704 17.0696 36.8643 16.9669 36.5064 16.7614C36.1501 16.5559 35.8684 16.2584 35.6612 15.869C35.4557 15.4795 35.353 15.008 35.353 14.4545C35.353 13.8994 35.4574 13.4271 35.6662 13.0376C35.875 12.6482 36.1584 12.3516 36.5163 12.1477C36.8743 11.9422 37.277 11.8395 37.7244 11.8395C38.0194 11.8395 38.2929 11.8809 38.5447 11.9638C38.7983 12.0466 39.0228 12.1676 39.2184 12.3267C39.4139 12.4841 39.573 12.6772 39.6957 12.9059C39.82 13.1346 39.8995 13.3964 39.9343 13.6914ZM45.0339 11.9091V17H43.97V12.7841H41.9118V17H40.8478V11.9091H45.0339ZM46.0587 17V11.9091H49.4891V12.7965H47.135V14.0096H49.3126V14.897H47.135V16.1126H49.499V17H46.0587ZM55.2493 16.1399L55.1871 18.2031H54.163V17H53.805V16.1399H55.2493ZM50.3448 17V11.9091H51.3789V16.1349H53.4968V11.9091H54.5433V17H50.3448ZM56.5015 17.0646C56.3374 17.0646 56.1966 17.0066 56.0789 16.8906C55.9629 16.773 55.9049 16.6321 55.9049 16.468C55.9049 16.3056 55.9629 16.1664 56.0789 16.0504C56.1966 15.9344 56.3374 15.8764 56.5015 15.8764C56.6606 15.8764 56.7998 15.9344 56.9191 16.0504C57.0384 16.1664 57.0981 16.3056 57.0981 16.468C57.0981 16.5774 57.0699 16.6777 57.0136 16.7688C56.9589 16.8583 56.8868 16.9304 56.7973 16.9851C56.7078 17.0381 56.6092 17.0646 56.5015 17.0646ZM57.9874 11.9091H59.3148L60.7168 15.3295H60.7765L62.1784 11.9091H63.5059V17H62.4618V13.6864H62.4196L61.1021 16.9751H60.3912L59.0737 13.674H59.0314V17H57.9874V11.9091ZM69.0709 14.4545C69.0709 15.0097 68.9657 15.482 68.7552 15.8714C68.5464 16.2609 68.2614 16.5584 67.9001 16.7638C67.5405 16.9677 67.1362 17.0696 66.6871 17.0696C66.2346 17.0696 65.8286 16.9669 65.469 16.7614C65.1094 16.5559 64.8252 16.2584 64.6164 15.869C64.4076 15.4795 64.3032 15.008 64.3032 14.4545C64.3032 13.8994 64.4076 13.4271 64.6164 13.0376C64.8252 12.6482 65.1094 12.3516 65.469 12.1477C65.8286 11.9422 66.2346 11.8395 66.6871 11.8395C67.1362 11.8395 67.5405 11.9422 67.9001 12.1477C68.2614 12.3516 68.5464 12.6482 68.7552 13.0376C68.9657 13.4271 69.0709 13.8994 69.0709 14.4545ZM67.9797 14.4545C67.9797 14.0949 67.9258 13.7917 67.8181 13.5447C67.712 13.2978 67.5621 13.1106 67.3682 12.983C67.1743 12.8554 66.9472 12.7915 66.6871 12.7915C66.4269 12.7915 66.1998 12.8554 66.0059 12.983C65.8121 13.1106 65.6613 13.2978 65.5535 13.5447C65.4475 13.7917 65.3944 14.0949 65.3944 14.4545C65.3944 14.8142 65.4475 15.1174 65.5535 15.3643C65.6613 15.6113 65.8121 15.7985 66.0059 15.9261C66.1998 16.0537 66.4269 16.1175 66.6871 16.1175C66.9472 16.1175 67.1743 16.0537 67.3682 15.9261C67.5621 15.7985 67.712 15.6113 67.8181 15.3643C67.9258 15.1174 67.9797 14.8142 67.9797 14.4545ZM69.5923 18.228V16.1424H69.9379C70.0555 16.0579 70.1632 15.9386 70.261 15.7844C70.3588 15.6287 70.4425 15.4141 70.5121 15.1406C70.5817 14.8655 70.6314 14.5059 70.6612 14.0618L70.8054 11.9091H74.1737V16.1424H74.7305V18.223H73.6964V17H70.6264V18.228H69.5923ZM71.1808 16.1424H73.1396V12.7965H71.7749L71.6953 14.0618C71.6738 14.3982 71.6381 14.6965 71.5884 14.9567C71.5404 15.2169 71.4815 15.4447 71.4119 15.6403C71.344 15.8342 71.2669 16.0015 71.1808 16.1424ZM75.3849 17V11.9091H78.8153V12.7965H76.4612V14.0096H78.6388V14.897H76.4612V16.1126H78.8252V17H75.3849ZM79.671 17V11.9091H81.6795C82.0656 11.9091 82.3946 11.9828 82.6664 12.1303C82.9382 12.2762 83.1453 12.4792 83.2878 12.7393C83.432 12.9979 83.5041 13.2962 83.5041 13.6342C83.5041 13.9723 83.4312 14.2706 83.2853 14.5291C83.1395 14.7876 82.9282 14.989 82.6515 15.1332C82.3764 15.2773 82.0433 15.3494 81.6522 15.3494H80.372V14.4869H81.4782C81.6853 14.4869 81.856 14.4512 81.9902 14.38C82.1261 14.3071 82.2272 14.2068 82.2935 14.0792C82.3614 13.9499 82.3954 13.8016 82.3954 13.6342C82.3954 13.4652 82.3614 13.3177 82.2935 13.1918C82.2272 13.0642 82.1261 12.9656 81.9902 12.896C81.8543 12.8247 81.682 12.7891 81.4732 12.7891H80.7473V17H79.671ZM84.4928 17H83.3394L85.0969 11.9091H86.4839L88.2389 17H87.0855L85.8103 13.0724H85.7705L84.4928 17ZM84.4207 14.9989H87.1452V15.8391H84.4207V14.9989ZM88.0357 12.7965V11.9091H92.2168V12.7965H90.6582V17H89.5943V12.7965H88.0357ZM97.3512 14.4545C97.3512 15.0097 97.246 15.482 97.0355 15.8714C96.8267 16.2609 96.5417 16.5584 96.1804 16.7638C95.8208 16.9677 95.4164 17.0696 94.9673 17.0696C94.5149 17.0696 94.1089 16.9669 93.7493 16.7614C93.3897 16.5559 93.1055 16.2584 92.8967 15.869C92.6879 15.4795 92.5835 15.008 92.5835 14.4545C92.5835 13.8994 92.6879 13.4271 92.8967 13.0376C93.1055 12.6482 93.3897 12.3516 93.7493 12.1477C94.1089 11.9422 94.5149 11.8395 94.9673 11.8395C95.4164 11.8395 95.8208 11.9422 96.1804 12.1477C96.5417 12.3516 96.8267 12.6482 97.0355 13.0376C97.246 13.4271 97.3512 13.8994 97.3512 14.4545ZM96.2599 14.4545C96.2599 14.0949 96.2061 13.7917 96.0984 13.5447C95.9923 13.2978 95.8423 13.1106 95.6484 12.983C95.4545 12.8554 95.2275 12.7915 94.9673 12.7915C94.7071 12.7915 94.4801 12.8554 94.2862 12.983C94.0923 13.1106 93.9415 13.2978 93.8338 13.5447C93.7277 13.7917 93.6747 14.0949 93.6747 14.4545C93.6747 14.8142 93.7277 15.1174 93.8338 15.3643C93.9415 15.6113 94.0923 15.7985 94.2862 15.9261C94.4801 16.0537 94.7071 16.1175 94.9673 16.1175C95.2275 16.1175 95.4545 16.0537 95.6484 15.9261C95.8423 15.7985 95.9923 15.6113 96.0984 15.3643C96.2061 15.1174 96.2599 14.8142 96.2599 14.4545ZM98.1485 17V11.9091H100.157C100.543 11.9091 100.872 11.9828 101.144 12.1303C101.416 12.2762 101.623 12.4792 101.765 12.7393C101.91 12.9979 101.982 13.2962 101.982 13.6342C101.982 13.9723 101.909 14.2706 101.763 14.5291C101.617 14.7876 101.406 14.989 101.129 15.1332C100.854 15.2773 100.521 15.3494 100.13 15.3494H98.8495V14.4869H99.9557C100.163 14.4869 100.334 14.4512 100.468 14.38C100.604 14.3071 100.705 14.2068 100.771 14.0792C100.839 13.9499 100.873 13.8016 100.873 13.6342C100.873 13.4652 100.839 13.3177 100.771 13.1918C100.705 13.0642 100.604 12.9656 100.468 12.896C100.332 12.8247 100.16 12.7891 99.9507 12.7891H99.2249V17H98.1485Z" fill="white"/>
<defs>
<linearGradient id="paint0_linear_1933_95" x1="0" y1="28" x2="138.358" y2="1.89677" gradientUnits="userSpaceOnUse">
<stop stop-color="#660505"/>
<stop offset="1" stop-color="#FF0000"/>
</linearGradient>
</defs>
</svg>
