<svg width="138" height="28" viewBox="0 0 138 28" fill="none" xmlns="http://www.w3.org/2000/svg">
<path d="M0 7C0 3.13401 3.13401 0 7 0H131C134.866 0 138 3.13401 138 7V10C138 19.9411 129.941 28 120 28H7C3.13401 28 0 24.866 0 21V7Z" fill="url(#paint0_linear_1933_39)"/>
<path d="M75.9836 14.6692L68.5193 21L61 14.6692L63.3764 6M70.7147 11.2433L73.5962 6.05703M73.6399 6.05703L76 14.6122M63.4149 6L66.2964 11.1863M66.3239 11.2471H70.7147" stroke="white" stroke-opacity="0.2" stroke-width="2" stroke-linecap="round" stroke-linejoin="round"/>
<path d="M37.2486 12.7965V11.9091H41.4297V12.7965H39.8711V17H38.8072V12.7965H37.2486ZM42.1183 17V11.9091H45.5487V12.7965H43.1946V14.0096H45.3722V14.897H43.1946V16.1126H45.5586V17H42.1183ZM47.4136 11.9091L48.4403 13.6442H48.48L49.5116 11.9091H50.7272L49.1736 14.4545L50.762 17H49.5241L48.48 15.2624H48.4403L47.3962 17H46.1633L47.7567 14.4545L46.1931 11.9091H47.4136ZM52.0074 17.0646C51.8433 17.0646 51.7024 17.0066 51.5848 16.8906C51.4688 16.773 51.4108 16.6321 51.4108 16.468C51.4108 16.3056 51.4688 16.1664 51.5848 16.0504C51.7024 15.9344 51.8433 15.8764 52.0074 15.8764C52.1665 15.8764 52.3057 15.9344 52.425 16.0504C52.5443 16.1664 52.604 16.3056 52.604 16.468C52.604 16.5774 52.5758 16.6777 52.5194 16.7688C52.4648 16.8583 52.3927 16.9304 52.3032 16.9851C52.2137 17.0381 52.1151 17.0646 52.0074 17.0646ZM57.821 11.9091V17H56.7571V12.7841H54.6989V17H53.6349V11.9091H57.821ZM63.5241 14.4545C63.5241 15.0097 63.4188 15.482 63.2084 15.8714C62.9996 16.2609 62.7145 16.5584 62.3532 16.7638C61.9936 16.9677 61.5893 17.0696 61.1402 17.0696C60.6878 17.0696 60.2818 16.9669 59.9221 16.7614C59.5625 16.5559 59.2783 16.2584 59.0695 15.869C58.8607 15.4795 58.7563 15.008 58.7563 14.4545C58.7563 13.8994 58.8607 13.4271 59.0695 13.0376C59.2783 12.6482 59.5625 12.3516 59.9221 12.1477C60.2818 11.9422 60.6878 11.8395 61.1402 11.8395C61.5893 11.8395 61.9936 11.9422 62.3532 12.1477C62.7145 12.3516 62.9996 12.6482 63.2084 13.0376C63.4188 13.4271 63.5241 13.8994 63.5241 14.4545ZM62.4328 14.4545C62.4328 14.0949 62.3789 13.7917 62.2712 13.5447C62.1652 13.2978 62.0152 13.1106 61.8213 12.983C61.6274 12.8554 61.4004 12.7915 61.1402 12.7915C60.88 12.7915 60.653 12.8554 60.4591 12.983C60.2652 13.1106 60.1144 13.2978 60.0067 13.5447C59.9006 13.7917 59.8476 14.0949 59.8476 14.4545C59.8476 14.8142 59.9006 15.1174 60.0067 15.3643C60.1144 15.6113 60.2652 15.7985 60.4591 15.9261C60.653 16.0537 60.88 16.1175 61.1402 16.1175C61.4004 16.1175 61.6274 16.0537 61.8213 15.9261C62.0152 15.7985 62.1652 15.6113 62.2712 15.3643C62.3789 15.1174 62.4328 14.8142 62.4328 14.4545ZM64.0455 18.228V16.1424H64.391C64.5086 16.0579 64.6164 15.9386 64.7141 15.7844C64.8119 15.6287 64.8956 15.4141 64.9652 15.1406C65.0348 14.8655 65.0845 14.5059 65.1143 14.0618L65.2585 11.9091H68.6268V16.1424H69.1836V18.223H68.1495V17H65.0795V18.228H64.0455ZM65.6339 16.1424H67.5927V12.7965H66.228L66.1484 14.0618C66.1269 14.3982 66.0913 14.6965 66.0415 14.9567C65.9935 15.2169 65.9347 15.4447 65.8651 15.6403C65.7971 15.8342 65.7201 16.0015 65.6339 16.1424ZM69.8013 18.228V16.1424H70.1468C70.2645 16.0579 70.3722 15.9386 70.47 15.7844C70.5678 15.6287 70.6515 15.4141 70.7211 15.1406C70.7907 14.8655 70.8404 14.5059 70.8702 14.0618L71.0144 11.9091H74.3826V16.1424H74.9395V18.223H73.9054V17H70.8354V18.228H69.8013ZM71.3897 16.1424H73.3485V12.7965H71.9838L71.9043 14.0618C71.8828 14.3982 71.8471 14.6965 71.7974 14.9567C71.7493 15.2169 71.6905 15.4447 71.6209 15.6403C71.553 15.8342 71.4759 16.0015 71.3897 16.1424ZM75.5938 17V11.9091H79.0242V12.7965H76.6702V14.0096H78.8477V14.897H76.6702V16.1126H79.0342V17H75.5938ZM79.88 17V11.9091H81.8885C82.2746 11.9091 82.6036 11.9828 82.8754 12.1303C83.1471 12.2762 83.3543 12.4792 83.4968 12.7393C83.641 12.9979 83.7131 13.2962 83.7131 13.6342C83.7131 13.9723 83.6402 14.2706 83.4943 14.5291C83.3485 14.7876 83.1372 14.989 82.8604 15.1332C82.5853 15.2773 82.2522 15.3494 81.8612 15.3494H80.581V14.4869H81.6871C81.8943 14.4869 82.065 14.4512 82.1992 14.38C82.3351 14.3071 82.4362 14.2068 82.5025 14.0792C82.5704 13.9499 82.6044 13.8016 82.6044 13.6342C82.6044 13.4652 82.5704 13.3177 82.5025 13.1918C82.4362 13.0642 82.3351 12.9656 82.1992 12.896C82.0633 12.8247 81.891 12.7891 81.6822 12.7891H80.9563V17H79.88ZM88.29 11.9091V17H87.246V11.9091H88.29ZM84.1711 17L85.767 14.3153L84.2382 11.9091H85.5631L86.7066 14.0046H88.8568L89.9704 11.9091H91.2904L89.7989 14.3079L91.365 17H90.0798L89.0035 14.9989H86.55L85.4463 17H84.1711ZM95.0868 17L93.4512 14.8299H93.0833V17H92.0069V11.9091H93.0833V13.9425H93.2995L94.9899 11.9091H96.3297L94.3436 14.2706L96.4217 17H95.0868ZM97.8405 17H96.6871L98.4445 11.9091H99.8316L101.587 17H100.433L99.1579 13.0724H99.1182L97.8405 17ZM97.7684 14.9989H100.493V15.8391H97.7684V14.9989Z" fill="white"/>
<defs>
<linearGradient id="paint0_linear_1933_39" x1="0" y1="28" x2="138.358" y2="1.89677" gradientUnits="userSpaceOnUse">
<stop stop-color="#711E0E"/>
<stop offset="0.64" stop-color="#E04B2E"/>
</linearGradient>
</defs>
</svg>
