<svg width="155" height="29" viewBox="0 0 155 29" fill="none" xmlns="http://www.w3.org/2000/svg">
<path d="M0 7C0 3.13401 3.13401 0 7 0H150C152.761 0 155 2.23858 155 5V11C155 20.9411 146.941 29 137 29H7C3.13401 29 0 25.866 0 22V7Z" fill="url(#paint0_linear_2050_19)"/>
<path d="M85.9804 16.403L77.0231 24L68 16.403L70.8516 6M79.6577 12.292L83.1155 6.06844M83.1679 6.06844L86 16.3346M70.8979 6L74.3557 12.2236M74.3886 12.2965H79.6577" stroke="white" stroke-opacity="0.1" stroke-width="2" stroke-linecap="round" stroke-linejoin="round"/>
<path d="M40.2841 13.196V12.1818H45.0625V13.196H43.2812V18H42.0653V13.196H40.2841ZM45.8494 18V12.1818H49.7699V13.196H47.0795V14.5824H49.5682V15.5966H47.0795V16.9858H49.7812V18H45.8494ZM51.9013 12.1818L53.0746 14.1648H53.12L54.299 12.1818H55.6882L53.9126 15.0909L55.728 18H54.3132L53.12 16.0142H53.0746L51.8814 18H50.4723L52.2933 15.0909L50.5064 12.1818H51.9013ZM57.1513 18.0739C56.9638 18.0739 56.8028 18.0076 56.6683 17.875C56.5357 17.7405 56.4695 17.5795 56.4695 17.392C56.4695 17.2064 56.5357 17.0473 56.6683 16.9148C56.8028 16.7822 56.9638 16.7159 57.1513 16.7159C57.3331 16.7159 57.4922 16.7822 57.6286 16.9148C57.7649 17.0473 57.8331 17.2064 57.8331 17.392C57.8331 17.517 57.8009 17.6316 57.7365 17.7358C57.674 17.8381 57.5916 17.9205 57.4893 17.983C57.3871 18.0436 57.2744 18.0739 57.1513 18.0739ZM63.7955 12.1818V18H62.5795V13.1818H60.2273V18H59.0114V12.1818H63.7955ZM70.3132 15.0909C70.3132 15.7254 70.1929 16.2652 69.9524 16.7102C69.7138 17.1553 69.388 17.4953 68.9751 17.7301C68.5642 17.9631 68.102 18.0795 67.5888 18.0795C67.0717 18.0795 66.6077 17.9621 66.1967 17.7273C65.7857 17.4924 65.4609 17.1525 65.2223 16.7074C64.9837 16.2623 64.8643 15.7235 64.8643 15.0909C64.8643 14.4564 64.9837 13.9167 65.2223 13.4716C65.4609 13.0265 65.7857 12.6875 66.1967 12.4545C66.6077 12.2197 67.0717 12.1023 67.5888 12.1023C68.102 12.1023 68.5642 12.2197 68.9751 12.4545C69.388 12.6875 69.7138 13.0265 69.9524 13.4716C70.1929 13.9167 70.3132 14.4564 70.3132 15.0909ZM69.0661 15.0909C69.0661 14.6799 69.0045 14.3333 68.8814 14.0511C68.7602 13.7689 68.5888 13.5549 68.3672 13.4091C68.1456 13.2633 67.8861 13.1903 67.5888 13.1903C67.2914 13.1903 67.032 13.2633 66.8104 13.4091C66.5888 13.5549 66.4164 13.7689 66.2933 14.0511C66.1721 14.3333 66.1115 14.6799 66.1115 15.0909C66.1115 15.5019 66.1721 15.8485 66.2933 16.1307C66.4164 16.4129 66.5888 16.6269 66.8104 16.7727C67.032 16.9186 67.2914 16.9915 67.5888 16.9915C67.8861 16.9915 68.1456 16.9186 68.3672 16.7727C68.5888 16.6269 68.7602 16.4129 68.8814 16.1307C69.0045 15.8485 69.0661 15.5019 69.0661 15.0909ZM70.9091 19.4034V17.0199H71.304C71.4384 16.9233 71.5616 16.7869 71.6733 16.6108C71.785 16.4328 71.8807 16.1875 71.9602 15.875C72.0398 15.5606 72.0966 15.1496 72.1307 14.642L72.2955 12.1818H76.1449V17.0199H76.7812V19.3977H75.5994V18H72.0909V19.4034H70.9091ZM72.7244 17.0199H74.9631V13.196H73.4034L73.3125 14.642C73.2879 15.0265 73.2472 15.3674 73.1903 15.6648C73.1354 15.9621 73.0682 16.2225 72.9886 16.446C72.911 16.6676 72.8229 16.8589 72.7244 17.0199ZM77.4872 19.4034V17.0199H77.8821C78.0166 16.9233 78.1397 16.7869 78.2514 16.6108C78.3632 16.4328 78.4588 16.1875 78.5384 15.875C78.6179 15.5606 78.6747 15.1496 78.7088 14.642L78.8736 12.1818H82.723V17.0199H83.3594V19.3977H82.1776V18H78.669V19.4034H77.4872ZM79.3026 17.0199H81.5412V13.196H79.9815L79.8906 14.642C79.866 15.0265 79.8253 15.3674 79.7685 15.6648C79.7135 15.9621 79.6463 16.2225 79.5668 16.446C79.4891 16.6676 79.401 16.8589 79.3026 17.0199ZM84.1072 18V12.1818H88.0277V13.196H85.3374V14.5824H87.826V15.5966H85.3374V16.9858H88.0391V18H84.1072ZM89.0057 18V12.1818H91.3011C91.7424 12.1818 92.1184 12.2661 92.429 12.4347C92.7396 12.6013 92.9763 12.8333 93.1392 13.1307C93.304 13.4261 93.3864 13.767 93.3864 14.1534C93.3864 14.5398 93.303 14.8807 93.1364 15.1761C92.9697 15.4716 92.7282 15.7017 92.4119 15.8665C92.0975 16.0312 91.7169 16.1136 91.2699 16.1136H89.8068V15.1278H91.071C91.3078 15.1278 91.5028 15.0871 91.6562 15.0057C91.8116 14.9223 91.9271 14.8078 92.0028 14.6619C92.0805 14.5142 92.1193 14.3447 92.1193 14.1534C92.1193 13.9602 92.0805 13.7917 92.0028 13.6477C91.9271 13.5019 91.8116 13.3892 91.6562 13.3097C91.5009 13.2282 91.304 13.1875 91.0653 13.1875H90.2358V18H89.0057ZM98.6172 12.1818V18H97.424V12.1818H98.6172ZM93.9098 18L95.7337 14.9318L93.9865 12.1818H95.5007L96.8075 14.5767H99.2649L100.538 12.1818H102.046L100.342 14.9233L102.131 18H100.663L99.4325 15.7131H96.6286L95.3672 18H93.9098ZM106.385 18L104.516 15.5199H104.095V18H102.865V12.1818H104.095V14.5057H104.342L106.274 12.1818H107.805L105.536 14.8807L107.911 18H106.385ZM109.532 18H108.214L110.222 12.1818H111.808L113.813 18H112.495L111.038 13.5114H110.992L109.532 18ZM109.45 15.7131H112.563V16.6733H109.45V15.7131Z" fill="white"/>
<defs>
<linearGradient id="paint0_linear_2050_19" x1="0" y1="29" x2="154.467" y2="-2.60381" gradientUnits="userSpaceOnUse">
<stop stop-color="#601607"/>
<stop offset="1" stop-color="#E04B2E"/>
</linearGradient>
</defs>
</svg>
