<svg width="155" height="29" viewBox="0 0 155 29" fill="none" xmlns="http://www.w3.org/2000/svg">
<path d="M0 7C0 3.13401 3.13401 0 7 0H150C152.761 0 155 2.23858 155 5V11C155 20.9411 146.941 29 137 29H7C3.13401 29 0 25.866 0 22V7Z" fill="url(#paint0_linear_2054_79)"/>
<path d="M85.9804 16.403L77.0231 24L68 16.403L70.8516 6M79.6577 12.292L83.1155 6.06844M83.1679 6.06844L86 16.3346M70.8979 6L74.3557 12.2236M74.3886 12.2965H79.6577" stroke="white" stroke-opacity="0.1" stroke-width="2" stroke-linecap="round" stroke-linejoin="round"/>
<path d="M45.5085 18H44.1903L46.1989 12.1818H47.7841L49.7898 18H48.4716L47.0142 13.5114H46.9688L45.5085 18ZM45.4261 15.7131H48.5398V16.6733H45.4261V15.7131ZM50.1747 19.4034V17.0199H50.5696C50.7041 16.9233 50.8272 16.7869 50.9389 16.6108C51.0507 16.4328 51.1463 16.1875 51.2259 15.875C51.3054 15.5606 51.3622 15.1496 51.3963 14.642L51.5611 12.1818H55.4105V17.0199H56.0469V19.3977H54.8651V18H51.3565V19.4034H50.1747ZM51.9901 17.0199H54.2287V13.196H52.669L52.5781 14.642C52.5535 15.0265 52.5128 15.3674 52.456 15.6648C52.401 15.9621 52.3338 16.2225 52.2543 16.446C52.1766 16.6676 52.0885 16.8589 51.9901 17.0199ZM56.7947 12.1818H58.3118L59.9141 16.0909H59.9822L61.5845 12.1818H63.1016V18H61.9084V14.2131H61.8601L60.3544 17.9716H59.5419L58.0362 14.1989H57.9879V18H56.7947V12.1818ZM65.3452 12.1818V18H64.1151V12.1818H65.3452ZM66.3572 18V12.1818H67.5874V14.5824H70.0845V12.1818H71.3118V18H70.0845V15.5966H67.5874V18H66.3572ZM73.5561 12.1818V18H72.326V12.1818H73.5561ZM79.7017 14.2188H78.4574C78.4347 14.0578 78.3883 13.9148 78.3182 13.7898C78.2481 13.6629 78.1581 13.5549 78.0483 13.4659C77.9384 13.3769 77.8116 13.3087 77.6676 13.2614C77.5256 13.214 77.3712 13.1903 77.2045 13.1903C76.9034 13.1903 76.6411 13.2652 76.4176 13.4148C76.1941 13.5625 76.0208 13.7784 75.8977 14.0625C75.7746 14.3447 75.7131 14.6875 75.7131 15.0909C75.7131 15.5057 75.7746 15.8542 75.8977 16.1364C76.0227 16.4186 76.197 16.6316 76.4205 16.7756C76.6439 16.9195 76.9025 16.9915 77.196 16.9915C77.3608 16.9915 77.5133 16.9697 77.6534 16.9261C77.7955 16.8826 77.9214 16.8191 78.0312 16.7358C78.1411 16.6506 78.232 16.5473 78.304 16.4261C78.3778 16.3049 78.429 16.1667 78.4574 16.0114L79.7017 16.017C79.6695 16.2841 79.589 16.5417 79.4602 16.7898C79.3333 17.036 79.1619 17.2566 78.946 17.4517C78.732 17.6449 78.4763 17.7983 78.179 17.9119C77.8835 18.0237 77.5492 18.0795 77.1761 18.0795C76.6572 18.0795 76.1932 17.9621 75.7841 17.7273C75.3769 17.4924 75.0549 17.1525 74.8182 16.7074C74.5833 16.2623 74.4659 15.7235 74.4659 15.0909C74.4659 14.4564 74.5852 13.9167 74.8239 13.4716C75.0625 13.0265 75.3864 12.6875 75.7955 12.4545C76.2045 12.2197 76.6648 12.1023 77.1761 12.1023C77.5133 12.1023 77.8258 12.1496 78.1136 12.2443C78.4034 12.339 78.66 12.4773 78.8835 12.6591C79.107 12.839 79.2888 13.0597 79.429 13.321C79.571 13.5824 79.6619 13.8816 79.7017 14.2188ZM80.3622 13.196V12.1818H85.1406V13.196H83.3594V18H82.1435V13.196H80.3622ZM85.9276 18V12.1818H88.223C88.6643 12.1818 89.0402 12.2661 89.3509 12.4347C89.6615 12.6013 89.8982 12.8333 90.0611 13.1307C90.2259 13.4261 90.3082 13.767 90.3082 14.1534C90.3082 14.5398 90.2249 14.8807 90.0582 15.1761C89.8916 15.4716 89.6501 15.7017 89.3338 15.8665C89.0194 16.0312 88.6387 16.1136 88.1918 16.1136H86.7287V15.1278H87.9929C88.2296 15.1278 88.4247 15.0871 88.5781 15.0057C88.7334 14.9223 88.849 14.8078 88.9247 14.6619C89.0024 14.5142 89.0412 14.3447 89.0412 14.1534C89.0412 13.9602 89.0024 13.7917 88.9247 13.6477C88.849 13.5019 88.7334 13.3892 88.5781 13.3097C88.4228 13.2282 88.2259 13.1875 87.9872 13.1875H87.1577V18H85.9276ZM91.4382 18H90.12L92.1286 12.1818H93.7138L95.7195 18H94.4013L92.9439 13.5114H92.8984L91.4382 18ZM91.3558 15.7131H94.4695V16.6733H91.3558V15.7131ZM102.025 17.017L101.954 19.375H100.783V18H100.374V17.017H102.025ZM96.4197 18V12.1818H97.6016V17.0114H100.022V12.1818H101.218V18H96.4197ZM104.001 12.1818V18H102.771V12.1818H104.001ZM109.479 18H108.252V13.1875H107.423C107.186 13.1875 106.989 13.2225 106.832 13.2926C106.676 13.3608 106.56 13.4612 106.482 13.5938C106.405 13.7263 106.366 13.8892 106.366 14.0824C106.366 14.2737 106.405 14.4337 106.482 14.5625C106.56 14.6913 106.676 14.7879 106.832 14.8523C106.987 14.9167 107.182 14.9489 107.417 14.9489H108.752V15.9375H107.218C106.773 15.9375 106.392 15.8636 106.076 15.7159C105.76 15.5682 105.518 15.3561 105.352 15.0795C105.185 14.8011 105.102 14.4687 105.102 14.0824C105.102 13.6979 105.183 13.3636 105.346 13.0795C105.511 12.7936 105.748 12.5729 106.059 12.4176C106.371 12.2604 106.747 12.1818 107.187 12.1818H109.479V18ZM106.34 15.3523H107.667L106.252 18H104.894L106.34 15.3523Z" fill="white"/>
<defs>
<linearGradient id="paint0_linear_2054_79" x1="0" y1="29" x2="154.467" y2="-2.60381" gradientUnits="userSpaceOnUse">
<stop stop-color="#570707"/>
<stop offset="1" stop-color="#F11111"/>
</linearGradient>
</defs>
</svg>
