<svg width="155" height="29" viewBox="0 0 155 29" fill="none" xmlns="http://www.w3.org/2000/svg">
<path d="M0 7C0 3.13401 3.13401 0 7 0H150C152.761 0 155 2.23858 155 5V11C155 20.9411 146.941 29 137 29H7C3.13401 29 0 25.866 0 22V7Z" fill="url(#paint0_linear_2050_11)"/>
<path d="M85.9804 16.403L77.0231 24L68 16.403L70.8516 6M79.6577 12.292L83.1155 6.06844M83.1679 6.06844L86 16.3346M70.8979 6L74.3557 12.2236M74.3886 12.2965H79.6577" stroke="white" stroke-opacity="0.1" stroke-width="2" stroke-linecap="round" stroke-linejoin="round"/>
<path d="M22.2841 13.196V12.1818H27.0625V13.196H25.2812V18H24.0653V13.196H22.2841ZM27.8494 18V12.1818H31.7699V13.196H29.0795V14.5824H31.5682V15.5966H29.0795V16.9858H31.7812V18H27.8494ZM33.9013 12.1818L35.0746 14.1648H35.12L36.299 12.1818H37.6882L35.9126 15.0909L37.728 18H36.3132L35.12 16.0142H35.0746L33.8814 18H32.4723L34.2933 15.0909L32.5064 12.1818H33.9013ZM38.4666 18V12.1818H39.6967V14.5824H42.1939V12.1818H43.4212V18H42.1939V15.5966H39.6967V18H38.4666ZM45.6655 12.1818V18H44.4354V12.1818H45.6655ZM46.9134 12.1818H48.1094V14.0568C48.1094 14.2803 48.1482 14.4602 48.2259 14.5966C48.3035 14.7311 48.4238 14.8286 48.5866 14.8892C48.7514 14.9479 48.9626 14.9773 49.2202 14.9773C49.3111 14.9773 49.4181 14.9744 49.5412 14.9688C49.6643 14.9612 49.7912 14.9508 49.9219 14.9375C50.0545 14.9242 50.1795 14.9081 50.2969 14.8892C50.4143 14.8703 50.5118 14.8485 50.5895 14.8239V15.7955C50.5099 15.822 50.4105 15.8456 50.2912 15.8665C50.1738 15.8854 50.0497 15.9025 49.919 15.9176C49.7884 15.9309 49.6615 15.9413 49.5384 15.9489C49.4152 15.9564 49.3092 15.9602 49.2202 15.9602C48.7524 15.9602 48.3452 15.8939 47.9986 15.7614C47.652 15.6269 47.384 15.4195 47.1946 15.1392C47.0071 14.8589 46.9134 14.4981 46.9134 14.0568V12.1818ZM50.3764 12.1818H51.5781V18H50.3764V12.1818ZM52.7947 18V12.1818H54.0249V14.5824H56.522V12.1818H57.7493V18H56.522V15.5966H54.0249V18H52.7947ZM59.7663 18H58.4482L60.4567 12.1818H62.0419L64.0476 18H62.7294L61.272 13.5114H61.2266L59.7663 18ZM59.6839 15.7131H62.7976V16.6733H59.6839V15.7131ZM67.6023 18H66.2841L68.2926 12.1818H69.8778L71.8835 18H70.5653L69.108 13.5114H69.0625L67.6023 18ZM67.5199 15.7131H70.6335V16.6733H67.5199V15.7131ZM72.2685 19.4034V17.0199H72.6634C72.7978 16.9233 72.9209 16.7869 73.0327 16.6108C73.1444 16.4328 73.2401 16.1875 73.3196 15.875C73.3991 15.5606 73.456 15.1496 73.4901 14.642L73.6548 12.1818H77.5043V17.0199H78.1406V19.3977H76.9588V18H73.4503V19.4034H72.2685ZM74.0838 17.0199H76.3224V13.196H74.7628L74.6719 14.642C74.6473 15.0265 74.6065 15.3674 74.5497 15.6648C74.4948 15.9621 74.4276 16.2225 74.348 16.446C74.2704 16.6676 74.1823 16.8589 74.0838 17.0199ZM78.8885 12.1818H80.4055L82.0078 16.0909H82.076L83.6783 12.1818H85.1953V18H84.0021V14.2131H83.9538L82.4482 17.9716H81.6357L80.13 14.1989H80.0817V18H78.8885V12.1818ZM87.4389 12.1818V18H86.2088V12.1818H87.4389ZM88.451 18V12.1818H89.6811V14.5824H92.1783V12.1818H93.4055V18H92.1783V15.5966H89.6811V18H88.451ZM95.6499 12.1818V18H94.4197V12.1818H95.6499ZM101.795 14.2188H100.551C100.528 14.0578 100.482 13.9148 100.412 13.7898C100.342 13.6629 100.252 13.5549 100.142 13.4659C100.032 13.3769 99.9053 13.3087 99.7614 13.2614C99.6193 13.214 99.465 13.1903 99.2983 13.1903C98.9972 13.1903 98.7348 13.2652 98.5114 13.4148C98.2879 13.5625 98.1146 13.7784 97.9915 14.0625C97.8684 14.3447 97.8068 14.6875 97.8068 15.0909C97.8068 15.5057 97.8684 15.8542 97.9915 16.1364C98.1165 16.4186 98.2907 16.6316 98.5142 16.7756C98.7377 16.9195 98.9962 16.9915 99.2898 16.9915C99.4545 16.9915 99.607 16.9697 99.7472 16.9261C99.8892 16.8826 100.015 16.8191 100.125 16.7358C100.235 16.6506 100.326 16.5473 100.398 16.4261C100.472 16.3049 100.523 16.1667 100.551 16.0114L101.795 16.017C101.763 16.2841 101.683 16.5417 101.554 16.7898C101.427 17.036 101.256 17.2566 101.04 17.4517C100.826 17.6449 100.57 17.7983 100.273 17.9119C99.9773 18.0237 99.643 18.0795 99.2699 18.0795C98.7509 18.0795 98.2869 17.9621 97.8778 17.7273C97.4706 17.4924 97.1487 17.1525 96.9119 16.7074C96.6771 16.2623 96.5597 15.7235 96.5597 15.0909C96.5597 14.4564 96.679 13.9167 96.9176 13.4716C97.1563 13.0265 97.4801 12.6875 97.8892 12.4545C98.2983 12.2197 98.7585 12.1023 99.2699 12.1023C99.607 12.1023 99.9195 12.1496 100.207 12.2443C100.497 12.339 100.754 12.4773 100.977 12.6591C101.201 12.839 101.383 13.0597 101.523 13.321C101.665 13.5824 101.756 13.8816 101.795 14.2188ZM102.456 13.196V12.1818H107.234V13.196H105.453V18H104.237V13.196H102.456ZM108.021 18V12.1818H110.317C110.758 12.1818 111.134 12.2661 111.445 12.4347C111.755 12.6013 111.992 12.8333 112.155 13.1307C112.32 13.4261 112.402 13.767 112.402 14.1534C112.402 14.5398 112.319 14.8807 112.152 15.1761C111.985 15.4716 111.744 15.7017 111.428 15.8665C111.113 16.0312 110.732 16.1136 110.286 16.1136H108.822V15.1278H110.087C110.323 15.1278 110.518 15.0871 110.672 15.0057C110.827 14.9223 110.943 14.8078 111.018 14.6619C111.096 14.5142 111.135 14.3447 111.135 14.1534C111.135 13.9602 111.096 13.7917 111.018 13.6477C110.943 13.5019 110.827 13.3892 110.672 13.3097C110.517 13.2282 110.32 13.1875 110.081 13.1875H109.251V18H108.021ZM113.532 18H112.214L114.222 12.1818H115.808L117.813 18H116.495L115.038 13.5114H114.992L113.532 18ZM113.45 15.7131H116.563V16.6733H113.45V15.7131ZM124.119 17.017L124.048 19.375H122.877V18H122.468V17.017H124.119ZM118.513 18V12.1818H119.695V17.0114H122.116V12.1818H123.312V18H118.513ZM126.095 12.1818V18H124.865V12.1818H126.095ZM131.573 18H130.346V13.1875H129.516C129.28 13.1875 129.083 13.2225 128.925 13.2926C128.77 13.3608 128.654 13.4612 128.576 13.5938C128.498 13.7263 128.46 13.8892 128.46 14.0824C128.46 14.2737 128.498 14.4337 128.576 14.5625C128.654 14.6913 128.77 14.7879 128.925 14.8523C129.081 14.9167 129.276 14.9489 129.511 14.9489H130.846V15.9375H129.312C128.867 15.9375 128.486 15.8636 128.17 15.7159C127.853 15.5682 127.612 15.3561 127.445 15.0795C127.279 14.8011 127.195 14.4687 127.195 14.0824C127.195 13.6979 127.277 13.3636 127.44 13.0795C127.604 12.7936 127.842 12.5729 128.153 12.4176C128.465 12.2604 128.841 12.1818 129.281 12.1818H131.573V18ZM128.434 15.3523H129.761L128.346 18H126.988L128.434 15.3523Z" fill="white"/>
<defs>
<linearGradient id="paint0_linear_2050_11" x1="0" y1="29" x2="154.467" y2="-2.60381" gradientUnits="userSpaceOnUse">
<stop stop-color="#152994"/>
<stop offset="1" stop-color="#00FFFF"/>
</linearGradient>
</defs>
</svg>
