<svg width="155" height="29" viewBox="0 0 155 29" fill="none" xmlns="http://www.w3.org/2000/svg">
<path d="M0 7C0 3.13401 3.13401 0 7 0H150C152.761 0 155 2.23858 155 5V11C155 20.9411 146.941 29 137 29H7C3.13401 29 0 25.866 0 22V7Z" fill="url(#paint0_linear_2050_11)"/>
<path d="M85.9804 16.403L77.0231 24L68 16.403L70.8516 6M79.6577 12.292L83.1155 6.06844M83.1679 6.06844L86 16.3346M70.8979 6L74.3557 12.2236M74.3886 12.2965H79.6577" stroke="white" stroke-opacity="0.1" stroke-width="2" stroke-linecap="round" stroke-linejoin="round"/>
<path d="M34.2841 13.196V12.1818H39.0625V13.196H37.2812V18H36.0653V13.196H34.2841ZM39.8494 18V12.1818H43.7699V13.196H41.0795V14.5824H43.5682V15.5966H41.0795V16.9858H43.7812V18H39.8494ZM45.9013 12.1818L47.0746 14.1648H47.12L48.299 12.1818H49.6882L47.9126 15.0909L49.728 18H48.3132L47.12 16.0142H47.0746L45.8814 18H44.4723L46.2933 15.0909L44.5064 12.1818H45.9013ZM51.1513 18.0739C50.9638 18.0739 50.8028 18.0076 50.6683 17.875C50.5357 17.7405 50.4695 17.5795 50.4695 17.392C50.4695 17.2064 50.5357 17.0473 50.6683 16.9148C50.8028 16.7822 50.9638 16.7159 51.1513 16.7159C51.3331 16.7159 51.4922 16.7822 51.6286 16.9148C51.7649 17.0473 51.8331 17.2064 51.8331 17.392C51.8331 17.517 51.8009 17.6316 51.7365 17.7358C51.674 17.8381 51.5916 17.9205 51.4893 17.983C51.3871 18.0436 51.2744 18.0739 51.1513 18.0739ZM53.8523 18H52.5341L54.5426 12.1818H56.1278L58.1335 18H56.8153L55.358 13.5114H55.3125L53.8523 18ZM53.7699 15.7131H56.8835V16.6733H53.7699V15.7131ZM58.5185 19.4034V17.0199H58.9134C59.0478 16.9233 59.1709 16.7869 59.2827 16.6108C59.3944 16.4328 59.4901 16.1875 59.5696 15.875C59.6491 15.5606 59.706 15.1496 59.7401 14.642L59.9048 12.1818H63.7543V17.0199H64.3906V19.3977H63.2088V18H59.7003V19.4034H58.5185ZM60.3338 17.0199H62.5724V13.196H61.0128L60.9219 14.642C60.8973 15.0265 60.8565 15.3674 60.7997 15.6648C60.7448 15.9621 60.6776 16.2225 60.598 16.446C60.5204 16.6676 60.4323 16.8589 60.3338 17.0199ZM65.1385 12.1818H66.6555L68.2578 16.0909H68.326L69.9283 12.1818H71.4453V18H70.2521V14.2131H70.2038L68.6982 17.9716H67.8857L66.38 14.1989H66.3317V18H65.1385V12.1818ZM73.6889 12.1818V18H72.4588V12.1818H73.6889ZM74.701 18V12.1818H75.9311V14.5824H78.4283V12.1818H79.6555V18H78.4283V15.5966H75.9311V18H74.701ZM81.8999 12.1818V18H80.6697V12.1818H81.8999ZM88.0455 14.2188H86.8011C86.7784 14.0578 86.732 13.9148 86.6619 13.7898C86.5919 13.6629 86.5019 13.5549 86.392 13.4659C86.2822 13.3769 86.1553 13.3087 86.0114 13.2614C85.8693 13.214 85.715 13.1903 85.5483 13.1903C85.2472 13.1903 84.9848 13.2652 84.7614 13.4148C84.5379 13.5625 84.3646 13.7784 84.2415 14.0625C84.1184 14.3447 84.0568 14.6875 84.0568 15.0909C84.0568 15.5057 84.1184 15.8542 84.2415 16.1364C84.3665 16.4186 84.5407 16.6316 84.7642 16.7756C84.9877 16.9195 85.2462 16.9915 85.5398 16.9915C85.7045 16.9915 85.857 16.9697 85.9972 16.9261C86.1392 16.8826 86.2652 16.8191 86.375 16.7358C86.4848 16.6506 86.5758 16.5473 86.6477 16.4261C86.7216 16.3049 86.7727 16.1667 86.8011 16.0114L88.0455 16.017C88.0133 16.2841 87.9328 16.5417 87.804 16.7898C87.6771 17.036 87.5057 17.2566 87.2898 17.4517C87.0758 17.6449 86.8201 17.7983 86.5227 17.9119C86.2273 18.0237 85.893 18.0795 85.5199 18.0795C85.0009 18.0795 84.5369 17.9621 84.1278 17.7273C83.7206 17.4924 83.3987 17.1525 83.1619 16.7074C82.9271 16.2623 82.8097 15.7235 82.8097 15.0909C82.8097 14.4564 82.929 13.9167 83.1676 13.4716C83.4063 13.0265 83.7301 12.6875 84.1392 12.4545C84.5483 12.2197 85.0085 12.1023 85.5199 12.1023C85.857 12.1023 86.1695 12.1496 86.4574 12.2443C86.7472 12.339 87.0038 12.4773 87.2273 12.6591C87.4508 12.839 87.6326 13.0597 87.7727 13.321C87.9148 13.5824 88.0057 13.8816 88.0455 14.2188ZM88.706 13.196V12.1818H93.4844V13.196H91.7031V18H90.4872V13.196H88.706ZM94.2713 18V12.1818H96.5668C97.008 12.1818 97.384 12.2661 97.6946 12.4347C98.0052 12.6013 98.242 12.8333 98.4048 13.1307C98.5696 13.4261 98.652 13.767 98.652 14.1534C98.652 14.5398 98.5687 14.8807 98.402 15.1761C98.2353 15.4716 97.9938 15.7017 97.6776 15.8665C97.3632 16.0312 96.9825 16.1136 96.5355 16.1136H95.0724V15.1278H96.3366C96.5734 15.1278 96.7685 15.0871 96.9219 15.0057C97.0772 14.9223 97.1927 14.8078 97.2685 14.6619C97.3461 14.5142 97.3849 14.3447 97.3849 14.1534C97.3849 13.9602 97.3461 13.7917 97.2685 13.6477C97.1927 13.5019 97.0772 13.3892 96.9219 13.3097C96.7666 13.2282 96.5696 13.1875 96.331 13.1875H95.5014V18H94.2713ZM99.782 18H98.4638L100.472 12.1818H102.058L104.063 18H102.745L101.288 13.5114H101.242L99.782 18ZM99.6996 15.7131H102.813V16.6733H99.6996V15.7131ZM110.369 17.017L110.298 19.375H109.127V18H108.718V17.017H110.369ZM104.763 18V12.1818H105.945V17.0114H108.366V12.1818H109.562V18H104.763ZM112.345 12.1818V18H111.115V12.1818H112.345ZM117.823 18H116.596V13.1875H115.766C115.53 13.1875 115.333 13.2225 115.175 13.2926C115.02 13.3608 114.904 13.4612 114.826 13.5938C114.748 13.7263 114.71 13.8892 114.71 14.0824C114.71 14.2737 114.748 14.4337 114.826 14.5625C114.904 14.6913 115.02 14.7879 115.175 14.8523C115.331 14.9167 115.526 14.9489 115.761 14.9489H117.096V15.9375H115.562C115.117 15.9375 114.736 15.8636 114.42 15.7159C114.103 15.5682 113.862 15.3561 113.695 15.0795C113.529 14.8011 113.445 14.4687 113.445 14.0824C113.445 13.6979 113.527 13.3636 113.69 13.0795C113.854 12.7936 114.092 12.5729 114.403 12.4176C114.715 12.2604 115.091 12.1818 115.531 12.1818H117.823V18ZM114.684 15.3523H116.011L114.596 18H113.238L114.684 15.3523Z" fill="white"/>
<defs>
<linearGradient id="paint0_linear_2050_11" x1="0" y1="29" x2="154.467" y2="-2.60381" gradientUnits="userSpaceOnUse">
<stop stop-color="#152994"/>
<stop offset="1" stop-color="#00FFFF"/>
</linearGradient>
</defs>
</svg>
