<svg width="155" height="29" viewBox="0 0 155 29" fill="none" xmlns="http://www.w3.org/2000/svg">
<path d="M0 7C0 3.13401 3.13401 0 7 0H150C152.761 0 155 2.23858 155 5V11C155 20.9411 146.941 29 137 29H7C3.13401 29 0 25.866 0 22V7Z" fill="url(#paint0_linear_2054_83)"/>
<path d="M85.9804 16.403L77.0231 24L68 16.403L70.8516 6M79.6577 12.292L83.1155 6.06844M83.1679 6.06844L86 16.3346M70.8979 6L74.3557 12.2236M74.3886 12.2965H79.6577" stroke="white" stroke-opacity="0.1" stroke-width="2" stroke-linecap="round" stroke-linejoin="round"/>
<path d="M40.5085 18H39.1903L41.1989 12.1818H42.7841L44.7898 18H43.4716L42.0142 13.5114H41.9688L40.5085 18ZM40.4261 15.7131H43.5398V16.6733H40.4261V15.7131ZM47.5526 18H45.4901V12.1818H47.5696C48.1548 12.1818 48.6586 12.2983 49.081 12.5312C49.5033 12.7623 49.8281 13.0947 50.0554 13.5284C50.2846 13.9621 50.3991 14.4811 50.3991 15.0852C50.3991 15.6913 50.2846 16.2121 50.0554 16.6477C49.8281 17.0833 49.5014 17.4176 49.0753 17.6506C48.651 17.8835 48.1435 18 47.5526 18ZM46.7202 16.946H47.5014C47.8651 16.946 48.1709 16.8816 48.419 16.7528C48.669 16.6222 48.8565 16.4205 48.9815 16.1477C49.1084 15.8731 49.1719 15.5189 49.1719 15.0852C49.1719 14.6553 49.1084 14.304 48.9815 14.0312C48.8565 13.7585 48.67 13.5578 48.4219 13.429C48.1738 13.3002 47.8679 13.2358 47.5043 13.2358H46.7202V16.946ZM51.3104 12.1818H52.8274L54.4297 16.0909H54.4979L56.1001 12.1818H57.6172V18H56.424V14.2131H56.3757L54.87 17.9716H54.0575L52.5518 14.1989H52.5036V18H51.3104V12.1818ZM59.8608 12.1818V18H58.6307V12.1818H59.8608ZM65.7393 12.1818V18H64.6768L62.1456 14.3381H62.103V18H60.8729V12.1818H61.9524L64.4638 15.8409H64.5149V12.1818H65.7393ZM67.9858 12.1818V18H66.7557V12.1818H67.9858ZM72.1541 13.8551C72.1314 13.6259 72.0339 13.4479 71.8615 13.321C71.6892 13.1941 71.4553 13.1307 71.1598 13.1307C70.959 13.1307 70.7895 13.1591 70.6513 13.2159C70.513 13.2708 70.407 13.3475 70.3331 13.446C70.2611 13.5445 70.2251 13.6562 70.2251 13.7812C70.2214 13.8854 70.2431 13.9763 70.2905 14.054C70.3397 14.1316 70.407 14.1989 70.4922 14.2557C70.5774 14.3106 70.6759 14.3589 70.7876 14.4006C70.8994 14.4403 71.0187 14.4744 71.1456 14.5028L71.6683 14.6278C71.9221 14.6847 72.1551 14.7604 72.3672 14.8551C72.5793 14.9498 72.763 15.0663 72.9183 15.2045C73.0736 15.3428 73.1939 15.5057 73.2791 15.6932C73.3662 15.8807 73.4107 16.0956 73.4126 16.3381C73.4107 16.6941 73.3198 17.0028 73.1399 17.2642C72.9619 17.5237 72.7043 17.7254 72.3672 17.8693C72.032 18.0114 71.6276 18.0824 71.1541 18.0824C70.6844 18.0824 70.2753 18.0104 69.9268 17.8665C69.5803 17.7225 69.3094 17.5095 69.1143 17.2273C68.9212 16.9432 68.8198 16.5919 68.8104 16.1733H70.0007C70.014 16.3684 70.0698 16.5312 70.1683 16.6619C70.2687 16.7907 70.4022 16.8883 70.5689 16.9545C70.7375 17.0189 70.9278 17.0511 71.1399 17.0511C71.3482 17.0511 71.5291 17.0208 71.6825 16.9602C71.8378 16.8996 71.9581 16.8153 72.0433 16.7074C72.1286 16.5994 72.1712 16.4754 72.1712 16.3352C72.1712 16.2045 72.1323 16.0947 72.0547 16.0057C71.9789 15.9167 71.8672 15.8409 71.7195 15.7784C71.5736 15.7159 71.3946 15.6591 71.1825 15.608L70.549 15.4489C70.0585 15.3295 69.6712 15.143 69.3871 14.8892C69.103 14.6354 68.9619 14.2936 68.9638 13.8636C68.9619 13.5114 69.0556 13.2036 69.245 12.9403C69.4363 12.6771 69.6986 12.4716 70.032 12.3239C70.3653 12.1761 70.7441 12.1023 71.1683 12.1023C71.6001 12.1023 71.977 12.1761 72.299 12.3239C72.6229 12.4716 72.8748 12.6771 73.0547 12.9403C73.2346 13.2036 73.3274 13.5085 73.3331 13.8551H72.1541ZM74.0185 13.196V12.1818H78.7969V13.196H77.0156V18H75.7997V13.196H74.0185ZM79.5838 18V12.1818H81.8793C82.3187 12.1818 82.6937 12.2604 83.0043 12.4176C83.3168 12.5729 83.5545 12.7936 83.7173 13.0795C83.8821 13.3636 83.9645 13.6979 83.9645 14.0824C83.9645 14.4687 83.8812 14.8011 83.7145 15.0795C83.5478 15.3561 83.3063 15.5682 82.9901 15.7159C82.6757 15.8636 82.295 15.9375 81.848 15.9375H80.3111V14.9489H81.6491C81.884 14.9489 82.0791 14.9167 82.2344 14.8523C82.3897 14.7879 82.5052 14.6913 82.581 14.5625C82.6586 14.4337 82.6974 14.2737 82.6974 14.0824C82.6974 13.8892 82.6586 13.7263 82.581 13.5938C82.5052 13.4612 82.3887 13.3608 82.2315 13.2926C82.0762 13.2225 81.8802 13.1875 81.6435 13.1875H80.8139V18H79.5838ZM82.7259 15.3523L84.1719 18H82.8139L81.3991 15.3523H82.7259ZM85.8366 18H84.5185L86.527 12.1818H88.1122L90.1179 18H88.7997L87.3423 13.5114H87.2969L85.8366 18ZM85.7543 15.7131H88.8679V16.6733H85.7543V15.7131ZM89.8857 13.196V12.1818H94.6641V13.196H92.8828V18H91.6669V13.196H89.8857ZM96.6811 12.1818V18H95.451V12.1818H96.6811ZM103.04 15.0909C103.04 15.7254 102.92 16.2652 102.679 16.7102C102.44 17.1553 102.115 17.4953 101.702 17.7301C101.291 17.9631 100.829 18.0795 100.315 18.0795C99.7983 18.0795 99.3343 17.9621 98.9233 17.7273C98.5123 17.4924 98.1875 17.1525 97.9489 16.7074C97.7102 16.2623 97.5909 15.7235 97.5909 15.0909C97.5909 14.4564 97.7102 13.9167 97.9489 13.4716C98.1875 13.0265 98.5123 12.6875 98.9233 12.4545C99.3343 12.2197 99.7983 12.1023 100.315 12.1023C100.829 12.1023 101.291 12.2197 101.702 12.4545C102.115 12.6875 102.44 13.0265 102.679 13.4716C102.92 13.9167 103.04 14.4564 103.04 15.0909ZM101.793 15.0909C101.793 14.6799 101.731 14.3333 101.608 14.0511C101.487 13.7689 101.315 13.5549 101.094 13.4091C100.872 13.2633 100.613 13.1903 100.315 13.1903C100.018 13.1903 99.7585 13.2633 99.5369 13.4091C99.3153 13.5549 99.143 13.7689 99.0199 14.0511C98.8987 14.3333 98.8381 14.6799 98.8381 15.0909C98.8381 15.5019 98.8987 15.8485 99.0199 16.1307C99.143 16.4129 99.3153 16.6269 99.5369 16.7727C99.7585 16.9186 100.018 16.9915 100.315 16.9915C100.613 16.9915 100.872 16.9186 101.094 16.7727C101.315 16.6269 101.487 16.4129 101.608 16.1307C101.731 15.8485 101.793 15.5019 101.793 15.0909ZM108.817 12.1818V18H107.755L105.224 14.3381H105.181V18H103.951V12.1818H105.031L107.542 15.8409H107.593V12.1818H108.817Z" fill="white"/>
<defs>
<linearGradient id="paint0_linear_2054_83" x1="0" y1="29" x2="154.467" y2="-2.60381" gradientUnits="userSpaceOnUse">
<stop stop-color="#570707"/>
<stop offset="1" stop-color="#F11111"/>
</linearGradient>
</defs>
</svg>
