<svg width="155" height="29" viewBox="0 0 155 29" fill="none" xmlns="http://www.w3.org/2000/svg">
<path d="M0 7C0 3.13401 3.13401 0 7 0H150C152.761 0 155 2.23858 155 5V11C155 20.9411 146.941 29 137 29H7C3.13401 29 0 25.866 0 22V7Z" fill="url(#paint0_linear_2052_67)"/>
<path d="M85.9804 16.403L77.0231 24L68 16.403L70.8516 6M79.6577 12.292L83.1155 6.06844M83.1679 6.06844L86 16.3346M70.8979 6L74.3557 12.2236M74.3886 12.2965H79.6577" stroke="white" stroke-opacity="0.1" stroke-width="2" stroke-linecap="round" stroke-linejoin="round"/>
<path d="M48.4517 12.1818V18H47.2358V13.1818H44.8835V18H43.6676V12.1818H48.4517ZM54.9695 15.0909C54.9695 15.7254 54.8492 16.2652 54.6087 16.7102C54.37 17.1553 54.0443 17.4953 53.6314 17.7301C53.2204 17.9631 52.7583 18.0795 52.245 18.0795C51.728 18.0795 51.264 17.9621 50.853 17.7273C50.442 17.4924 50.1172 17.1525 49.8786 16.7074C49.6399 16.2623 49.5206 15.7235 49.5206 15.0909C49.5206 14.4564 49.6399 13.9167 49.8786 13.4716C50.1172 13.0265 50.442 12.6875 50.853 12.4545C51.264 12.2197 51.728 12.1023 52.245 12.1023C52.7583 12.1023 53.2204 12.2197 53.6314 12.4545C54.0443 12.6875 54.37 13.0265 54.6087 13.4716C54.8492 13.9167 54.9695 14.4564 54.9695 15.0909ZM53.7223 15.0909C53.7223 14.6799 53.6607 14.3333 53.5376 14.0511C53.4164 13.7689 53.245 13.5549 53.0234 13.4091C52.8018 13.2633 52.5424 13.1903 52.245 13.1903C51.9477 13.1903 51.6882 13.2633 51.4666 13.4091C51.245 13.5549 51.0727 13.7689 50.9496 14.0511C50.8284 14.3333 50.7678 14.6799 50.7678 15.0909C50.7678 15.5019 50.8284 15.8485 50.9496 16.1307C51.0727 16.4129 51.245 16.6269 51.4666 16.7727C51.6882 16.9186 51.9477 16.9915 52.245 16.9915C52.5424 16.9915 52.8018 16.9186 53.0234 16.7727C53.245 16.6269 53.4164 16.4129 53.5376 16.1307C53.6607 15.8485 53.7223 15.5019 53.7223 15.0909ZM55.5653 18V17.0114L55.7301 16.9972C55.9422 16.9801 56.1136 16.8996 56.2443 16.7557C56.375 16.6098 56.4725 16.3778 56.5369 16.0597C56.6032 15.7396 56.6458 15.3097 56.6648 14.7699L56.7614 12.1818H60.7102V18H59.5142V13.1676H57.9034L57.8125 15.1932C57.7822 15.8447 57.7045 16.3769 57.5795 16.7898C57.4564 17.2027 57.2595 17.5076 56.9886 17.7045C56.7197 17.9015 56.3513 18 55.8835 18H55.5653ZM62.5341 14.3324H63.9205C64.3826 14.3324 64.7803 14.4072 65.1136 14.5568C65.4489 14.7045 65.7074 14.9138 65.8892 15.1847C66.071 15.4555 66.161 15.7746 66.1591 16.142C66.161 16.5076 66.071 16.8305 65.8892 17.1108C65.7074 17.3892 65.4489 17.607 65.1136 17.7642C64.7803 17.9214 64.3826 18 63.9205 18H61.7472V12.1818H62.9744V17.0114H63.9205C64.142 17.0114 64.3286 16.9716 64.4801 16.892C64.6316 16.8106 64.7462 16.7036 64.8239 16.571C64.9034 16.4366 64.9422 16.2898 64.9403 16.1307C64.9422 15.8996 64.8551 15.7045 64.679 15.5455C64.5047 15.3845 64.2519 15.304 63.9205 15.304H62.5341V14.3324ZM69.255 18.0795C68.8307 18.0795 68.4529 18.0066 68.1214 17.8608C67.7919 17.7131 67.5315 17.5104 67.3402 17.2528C67.1508 16.9934 67.0533 16.6941 67.0476 16.3551H68.2862C68.2938 16.4972 68.3402 16.6222 68.4254 16.7301C68.5125 16.8362 68.6281 16.9186 68.772 16.9773C68.916 17.036 69.0779 17.0653 69.2578 17.0653C69.4453 17.0653 69.611 17.0322 69.755 16.9659C69.8989 16.8996 70.0116 16.8078 70.093 16.6903C70.1745 16.5729 70.2152 16.4375 70.2152 16.2841C70.2152 16.1288 70.1716 15.9915 70.0845 15.8722C69.9993 15.7509 69.8762 15.6562 69.7152 15.5881C69.5561 15.5199 69.3667 15.4858 69.147 15.4858H68.6044V14.5824H69.147C69.3326 14.5824 69.4964 14.5502 69.6385 14.4858C69.7824 14.4214 69.8942 14.3324 69.9737 14.2188C70.0533 14.1032 70.093 13.9688 70.093 13.8153C70.093 13.6695 70.058 13.5417 69.9879 13.4318C69.9197 13.3201 69.8232 13.233 69.6982 13.1705C69.575 13.108 69.4311 13.0767 69.2663 13.0767C69.0997 13.0767 68.9472 13.107 68.8089 13.1676C68.6707 13.2263 68.5599 13.3106 68.4766 13.4205C68.3932 13.5303 68.3487 13.6591 68.343 13.8068H67.1641C67.1697 13.4716 67.2654 13.1761 67.451 12.9205C67.6366 12.6648 67.8866 12.465 68.201 12.321C68.5173 12.1752 68.8743 12.1023 69.272 12.1023C69.6735 12.1023 70.0249 12.1752 70.326 12.321C70.6271 12.4669 70.861 12.6638 71.0277 12.9119C71.1963 13.1581 71.2796 13.4347 71.2777 13.7415C71.2796 14.0672 71.1783 14.339 70.9737 14.5568C70.7711 14.7746 70.5069 14.9129 70.1811 14.9716V15.017C70.6091 15.072 70.9349 15.2206 71.1584 15.4631C71.3838 15.7036 71.4955 16.0047 71.4936 16.3665C71.4955 16.6979 71.3999 16.9924 71.2067 17.25C71.0154 17.5076 70.7512 17.7102 70.4141 17.858C70.0769 18.0057 69.6906 18.0795 69.255 18.0795ZM77.7585 15.0909C77.7585 15.7254 77.6383 16.2652 77.3977 16.7102C77.1591 17.1553 76.8333 17.4953 76.4205 17.7301C76.0095 17.9631 75.5473 18.0795 75.0341 18.0795C74.517 18.0795 74.053 17.9621 73.642 17.7273C73.2311 17.4924 72.9063 17.1525 72.6676 16.7074C72.429 16.2623 72.3097 15.7235 72.3097 15.0909C72.3097 14.4564 72.429 13.9167 72.6676 13.4716C72.9063 13.0265 73.2311 12.6875 73.642 12.4545C74.053 12.2197 74.517 12.1023 75.0341 12.1023C75.5473 12.1023 76.0095 12.2197 76.4205 12.4545C76.8333 12.6875 77.1591 13.0265 77.3977 13.4716C77.6383 13.9167 77.7585 14.4564 77.7585 15.0909ZM76.5114 15.0909C76.5114 14.6799 76.4498 14.3333 76.3267 14.0511C76.2055 13.7689 76.0341 13.5549 75.8125 13.4091C75.5909 13.2633 75.3314 13.1903 75.0341 13.1903C74.7367 13.1903 74.4773 13.2633 74.2557 13.4091C74.0341 13.5549 73.8617 13.7689 73.7386 14.0511C73.6174 14.3333 73.5568 14.6799 73.5568 15.0909C73.5568 15.5019 73.6174 15.8485 73.7386 16.1307C73.8617 16.4129 74.0341 16.6269 74.2557 16.7727C74.4773 16.9186 74.7367 16.9915 75.0341 16.9915C75.3314 16.9915 75.5909 16.9186 75.8125 16.7727C76.0341 16.6269 76.2055 16.4129 76.3267 16.1307C76.4498 15.8485 76.5114 15.5019 76.5114 15.0909ZM78.6697 18V12.1818H80.9993C81.4273 12.1818 81.7843 12.2453 82.0703 12.3722C82.3563 12.4991 82.5713 12.6752 82.7152 12.9006C82.8591 13.1241 82.9311 13.3816 82.9311 13.6733C82.9311 13.9006 82.8857 14.1004 82.7947 14.2727C82.7038 14.4432 82.5788 14.5833 82.4197 14.6932C82.2625 14.8011 82.0826 14.8778 81.88 14.9233V14.9801C82.1016 14.9896 82.3089 15.0521 82.5021 15.1676C82.6972 15.2831 82.8554 15.4451 82.9766 15.6534C83.0978 15.8598 83.1584 16.1061 83.1584 16.392C83.1584 16.7008 83.0817 16.9763 82.9283 17.2188C82.7768 17.4593 82.5523 17.6496 82.255 17.7898C81.9576 17.9299 81.5911 18 81.1555 18H78.6697ZM79.8999 16.9943H80.9027C81.2455 16.9943 81.4955 16.929 81.6527 16.7983C81.8099 16.6657 81.8885 16.4896 81.8885 16.2699C81.8885 16.1089 81.8497 15.9669 81.772 15.8438C81.6944 15.7206 81.5836 15.6241 81.4396 15.554C81.2976 15.4839 81.1281 15.4489 80.9311 15.4489H79.8999V16.9943ZM79.8999 14.6165H80.8118C80.9804 14.6165 81.13 14.5871 81.2607 14.5284C81.3932 14.4678 81.4974 14.3826 81.5732 14.2727C81.6508 14.1629 81.6896 14.0312 81.6896 13.8778C81.6896 13.6676 81.6148 13.4981 81.4652 13.3693C81.3175 13.2405 81.1072 13.1761 80.8345 13.1761H79.8999V14.6165ZM84.9616 18H83.6435L85.652 12.1818H87.2372L89.2429 18H87.9247L86.4673 13.5114H86.4219L84.9616 18ZM84.8793 15.7131H87.9929V16.6733H84.8793V15.7131ZM89.0107 13.196V12.1818H93.7891V13.196H92.0078V18H90.7919V13.196H89.0107ZM94.576 18V12.1818H98.4964V13.196H95.8061V14.5824H98.2947V15.5966H95.8061V16.9858H98.5078V18H94.576ZM99.1591 18V17.0114L99.3239 16.9972C99.536 16.9801 99.7074 16.8996 99.8381 16.7557C99.9688 16.6098 100.066 16.3778 100.131 16.0597C100.197 15.7396 100.24 15.3097 100.259 14.7699L100.355 12.1818H104.304V18H103.108V13.1676H101.497L101.406 15.1932C101.376 15.8447 101.298 16.3769 101.173 16.7898C101.05 17.2027 100.853 17.5076 100.582 17.7045C100.313 17.9015 99.9451 18 99.4773 18H99.1591ZM106.128 14.3324H107.514C107.976 14.3324 108.374 14.4072 108.707 14.5568C109.043 14.7045 109.301 14.9138 109.483 15.1847C109.665 15.4555 109.755 15.7746 109.753 16.142C109.755 16.5076 109.665 16.8305 109.483 17.1108C109.301 17.3892 109.043 17.607 108.707 17.7642C108.374 17.9214 107.976 18 107.514 18H105.341V12.1818H106.568V17.0114H107.514C107.736 17.0114 107.922 16.9716 108.074 16.892C108.225 16.8106 108.34 16.7036 108.418 16.571C108.497 16.4366 108.536 16.2898 108.534 16.1307C108.536 15.8996 108.449 15.7045 108.273 15.5455C108.098 15.3845 107.846 15.304 107.514 15.304H106.128V14.3324Z" fill="white"/>
<defs>
<linearGradient id="paint0_linear_2052_67" x1="0" y1="29" x2="154.467" y2="-2.60381" gradientUnits="userSpaceOnUse">
<stop stop-color="#484848"/>
<stop offset="1" stop-color="#838383"/>
</linearGradient>
</defs>
</svg>
