<svg width="155" height="29" viewBox="0 0 155 29" fill="none" xmlns="http://www.w3.org/2000/svg">
<path d="M0 7C0 3.13401 3.13401 0 7 0H150C152.761 0 155 2.23858 155 5V11C155 20.9411 146.941 29 137 29H7C3.13401 29 0 25.866 0 22V7Z" fill="url(#paint0_linear_2052_63)"/>
<path d="M85.9804 16.403L77.0231 24L68 16.403L70.8516 6M79.6577 12.292L83.1155 6.06844M83.1679 6.06844L86 16.3346M70.8979 6L74.3557 12.2236M74.3886 12.2965H79.6577" stroke="white" stroke-opacity="0.1" stroke-width="2" stroke-linecap="round" stroke-linejoin="round"/>
<path d="M45.6222 18.0795C45.1979 18.0795 44.8201 18.0066 44.4886 17.8608C44.1591 17.7131 43.8987 17.5104 43.7074 17.2528C43.518 16.9934 43.4205 16.6941 43.4148 16.3551H44.6534C44.661 16.4972 44.7074 16.6222 44.7926 16.7301C44.8797 16.8362 44.9953 16.9186 45.1392 16.9773C45.2831 17.036 45.4451 17.0653 45.625 17.0653C45.8125 17.0653 45.9782 17.0322 46.1222 16.9659C46.2661 16.8996 46.3788 16.8078 46.4602 16.6903C46.5417 16.5729 46.5824 16.4375 46.5824 16.2841C46.5824 16.1288 46.5388 15.9915 46.4517 15.8722C46.3665 15.7509 46.2434 15.6562 46.0824 15.5881C45.9233 15.5199 45.7339 15.4858 45.5142 15.4858H44.9716V14.5824H45.5142C45.6998 14.5824 45.8636 14.5502 46.0057 14.4858C46.1496 14.4214 46.2614 14.3324 46.3409 14.2188C46.4205 14.1032 46.4602 13.9688 46.4602 13.8153C46.4602 13.6695 46.4252 13.5417 46.3551 13.4318C46.2869 13.3201 46.1903 13.233 46.0653 13.1705C45.9422 13.108 45.7983 13.0767 45.6335 13.0767C45.4669 13.0767 45.3144 13.107 45.1761 13.1676C45.0379 13.2263 44.9271 13.3106 44.8438 13.4205C44.7604 13.5303 44.7159 13.6591 44.7102 13.8068H43.5312C43.5369 13.4716 43.6326 13.1761 43.8182 12.9205C44.0038 12.6648 44.2538 12.465 44.5682 12.321C44.8845 12.1752 45.2415 12.1023 45.6392 12.1023C46.0407 12.1023 46.392 12.1752 46.6932 12.321C46.9943 12.4669 47.2282 12.6638 47.3949 12.9119C47.5634 13.1581 47.6468 13.4347 47.6449 13.7415C47.6468 14.0672 47.5455 14.339 47.3409 14.5568C47.1383 14.7746 46.8741 14.9129 46.5483 14.9716V15.017C46.9763 15.072 47.3021 15.2206 47.5256 15.4631C47.7509 15.7036 47.8627 16.0047 47.8608 16.3665C47.8627 16.6979 47.767 16.9924 47.5739 17.25C47.3826 17.5076 47.1184 17.7102 46.7812 17.858C46.4441 18.0057 46.0578 18.0795 45.6222 18.0795ZM49.782 18H48.4638L50.4723 12.1818H52.0575L54.0632 18H52.745L51.2876 13.5114H51.2422L49.782 18ZM49.6996 15.7131H52.8132V16.6733H49.6996V15.7131ZM54.7635 18V12.1818H58.6243V13.196H55.9936V14.3324H56.9396C57.3999 14.3324 57.7966 14.4072 58.13 14.5568C58.4652 14.7045 58.7237 14.9138 58.9055 15.1847C59.0874 15.4555 59.1783 15.7746 59.1783 16.142C59.1783 16.5076 59.0874 16.8305 58.9055 17.1108C58.7237 17.3892 58.4652 17.607 58.13 17.7642C57.7966 17.9214 57.3999 18 56.9396 18H54.7635ZM55.9936 17.0114H56.9396C57.1593 17.0114 57.3449 16.9716 57.4964 16.892C57.648 16.8106 57.7625 16.7036 57.8402 16.571C57.9197 16.4366 57.9595 16.2898 57.9595 16.1307C57.9595 15.8996 57.8714 15.7045 57.6953 15.5455C57.5211 15.3845 57.2692 15.304 56.9396 15.304H55.9936V17.0114ZM59.6591 18V17.0114L59.8239 16.9972C60.036 16.9801 60.2074 16.8996 60.3381 16.7557C60.4688 16.6098 60.5663 16.3778 60.6307 16.0597C60.697 15.7396 60.7396 15.3097 60.7585 14.7699L60.8551 12.1818H64.804V18H63.608V13.1676H61.9972L61.9062 15.1932C61.8759 15.8447 61.7983 16.3769 61.6733 16.7898C61.5502 17.2027 61.3532 17.5076 61.0824 17.7045C60.8134 17.9015 60.4451 18 59.9773 18H59.6591ZM71.1648 15.0909C71.1648 15.7254 71.0445 16.2652 70.804 16.7102C70.5653 17.1553 70.2396 17.4953 69.8267 17.7301C69.4157 17.9631 68.9536 18.0795 68.4403 18.0795C67.9233 18.0795 67.4593 17.9621 67.0483 17.7273C66.6373 17.4924 66.3125 17.1525 66.0739 16.7074C65.8352 16.2623 65.7159 15.7235 65.7159 15.0909C65.7159 14.4564 65.8352 13.9167 66.0739 13.4716C66.3125 13.0265 66.6373 12.6875 67.0483 12.4545C67.4593 12.2197 67.9233 12.1023 68.4403 12.1023C68.9536 12.1023 69.4157 12.2197 69.8267 12.4545C70.2396 12.6875 70.5653 13.0265 70.804 13.4716C71.0445 13.9167 71.1648 14.4564 71.1648 15.0909ZM69.9176 15.0909C69.9176 14.6799 69.8561 14.3333 69.733 14.0511C69.6117 13.7689 69.4403 13.5549 69.2188 13.4091C68.9972 13.2633 68.7377 13.1903 68.4403 13.1903C68.143 13.1903 67.8835 13.2633 67.6619 13.4091C67.4403 13.5549 67.268 13.7689 67.1449 14.0511C67.0237 14.3333 66.9631 14.6799 66.9631 15.0909C66.9631 15.5019 67.0237 15.8485 67.1449 16.1307C67.268 16.4129 67.4403 16.6269 67.6619 16.7727C67.8835 16.9186 68.143 16.9915 68.4403 16.9915C68.7377 16.9915 68.9972 16.9186 69.2188 16.7727C69.4403 16.6269 69.6117 16.4129 69.733 16.1307C69.8561 15.8485 69.9176 15.5019 69.9176 15.0909ZM75.5959 18L73.7266 15.5199H73.3061V18H72.076V12.1818H73.3061V14.5057H73.5533L75.4851 12.1818H77.0163L74.7464 14.8807L77.1214 18H75.5959ZM82.7585 15.0909C82.7585 15.7254 82.6383 16.2652 82.3977 16.7102C82.1591 17.1553 81.8333 17.4953 81.4205 17.7301C81.0095 17.9631 80.5473 18.0795 80.0341 18.0795C79.517 18.0795 79.053 17.9621 78.642 17.7273C78.2311 17.4924 77.9063 17.1525 77.6676 16.7074C77.429 16.2623 77.3097 15.7235 77.3097 15.0909C77.3097 14.4564 77.429 13.9167 77.6676 13.4716C77.9063 13.0265 78.2311 12.6875 78.642 12.4545C79.053 12.2197 79.517 12.1023 80.0341 12.1023C80.5473 12.1023 81.0095 12.2197 81.4205 12.4545C81.8333 12.6875 82.1591 13.0265 82.3977 13.4716C82.6383 13.9167 82.7585 14.4564 82.7585 15.0909ZM81.5114 15.0909C81.5114 14.6799 81.4498 14.3333 81.3267 14.0511C81.2055 13.7689 81.0341 13.5549 80.8125 13.4091C80.5909 13.2633 80.3314 13.1903 80.0341 13.1903C79.7367 13.1903 79.4773 13.2633 79.2557 13.4091C79.0341 13.5549 78.8617 13.7689 78.7386 14.0511C78.6174 14.3333 78.5568 14.6799 78.5568 15.0909C78.5568 15.5019 78.6174 15.8485 78.7386 16.1307C78.8617 16.4129 79.0341 16.6269 79.2557 16.7727C79.4773 16.9186 79.7367 16.9915 80.0341 16.9915C80.3314 16.9915 80.5909 16.9186 80.8125 16.7727C81.0341 16.6269 81.2055 16.4129 81.3267 16.1307C81.4498 15.8485 81.5114 15.5019 81.5114 15.0909ZM83.6697 18V12.1818H85.9993C86.4273 12.1818 86.7843 12.2453 87.0703 12.3722C87.3563 12.4991 87.5713 12.6752 87.7152 12.9006C87.8591 13.1241 87.9311 13.3816 87.9311 13.6733C87.9311 13.9006 87.8857 14.1004 87.7947 14.2727C87.7038 14.4432 87.5788 14.5833 87.4197 14.6932C87.2625 14.8011 87.0826 14.8778 86.88 14.9233V14.9801C87.1016 14.9896 87.3089 15.0521 87.5021 15.1676C87.6972 15.2831 87.8554 15.4451 87.9766 15.6534C88.0978 15.8598 88.1584 16.1061 88.1584 16.392C88.1584 16.7008 88.0817 16.9763 87.9283 17.2188C87.7768 17.4593 87.5523 17.6496 87.255 17.7898C86.9576 17.9299 86.5911 18 86.1555 18H83.6697ZM84.8999 16.9943H85.9027C86.2455 16.9943 86.4955 16.929 86.6527 16.7983C86.8099 16.6657 86.8885 16.4896 86.8885 16.2699C86.8885 16.1089 86.8497 15.9669 86.772 15.8438C86.6944 15.7206 86.5836 15.6241 86.4396 15.554C86.2976 15.4839 86.1281 15.4489 85.9311 15.4489H84.8999V16.9943ZM84.8999 14.6165H85.8118C85.9804 14.6165 86.13 14.5871 86.2607 14.5284C86.3932 14.4678 86.4974 14.3826 86.5732 14.2727C86.6508 14.1629 86.6896 14.0312 86.6896 13.8778C86.6896 13.6676 86.6148 13.4981 86.4652 13.3693C86.3175 13.2405 86.1072 13.1761 85.8345 13.1761H84.8999V14.6165ZM89.9616 18H88.6435L90.652 12.1818H92.2372L94.2429 18H92.9247L91.4673 13.5114H91.4219L89.9616 18ZM89.8793 15.7131H92.9929V16.6733H89.8793V15.7131ZM94.9432 18V12.1818H96.1733V14.5824H98.6705V12.1818H99.8977V18H98.6705V15.5966H96.1733V18H94.9432ZM100.912 12.1818H102.139V15.8409H102.188L104.702 12.1818H105.778V18H104.548V14.3381H104.506L101.977 18H100.912V12.1818ZM106.795 12.1818H108.022V15.8409H108.07L110.585 12.1818H111.661V18H110.431V14.3381H110.388L107.86 18H106.795V12.1818ZM109.795 10.6591H110.638C110.637 11.0038 110.509 11.2812 110.255 11.4915C110.003 11.7017 109.662 11.8068 109.232 11.8068C108.8 11.8068 108.459 11.7017 108.207 11.4915C107.955 11.2812 107.829 11.0038 107.829 10.6591H108.667C108.665 10.7898 108.707 10.9072 108.792 11.0114C108.879 11.1155 109.026 11.1676 109.232 11.1676C109.433 11.1676 109.577 11.1165 109.664 11.0142C109.751 10.9119 109.795 10.7936 109.795 10.6591Z" fill="white"/>
<defs>
<linearGradient id="paint0_linear_2052_63" x1="0" y1="29" x2="154.467" y2="-2.60381" gradientUnits="userSpaceOnUse">
<stop stop-color="#040404"/>
<stop offset="1" stop-color="#484549"/>
</linearGradient>
</defs>
</svg>
