<svg width="155" height="29" viewBox="0 0 155 29" fill="none" xmlns="http://www.w3.org/2000/svg">
<path d="M0 7C0 3.13401 3.13401 0 7 0H150C152.761 0 155 2.23858 155 5V11C155 20.9411 146.941 29 137 29H7C3.13401 29 0 25.866 0 22V7Z" fill="url(#paint0_linear_2051_55)"/>
<path d="M85.9804 16.403L77.0231 24L68 16.403L70.8516 6M79.6577 12.292L83.1155 6.06844M83.1679 6.06844L86 16.3346M70.8979 6L74.3557 12.2236M74.3886 12.2965H79.6577" stroke="white" stroke-opacity="0.1" stroke-width="2" stroke-linecap="round" stroke-linejoin="round"/>
<path d="M45.1903 19.4034V17.0199H45.5852C45.7197 16.9233 45.8428 16.7869 45.9545 16.6108C46.0663 16.4328 46.1619 16.1875 46.2415 15.875C46.321 15.5606 46.3778 15.1496 46.4119 14.642L46.5767 12.1818H50.4261V17.0199H51.0625V19.3977H49.8807V18H46.3722V19.4034H45.1903ZM47.0057 17.0199H49.2443V13.196H47.6847L47.5938 14.642C47.5691 15.0265 47.5284 15.3674 47.4716 15.6648C47.4167 15.9621 47.3494 16.2225 47.2699 16.446C47.1922 16.6676 47.1042 16.8589 47.0057 17.0199ZM53.0405 12.1818V18H51.8104V12.1818H53.0405ZM53.7372 19.4034V17.0199H54.1321C54.2666 16.9233 54.3897 16.7869 54.5014 16.6108C54.6132 16.4328 54.7088 16.1875 54.7884 15.875C54.8679 15.5606 54.9247 15.1496 54.9588 14.642L55.1236 12.1818H58.973V17.0199H59.6094V19.3977H58.4276V18H54.919V19.4034H53.7372ZM55.5526 17.0199H57.7912V13.196H56.2315L56.1406 14.642C56.116 15.0265 56.0753 15.3674 56.0185 15.6648C55.9635 15.9621 55.8963 16.2225 55.8168 16.446C55.7391 16.6676 55.651 16.8589 55.5526 17.0199ZM64.7891 12.1818V18H63.5959V12.1818H64.7891ZM60.0817 18L61.9055 14.9318L60.1584 12.1818H61.6726L62.9794 14.5767H65.4368L66.7095 12.1818H68.218L66.5135 14.9233L68.3033 18H66.8345L65.6044 15.7131H62.8004L61.5391 18H60.0817ZM69.0369 18V12.1818H72.9574V13.196H70.267V14.5824H72.7557V15.5966H70.267V16.9858H72.9688V18H69.0369ZM73.9354 12.1818H75.1626V15.8409H75.2109L77.7251 12.1818H78.8018V18H77.5717V14.3381H77.5291L75.0007 18H73.9354V12.1818ZM76.9354 10.6591H77.7791C77.7772 11.0038 77.6494 11.2812 77.3956 11.4915C77.1437 11.7017 76.8028 11.8068 76.3729 11.8068C75.9411 11.8068 75.5992 11.7017 75.3473 11.4915C75.0954 11.2812 74.9695 11.0038 74.9695 10.6591H75.8075C75.8056 10.7898 75.8473 10.9072 75.9325 11.0114C76.0196 11.1155 76.1664 11.1676 76.3729 11.1676C76.5736 11.1676 76.7176 11.1165 76.8047 11.0142C76.8918 10.9119 76.9354 10.7936 76.9354 10.6591ZM85.1896 18L83.3203 15.5199H82.8999V18H81.6697V12.1818H82.8999V14.5057H83.147L85.0788 12.1818H86.6101L84.3402 14.8807L86.7152 18H85.1896ZM87.0185 18V17.0114L87.1832 16.9972C87.3954 16.9801 87.5668 16.8996 87.6974 16.7557C87.8281 16.6098 87.9257 16.3778 87.9901 16.0597C88.0563 15.7396 88.099 15.3097 88.1179 14.7699L88.2145 12.1818H92.1634V18H90.9673V13.1676H89.3565L89.2656 15.1932C89.2353 15.8447 89.1577 16.3769 89.0327 16.7898C88.9096 17.2027 88.7126 17.5076 88.4418 17.7045C88.1728 17.9015 87.8045 18 87.3366 18H87.0185ZM93.8054 18.0795V17.0795H94.1207C94.2779 17.0795 94.4048 17.0606 94.5014 17.0227C94.598 16.983 94.6747 16.9252 94.7315 16.8494C94.7902 16.7718 94.8395 16.6752 94.8793 16.5597L94.9503 16.3693L92.8366 12.1818H94.1094L95.4787 15.0455L96.6236 12.1818H97.8793L95.8736 16.858C95.777 17.0739 95.6624 17.2746 95.5298 17.4602C95.3991 17.6458 95.2315 17.7955 95.027 17.9091C94.8224 18.0227 94.5611 18.0795 94.2429 18.0795H93.8054ZM98.5447 18V12.1818H102.406V13.196H99.7749V14.3324H100.721C101.181 14.3324 101.578 14.4072 101.911 14.5568C102.246 14.7045 102.505 14.9138 102.687 15.1847C102.869 15.4555 102.96 15.7746 102.96 16.142C102.96 16.5076 102.869 16.8305 102.687 17.1108C102.505 17.3892 102.246 17.607 101.911 17.7642C101.578 17.9214 101.181 18 100.721 18H98.5447ZM99.7749 17.0114H100.721C100.941 17.0114 101.126 16.9716 101.278 16.892C101.429 16.8106 101.544 16.7036 101.621 16.571C101.701 16.4366 101.741 16.2898 101.741 16.1307C101.741 15.8996 101.653 15.7045 101.477 15.5455C101.302 15.3845 101.05 15.304 100.721 15.304H99.7749V17.0114ZM104.384 18.0795V17.0795H104.699C104.856 17.0795 104.983 17.0606 105.08 17.0227C105.176 16.983 105.253 16.9252 105.31 16.8494C105.368 16.7718 105.418 16.6752 105.457 16.5597L105.528 16.3693L103.415 12.1818H104.688L106.057 15.0455L107.202 12.1818H108.457L106.452 16.858C106.355 17.0739 106.241 17.2746 106.108 17.4602C105.977 17.6458 105.81 17.7955 105.605 17.9091C105.401 18.0227 105.139 18.0795 104.821 18.0795H104.384Z" fill="white"/>
<defs>
<linearGradient id="paint0_linear_2051_55" x1="0" y1="29" x2="154.467" y2="-2.60381" gradientUnits="userSpaceOnUse">
<stop stop-color="#3B075E"/>
<stop offset="1" stop-color="#9900FF"/>
</linearGradient>
</defs>
</svg>
