<svg width="155" height="29" viewBox="0 0 155 29" fill="none" xmlns="http://www.w3.org/2000/svg">
<path d="M0 7C0 3.13401 3.13401 0 7 0H150C152.761 0 155 2.23858 155 5V11C155 20.9411 146.941 29 137 29H7C3.13401 29 0 25.866 0 22V7Z" fill="url(#paint0_linear_2051_55)"/>
<path d="M85.9804 16.403L77.0231 24L68 16.403L70.8516 6M79.6577 12.292L83.1155 6.06844M83.1679 6.06844L86 16.3346M70.8979 6L74.3557 12.2236M74.3886 12.2965H79.6577" stroke="white" stroke-opacity="0.25" stroke-width="2" stroke-linecap="round" stroke-linejoin="round"/>
<path d="M38.5057 18V12.1818H40.8352C41.2633 12.1818 41.6203 12.2453 41.9062 12.3722C42.1922 12.4991 42.4072 12.6752 42.5511 12.9006C42.6951 13.1241 42.767 13.3816 42.767 13.6733C42.767 13.9006 42.7216 14.1004 42.6307 14.2727C42.5398 14.4432 42.4148 14.5833 42.2557 14.6932C42.0985 14.8011 41.9186 14.8778 41.7159 14.9233V14.9801C41.9375 14.9896 42.1449 15.0521 42.3381 15.1676C42.5331 15.2831 42.6913 15.4451 42.8125 15.6534C42.9337 15.8598 42.9943 16.1061 42.9943 16.392C42.9943 16.7008 42.9176 16.9763 42.7642 17.2188C42.6127 17.4593 42.3883 17.6496 42.0909 17.7898C41.7936 17.9299 41.4271 18 40.9915 18H38.5057ZM39.7358 16.9943H40.7386C41.0814 16.9943 41.3314 16.929 41.4886 16.7983C41.6458 16.6657 41.7244 16.4896 41.7244 16.2699C41.7244 16.1089 41.6856 15.9669 41.608 15.8438C41.5303 15.7206 41.4195 15.6241 41.2756 15.554C41.1335 15.4839 40.964 15.4489 40.767 15.4489H39.7358V16.9943ZM39.7358 14.6165H40.6477C40.8163 14.6165 40.9659 14.5871 41.0966 14.5284C41.2292 14.4678 41.3333 14.3826 41.4091 14.2727C41.4867 14.1629 41.5256 14.0312 41.5256 13.8778C41.5256 13.6676 41.4508 13.4981 41.3011 13.3693C41.1534 13.2405 40.9432 13.1761 40.6705 13.1761H39.7358V14.6165ZM43.7947 18V12.1818H47.7152V13.196H45.0249V14.5824H47.5135V15.5966H45.0249V16.9858H47.7266V18H43.7947ZM48.3778 19.4034V17.0199H48.7727C48.9072 16.9233 49.0303 16.7869 49.142 16.6108C49.2538 16.4328 49.3494 16.1875 49.429 15.875C49.5085 15.5606 49.5653 15.1496 49.5994 14.642L49.7642 12.1818H53.6136V17.0199H54.25V19.3977H53.0682V18H49.5597V19.4034H48.3778ZM50.1932 17.0199H52.4318V13.196H50.8722L50.7812 14.642C50.7566 15.0265 50.7159 15.3674 50.6591 15.6648C50.6042 15.9621 50.5369 16.2225 50.4574 16.446C50.3797 16.6676 50.2917 16.8589 50.1932 17.0199ZM55.6257 18.0795V17.0795H55.9411C56.0982 17.0795 56.2251 17.0606 56.3217 17.0227C56.4183 16.983 56.495 16.9252 56.5518 16.8494C56.6106 16.7718 56.6598 16.6752 56.6996 16.5597L56.7706 16.3693L54.657 12.1818H55.9297L57.299 15.0455L58.4439 12.1818H59.6996L57.6939 16.858C57.5973 17.0739 57.4827 17.2746 57.3501 17.4602C57.2195 17.6458 57.0518 17.7955 56.8473 17.9091C56.6428 18.0227 56.3814 18.0795 56.0632 18.0795H55.6257ZM60.6009 12.1818H61.7969V14.0568C61.7969 14.2803 61.8357 14.4602 61.9134 14.5966C61.991 14.7311 62.1113 14.8286 62.2741 14.8892C62.4389 14.9479 62.6501 14.9773 62.9077 14.9773C62.9986 14.9773 63.1056 14.9744 63.2287 14.9688C63.3518 14.9612 63.4787 14.9508 63.6094 14.9375C63.742 14.9242 63.867 14.9081 63.9844 14.8892C64.1018 14.8703 64.1993 14.8485 64.277 14.8239V15.7955C64.1974 15.822 64.098 15.8456 63.9787 15.8665C63.8613 15.8854 63.7372 15.9025 63.6065 15.9176C63.4759 15.9309 63.349 15.9413 63.2259 15.9489C63.1027 15.9564 62.9967 15.9602 62.9077 15.9602C62.4399 15.9602 62.0327 15.8939 61.6861 15.7614C61.3395 15.6269 61.0715 15.4195 60.8821 15.1392C60.6946 14.8589 60.6009 14.4981 60.6009 14.0568V12.1818ZM64.0639 12.1818H65.2656V18H64.0639V12.1818ZM66.4822 12.1818H67.7095V15.8409H67.7578L70.272 12.1818H71.3487V18H70.1186V14.3381H70.076L67.5476 18H66.4822V12.1818ZM72.3651 12.1818H73.5923V15.8409H73.6406L76.1548 12.1818H77.2315V18H76.0014V14.3381H75.9588L73.4304 18H72.3651V12.1818ZM75.3651 10.6591H76.2088C76.2069 11.0038 76.0791 11.2812 75.8253 11.4915C75.5734 11.7017 75.2325 11.8068 74.8026 11.8068C74.3707 11.8068 74.0289 11.7017 73.777 11.4915C73.5251 11.2812 73.3991 11.0038 73.3991 10.6591H74.2372C74.2353 10.7898 74.277 10.9072 74.3622 11.0114C74.4493 11.1155 74.5961 11.1676 74.8026 11.1676C75.0033 11.1676 75.1473 11.1165 75.2344 11.0142C75.3215 10.9119 75.3651 10.7936 75.3651 10.6591ZM82.2159 18.0795C81.7917 18.0795 81.4138 18.0066 81.0824 17.8608C80.7528 17.7131 80.4924 17.5104 80.3011 17.2528C80.1117 16.9934 80.0142 16.6941 80.0085 16.3551H81.2472C81.2547 16.4972 81.3011 16.6222 81.3864 16.7301C81.4735 16.8362 81.589 16.9186 81.733 16.9773C81.8769 17.036 82.0388 17.0653 82.2188 17.0653C82.4062 17.0653 82.572 17.0322 82.7159 16.9659C82.8598 16.8996 82.9725 16.8078 83.054 16.6903C83.1354 16.5729 83.1761 16.4375 83.1761 16.2841C83.1761 16.1288 83.1326 15.9915 83.0455 15.8722C82.9602 15.7509 82.8371 15.6562 82.6761 15.5881C82.517 15.5199 82.3277 15.4858 82.108 15.4858H81.5653V14.5824H82.108C82.2936 14.5824 82.4574 14.5502 82.5994 14.4858C82.7434 14.4214 82.8551 14.3324 82.9347 14.2188C83.0142 14.1032 83.054 13.9688 83.054 13.8153C83.054 13.6695 83.0189 13.5417 82.9489 13.4318C82.8807 13.3201 82.7841 13.233 82.6591 13.1705C82.536 13.108 82.392 13.0767 82.2273 13.0767C82.0606 13.0767 81.9081 13.107 81.7699 13.1676C81.6316 13.2263 81.5208 13.3106 81.4375 13.4205C81.3542 13.5303 81.3097 13.6591 81.304 13.8068H80.125C80.1307 13.4716 80.2263 13.1761 80.4119 12.9205C80.5975 12.6648 80.8475 12.465 81.1619 12.321C81.4782 12.1752 81.8352 12.1023 82.233 12.1023C82.6345 12.1023 82.9858 12.1752 83.2869 12.321C83.5881 12.4669 83.822 12.6638 83.9886 12.9119C84.1572 13.1581 84.2405 13.4347 84.2386 13.7415C84.2405 14.0672 84.1392 14.339 83.9347 14.5568C83.732 14.7746 83.4678 14.9129 83.142 14.9716V15.017C83.5701 15.072 83.8958 15.2206 84.1193 15.4631C84.3447 15.7036 84.4564 16.0047 84.4545 16.3665C84.4564 16.6979 84.3608 16.9924 84.1676 17.25C83.9763 17.5076 83.7121 17.7102 83.375 17.858C83.0379 18.0057 82.6515 18.0795 82.2159 18.0795ZM86.3757 18H85.0575L87.0661 12.1818H88.6513L90.657 18H89.3388L87.8814 13.5114H87.8359L86.3757 18ZM86.2933 15.7131H89.407V16.6733H86.2933V15.7131ZM92.5107 12.1818L93.6839 14.1648H93.7294L94.9084 12.1818H96.2976L94.522 15.0909L96.3374 18H94.9226L93.7294 16.0142H93.6839L92.4908 18H91.0817L92.9027 15.0909L91.1158 12.1818H92.5107ZM102.149 15.0909C102.149 15.7254 102.029 16.2652 101.788 16.7102C101.55 17.1553 101.224 17.4953 100.811 17.7301C100.4 17.9631 99.938 18.0795 99.4247 18.0795C98.9077 18.0795 98.4437 17.9621 98.0327 17.7273C97.6217 17.4924 97.2969 17.1525 97.0582 16.7074C96.8196 16.2623 96.7003 15.7235 96.7003 15.0909C96.7003 14.4564 96.8196 13.9167 97.0582 13.4716C97.2969 13.0265 97.6217 12.6875 98.0327 12.4545C98.4437 12.2197 98.9077 12.1023 99.4247 12.1023C99.938 12.1023 100.4 12.2197 100.811 12.4545C101.224 12.6875 101.55 13.0265 101.788 13.4716C102.029 13.9167 102.149 14.4564 102.149 15.0909ZM100.902 15.0909C100.902 14.6799 100.84 14.3333 100.717 14.0511C100.596 13.7689 100.425 13.5549 100.203 13.4091C99.9815 13.2633 99.7221 13.1903 99.4247 13.1903C99.1274 13.1903 98.8679 13.2633 98.6463 13.4091C98.4247 13.5549 98.2524 13.7689 98.1293 14.0511C98.008 14.3333 97.9474 14.6799 97.9474 15.0909C97.9474 15.5019 98.008 15.8485 98.1293 16.1307C98.2524 16.4129 98.4247 16.6269 98.6463 16.7727C98.8679 16.9186 99.1274 16.9915 99.4247 16.9915C99.7221 16.9915 99.9815 16.9186 100.203 16.7727C100.425 16.6269 100.596 16.4129 100.717 16.1307C100.84 15.8485 100.902 15.5019 100.902 15.0909ZM102.745 19.4034V17.0199H103.14C103.274 16.9233 103.397 16.7869 103.509 16.6108C103.621 16.4328 103.717 16.1875 103.796 15.875C103.876 15.5606 103.933 15.1496 103.967 14.642L104.131 12.1818H107.981V17.0199H108.617V19.3977H107.435V18H103.927V19.4034H102.745ZM104.56 17.0199H106.799V13.196H105.239L105.148 14.642C105.124 15.0265 105.083 15.3674 105.026 15.6648C104.971 15.9621 104.904 16.2225 104.825 16.446C104.747 16.6676 104.659 16.8589 104.56 17.0199ZM110.595 12.1818V18H109.365V12.1818H110.595ZM111.607 18V12.1818H113.937C114.365 12.1818 114.722 12.2453 115.008 12.3722C115.294 12.4991 115.509 12.6752 115.653 12.9006C115.797 13.1241 115.869 13.3816 115.869 13.6733C115.869 13.9006 115.823 14.1004 115.732 14.2727C115.641 14.4432 115.516 14.5833 115.357 14.6932C115.2 14.8011 115.02 14.8778 114.817 14.9233V14.9801C115.039 14.9896 115.246 15.0521 115.44 15.1676C115.635 15.2831 115.793 15.4451 115.914 15.6534C116.035 15.8598 116.096 16.1061 116.096 16.392C116.096 16.7008 116.019 16.9763 115.866 17.2188C115.714 17.4593 115.49 17.6496 115.192 17.7898C114.895 17.9299 114.529 18 114.093 18H111.607ZM112.837 16.9943H113.84C114.183 16.9943 114.433 16.929 114.59 16.7983C114.747 16.6657 114.826 16.4896 114.826 16.2699C114.826 16.1089 114.787 15.9669 114.71 15.8438C114.632 15.7206 114.521 15.6241 114.377 15.554C114.235 15.4839 114.066 15.4489 113.869 15.4489H112.837V16.9943ZM112.837 14.6165H113.749C113.918 14.6165 114.067 14.5871 114.198 14.5284C114.331 14.4678 114.435 14.3826 114.511 14.2727C114.588 14.1629 114.627 14.0312 114.627 13.8778C114.627 13.6676 114.552 13.4981 114.403 13.3693C114.255 13.2405 114.045 13.1761 113.772 13.1761H112.837V14.6165Z" fill="white"/>
<defs>
<linearGradient id="paint0_linear_2051_55" x1="0" y1="29" x2="154.467" y2="-2.60381" gradientUnits="userSpaceOnUse">
<stop offset="0.25" stop-color="#BB08FC"/>
<stop offset="1" stop-color="#FF00FF"/>
</linearGradient>
</defs>
</svg>
