<svg width="155" height="29" viewBox="0 0 155 29" fill="none" xmlns="http://www.w3.org/2000/svg">
<path d="M0 7C0 3.13401 3.13401 0 7 0H150C152.761 0 155 2.23858 155 5V11C155 20.9411 146.941 29 137 29H7C3.13401 29 0 25.866 0 22V7Z" fill="url(#paint0_linear_2056_147)"/>
<path d="M85.9804 16.403L77.0231 24L68 16.403L70.8516 6M79.6577 12.292L83.1155 6.06844M83.1679 6.06844L86 16.3346M70.8979 6L74.3557 12.2236M74.3886 12.2965H79.6577" stroke="white" stroke-opacity="0.1" stroke-width="2" stroke-linecap="round" stroke-linejoin="round"/>
<path d="M39.0256 18L37.1562 15.5199H36.7358V18H35.5057V12.1818H36.7358V14.5057H36.983L38.9148 12.1818H40.446L38.1761 14.8807L40.5511 18H39.0256ZM41.7976 18.0795V17.0795H42.1129C42.2701 17.0795 42.397 17.0606 42.4936 17.0227C42.5902 16.983 42.6669 16.9252 42.7237 16.8494C42.7824 16.7718 42.8317 16.6752 42.8714 16.5597L42.9425 16.3693L40.8288 12.1818H42.1016L43.4709 15.0455L44.6158 12.1818H45.8714L43.8658 16.858C43.7692 17.0739 43.6546 17.2746 43.522 17.4602C43.3913 17.6458 43.2237 17.7955 43.0192 17.9091C42.8146 18.0227 42.5533 18.0795 42.2351 18.0795H41.7976ZM46.5369 18V12.1818H48.8324C49.2737 12.1818 49.6496 12.2661 49.9602 12.4347C50.2708 12.6013 50.5076 12.8333 50.6705 13.1307C50.8352 13.4261 50.9176 13.767 50.9176 14.1534C50.9176 14.5398 50.8343 14.8807 50.6676 15.1761C50.5009 15.4716 50.2595 15.7017 49.9432 15.8665C49.6288 16.0312 49.2481 16.1136 48.8011 16.1136H47.3381V15.1278H48.6023C48.839 15.1278 49.0341 15.0871 49.1875 15.0057C49.3428 14.9223 49.4583 14.8078 49.5341 14.6619C49.6117 14.5142 49.6506 14.3447 49.6506 14.1534C49.6506 13.9602 49.6117 13.7917 49.5341 13.6477C49.4583 13.5019 49.3428 13.3892 49.1875 13.3097C49.0322 13.2282 48.8352 13.1875 48.5966 13.1875H47.767V18H46.5369ZM52.0476 18H50.7294L52.7379 12.1818H54.3232L56.3288 18H55.0107L53.5533 13.5114H53.5078L52.0476 18ZM51.9652 15.7131H55.0788V16.6733H51.9652V15.7131ZM56.0966 13.196V12.1818H60.875V13.196H59.0938V18H57.8778V13.196H56.0966ZM66.7429 15.0909C66.7429 15.7254 66.6226 16.2652 66.3821 16.7102C66.1435 17.1553 65.8177 17.4953 65.4048 17.7301C64.9938 17.9631 64.5317 18.0795 64.0185 18.0795C63.5014 18.0795 63.0374 17.9621 62.6264 17.7273C62.2154 17.4924 61.8906 17.1525 61.652 16.7074C61.4134 16.2623 61.294 15.7235 61.294 15.0909C61.294 14.4564 61.4134 13.9167 61.652 13.4716C61.8906 13.0265 62.2154 12.6875 62.6264 12.4545C63.0374 12.2197 63.5014 12.1023 64.0185 12.1023C64.5317 12.1023 64.9938 12.2197 65.4048 12.4545C65.8177 12.6875 66.1435 13.0265 66.3821 13.4716C66.6226 13.9167 66.7429 14.4564 66.7429 15.0909ZM65.4957 15.0909C65.4957 14.6799 65.4342 14.3333 65.3111 14.0511C65.1899 13.7689 65.0185 13.5549 64.7969 13.4091C64.5753 13.2633 64.3158 13.1903 64.0185 13.1903C63.7211 13.1903 63.4616 13.2633 63.2401 13.4091C63.0185 13.5549 62.8461 13.7689 62.723 14.0511C62.6018 14.3333 62.5412 14.6799 62.5412 15.0909C62.5412 15.5019 62.6018 15.8485 62.723 16.1307C62.8461 16.4129 63.0185 16.6269 63.2401 16.7727C63.4616 16.9186 63.7211 16.9915 64.0185 16.9915C64.3158 16.9915 64.5753 16.9186 64.7969 16.7727C65.0185 16.6269 65.1899 16.4129 65.3111 16.1307C65.4342 15.8485 65.4957 15.5019 65.4957 15.0909ZM67.6541 18V12.1818H69.9496C70.3909 12.1818 70.7668 12.2661 71.0774 12.4347C71.388 12.6013 71.6248 12.8333 71.7876 13.1307C71.9524 13.4261 72.0348 13.767 72.0348 14.1534C72.0348 14.5398 71.9515 14.8807 71.7848 15.1761C71.6181 15.4716 71.3767 15.7017 71.0604 15.8665C70.746 16.0312 70.3653 16.1136 69.9183 16.1136H68.4553V15.1278H69.7195C69.9562 15.1278 70.1513 15.0871 70.3047 15.0057C70.46 14.9223 70.5755 14.8078 70.6513 14.6619C70.7289 14.5142 70.7678 14.3447 70.7678 14.1534C70.7678 13.9602 70.7289 13.7917 70.6513 13.6477C70.5755 13.5019 70.46 13.3892 70.3047 13.3097C70.1494 13.2282 69.9524 13.1875 69.7138 13.1875H68.8842V18H67.6541ZM74.6854 12.1818H76.2024L77.8047 16.0909H77.8729L79.4751 12.1818H80.9922V18H79.799V14.2131H79.7507L78.245 17.9716H77.4325L75.9268 14.1989H75.8786V18H74.6854V12.1818ZM87.3523 15.0909C87.3523 15.7254 87.232 16.2652 86.9915 16.7102C86.7528 17.1553 86.4271 17.4953 86.0142 17.7301C85.6032 17.9631 85.1411 18.0795 84.6278 18.0795C84.1108 18.0795 83.6468 17.9621 83.2358 17.7273C82.8248 17.4924 82.5 17.1525 82.2614 16.7074C82.0227 16.2623 81.9034 15.7235 81.9034 15.0909C81.9034 14.4564 82.0227 13.9167 82.2614 13.4716C82.5 13.0265 82.8248 12.6875 83.2358 12.4545C83.6468 12.2197 84.1108 12.1023 84.6278 12.1023C85.1411 12.1023 85.6032 12.2197 86.0142 12.4545C86.4271 12.6875 86.7528 13.0265 86.9915 13.4716C87.232 13.9167 87.3523 14.4564 87.3523 15.0909ZM86.1051 15.0909C86.1051 14.6799 86.0436 14.3333 85.9205 14.0511C85.7992 13.7689 85.6278 13.5549 85.4062 13.4091C85.1847 13.2633 84.9252 13.1903 84.6278 13.1903C84.3305 13.1903 84.071 13.2633 83.8494 13.4091C83.6278 13.5549 83.4555 13.7689 83.3324 14.0511C83.2112 14.3333 83.1506 14.6799 83.1506 15.0909C83.1506 15.5019 83.2112 15.8485 83.3324 16.1307C83.4555 16.4129 83.6278 16.6269 83.8494 16.7727C84.071 16.9186 84.3305 16.9915 84.6278 16.9915C84.9252 16.9915 85.1847 16.9186 85.4062 16.7727C85.6278 16.6269 85.7992 16.4129 85.9205 16.1307C86.0436 15.8485 86.1051 15.5019 86.1051 15.0909ZM87.9482 19.4034V17.0199H88.343C88.4775 16.9233 88.6006 16.7869 88.7124 16.6108C88.8241 16.4328 88.9197 16.1875 88.9993 15.875C89.0788 15.5606 89.1357 15.1496 89.1697 14.642L89.3345 12.1818H93.1839V17.0199H93.8203V19.3977H92.6385V18H89.13V19.4034H87.9482ZM89.7635 17.0199H92.0021V13.196H90.4425L90.3516 14.642C90.3269 15.0265 90.2862 15.3674 90.2294 15.6648C90.1745 15.9621 90.1072 16.2225 90.0277 16.446C89.95 16.6676 89.862 16.8589 89.7635 17.0199ZM94.5682 18V12.1818H98.4886V13.196H95.7983V14.5824H98.2869V15.5966H95.7983V16.9858H98.5V18H94.5682ZM99.4666 18V12.1818H101.762C102.203 12.1818 102.579 12.2661 102.89 12.4347C103.201 12.6013 103.437 12.8333 103.6 13.1307C103.765 13.4261 103.847 13.767 103.847 14.1534C103.847 14.5398 103.764 14.8807 103.597 15.1761C103.431 15.4716 103.189 15.7017 102.873 15.8665C102.558 16.0312 102.178 16.1136 101.731 16.1136H100.268V15.1278H101.532C101.769 15.1278 101.964 15.0871 102.117 15.0057C102.272 14.9223 102.388 14.8078 102.464 14.6619C102.541 14.5142 102.58 14.3447 102.58 14.1534C102.58 13.9602 102.541 13.7917 102.464 13.6477C102.388 13.5019 102.272 13.3892 102.117 13.3097C101.962 13.2282 101.765 13.1875 101.526 13.1875H100.697V18H99.4666ZM104.977 18H103.659L105.668 12.1818H107.253L109.259 18H107.94L106.483 13.5114H106.438L104.977 18ZM104.895 15.7131H108.009V16.6733H104.895V15.7131ZM115.564 17.017L115.493 19.375H114.322V18H113.913V17.017H115.564ZM109.959 18V12.1818H111.141V17.0114H113.561V12.1818H114.757V18H109.959ZM117.54 12.1818V18H116.31V12.1818H117.54ZM120.165 12.1818V18H118.935V12.1818H120.165ZM118.688 11.5852C118.525 11.5852 118.385 11.5284 118.268 11.4148C118.15 11.2992 118.092 11.1629 118.092 11.0057C118.092 10.8447 118.15 10.7083 118.268 10.5966C118.385 10.4848 118.525 10.429 118.688 10.429C118.853 10.429 118.992 10.4848 119.106 10.5966C119.221 10.7083 119.279 10.8447 119.279 11.0057C119.279 11.1629 119.221 11.2992 119.106 11.4148C118.992 11.5284 118.853 11.5852 118.688 11.5852ZM120.427 11.5852C120.264 11.5852 120.124 11.5284 120.006 11.4148C119.889 11.2992 119.83 11.1629 119.83 11.0057C119.83 10.8447 119.889 10.7083 120.006 10.5966C120.124 10.4848 120.264 10.429 120.427 10.429C120.592 10.429 120.731 10.4848 120.844 10.5966C120.96 10.7083 121.018 10.8447 121.018 11.0057C121.018 11.1629 120.96 11.2992 120.844 11.4148C120.731 11.5284 120.592 11.5852 120.427 11.5852Z" fill="white"/>
<defs>
<linearGradient id="paint0_linear_2056_147" x1="0" y1="29" x2="154.467" y2="-2.60381" gradientUnits="userSpaceOnUse">
<stop stop-color="#280D61"/>
<stop offset="1" stop-color="#652DDB"/>
</linearGradient>
</defs>
</svg>
