<svg width="155" height="29" viewBox="0 0 155 29" fill="none" xmlns="http://www.w3.org/2000/svg">
<path d="M0 7C0 3.13401 3.13401 0 7 0H150C152.761 0 155 2.23858 155 5V11C155 20.9411 146.941 29 137 29H7C3.13401 29 0 25.866 0 22V7Z" fill="url(#paint0_linear_2056_139)"/>
<path d="M85.9804 16.403L77.0231 24L68 16.403L70.8516 6M79.6577 12.292L83.1155 6.06844M83.1679 6.06844L86 16.3346M70.8979 6L74.3557 12.2236M74.3886 12.2965H79.6577" stroke="white" stroke-opacity="0.1" stroke-width="2" stroke-linecap="round" stroke-linejoin="round"/>
<path d="M18.6222 18.0795C18.1979 18.0795 17.8201 18.0066 17.4886 17.8608C17.1591 17.7131 16.8987 17.5104 16.7074 17.2528C16.518 16.9934 16.4205 16.6941 16.4148 16.3551H17.6534C17.661 16.4972 17.7074 16.6222 17.7926 16.7301C17.8797 16.8362 17.9953 16.9186 18.1392 16.9773C18.2831 17.036 18.4451 17.0653 18.625 17.0653C18.8125 17.0653 18.9782 17.0322 19.1222 16.9659C19.2661 16.8996 19.3788 16.8078 19.4602 16.6903C19.5417 16.5729 19.5824 16.4375 19.5824 16.2841C19.5824 16.1288 19.5388 15.9915 19.4517 15.8722C19.3665 15.7509 19.2434 15.6562 19.0824 15.5881C18.9233 15.5199 18.7339 15.4858 18.5142 15.4858H17.9716V14.5824H18.5142C18.6998 14.5824 18.8636 14.5502 19.0057 14.4858C19.1496 14.4214 19.2614 14.3324 19.3409 14.2188C19.4205 14.1032 19.4602 13.9688 19.4602 13.8153C19.4602 13.6695 19.4252 13.5417 19.3551 13.4318C19.2869 13.3201 19.1903 13.233 19.0653 13.1705C18.9422 13.108 18.7983 13.0767 18.6335 13.0767C18.4669 13.0767 18.3144 13.107 18.1761 13.1676C18.0379 13.2263 17.9271 13.3106 17.8438 13.4205C17.7604 13.5303 17.7159 13.6591 17.7102 13.8068H16.5312C16.5369 13.4716 16.6326 13.1761 16.8182 12.9205C17.0038 12.6648 17.2538 12.465 17.5682 12.321C17.8845 12.1752 18.2415 12.1023 18.6392 12.1023C19.0407 12.1023 19.392 12.1752 19.6932 12.321C19.9943 12.4669 20.2282 12.6638 20.3949 12.9119C20.5634 13.1581 20.6468 13.4347 20.6449 13.7415C20.6468 14.0672 20.5455 14.339 20.3409 14.5568C20.1383 14.7746 19.8741 14.9129 19.5483 14.9716V15.017C19.9763 15.072 20.3021 15.2206 20.5256 15.4631C20.7509 15.7036 20.8627 16.0047 20.8608 16.3665C20.8627 16.6979 20.767 16.9924 20.5739 17.25C20.3826 17.5076 20.1184 17.7102 19.7812 17.858C19.4441 18.0057 19.0578 18.0795 18.6222 18.0795ZM22.782 18H21.4638L23.4723 12.1818H25.0575L27.0632 18H25.745L24.2876 13.5114H24.2422L22.782 18ZM22.6996 15.7131H25.8132V16.6733H22.6996V15.7131ZM32.6236 14.2188H31.3793C31.3565 14.0578 31.3101 13.9148 31.2401 13.7898C31.17 13.6629 31.08 13.5549 30.9702 13.4659C30.8603 13.3769 30.7334 13.3087 30.5895 13.2614C30.4474 13.214 30.2931 13.1903 30.1264 13.1903C29.8253 13.1903 29.563 13.2652 29.3395 13.4148C29.116 13.5625 28.9427 13.7784 28.8196 14.0625C28.6965 14.3447 28.6349 14.6875 28.6349 15.0909C28.6349 15.5057 28.6965 15.8542 28.8196 16.1364C28.9446 16.4186 29.1188 16.6316 29.3423 16.7756C29.5658 16.9195 29.8243 16.9915 30.1179 16.9915C30.2827 16.9915 30.4351 16.9697 30.5753 16.9261C30.7173 16.8826 30.8433 16.8191 30.9531 16.7358C31.063 16.6506 31.1539 16.5473 31.2259 16.4261C31.2997 16.3049 31.3509 16.1667 31.3793 16.0114L32.6236 16.017C32.5914 16.2841 32.5109 16.5417 32.3821 16.7898C32.2552 17.036 32.0838 17.2566 31.8679 17.4517C31.6539 17.6449 31.3982 17.7983 31.1009 17.9119C30.8054 18.0237 30.4711 18.0795 30.098 18.0795C29.5791 18.0795 29.1151 17.9621 28.706 17.7273C28.2988 17.4924 27.9768 17.1525 27.7401 16.7074C27.5052 16.2623 27.3878 15.7235 27.3878 15.0909C27.3878 14.4564 27.5071 13.9167 27.7457 13.4716C27.9844 13.0265 28.3082 12.6875 28.7173 12.4545C29.1264 12.2197 29.5866 12.1023 30.098 12.1023C30.4351 12.1023 30.7476 12.1496 31.0355 12.2443C31.3253 12.339 31.5819 12.4773 31.8054 12.6591C32.0289 12.839 32.2107 13.0597 32.3509 13.321C32.4929 13.5824 32.5838 13.8816 32.6236 14.2188ZM33.2841 13.196V12.1818H38.0625V13.196H36.2812V18H35.0653V13.196H33.2841ZM39.4773 18.0795V17.0795H39.7926C39.9498 17.0795 40.0767 17.0606 40.1733 17.0227C40.2699 16.983 40.3466 16.9252 40.4034 16.8494C40.4621 16.7718 40.5114 16.6752 40.5511 16.5597L40.6222 16.3693L38.5085 12.1818H39.7812L41.1506 15.0455L42.2955 12.1818H43.5511L41.5455 16.858C41.4489 17.0739 41.3343 17.2746 41.2017 17.4602C41.071 17.6458 40.9034 17.7955 40.6989 17.9091C40.4943 18.0227 40.233 18.0795 39.9148 18.0795H39.4773ZM49.1626 12.1818V18H47.9467V13.1818H45.5945V18H44.3786V12.1818H49.1626ZM50.3338 18V12.1818H51.5639V14.5824H54.0611V12.1818H55.2884V18H54.0611V15.5966H51.5639V18H50.3338ZM56.3026 12.1818H57.5298V15.8409H57.5781L60.0923 12.1818H61.169V18H59.9389V14.3381H59.8963L57.3679 18H56.3026V12.1818ZM65.7053 18L63.8359 15.5199H63.4155V18H62.1854V12.1818H63.4155V14.5057H63.6626L65.5945 12.1818H67.1257L64.8558 14.8807L67.2308 18H65.7053ZM73.5618 12.1818V13.196H70.9311V18H69.701V12.1818H73.5618ZM74.0341 18V17.0114L74.1989 16.9972C74.411 16.9801 74.5824 16.8996 74.7131 16.7557C74.8438 16.6098 74.9413 16.3778 75.0057 16.0597C75.072 15.7396 75.1146 15.3097 75.1335 14.7699L75.2301 12.1818H79.179V18H77.983V13.1676H76.3722L76.2812 15.1932C76.2509 15.8447 76.1733 16.3769 76.0483 16.7898C75.9252 17.2027 75.7282 17.5076 75.4574 17.7045C75.1884 17.9015 74.8201 18 74.3523 18H74.0341ZM80.8778 18.0739C80.6903 18.0739 80.5294 18.0076 80.3949 17.875C80.2623 17.7405 80.196 17.5795 80.196 17.392C80.196 17.2064 80.2623 17.0473 80.3949 16.9148C80.5294 16.7822 80.6903 16.7159 80.8778 16.7159C81.0597 16.7159 81.2188 16.7822 81.3551 16.9148C81.4915 17.0473 81.5597 17.2064 81.5597 17.392C81.5597 17.517 81.5275 17.6316 81.4631 17.7358C81.4006 17.8381 81.3182 17.9205 81.2159 17.983C81.1136 18.0436 81.0009 18.0739 80.8778 18.0739ZM82.576 12.1818H84.093L85.6953 16.0909H85.7635L87.3658 12.1818H88.8828V18H87.6896V14.2131H87.6413L86.1357 17.9716H85.3232L83.8175 14.1989H83.7692V18H82.576V12.1818ZM95.2429 15.0909C95.2429 15.7254 95.1226 16.2652 94.8821 16.7102C94.6435 17.1553 94.3177 17.4953 93.9048 17.7301C93.4938 17.9631 93.0317 18.0795 92.5185 18.0795C92.0014 18.0795 91.5374 17.9621 91.1264 17.7273C90.7154 17.4924 90.3906 17.1525 90.152 16.7074C89.9134 16.2623 89.794 15.7235 89.794 15.0909C89.794 14.4564 89.9134 13.9167 90.152 13.4716C90.3906 13.0265 90.7154 12.6875 91.1264 12.4545C91.5374 12.2197 92.0014 12.1023 92.5185 12.1023C93.0317 12.1023 93.4938 12.2197 93.9048 12.4545C94.3177 12.6875 94.6435 13.0265 94.8821 13.4716C95.1226 13.9167 95.2429 14.4564 95.2429 15.0909ZM93.9957 15.0909C93.9957 14.6799 93.9342 14.3333 93.8111 14.0511C93.6899 13.7689 93.5185 13.5549 93.2969 13.4091C93.0753 13.2633 92.8158 13.1903 92.5185 13.1903C92.2211 13.1903 91.9616 13.2633 91.7401 13.4091C91.5185 13.5549 91.3461 13.7689 91.223 14.0511C91.1018 14.3333 91.0412 14.6799 91.0412 15.0909C91.0412 15.5019 91.1018 15.8485 91.223 16.1307C91.3461 16.4129 91.5185 16.6269 91.7401 16.7727C91.9616 16.9186 92.2211 16.9915 92.5185 16.9915C92.8158 16.9915 93.0753 16.9186 93.2969 16.7727C93.5185 16.6269 93.6899 16.4129 93.8111 16.1307C93.9342 15.8485 93.9957 15.5019 93.9957 15.0909ZM95.8388 19.4034V17.0199H96.2337C96.3681 16.9233 96.4912 16.7869 96.603 16.6108C96.7147 16.4328 96.8104 16.1875 96.8899 15.875C96.9695 15.5606 97.0263 15.1496 97.0604 14.642L97.2251 12.1818H101.075V17.0199H101.711V19.3977H100.529V18H97.0206V19.4034H95.8388ZM97.6541 17.0199H99.8928V13.196H98.3331L98.2422 14.642C98.2176 15.0265 98.1768 15.3674 98.12 15.6648C98.0651 15.9621 97.9979 16.2225 97.9183 16.446C97.8407 16.6676 97.7526 16.8589 97.6541 17.0199ZM102.459 18V12.1818H106.379V13.196H103.689V14.5824H106.178V15.5966H103.689V16.9858H106.391V18H102.459ZM107.357 18V12.1818H109.653C110.094 12.1818 110.47 12.2661 110.781 12.4347C111.091 12.6013 111.328 12.8333 111.491 13.1307C111.656 13.4261 111.738 13.767 111.738 14.1534C111.738 14.5398 111.655 14.8807 111.488 15.1761C111.321 15.4716 111.08 15.7017 110.763 15.8665C110.449 16.0312 110.068 16.1136 109.621 16.1136H108.158V15.1278H109.423C109.659 15.1278 109.854 15.0871 110.008 15.0057C110.163 14.9223 110.279 14.8078 110.354 14.6619C110.432 14.5142 110.471 14.3447 110.471 14.1534C110.471 13.9602 110.432 13.7917 110.354 13.6477C110.279 13.5019 110.163 13.3892 110.008 13.3097C109.853 13.2282 109.656 13.1875 109.417 13.1875H108.587V18H107.357ZM112.868 18H111.55L113.558 12.1818H115.143L117.149 18H115.831L114.374 13.5114H114.328L112.868 18ZM112.786 15.7131H115.899V16.6733H112.786V15.7131ZM116.917 13.196V12.1818H121.695V13.196H119.914V18H118.698V13.196H116.917ZM127.563 15.0909C127.563 15.7254 127.443 16.2652 127.202 16.7102C126.964 17.1553 126.638 17.4953 126.225 17.7301C125.814 17.9631 125.352 18.0795 124.839 18.0795C124.322 18.0795 123.858 17.9621 123.447 17.7273C123.036 17.4924 122.711 17.1525 122.472 16.7074C122.234 16.2623 122.114 15.7235 122.114 15.0909C122.114 14.4564 122.234 13.9167 122.472 13.4716C122.711 13.0265 123.036 12.6875 123.447 12.4545C123.858 12.2197 124.322 12.1023 124.839 12.1023C125.352 12.1023 125.814 12.2197 126.225 12.4545C126.638 12.6875 126.964 13.0265 127.202 13.4716C127.443 13.9167 127.563 14.4564 127.563 15.0909ZM126.316 15.0909C126.316 14.6799 126.254 14.3333 126.131 14.0511C126.01 13.7689 125.839 13.5549 125.617 13.4091C125.396 13.2633 125.136 13.1903 124.839 13.1903C124.541 13.1903 124.282 13.2633 124.06 13.4091C123.839 13.5549 123.666 13.7689 123.543 14.0511C123.422 14.3333 123.362 14.6799 123.362 15.0909C123.362 15.5019 123.422 15.8485 123.543 16.1307C123.666 16.4129 123.839 16.6269 124.06 16.7727C124.282 16.9186 124.541 16.9915 124.839 16.9915C125.136 16.9915 125.396 16.9186 125.617 16.7727C125.839 16.6269 126.01 16.4129 126.131 16.1307C126.254 15.8485 126.316 15.5019 126.316 15.0909ZM128.474 18V12.1818H130.77C131.211 12.1818 131.587 12.2661 131.898 12.4347C132.208 12.6013 132.445 12.8333 132.608 13.1307C132.773 13.4261 132.855 13.767 132.855 14.1534C132.855 14.5398 132.772 14.8807 132.605 15.1761C132.438 15.4716 132.197 15.7017 131.881 15.8665C131.566 16.0312 131.186 16.1136 130.739 16.1136H129.276V15.1278H130.54C130.777 15.1278 130.972 15.0871 131.125 15.0057C131.28 14.9223 131.396 14.8078 131.472 14.6619C131.549 14.5142 131.588 14.3447 131.588 14.1534C131.588 13.9602 131.549 13.7917 131.472 13.6477C131.396 13.5019 131.28 13.3892 131.125 13.3097C130.97 13.2282 130.773 13.1875 130.534 13.1875H129.705V18H128.474ZM133.985 18H132.667L134.675 12.1818H136.261L138.266 18H136.948L135.491 13.5114H135.445L133.985 18ZM133.903 15.7131H137.016V16.6733H133.903V15.7131Z" fill="white"/>
<defs>
<linearGradient id="paint0_linear_2056_139" x1="0" y1="29" x2="154.467" y2="-2.60381" gradientUnits="userSpaceOnUse">
<stop stop-color="#826B11"/>
<stop offset="1" stop-color="#F1C40F"/>
</linearGradient>
</defs>
</svg>
