<svg width="155" height="29" viewBox="0 0 155 29" fill="none" xmlns="http://www.w3.org/2000/svg">
<path d="M0 7C0 3.13401 3.13401 0 7 0H150C152.761 0 155 2.23858 155 5V11C155 20.9411 146.941 29 137 29H7C3.13401 29 0 25.866 0 22V7Z" fill="url(#paint0_linear_2056_111)"/>
<path d="M85.9804 16.403L77.0231 24L68 16.403L70.8516 6M79.6577 12.292L83.1155 6.06844M83.1679 6.06844L86 16.3346M70.8979 6L74.3557 12.2236M74.3886 12.2965H79.6577" stroke="white" stroke-opacity="0.1" stroke-width="2" stroke-linecap="round" stroke-linejoin="round"/>
<path d="M30.7358 12.1818V18H29.5057V12.1818H30.7358ZM35.6087 12.1818V13.196H32.978V18H31.7479V12.1818H35.6087ZM36.3963 18V12.1818H38.6918C39.133 12.1818 39.509 12.2661 39.8196 12.4347C40.1302 12.6013 40.367 12.8333 40.5298 13.1307C40.6946 13.4261 40.777 13.767 40.777 14.1534C40.777 14.5398 40.6937 14.8807 40.527 15.1761C40.3603 15.4716 40.1188 15.7017 39.8026 15.8665C39.4882 16.0312 39.1075 16.1136 38.6605 16.1136H37.1974V15.1278H38.4616C38.6984 15.1278 38.8935 15.0871 39.0469 15.0057C39.2022 14.9223 39.3177 14.8078 39.3935 14.6619C39.4711 14.5142 39.5099 14.3447 39.5099 14.1534C39.5099 13.9602 39.4711 13.7917 39.3935 13.6477C39.3177 13.5019 39.2022 13.3892 39.0469 13.3097C38.8916 13.2282 38.6946 13.1875 38.456 13.1875H37.6264V18H36.3963ZM46.9226 15.0909C46.9226 15.7254 46.8023 16.2652 46.5618 16.7102C46.3232 17.1553 45.9974 17.4953 45.5845 17.7301C45.1735 17.9631 44.7114 18.0795 44.1982 18.0795C43.6811 18.0795 43.2171 17.9621 42.8061 17.7273C42.3951 17.4924 42.0703 17.1525 41.8317 16.7074C41.593 16.2623 41.4737 15.7235 41.4737 15.0909C41.4737 14.4564 41.593 13.9167 41.8317 13.4716C42.0703 13.0265 42.3951 12.6875 42.8061 12.4545C43.2171 12.2197 43.6811 12.1023 44.1982 12.1023C44.7114 12.1023 45.1735 12.2197 45.5845 12.4545C45.9974 12.6875 46.3232 13.0265 46.5618 13.4716C46.8023 13.9167 46.9226 14.4564 46.9226 15.0909ZM45.6754 15.0909C45.6754 14.6799 45.6139 14.3333 45.4908 14.0511C45.3696 13.7689 45.1982 13.5549 44.9766 13.4091C44.755 13.2633 44.4955 13.1903 44.1982 13.1903C43.9008 13.1903 43.6413 13.2633 43.4197 13.4091C43.1982 13.5549 43.0258 13.7689 42.9027 14.0511C42.7815 14.3333 42.7209 14.6799 42.7209 15.0909C42.7209 15.5019 42.7815 15.8485 42.9027 16.1307C43.0258 16.4129 43.1982 16.6269 43.4197 16.7727C43.6413 16.9186 43.9008 16.9915 44.1982 16.9915C44.4955 16.9915 44.755 16.9186 44.9766 16.7727C45.1982 16.6269 45.3696 16.4129 45.4908 16.1307C45.6139 15.8485 45.6754 15.5019 45.6754 15.0909ZM47.8338 18V12.1818H50.1634C50.5914 12.1818 50.9484 12.2453 51.2344 12.3722C51.5204 12.4991 51.7353 12.6752 51.8793 12.9006C52.0232 13.1241 52.0952 13.3816 52.0952 13.6733C52.0952 13.9006 52.0497 14.1004 51.9588 14.2727C51.8679 14.4432 51.7429 14.5833 51.5838 14.6932C51.4266 14.8011 51.2467 14.8778 51.044 14.9233V14.9801C51.2656 14.9896 51.473 15.0521 51.6662 15.1676C51.8613 15.2831 52.0194 15.4451 52.1406 15.6534C52.2618 15.8598 52.3224 16.1061 52.3224 16.392C52.3224 16.7008 52.2457 16.9763 52.0923 17.2188C51.9408 17.4593 51.7164 17.6496 51.419 17.7898C51.1217 17.9299 50.7552 18 50.3196 18H47.8338ZM49.0639 16.9943H50.0668C50.4096 16.9943 50.6596 16.929 50.8168 16.7983C50.974 16.6657 51.0526 16.4896 51.0526 16.2699C51.0526 16.1089 51.0137 15.9669 50.9361 15.8438C50.8584 15.7206 50.7476 15.6241 50.6037 15.554C50.4616 15.4839 50.2921 15.4489 50.0952 15.4489H49.0639V16.9943ZM49.0639 14.6165H49.9759C50.1444 14.6165 50.294 14.5871 50.4247 14.5284C50.5573 14.4678 50.6615 14.3826 50.7372 14.2727C50.8149 14.1629 50.8537 14.0312 50.8537 13.8778C50.8537 13.6676 50.7789 13.4981 50.6293 13.3693C50.4815 13.2405 50.2713 13.1761 49.9986 13.1761H49.0639V14.6165ZM54.1257 18H52.8075L54.8161 12.1818H56.4013L58.407 18H57.0888L55.6314 13.5114H55.5859L54.1257 18ZM54.0433 15.7131H57.157V16.6733H54.0433V15.7131ZM61.9616 18H60.6435L62.652 12.1818H64.2372L66.2429 18H64.9247L63.4673 13.5114H63.4219L61.9616 18ZM61.8793 15.7131H64.9929V16.6733H61.8793V15.7131ZM66.6278 19.4034V17.0199H67.0227C67.1572 16.9233 67.2803 16.7869 67.392 16.6108C67.5038 16.4328 67.5994 16.1875 67.679 15.875C67.7585 15.5606 67.8153 15.1496 67.8494 14.642L68.0142 12.1818H71.8636V17.0199H72.5V19.3977H71.3182V18H67.8097V19.4034H66.6278ZM68.4432 17.0199H70.6818V13.196H69.1222L69.0312 14.642C69.0066 15.0265 68.9659 15.3674 68.9091 15.6648C68.8542 15.9621 68.7869 16.2225 68.7074 16.446C68.6297 16.6676 68.5417 16.8589 68.4432 17.0199ZM73.2479 12.1818H74.7649L76.3672 16.0909H76.4354L78.0376 12.1818H79.5547V18H78.3615V14.2131H78.3132L76.8075 17.9716H75.995L74.4893 14.1989H74.4411V18H73.2479V12.1818ZM81.7983 12.1818V18H80.5682V12.1818H81.7983ZM82.8104 18V12.1818H84.0405V14.5824H86.5376V12.1818H87.7649V18H86.5376V15.5966H84.0405V18H82.8104ZM90.0092 12.1818V18H88.7791V12.1818H90.0092ZM96.1548 14.2188H94.9105C94.8878 14.0578 94.8414 13.9148 94.7713 13.7898C94.7012 13.6629 94.6113 13.5549 94.5014 13.4659C94.3916 13.3769 94.2647 13.3087 94.1207 13.2614C93.9787 13.214 93.8243 13.1903 93.6577 13.1903C93.3565 13.1903 93.0942 13.2652 92.8707 13.4148C92.6473 13.5625 92.474 13.7784 92.3509 14.0625C92.2277 14.3447 92.1662 14.6875 92.1662 15.0909C92.1662 15.5057 92.2277 15.8542 92.3509 16.1364C92.4759 16.4186 92.6501 16.6316 92.8736 16.7756C93.0971 16.9195 93.3556 16.9915 93.6491 16.9915C93.8139 16.9915 93.9664 16.9697 94.1065 16.9261C94.2486 16.8826 94.3745 16.8191 94.4844 16.7358C94.5942 16.6506 94.6851 16.5473 94.7571 16.4261C94.831 16.3049 94.8821 16.1667 94.9105 16.0114L96.1548 16.017C96.1226 16.2841 96.0421 16.5417 95.9134 16.7898C95.7865 17.036 95.6151 17.2566 95.3991 17.4517C95.1851 17.6449 94.9295 17.7983 94.6321 17.9119C94.3366 18.0237 94.0024 18.0795 93.6293 18.0795C93.1103 18.0795 92.6463 17.9621 92.2372 17.7273C91.83 17.4924 91.508 17.1525 91.2713 16.7074C91.0365 16.2623 90.919 15.7235 90.919 15.0909C90.919 14.4564 91.0384 13.9167 91.277 13.4716C91.5156 13.0265 91.8395 12.6875 92.2486 12.4545C92.6577 12.2197 93.1179 12.1023 93.6293 12.1023C93.9664 12.1023 94.2789 12.1496 94.5668 12.2443C94.8565 12.339 95.1132 12.4773 95.3366 12.6591C95.5601 12.839 95.742 13.0597 95.8821 13.321C96.0241 13.5824 96.1151 13.8816 96.1548 14.2188ZM96.8153 13.196V12.1818H101.594V13.196H99.8125V18H98.5966V13.196H96.8153ZM102.381 18V12.1818H104.676C105.117 12.1818 105.493 12.2661 105.804 12.4347C106.115 12.6013 106.351 12.8333 106.514 13.1307C106.679 13.4261 106.761 13.767 106.761 14.1534C106.761 14.5398 106.678 14.8807 106.511 15.1761C106.345 15.4716 106.103 15.7017 105.787 15.8665C105.473 16.0312 105.092 16.1136 104.645 16.1136H103.182V15.1278H104.446C104.683 15.1278 104.878 15.0871 105.031 15.0057C105.187 14.9223 105.302 14.8078 105.378 14.6619C105.455 14.5142 105.494 14.3447 105.494 14.1534C105.494 13.9602 105.455 13.7917 105.378 13.6477C105.302 13.5019 105.187 13.3892 105.031 13.3097C104.876 13.2282 104.679 13.1875 104.44 13.1875H103.611V18H102.381ZM107.891 18H106.573L108.582 12.1818H110.167L112.173 18H110.854L109.397 13.5114H109.352L107.891 18ZM107.809 15.7131H110.923V16.6733H107.809V15.7131ZM118.478 17.017L118.407 19.375H117.237V18H116.827V17.017H118.478ZM112.873 18V12.1818H114.055V17.0114H116.475V12.1818H117.671V18H112.873ZM120.455 12.1818V18H119.224V12.1818H120.455ZM125.933 18H124.705V13.1875H123.876C123.639 13.1875 123.442 13.2225 123.285 13.2926C123.129 13.3608 123.013 13.4612 122.935 13.5938C122.858 13.7263 122.819 13.8892 122.819 14.0824C122.819 14.2737 122.858 14.4337 122.935 14.5625C123.013 14.6913 123.129 14.7879 123.285 14.8523C123.44 14.9167 123.635 14.9489 123.87 14.9489H125.205V15.9375H123.671C123.226 15.9375 122.845 15.8636 122.529 15.7159C122.213 15.5682 121.971 15.3561 121.805 15.0795C121.638 14.8011 121.555 14.4687 121.555 14.0824C121.555 13.6979 121.636 13.3636 121.799 13.0795C121.964 12.7936 122.201 12.5729 122.512 12.4176C122.825 12.2604 123.201 12.1818 123.64 12.1818H125.933V18ZM122.793 15.3523H124.12L122.705 18H121.347L122.793 15.3523Z" fill="white"/>
<defs>
<linearGradient id="paint0_linear_2056_111" x1="0" y1="29" x2="154.467" y2="-2.60381" gradientUnits="userSpaceOnUse">
<stop stop-color="#07521C"/>
<stop offset="0.835" stop-color="#11F150"/>
</linearGradient>
</defs>
</svg>
