<svg width="155" height="29" viewBox="0 0 155 29" fill="none" xmlns="http://www.w3.org/2000/svg">
<path d="M0 7C0 3.13401 3.13401 0 7 0H150C152.761 0 155 2.23858 155 5V11C155 20.9411 146.941 29 137 29H7C3.13401 29 0 25.866 0 22V7Z" fill="url(#paint0_linear_2056_119)"/>
<path d="M85.9804 16.403L77.0231 24L68 16.403L70.8516 6M79.6577 12.292L83.1155 6.06844M83.1679 6.06844L86 16.3346M70.8979 6L74.3557 12.2236M74.3886 12.2965H79.6577" stroke="white" stroke-opacity="0.1" stroke-width="2" stroke-linecap="round" stroke-linejoin="round"/>
<path d="M32.3665 12.1818V13.196H29.7358V18H28.5057V12.1818H32.3665ZM38.2351 15.0909C38.2351 15.7254 38.1148 16.2652 37.8743 16.7102C37.6357 17.1553 37.3099 17.4953 36.897 17.7301C36.486 17.9631 36.0239 18.0795 35.5107 18.0795C34.9936 18.0795 34.5296 17.9621 34.1186 17.7273C33.7076 17.4924 33.3828 17.1525 33.1442 16.7074C32.9055 16.2623 32.7862 15.7235 32.7862 15.0909C32.7862 14.4564 32.9055 13.9167 33.1442 13.4716C33.3828 13.0265 33.7076 12.6875 34.1186 12.4545C34.5296 12.2197 34.9936 12.1023 35.5107 12.1023C36.0239 12.1023 36.486 12.2197 36.897 12.4545C37.3099 12.6875 37.6357 13.0265 37.8743 13.4716C38.1148 13.9167 38.2351 14.4564 38.2351 15.0909ZM36.9879 15.0909C36.9879 14.6799 36.9264 14.3333 36.8033 14.0511C36.6821 13.7689 36.5107 13.5549 36.2891 13.4091C36.0675 13.2633 35.808 13.1903 35.5107 13.1903C35.2133 13.1903 34.9538 13.2633 34.7322 13.4091C34.5107 13.5549 34.3383 13.7689 34.2152 14.0511C34.094 14.3333 34.0334 14.6799 34.0334 15.0909C34.0334 15.5019 34.094 15.8485 34.2152 16.1307C34.3383 16.4129 34.5107 16.6269 34.7322 16.7727C34.9538 16.9186 35.2133 16.9915 35.5107 16.9915C35.808 16.9915 36.0675 16.9186 36.2891 16.7727C36.5107 16.6269 36.6821 16.4129 36.8033 16.1307C36.9264 15.8485 36.9879 15.5019 36.9879 15.0909ZM38.831 18V17.0114L38.9957 16.9972C39.2079 16.9801 39.3793 16.8996 39.5099 16.7557C39.6406 16.6098 39.7382 16.3778 39.8026 16.0597C39.8688 15.7396 39.9115 15.3097 39.9304 14.7699L40.027 12.1818H43.9759V18H42.7798V13.1676H41.169L41.0781 15.1932C41.0478 15.8447 40.9702 16.3769 40.8452 16.7898C40.7221 17.2027 40.5251 17.5076 40.2543 17.7045C39.9853 17.9015 39.617 18 39.1491 18H38.831ZM50.3366 15.0909C50.3366 15.7254 50.2164 16.2652 49.9759 16.7102C49.7372 17.1553 49.4115 17.4953 48.9986 17.7301C48.5876 17.9631 48.1255 18.0795 47.6122 18.0795C47.0952 18.0795 46.6312 17.9621 46.2202 17.7273C45.8092 17.4924 45.4844 17.1525 45.2457 16.7074C45.0071 16.2623 44.8878 15.7235 44.8878 15.0909C44.8878 14.4564 45.0071 13.9167 45.2457 13.4716C45.4844 13.0265 45.8092 12.6875 46.2202 12.4545C46.6312 12.2197 47.0952 12.1023 47.6122 12.1023C48.1255 12.1023 48.5876 12.2197 48.9986 12.4545C49.4115 12.6875 49.7372 13.0265 49.9759 13.4716C50.2164 13.9167 50.3366 14.4564 50.3366 15.0909ZM49.0895 15.0909C49.0895 14.6799 49.0279 14.3333 48.9048 14.0511C48.7836 13.7689 48.6122 13.5549 48.3906 13.4091C48.169 13.2633 47.9096 13.1903 47.6122 13.1903C47.3149 13.1903 47.0554 13.2633 46.8338 13.4091C46.6122 13.5549 46.4399 13.7689 46.3168 14.0511C46.1955 14.3333 46.1349 14.6799 46.1349 15.0909C46.1349 15.5019 46.1955 15.8485 46.3168 16.1307C46.4399 16.4129 46.6122 16.6269 46.8338 16.7727C47.0554 16.9186 47.3149 16.9915 47.6122 16.9915C47.9096 16.9915 48.169 16.9186 48.3906 16.7727C48.6122 16.6269 48.7836 16.4129 48.9048 16.1307C49.0279 15.8485 49.0895 15.5019 49.0895 15.0909ZM51.2479 18V12.1818H53.5774C54.0054 12.1818 54.3625 12.2453 54.6484 12.3722C54.9344 12.4991 55.1494 12.6752 55.2933 12.9006C55.4373 13.1241 55.5092 13.3816 55.5092 13.6733C55.5092 13.9006 55.4638 14.1004 55.3729 14.2727C55.282 14.4432 55.157 14.5833 54.9979 14.6932C54.8407 14.8011 54.6607 14.8778 54.4581 14.9233V14.9801C54.6797 14.9896 54.8871 15.0521 55.0803 15.1676C55.2753 15.2831 55.4335 15.4451 55.5547 15.6534C55.6759 15.8598 55.7365 16.1061 55.7365 16.392C55.7365 16.7008 55.6598 16.9763 55.5064 17.2188C55.3549 17.4593 55.1304 17.6496 54.8331 17.7898C54.5357 17.9299 54.1693 18 53.7337 18H51.2479ZM52.478 16.9943H53.4808C53.8236 16.9943 54.0736 16.929 54.2308 16.7983C54.388 16.6657 54.4666 16.4896 54.4666 16.2699C54.4666 16.1089 54.4278 15.9669 54.3501 15.8438C54.2725 15.7206 54.1617 15.6241 54.0178 15.554C53.8757 15.4839 53.7062 15.4489 53.5092 15.4489H52.478V16.9943ZM52.478 14.6165H53.3899C53.5585 14.6165 53.7081 14.5871 53.8388 14.5284C53.9714 14.4678 54.0755 14.3826 54.1513 14.2727C54.2289 14.1629 54.2678 14.0312 54.2678 13.8778C54.2678 13.6676 54.1929 13.4981 54.0433 13.3693C53.8956 13.2405 53.6854 13.1761 53.4126 13.1761H52.478V14.6165ZM56.5369 18V12.1818H57.767V14.5824H60.2642V12.1818H61.4915V18H60.2642V15.5966H57.767V18H56.5369ZM62.5057 12.1818H63.733V15.8409H63.7812L66.2955 12.1818H67.3722V18H66.142V14.3381H66.0994L63.571 18H62.5057V12.1818ZM68.3885 12.1818H69.6158V15.8409H69.6641L72.1783 12.1818H73.255V18H72.0249V14.3381H71.9822L69.4538 18H68.3885V12.1818ZM71.3885 10.6591H72.2322C72.2304 11.0038 72.1025 11.2812 71.8487 11.4915C71.5968 11.7017 71.2559 11.8068 70.826 11.8068C70.3942 11.8068 70.0523 11.7017 69.8004 11.4915C69.5485 11.2812 69.4226 11.0038 69.4226 10.6591H70.2607C70.2588 10.7898 70.3004 10.9072 70.3857 11.0114C70.4728 11.1155 70.6196 11.1676 70.826 11.1676C71.0268 11.1676 71.1707 11.1165 71.2578 11.0142C71.3449 10.9119 71.3885 10.7936 71.3885 10.6591ZM76.1229 12.1818H77.6399L79.2422 16.0909H79.3104L80.9126 12.1818H82.4297V18H81.2365V14.2131H81.1882L79.6825 17.9716H78.87L77.3643 14.1989H77.3161V18H76.1229V12.1818ZM88.7898 15.0909C88.7898 15.7254 88.6695 16.2652 88.429 16.7102C88.1903 17.1553 87.8646 17.4953 87.4517 17.7301C87.0407 17.9631 86.5786 18.0795 86.0653 18.0795C85.5483 18.0795 85.0843 17.9621 84.6733 17.7273C84.2623 17.4924 83.9375 17.1525 83.6989 16.7074C83.4602 16.2623 83.3409 15.7235 83.3409 15.0909C83.3409 14.4564 83.4602 13.9167 83.6989 13.4716C83.9375 13.0265 84.2623 12.6875 84.6733 12.4545C85.0843 12.2197 85.5483 12.1023 86.0653 12.1023C86.5786 12.1023 87.0407 12.2197 87.4517 12.4545C87.8646 12.6875 88.1903 13.0265 88.429 13.4716C88.6695 13.9167 88.7898 14.4564 88.7898 15.0909ZM87.5426 15.0909C87.5426 14.6799 87.4811 14.3333 87.358 14.0511C87.2367 13.7689 87.0653 13.5549 86.8438 13.4091C86.6222 13.2633 86.3627 13.1903 86.0653 13.1903C85.768 13.1903 85.5085 13.2633 85.2869 13.4091C85.0653 13.5549 84.893 13.7689 84.7699 14.0511C84.6487 14.3333 84.5881 14.6799 84.5881 15.0909C84.5881 15.5019 84.6487 15.8485 84.7699 16.1307C84.893 16.4129 85.0653 16.6269 85.2869 16.7727C85.5085 16.9186 85.768 16.9915 86.0653 16.9915C86.3627 16.9915 86.6222 16.9186 86.8438 16.7727C87.0653 16.6269 87.2367 16.4129 87.358 16.1307C87.4811 15.8485 87.5426 15.5019 87.5426 15.0909ZM89.3857 19.4034V17.0199H89.7805C89.915 16.9233 90.0381 16.7869 90.1499 16.6108C90.2616 16.4328 90.3572 16.1875 90.4368 15.875C90.5163 15.5606 90.5732 15.1496 90.6072 14.642L90.772 12.1818H94.6214V17.0199H95.2578V19.3977H94.076V18H90.5675V19.4034H89.3857ZM91.201 17.0199H93.4396V13.196H91.88L91.7891 14.642C91.7644 15.0265 91.7237 15.3674 91.6669 15.6648C91.612 15.9621 91.5447 16.2225 91.4652 16.446C91.3875 16.6676 91.2995 16.8589 91.201 17.0199ZM96.0057 18V12.1818H99.9261V13.196H97.2358V14.5824H99.7244V15.5966H97.2358V16.9858H99.9375V18H96.0057ZM100.904 18V12.1818H103.2C103.641 12.1818 104.017 12.2661 104.327 12.4347C104.638 12.6013 104.875 12.8333 105.038 13.1307C105.202 13.4261 105.285 13.767 105.285 14.1534C105.285 14.5398 105.201 14.8807 105.035 15.1761C104.868 15.4716 104.627 15.7017 104.31 15.8665C103.996 16.0312 103.615 16.1136 103.168 16.1136H101.705V15.1278H102.969C103.206 15.1278 103.401 15.0871 103.555 15.0057C103.71 14.9223 103.826 14.8078 103.901 14.6619C103.979 14.5142 104.018 14.3447 104.018 14.1534C104.018 13.9602 103.979 13.7917 103.901 13.6477C103.826 13.5019 103.71 13.3892 103.555 13.3097C103.399 13.2282 103.202 13.1875 102.964 13.1875H102.134V18H100.904ZM106.415 18H105.097L107.105 12.1818H108.69L110.696 18H109.378L107.92 13.5114H107.875L106.415 18ZM106.332 15.7131H109.446V16.6733H106.332V15.7131ZM110.464 13.196V12.1818H115.242V13.196H113.461V18H112.245V13.196H110.464ZM121.11 15.0909C121.11 15.7254 120.99 16.2652 120.749 16.7102C120.511 17.1553 120.185 17.4953 119.772 17.7301C119.361 17.9631 118.899 18.0795 118.386 18.0795C117.869 18.0795 117.405 17.9621 116.994 17.7273C116.583 17.4924 116.258 17.1525 116.019 16.7074C115.781 16.2623 115.661 15.7235 115.661 15.0909C115.661 14.4564 115.781 13.9167 116.019 13.4716C116.258 13.0265 116.583 12.6875 116.994 12.4545C117.405 12.2197 117.869 12.1023 118.386 12.1023C118.899 12.1023 119.361 12.2197 119.772 12.4545C120.185 12.6875 120.511 13.0265 120.749 13.4716C120.99 13.9167 121.11 14.4564 121.11 15.0909ZM119.863 15.0909C119.863 14.6799 119.801 14.3333 119.678 14.0511C119.557 13.7689 119.386 13.5549 119.164 13.4091C118.942 13.2633 118.683 13.1903 118.386 13.1903C118.088 13.1903 117.829 13.2633 117.607 13.4091C117.386 13.5549 117.213 13.7689 117.09 14.0511C116.969 14.3333 116.908 14.6799 116.908 15.0909C116.908 15.5019 116.969 15.8485 117.09 16.1307C117.213 16.4129 117.386 16.6269 117.607 16.7727C117.829 16.9186 118.088 16.9915 118.386 16.9915C118.683 16.9915 118.942 16.9186 119.164 16.7727C119.386 16.6269 119.557 16.4129 119.678 16.1307C119.801 15.8485 119.863 15.5019 119.863 15.0909ZM122.021 18V12.1818H124.317C124.758 12.1818 125.134 12.2661 125.445 12.4347C125.755 12.6013 125.992 12.8333 126.155 13.1307C126.32 13.4261 126.402 13.767 126.402 14.1534C126.402 14.5398 126.319 14.8807 126.152 15.1761C125.985 15.4716 125.744 15.7017 125.428 15.8665C125.113 16.0312 124.732 16.1136 124.286 16.1136H122.822V15.1278H124.087C124.323 15.1278 124.518 15.0871 124.672 15.0057C124.827 14.9223 124.943 14.8078 125.018 14.6619C125.096 14.5142 125.135 14.3447 125.135 14.1534C125.135 13.9602 125.096 13.7917 125.018 13.6477C124.943 13.5019 124.827 13.3892 124.672 13.3097C124.517 13.2282 124.32 13.1875 124.081 13.1875H123.251V18H122.021Z" fill="white"/>
<defs>
<linearGradient id="paint0_linear_2056_119" x1="0" y1="29" x2="154.467" y2="-2.60381" gradientUnits="userSpaceOnUse">
<stop stop-color="#055211"/>
<stop offset="1" stop-color="#1AB633"/>
</linearGradient>
</defs>
</svg>
