<svg width="155" height="29" viewBox="0 0 155 29" fill="none" xmlns="http://www.w3.org/2000/svg">
<path d="M0 7C0 3.13401 3.13401 0 7 0H150C152.761 0 155 2.23858 155 5V11C155 20.9411 146.941 29 137 29H7C3.13401 29 0 25.866 0 22V7Z" fill="url(#paint0_linear_2063_167)"/>
<path d="M85.9804 16.403L77.0231 24L68 16.403L70.8516 6M79.6577 12.292L83.1155 6.06844M83.1679 6.06844L86 16.3346M70.8979 6L74.3557 12.2236M74.3886 12.2965H79.6577" stroke="white" stroke-opacity="0.1" stroke-width="2" stroke-linecap="round" stroke-linejoin="round"/>
<path d="M51.5057 12.1818H53.0227L54.625 16.0909H54.6932L56.2955 12.1818H57.8125V18H56.6193V14.2131H56.571L55.0653 17.9716H54.2528L52.7472 14.1989H52.6989V18H51.5057V12.1818ZM64.1726 15.0909C64.1726 15.7254 64.0523 16.2652 63.8118 16.7102C63.5732 17.1553 63.2474 17.4953 62.8345 17.7301C62.4235 17.9631 61.9614 18.0795 61.4482 18.0795C60.9311 18.0795 60.4671 17.9621 60.0561 17.7273C59.6451 17.4924 59.3203 17.1525 59.0817 16.7074C58.843 16.2623 58.7237 15.7235 58.7237 15.0909C58.7237 14.4564 58.843 13.9167 59.0817 13.4716C59.3203 13.0265 59.6451 12.6875 60.0561 12.4545C60.4671 12.2197 60.9311 12.1023 61.4482 12.1023C61.9614 12.1023 62.4235 12.2197 62.8345 12.4545C63.2474 12.6875 63.5732 13.0265 63.8118 13.4716C64.0523 13.9167 64.1726 14.4564 64.1726 15.0909ZM62.9254 15.0909C62.9254 14.6799 62.8639 14.3333 62.7408 14.0511C62.6196 13.7689 62.4482 13.5549 62.2266 13.4091C62.005 13.2633 61.7455 13.1903 61.4482 13.1903C61.1508 13.1903 60.8913 13.2633 60.6697 13.4091C60.4482 13.5549 60.2758 13.7689 60.1527 14.0511C60.0315 14.3333 59.9709 14.6799 59.9709 15.0909C59.9709 15.5019 60.0315 15.8485 60.1527 16.1307C60.2758 16.4129 60.4482 16.6269 60.6697 16.7727C60.8913 16.9186 61.1508 16.9915 61.4482 16.9915C61.7455 16.9915 62.005 16.9186 62.2266 16.7727C62.4482 16.6269 62.6196 16.4129 62.7408 16.1307C62.8639 15.8485 62.9254 15.5019 62.9254 15.0909ZM64.7685 19.4034V17.0199H65.1634C65.2978 16.9233 65.4209 16.7869 65.5327 16.6108C65.6444 16.4328 65.7401 16.1875 65.8196 15.875C65.8991 15.5606 65.956 15.1496 65.9901 14.642L66.1548 12.1818H70.0043V17.0199H70.6406V19.3977H69.4588V18H65.9503V19.4034H64.7685ZM66.5838 17.0199H68.8224V13.196H67.2628L67.1719 14.642C67.1473 15.0265 67.1065 15.3674 67.0497 15.6648C66.9948 15.9621 66.9276 16.2225 66.848 16.446C66.7704 16.6676 66.6823 16.8589 66.5838 17.0199ZM71.3885 18V12.1818H75.3089V13.196H72.6186V14.5824H75.1072V15.5966H72.6186V16.9858H75.3203V18H71.3885ZM76.2869 18V12.1818H78.5824C79.0237 12.1818 79.3996 12.2661 79.7102 12.4347C80.0208 12.6013 80.2576 12.8333 80.4205 13.1307C80.5852 13.4261 80.6676 13.767 80.6676 14.1534C80.6676 14.5398 80.5843 14.8807 80.4176 15.1761C80.2509 15.4716 80.0095 15.7017 79.6932 15.8665C79.3788 16.0312 78.9981 16.1136 78.5511 16.1136H77.0881V15.1278H78.3523C78.589 15.1278 78.7841 15.0871 78.9375 15.0057C79.0928 14.9223 79.2083 14.8078 79.2841 14.6619C79.3617 14.5142 79.4006 14.3447 79.4006 14.1534C79.4006 13.9602 79.3617 13.7917 79.2841 13.6477C79.2083 13.5019 79.0928 13.3892 78.9375 13.3097C78.7822 13.2282 78.5852 13.1875 78.3466 13.1875H77.517V18H76.2869ZM81.7976 18H80.4794L82.4879 12.1818H84.0732L86.0788 18H84.7607L83.3033 13.5114H83.2578L81.7976 18ZM81.7152 15.7131H84.8288V16.6733H81.7152V15.7131ZM85.8466 13.196V12.1818H90.625V13.196H88.8438V18H87.6278V13.196H85.8466ZM96.4929 15.0909C96.4929 15.7254 96.3726 16.2652 96.1321 16.7102C95.8935 17.1553 95.5677 17.4953 95.1548 17.7301C94.7438 17.9631 94.2817 18.0795 93.7685 18.0795C93.2514 18.0795 92.7874 17.9621 92.3764 17.7273C91.9654 17.4924 91.6406 17.1525 91.402 16.7074C91.1634 16.2623 91.044 15.7235 91.044 15.0909C91.044 14.4564 91.1634 13.9167 91.402 13.4716C91.6406 13.0265 91.9654 12.6875 92.3764 12.4545C92.7874 12.2197 93.2514 12.1023 93.7685 12.1023C94.2817 12.1023 94.7438 12.2197 95.1548 12.4545C95.5677 12.6875 95.8935 13.0265 96.1321 13.4716C96.3726 13.9167 96.4929 14.4564 96.4929 15.0909ZM95.2457 15.0909C95.2457 14.6799 95.1842 14.3333 95.0611 14.0511C94.9399 13.7689 94.7685 13.5549 94.5469 13.4091C94.3253 13.2633 94.0658 13.1903 93.7685 13.1903C93.4711 13.1903 93.2116 13.2633 92.9901 13.4091C92.7685 13.5549 92.5961 13.7689 92.473 14.0511C92.3518 14.3333 92.2912 14.6799 92.2912 15.0909C92.2912 15.5019 92.3518 15.8485 92.473 16.1307C92.5961 16.4129 92.7685 16.6269 92.9901 16.7727C93.2116 16.9186 93.4711 16.9915 93.7685 16.9915C94.0658 16.9915 94.3253 16.9186 94.5469 16.7727C94.7685 16.6269 94.9399 16.4129 95.0611 16.1307C95.1842 15.8485 95.2457 15.5019 95.2457 15.0909ZM97.4041 18V12.1818H99.6996C100.141 12.1818 100.517 12.2661 100.827 12.4347C101.138 12.6013 101.375 12.8333 101.538 13.1307C101.702 13.4261 101.785 13.767 101.785 14.1534C101.785 14.5398 101.701 14.8807 101.535 15.1761C101.368 15.4716 101.127 15.7017 100.81 15.8665C100.496 16.0312 100.115 16.1136 99.6683 16.1136H98.2053V15.1278H99.4695C99.7062 15.1278 99.9013 15.0871 100.055 15.0057C100.21 14.9223 100.326 14.8078 100.401 14.6619C100.479 14.5142 100.518 14.3447 100.518 14.1534C100.518 13.9602 100.479 13.7917 100.401 13.6477C100.326 13.5019 100.21 13.3892 100.055 13.3097C99.8994 13.2282 99.7024 13.1875 99.4638 13.1875H98.6342V18H97.4041Z" fill="white"/>
<defs>
<linearGradient id="paint0_linear_2063_167" x1="0" y1="29" x2="154.467" y2="-2.60381" gradientUnits="userSpaceOnUse">
<stop stop-color="#0D3C67"/>
<stop offset="1" stop-color="#54ACD2" stop-opacity="0.803922"/>
</linearGradient>
</defs>
</svg>
