<svg width="155" height="29" viewBox="0 0 155 29" fill="none" xmlns="http://www.w3.org/2000/svg">
<path d="M0 7C0 3.13401 3.13401 0 7 0H150C152.761 0 155 2.23858 155 5V11C155 20.9411 146.941 29 137 29H7C3.13401 29 0 25.866 0 22V7Z" fill="url(#paint0_linear_2051_51)"/>
<path d="M85.9804 16.403L77.0231 24L68 16.403L70.8516 6M79.6577 12.292L83.1155 6.06844M83.1679 6.06844L86 16.3346M70.8979 6L74.3557 12.2236M74.3886 12.2965H79.6577" stroke="white" stroke-opacity="0.1" stroke-width="2" stroke-linecap="round" stroke-linejoin="round"/>
<path d="M41.6392 14.2188H40.3949C40.3722 14.0578 40.3258 13.9148 40.2557 13.7898C40.1856 13.6629 40.0956 13.5549 39.9858 13.4659C39.8759 13.3769 39.7491 13.3087 39.6051 13.2614C39.4631 13.214 39.3087 13.1903 39.142 13.1903C38.8409 13.1903 38.5786 13.2652 38.3551 13.4148C38.1316 13.5625 37.9583 13.7784 37.8352 14.0625C37.7121 14.3447 37.6506 14.6875 37.6506 15.0909C37.6506 15.5057 37.7121 15.8542 37.8352 16.1364C37.9602 16.4186 38.1345 16.6316 38.358 16.7756C38.5814 16.9195 38.84 16.9915 39.1335 16.9915C39.2983 16.9915 39.4508 16.9697 39.5909 16.9261C39.733 16.8826 39.8589 16.8191 39.9688 16.7358C40.0786 16.6506 40.1695 16.5473 40.2415 16.4261C40.3153 16.3049 40.3665 16.1667 40.3949 16.0114L41.6392 16.017C41.607 16.2841 41.5265 16.5417 41.3977 16.7898C41.2708 17.036 41.0994 17.2566 40.8835 17.4517C40.6695 17.6449 40.4138 17.7983 40.1165 17.9119C39.821 18.0237 39.4867 18.0795 39.1136 18.0795C38.5947 18.0795 38.1307 17.9621 37.7216 17.7273C37.3144 17.4924 36.9924 17.1525 36.7557 16.7074C36.5208 16.2623 36.4034 15.7235 36.4034 15.0909C36.4034 14.4564 36.5227 13.9167 36.7614 13.4716C37 13.0265 37.3239 12.6875 37.733 12.4545C38.142 12.2197 38.6023 12.1023 39.1136 12.1023C39.4508 12.1023 39.7633 12.1496 40.0511 12.2443C40.3409 12.339 40.5975 12.4773 40.821 12.6591C41.0445 12.839 41.2263 13.0597 41.3665 13.321C41.5085 13.5824 41.5994 13.8816 41.6392 14.2188ZM42.2997 13.196V12.1818H47.0781V13.196H45.2969V18H44.081V13.196H42.2997ZM48.157 18H46.8388L48.8473 12.1818H50.4325L52.4382 18H51.12L49.6626 13.5114H49.6172L48.157 18ZM48.0746 15.7131H51.1882V16.6733H48.0746V15.7131ZM57.5703 12.1818V18H56.3771V12.1818H57.5703ZM52.8629 18L54.6868 14.9318L52.9396 12.1818H54.4538L55.7607 14.5767H58.218L59.4908 12.1818H60.9993L59.2947 14.9233L61.0845 18H59.6158L58.3857 15.7131H55.5817L54.3203 18H52.8629ZM61.8182 18V12.1818H65.7386V13.196H63.0483V14.5824H65.5369V15.5966H63.0483V16.9858H65.75V18H61.8182ZM66.7166 18V12.1818H69.0121C69.4534 12.1818 69.8293 12.2661 70.1399 12.4347C70.4505 12.6013 70.6873 12.8333 70.8501 13.1307C71.0149 13.4261 71.0973 13.767 71.0973 14.1534C71.0973 14.5398 71.014 14.8807 70.8473 15.1761C70.6806 15.4716 70.4392 15.7017 70.1229 15.8665C69.8085 16.0312 69.4278 16.1136 68.9808 16.1136H67.5178V15.1278H68.782C69.0187 15.1278 69.2138 15.0871 69.3672 15.0057C69.5225 14.9223 69.638 14.8078 69.7138 14.6619C69.7914 14.5142 69.8303 14.3447 69.8303 14.1534C69.8303 13.9602 69.7914 13.7917 69.7138 13.6477C69.638 13.5019 69.5225 13.3892 69.3672 13.3097C69.2119 13.2282 69.0149 13.1875 68.7763 13.1875H67.9467V18H66.7166ZM73.7479 12.1818H75.2649L76.8672 16.0909H76.9354L78.5376 12.1818H80.0547V18H78.8615V14.2131H78.8132L77.3075 17.9716H76.495L74.9893 14.1989H74.9411V18H73.7479V12.1818ZM86.4148 15.0909C86.4148 15.7254 86.2945 16.2652 86.054 16.7102C85.8153 17.1553 85.4896 17.4953 85.0767 17.7301C84.6657 17.9631 84.2036 18.0795 83.6903 18.0795C83.1733 18.0795 82.7093 17.9621 82.2983 17.7273C81.8873 17.4924 81.5625 17.1525 81.3239 16.7074C81.0852 16.2623 80.9659 15.7235 80.9659 15.0909C80.9659 14.4564 81.0852 13.9167 81.3239 13.4716C81.5625 13.0265 81.8873 12.6875 82.2983 12.4545C82.7093 12.2197 83.1733 12.1023 83.6903 12.1023C84.2036 12.1023 84.6657 12.2197 85.0767 12.4545C85.4896 12.6875 85.8153 13.0265 86.054 13.4716C86.2945 13.9167 86.4148 14.4564 86.4148 15.0909ZM85.1676 15.0909C85.1676 14.6799 85.1061 14.3333 84.983 14.0511C84.8617 13.7689 84.6903 13.5549 84.4688 13.4091C84.2472 13.2633 83.9877 13.1903 83.6903 13.1903C83.393 13.1903 83.1335 13.2633 82.9119 13.4091C82.6903 13.5549 82.518 13.7689 82.3949 14.0511C82.2737 14.3333 82.2131 14.6799 82.2131 15.0909C82.2131 15.5019 82.2737 15.8485 82.3949 16.1307C82.518 16.4129 82.6903 16.6269 82.9119 16.7727C83.1335 16.9186 83.393 16.9915 83.6903 16.9915C83.9877 16.9915 84.2472 16.9186 84.4688 16.7727C84.6903 16.6269 84.8617 16.4129 84.983 16.1307C85.1061 15.8485 85.1676 15.5019 85.1676 15.0909ZM87.0107 19.4034V17.0199H87.4055C87.54 16.9233 87.6631 16.7869 87.7749 16.6108C87.8866 16.4328 87.9822 16.1875 88.0618 15.875C88.1413 15.5606 88.1982 15.1496 88.2322 14.642L88.397 12.1818H92.2464V17.0199H92.8828V19.3977H91.701V18H88.1925V19.4034H87.0107ZM88.826 17.0199H91.0646V13.196H89.505L89.4141 14.642C89.3894 15.0265 89.3487 15.3674 89.2919 15.6648C89.237 15.9621 89.1697 16.2225 89.0902 16.446C89.0125 16.6676 88.9245 16.8589 88.826 17.0199ZM93.6307 18V12.1818H97.5511V13.196H94.8608V14.5824H97.3494V15.5966H94.8608V16.9858H97.5625V18H93.6307ZM98.5291 18V12.1818H100.825C101.266 12.1818 101.642 12.2661 101.952 12.4347C102.263 12.6013 102.5 12.8333 102.663 13.1307C102.827 13.4261 102.91 13.767 102.91 14.1534C102.91 14.5398 102.826 14.8807 102.66 15.1761C102.493 15.4716 102.252 15.7017 101.935 15.8665C101.621 16.0312 101.24 16.1136 100.793 16.1136H99.3303V15.1278H100.594C100.831 15.1278 101.026 15.0871 101.18 15.0057C101.335 14.9223 101.451 14.8078 101.526 14.6619C101.604 14.5142 101.643 14.3447 101.643 14.1534C101.643 13.9602 101.604 13.7917 101.526 13.6477C101.451 13.5019 101.335 13.3892 101.18 13.3097C101.024 13.2282 100.827 13.1875 100.589 13.1875H99.7592V18H98.5291ZM104.04 18H102.722L104.73 12.1818H106.315L108.321 18H107.003L105.545 13.5114H105.5L104.04 18ZM103.957 15.7131H107.071V16.6733H103.957V15.7131ZM114.626 17.017L114.555 19.375H113.385V18H112.976V17.017H114.626ZM109.021 18V12.1818H110.203V17.0114H112.624V12.1818H113.82V18H109.021ZM116.603 12.1818V18H115.373V12.1818H116.603ZM119.228 12.1818V18H117.998V12.1818H119.228ZM117.751 11.5852C117.588 11.5852 117.448 11.5284 117.33 11.4148C117.213 11.2992 117.154 11.1629 117.154 11.0057C117.154 10.8447 117.213 10.7083 117.33 10.5966C117.448 10.4848 117.588 10.429 117.751 10.429C117.915 10.429 118.055 10.4848 118.168 10.5966C118.284 10.7083 118.342 10.8447 118.342 11.0057C118.342 11.1629 118.284 11.2992 118.168 11.4148C118.055 11.5284 117.915 11.5852 117.751 11.5852ZM119.489 11.5852C119.326 11.5852 119.186 11.5284 119.069 11.4148C118.951 11.2992 118.893 11.1629 118.893 11.0057C118.893 10.8447 118.951 10.7083 119.069 10.5966C119.186 10.4848 119.326 10.429 119.489 10.429C119.654 10.429 119.793 10.4848 119.907 10.5966C120.022 10.7083 120.08 10.8447 120.08 11.0057C120.08 11.1629 120.022 11.2992 119.907 11.4148C119.793 11.5284 119.654 11.5852 119.489 11.5852Z" fill="white"/>
<defs>
<linearGradient id="paint0_linear_2051_51" x1="0" y1="29" x2="154.467" y2="-2.60381" gradientUnits="userSpaceOnUse">
<stop stop-color="#135333"/>
<stop offset="1" stop-color="#67F5AE" stop-opacity="0.803922"/>
</linearGradient>
</defs>
</svg>
