<svg width="155" height="29" viewBox="0 0 155 29" fill="none" xmlns="http://www.w3.org/2000/svg">
<path d="M0 7C0 3.13401 3.13401 0 7 0H150C152.761 0 155 2.23858 155 5V11C155 20.9411 146.941 29 137 29H7C3.13401 29 0 25.866 0 22V7Z" fill="url(#paint0_linear_2056_87)"/>
<path d="M85.9804 16.403L77.0231 24L68 16.403L70.8516 6M79.6577 12.292L83.1155 6.06844M83.1679 6.06844L86 16.3346M70.8979 6L74.3557 12.2236M74.3886 12.2965H79.6577" stroke="white" stroke-opacity="0.1" stroke-width="2" stroke-linecap="round" stroke-linejoin="round"/>
<path d="M38.6392 14.2188H37.3949C37.3722 14.0578 37.3258 13.9148 37.2557 13.7898C37.1856 13.6629 37.0956 13.5549 36.9858 13.4659C36.8759 13.3769 36.7491 13.3087 36.6051 13.2614C36.4631 13.214 36.3087 13.1903 36.142 13.1903C35.8409 13.1903 35.5786 13.2652 35.3551 13.4148C35.1316 13.5625 34.9583 13.7784 34.8352 14.0625C34.7121 14.3447 34.6506 14.6875 34.6506 15.0909C34.6506 15.5057 34.7121 15.8542 34.8352 16.1364C34.9602 16.4186 35.1345 16.6316 35.358 16.7756C35.5814 16.9195 35.84 16.9915 36.1335 16.9915C36.2983 16.9915 36.4508 16.9697 36.5909 16.9261C36.733 16.8826 36.8589 16.8191 36.9688 16.7358C37.0786 16.6506 37.1695 16.5473 37.2415 16.4261C37.3153 16.3049 37.3665 16.1667 37.3949 16.0114L38.6392 16.017C38.607 16.2841 38.5265 16.5417 38.3977 16.7898C38.2708 17.036 38.0994 17.2566 37.8835 17.4517C37.6695 17.6449 37.4138 17.7983 37.1165 17.9119C36.821 18.0237 36.4867 18.0795 36.1136 18.0795C35.5947 18.0795 35.1307 17.9621 34.7216 17.7273C34.3144 17.4924 33.9924 17.1525 33.7557 16.7074C33.5208 16.2623 33.4034 15.7235 33.4034 15.0909C33.4034 14.4564 33.5227 13.9167 33.7614 13.4716C34 13.0265 34.3239 12.6875 34.733 12.4545C35.142 12.2197 35.6023 12.1023 36.1136 12.1023C36.4508 12.1023 36.7633 12.1496 37.0511 12.2443C37.3409 12.339 37.5975 12.4773 37.821 12.6591C38.0445 12.839 38.2263 13.0597 38.3665 13.321C38.5085 13.5824 38.5994 13.8816 38.6392 14.2188ZM39.206 18V17.0114L39.3707 16.9972C39.5829 16.9801 39.7543 16.8996 39.8849 16.7557C40.0156 16.6098 40.1132 16.3778 40.1776 16.0597C40.2438 15.7396 40.2865 15.3097 40.3054 14.7699L40.402 12.1818H44.3509V18H43.1548V13.1676H41.544L41.4531 15.1932C41.4228 15.8447 41.3452 16.3769 41.2202 16.7898C41.0971 17.2027 40.9001 17.5076 40.6293 17.7045C40.3603 17.9015 39.992 18 39.5241 18H39.206ZM45.9929 18.0795V17.0795H46.3082C46.4654 17.0795 46.5923 17.0606 46.6889 17.0227C46.7855 16.983 46.8622 16.9252 46.919 16.8494C46.9777 16.7718 47.027 16.6752 47.0668 16.5597L47.1378 16.3693L45.0241 12.1818H46.2969L47.6662 15.0455L48.8111 12.1818H50.0668L48.0611 16.858C47.9645 17.0739 47.8499 17.2746 47.7173 17.4602C47.5866 17.6458 47.419 17.7955 47.2145 17.9091C47.0099 18.0227 46.7486 18.0795 46.4304 18.0795H45.9929ZM55.1641 12.1818V18H53.9709V12.1818H55.1641ZM50.4567 18L52.2805 14.9318L50.5334 12.1818H52.0476L53.3544 14.5767H55.8118L57.0845 12.1818H58.593L56.8885 14.9233L58.6783 18H57.2095L55.9794 15.7131H53.1754L51.9141 18H50.4567ZM59.4119 18V12.1818H63.2727V13.196H60.642V14.3324H61.5881C62.0483 14.3324 62.4451 14.4072 62.7784 14.5568C63.1136 14.7045 63.3722 14.9138 63.554 15.1847C63.7358 15.4555 63.8267 15.7746 63.8267 16.142C63.8267 16.5076 63.7358 16.8305 63.554 17.1108C63.3722 17.3892 63.1136 17.607 62.7784 17.7642C62.4451 17.9214 62.0483 18 61.5881 18H59.4119ZM60.642 17.0114H61.5881C61.8078 17.0114 61.9934 16.9716 62.1449 16.892C62.2964 16.8106 62.411 16.7036 62.4886 16.571C62.5682 16.4366 62.608 16.2898 62.608 16.1307C62.608 15.8996 62.5199 15.7045 62.3438 15.5455C62.1695 15.3845 61.9176 15.304 61.5881 15.304H60.642V17.0114ZM69.9695 15.0909C69.9695 15.7254 69.8492 16.2652 69.6087 16.7102C69.37 17.1553 69.0443 17.4953 68.6314 17.7301C68.2204 17.9631 67.7583 18.0795 67.245 18.0795C66.728 18.0795 66.264 17.9621 65.853 17.7273C65.442 17.4924 65.1172 17.1525 64.8786 16.7074C64.6399 16.2623 64.5206 15.7235 64.5206 15.0909C64.5206 14.4564 64.6399 13.9167 64.8786 13.4716C65.1172 13.0265 65.442 12.6875 65.853 12.4545C66.264 12.2197 66.728 12.1023 67.245 12.1023C67.7583 12.1023 68.2204 12.2197 68.6314 12.4545C69.0443 12.6875 69.37 13.0265 69.6087 13.4716C69.8492 13.9167 69.9695 14.4564 69.9695 15.0909ZM68.7223 15.0909C68.7223 14.6799 68.6607 14.3333 68.5376 14.0511C68.4164 13.7689 68.245 13.5549 68.0234 13.4091C67.8018 13.2633 67.5424 13.1903 67.245 13.1903C66.9477 13.1903 66.6882 13.2633 66.4666 13.4091C66.245 13.5549 66.0727 13.7689 65.9496 14.0511C65.8284 14.3333 65.7678 14.6799 65.7678 15.0909C65.7678 15.5019 65.8284 15.8485 65.9496 16.1307C66.0727 16.4129 66.245 16.6269 66.4666 16.7727C66.6882 16.9186 66.9477 16.9915 67.245 16.9915C67.5424 16.9915 67.8018 16.9186 68.0234 16.7727C68.245 16.6269 68.4164 16.4129 68.5376 16.1307C68.6607 15.8485 68.7223 15.5019 68.7223 15.0909ZM70.8807 18V12.1818H73.2102C73.6383 12.1818 73.9953 12.2453 74.2812 12.3722C74.5672 12.4991 74.7822 12.6752 74.9261 12.9006C75.0701 13.1241 75.142 13.3816 75.142 13.6733C75.142 13.9006 75.0966 14.1004 75.0057 14.2727C74.9148 14.4432 74.7898 14.5833 74.6307 14.6932C74.4735 14.8011 74.2936 14.8778 74.0909 14.9233V14.9801C74.3125 14.9896 74.5199 15.0521 74.7131 15.1676C74.9081 15.2831 75.0663 15.4451 75.1875 15.6534C75.3087 15.8598 75.3693 16.1061 75.3693 16.392C75.3693 16.7008 75.2926 16.9763 75.1392 17.2188C74.9877 17.4593 74.7633 17.6496 74.4659 17.7898C74.1686 17.9299 73.8021 18 73.3665 18H70.8807ZM72.1108 16.9943H73.1136C73.4564 16.9943 73.7064 16.929 73.8636 16.7983C74.0208 16.6657 74.0994 16.4896 74.0994 16.2699C74.0994 16.1089 74.0606 15.9669 73.983 15.8438C73.9053 15.7206 73.7945 15.6241 73.6506 15.554C73.5085 15.4839 73.339 15.4489 73.142 15.4489H72.1108V16.9943ZM72.1108 14.6165H73.0227C73.1913 14.6165 73.3409 14.5871 73.4716 14.5284C73.6042 14.4678 73.7083 14.3826 73.7841 14.2727C73.8617 14.1629 73.9006 14.0312 73.9006 13.8778C73.9006 13.6676 73.8258 13.4981 73.6761 13.3693C73.5284 13.2405 73.3182 13.1761 73.0455 13.1761H72.1108V14.6165ZM76.1697 12.1818H77.397V15.8409H77.4453L79.9595 12.1818H81.0362V18H79.8061V14.3381H79.7635L77.2351 18H76.1697V12.1818ZM82.0526 12.1818H83.2798V15.8409H83.3281L85.8423 12.1818H86.919V18H85.6889V14.3381H85.6463L83.1179 18H82.0526V12.1818ZM85.0526 10.6591H85.8963C85.8944 11.0038 85.7666 11.2812 85.5128 11.4915C85.2609 11.7017 84.92 11.8068 84.4901 11.8068C84.0582 11.8068 83.7164 11.7017 83.4645 11.4915C83.2126 11.2812 83.0866 11.0038 83.0866 10.6591H83.9247C83.9228 10.7898 83.9645 10.9072 84.0497 11.0114C84.1368 11.1155 84.2836 11.1676 84.4901 11.1676C84.6908 11.1676 84.8348 11.1165 84.9219 11.0142C85.009 10.9119 85.0526 10.7936 85.0526 10.6591ZM90.7898 18H89.4716L91.4801 12.1818H93.0653L95.071 18H93.7528L92.2955 13.5114H92.25L90.7898 18ZM90.7074 15.7131H93.821V16.6733H90.7074V15.7131ZM99.2912 18L97.4219 15.5199H97.0014V18H95.7713V12.1818H97.0014V14.5057H97.2486L99.1804 12.1818H100.712L98.4418 14.8807L100.817 18H99.2912ZM102.438 18H101.12L103.129 12.1818H104.714L106.719 18H105.401L103.944 13.5114H103.898L102.438 18ZM102.356 15.7131H105.469V16.6733H102.356V15.7131ZM107.454 18.0795V17.0795H107.769C107.926 17.0795 108.053 17.0606 108.15 17.0227C108.246 16.983 108.323 16.9252 108.38 16.8494C108.439 16.7718 108.488 16.6752 108.528 16.5597L108.599 16.3693L106.485 12.1818H107.758L109.127 15.0455L110.272 12.1818H111.528L109.522 16.858C109.425 17.0739 109.311 17.2746 109.178 17.4602C109.048 17.6458 108.88 17.7955 108.675 17.9091C108.471 18.0227 108.21 18.0795 107.891 18.0795H107.454ZM112.193 18V12.1818H113.423V14.5824H115.92V12.1818H117.148V18H115.92V15.5966H113.423V18H112.193ZM117.94 13.196V12.1818H122.719V13.196H120.938V18H119.722V13.196H117.94Z" fill="white"/>
<defs>
<linearGradient id="paint0_linear_2056_87" x1="0" y1="29" x2="154.467" y2="-2.60381" gradientUnits="userSpaceOnUse">
<stop stop-color="#061251"/>
<stop offset="1" stop-color="#0084FF"/>
</linearGradient>
</defs>
</svg>
