<svg width="155" height="29" viewBox="0 0 155 29" fill="none" xmlns="http://www.w3.org/2000/svg">
<path d="M0 7C0 3.13401 3.13401 0 7 0H150C152.761 0 155 2.23858 155 5V11C155 20.9411 146.941 29 137 29H7C3.13401 29 0 25.866 0 22V7Z" fill="url(#paint0_linear_2051_39)"/>
<path d="M85.9804 16.403L77.0231 24L68 16.403L70.8516 6M79.6577 12.292L83.1155 6.06844M83.1679 6.06844L86 16.3346M70.8979 6L74.3557 12.2236M74.3886 12.2965H79.6577" stroke="white" stroke-opacity="0.1" stroke-width="2" stroke-linecap="round" stroke-linejoin="round"/>
<path d="M17.6392 14.2188H16.3949C16.3722 14.0578 16.3258 13.9148 16.2557 13.7898C16.1856 13.6629 16.0956 13.5549 15.9858 13.4659C15.8759 13.3769 15.7491 13.3087 15.6051 13.2614C15.4631 13.214 15.3087 13.1903 15.142 13.1903C14.8409 13.1903 14.5786 13.2652 14.3551 13.4148C14.1316 13.5625 13.9583 13.7784 13.8352 14.0625C13.7121 14.3447 13.6506 14.6875 13.6506 15.0909C13.6506 15.5057 13.7121 15.8542 13.8352 16.1364C13.9602 16.4186 14.1345 16.6316 14.358 16.7756C14.5814 16.9195 14.84 16.9915 15.1335 16.9915C15.2983 16.9915 15.4508 16.9697 15.5909 16.9261C15.733 16.8826 15.8589 16.8191 15.9688 16.7358C16.0786 16.6506 16.1695 16.5473 16.2415 16.4261C16.3153 16.3049 16.3665 16.1667 16.3949 16.0114L17.6392 16.017C17.607 16.2841 17.5265 16.5417 17.3977 16.7898C17.2708 17.036 17.0994 17.2566 16.8835 17.4517C16.6695 17.6449 16.4138 17.7983 16.1165 17.9119C15.821 18.0237 15.4867 18.0795 15.1136 18.0795C14.5947 18.0795 14.1307 17.9621 13.7216 17.7273C13.3144 17.4924 12.9924 17.1525 12.7557 16.7074C12.5208 16.2623 12.4034 15.7235 12.4034 15.0909C12.4034 14.4564 12.5227 13.9167 12.7614 13.4716C13 13.0265 13.3239 12.6875 13.733 12.4545C14.142 12.2197 14.6023 12.1023 15.1136 12.1023C15.4508 12.1023 15.7633 12.1496 16.0511 12.2443C16.3409 12.339 16.5975 12.4773 16.821 12.6591C17.0445 12.839 17.2263 13.0597 17.3665 13.321C17.5085 13.5824 17.5994 13.8816 17.6392 14.2188ZM18.206 18V17.0114L18.3707 16.9972C18.5829 16.9801 18.7543 16.8996 18.8849 16.7557C19.0156 16.6098 19.1132 16.3778 19.1776 16.0597C19.2438 15.7396 19.2865 15.3097 19.3054 14.7699L19.402 12.1818H23.3509V18H22.1548V13.1676H20.544L20.4531 15.1932C20.4228 15.8447 20.3452 16.3769 20.2202 16.7898C20.0971 17.2027 19.9001 17.5076 19.6293 17.7045C19.3603 17.9015 18.992 18 18.5241 18H18.206ZM25.5952 12.1818V18H24.3651V12.1818H25.5952ZM26.2919 19.4034V17.0199H26.6868C26.8213 16.9233 26.9444 16.7869 27.0561 16.6108C27.1679 16.4328 27.2635 16.1875 27.343 15.875C27.4226 15.5606 27.4794 15.1496 27.5135 14.642L27.6783 12.1818H31.5277V17.0199H32.1641V19.3977H30.9822V18H27.4737V19.4034H26.2919ZM28.1072 17.0199H30.3459V13.196H28.7862L28.6953 14.642C28.6707 15.0265 28.63 15.3674 28.5732 15.6648C28.5182 15.9621 28.451 16.2225 28.3714 16.446C28.2938 16.6676 28.2057 16.8589 28.1072 17.0199ZM36.4318 18L34.5625 15.5199H34.142V18H32.9119V12.1818H34.142V14.5057H34.3892L36.321 12.1818H37.8523L35.5824 14.8807L37.9574 18H36.4318ZM39.2038 18.0795V17.0795H39.5192C39.6764 17.0795 39.8033 17.0606 39.8999 17.0227C39.9964 16.983 40.0732 16.9252 40.13 16.8494C40.1887 16.7718 40.2379 16.6752 40.2777 16.5597L40.3487 16.3693L38.2351 12.1818H39.5078L40.8771 15.0455L42.022 12.1818H43.2777L41.272 16.858C41.1754 17.0739 41.0608 17.2746 40.9283 17.4602C40.7976 17.6458 40.63 17.7955 40.4254 17.9091C40.2209 18.0227 39.9595 18.0795 39.6413 18.0795H39.2038ZM45.1733 12.1818V18H43.9432V12.1818H45.1733ZM46.4233 14.7131V15.6733H44.5653V14.7131H46.4233ZM51.4886 15.0909C51.4886 15.7254 51.3684 16.2652 51.1278 16.7102C50.8892 17.1553 50.5634 17.4953 50.1506 17.7301C49.7396 17.9631 49.2775 18.0795 48.7642 18.0795C48.2472 18.0795 47.7831 17.9621 47.3722 17.7273C46.9612 17.4924 46.6364 17.1525 46.3977 16.7074C46.1591 16.2623 46.0398 15.7235 46.0398 15.0909C46.0398 14.4564 46.1591 13.9167 46.3977 13.4716C46.6364 13.0265 46.9612 12.6875 47.3722 12.4545C47.7831 12.2197 48.2472 12.1023 48.7642 12.1023C49.2775 12.1023 49.7396 12.2197 50.1506 12.4545C50.5634 12.6875 50.8892 13.0265 51.1278 13.4716C51.3684 13.9167 51.4886 14.4564 51.4886 15.0909ZM50.2415 15.0909C50.2415 14.6799 50.1799 14.3333 50.0568 14.0511C49.9356 13.7689 49.7642 13.5549 49.5426 13.4091C49.321 13.2633 49.0616 13.1903 48.7642 13.1903C48.4669 13.1903 48.2074 13.2633 47.9858 13.4091C47.7642 13.5549 47.5919 13.7689 47.4688 14.0511C47.3475 14.3333 47.2869 14.6799 47.2869 15.0909C47.2869 15.5019 47.3475 15.8485 47.4688 16.1307C47.5919 16.4129 47.7642 16.6269 47.9858 16.7727C48.2074 16.9186 48.4669 16.9915 48.7642 16.9915C49.0616 16.9915 49.321 16.9186 49.5426 16.7727C49.7642 16.6269 49.9356 16.4129 50.0568 16.1307C50.1799 15.8485 50.2415 15.5019 50.2415 15.0909ZM52.6321 12.1818H53.8281V14.0568C53.8281 14.2803 53.867 14.4602 53.9446 14.5966C54.0223 14.7311 54.1425 14.8286 54.3054 14.8892C54.4702 14.9479 54.6813 14.9773 54.9389 14.9773C55.0298 14.9773 55.1368 14.9744 55.2599 14.9688C55.383 14.9612 55.5099 14.9508 55.6406 14.9375C55.7732 14.9242 55.8982 14.9081 56.0156 14.8892C56.133 14.8703 56.2306 14.8485 56.3082 14.8239V15.7955C56.2287 15.822 56.1293 15.8456 56.0099 15.8665C55.8925 15.8854 55.7685 15.9025 55.6378 15.9176C55.5071 15.9309 55.3802 15.9413 55.2571 15.9489C55.134 15.9564 55.0279 15.9602 54.9389 15.9602C54.4711 15.9602 54.0639 15.8939 53.7173 15.7614C53.3707 15.6269 53.1027 15.4195 52.9134 15.1392C52.7259 14.8589 52.6321 14.4981 52.6321 14.0568V12.1818ZM56.0952 12.1818H57.2969V18H56.0952V12.1818ZM58.5135 12.1818H59.7408V15.8409H59.7891L62.3033 12.1818H63.38V18H62.1499V14.3381H62.1072L59.5788 18H58.5135V12.1818ZM64.3963 12.1818H65.6236V15.8409H65.6719L68.1861 12.1818H69.2628V18H68.0327V14.3381H67.9901L65.4616 18H64.3963V12.1818ZM67.3963 10.6591H68.2401C68.2382 11.0038 68.1103 11.2812 67.8565 11.4915C67.6046 11.7017 67.2637 11.8068 66.8338 11.8068C66.402 11.8068 66.0601 11.7017 65.8082 11.4915C65.5563 11.2812 65.4304 11.0038 65.4304 10.6591H66.2685C66.2666 10.7898 66.3082 10.9072 66.3935 11.0114C66.4806 11.1155 66.6274 11.1676 66.8338 11.1676C67.0346 11.1676 67.1785 11.1165 67.2656 11.0142C67.3527 10.9119 67.3963 10.7936 67.3963 10.6591ZM74.2472 18.0795C73.8229 18.0795 73.4451 18.0066 73.1136 17.8608C72.7841 17.7131 72.5237 17.5104 72.3324 17.2528C72.143 16.9934 72.0455 16.6941 72.0398 16.3551H73.2784C73.286 16.4972 73.3324 16.6222 73.4176 16.7301C73.5047 16.8362 73.6203 16.9186 73.7642 16.9773C73.9081 17.036 74.0701 17.0653 74.25 17.0653C74.4375 17.0653 74.6032 17.0322 74.7472 16.9659C74.8911 16.8996 75.0038 16.8078 75.0852 16.6903C75.1667 16.5729 75.2074 16.4375 75.2074 16.2841C75.2074 16.1288 75.1638 15.9915 75.0767 15.8722C74.9915 15.7509 74.8684 15.6562 74.7074 15.5881C74.5483 15.5199 74.3589 15.4858 74.1392 15.4858H73.5966V14.5824H74.1392C74.3248 14.5824 74.4886 14.5502 74.6307 14.4858C74.7746 14.4214 74.8864 14.3324 74.9659 14.2188C75.0455 14.1032 75.0852 13.9688 75.0852 13.8153C75.0852 13.6695 75.0502 13.5417 74.9801 13.4318C74.9119 13.3201 74.8153 13.233 74.6903 13.1705C74.5672 13.108 74.4233 13.0767 74.2585 13.0767C74.0919 13.0767 73.9394 13.107 73.8011 13.1676C73.6629 13.2263 73.5521 13.3106 73.4688 13.4205C73.3854 13.5303 73.3409 13.6591 73.3352 13.8068H72.1562C72.1619 13.4716 72.2576 13.1761 72.4432 12.9205C72.6288 12.6648 72.8788 12.465 73.1932 12.321C73.5095 12.1752 73.8665 12.1023 74.2642 12.1023C74.6657 12.1023 75.017 12.1752 75.3182 12.321C75.6193 12.4669 75.8532 12.6638 76.0199 12.9119C76.1884 13.1581 76.2718 13.4347 76.2699 13.7415C76.2718 14.0672 76.1705 14.339 75.9659 14.5568C75.7633 14.7746 75.4991 14.9129 75.1733 14.9716V15.017C75.6013 15.072 75.9271 15.2206 76.1506 15.4631C76.3759 15.7036 76.4877 16.0047 76.4858 16.3665C76.4877 16.6979 76.392 16.9924 76.1989 17.25C76.0076 17.5076 75.7434 17.7102 75.4062 17.858C75.0691 18.0057 74.6828 18.0795 74.2472 18.0795ZM78.407 18H77.0888L79.0973 12.1818H80.6825L82.6882 18H81.37L79.9126 13.5114H79.8672L78.407 18ZM78.3246 15.7131H81.4382V16.6733H78.3246V15.7131ZM85.2401 12.1818H86.7571L88.3594 16.0909H88.4276L90.0298 12.1818H91.5469V18H90.3537V14.2131H90.3054L88.7997 17.9716H87.9872L86.4815 14.1989H86.4332V18H85.2401V12.1818ZM97.907 15.0909C97.907 15.7254 97.7867 16.2652 97.5462 16.7102C97.3075 17.1553 96.9818 17.4953 96.5689 17.7301C96.1579 17.9631 95.6958 18.0795 95.1825 18.0795C94.6655 18.0795 94.2015 17.9621 93.7905 17.7273C93.3795 17.4924 93.0547 17.1525 92.8161 16.7074C92.5774 16.2623 92.4581 15.7235 92.4581 15.0909C92.4581 14.4564 92.5774 13.9167 92.8161 13.4716C93.0547 13.0265 93.3795 12.6875 93.7905 12.4545C94.2015 12.2197 94.6655 12.1023 95.1825 12.1023C95.6958 12.1023 96.1579 12.2197 96.5689 12.4545C96.9818 12.6875 97.3075 13.0265 97.5462 13.4716C97.7867 13.9167 97.907 14.4564 97.907 15.0909ZM96.6598 15.0909C96.6598 14.6799 96.5982 14.3333 96.4751 14.0511C96.3539 13.7689 96.1825 13.5549 95.9609 13.4091C95.7393 13.2633 95.4799 13.1903 95.1825 13.1903C94.8852 13.1903 94.6257 13.2633 94.4041 13.4091C94.1825 13.5549 94.0102 13.7689 93.8871 14.0511C93.7659 14.3333 93.7053 14.6799 93.7053 15.0909C93.7053 15.5019 93.7659 15.8485 93.8871 16.1307C94.0102 16.4129 94.1825 16.6269 94.4041 16.7727C94.6257 16.9186 94.8852 16.9915 95.1825 16.9915C95.4799 16.9915 95.7393 16.9186 95.9609 16.7727C96.1825 16.6269 96.3539 16.4129 96.4751 16.1307C96.5982 15.8485 96.6598 15.5019 96.6598 15.0909ZM98.5028 19.4034V17.0199H98.8977C99.0322 16.9233 99.1553 16.7869 99.267 16.6108C99.3788 16.4328 99.4744 16.1875 99.554 15.875C99.6335 15.5606 99.6903 15.1496 99.7244 14.642L99.8892 12.1818H103.739V17.0199H104.375V19.3977H103.193V18H99.6847V19.4034H98.5028ZM100.318 17.0199H102.557V13.196H100.997L100.906 14.642C100.882 15.0265 100.841 15.3674 100.784 15.6648C100.729 15.9621 100.662 16.2225 100.582 16.446C100.505 16.6676 100.417 16.8589 100.318 17.0199ZM105.123 18V12.1818H109.043V13.196H106.353V14.5824H108.842V15.5966H106.353V16.9858H109.055V18H105.123ZM110.021 18V12.1818H112.317C112.758 12.1818 113.134 12.2661 113.445 12.4347C113.755 12.6013 113.992 12.8333 114.155 13.1307C114.32 13.4261 114.402 13.767 114.402 14.1534C114.402 14.5398 114.319 14.8807 114.152 15.1761C113.985 15.4716 113.744 15.7017 113.428 15.8665C113.113 16.0312 112.732 16.1136 112.286 16.1136H110.822V15.1278H112.087C112.323 15.1278 112.518 15.0871 112.672 15.0057C112.827 14.9223 112.943 14.8078 113.018 14.6619C113.096 14.5142 113.135 14.3447 113.135 14.1534C113.135 13.9602 113.096 13.7917 113.018 13.6477C112.943 13.5019 112.827 13.3892 112.672 13.3097C112.517 13.2282 112.32 13.1875 112.081 13.1875H111.251V18H110.021ZM115.532 18H114.214L116.222 12.1818H117.808L119.813 18H118.495L117.038 13.5114H116.992L115.532 18ZM115.45 15.7131H118.563V16.6733H115.45V15.7131ZM126.119 17.017L126.048 19.375H124.877V18H124.468V17.017H126.119ZM120.513 18V12.1818H121.695V17.0114H124.116V12.1818H125.312V18H120.513ZM128.095 12.1818V18H126.865V12.1818H128.095ZM131.44 18.0795C130.945 18.0795 130.515 17.9669 130.15 17.7415C129.784 17.5161 129.502 17.1979 129.303 16.7869C129.104 16.3759 129.005 15.892 129.005 15.3352V14.9886C129.005 14.4034 129.104 13.8949 129.303 13.4631C129.504 13.0312 129.787 12.697 130.153 12.4602C130.52 12.2216 130.951 12.1023 131.445 12.1023C131.896 12.1023 132.292 12.1847 132.633 12.3494C132.976 12.5123 133.248 12.7462 133.451 13.0511C133.656 13.3542 133.772 13.7169 133.8 14.1392H132.599C132.589 13.9233 132.533 13.7386 132.431 13.5852C132.329 13.4299 132.192 13.3106 132.022 13.2273C131.853 13.1439 131.661 13.1023 131.445 13.1023C131.195 13.1023 130.977 13.1742 130.789 13.3182C130.602 13.4621 130.456 13.6648 130.352 13.9261C130.249 14.1875 130.198 14.4943 130.198 14.8466V15.4716C130.198 15.7992 130.249 16.0852 130.352 16.3295C130.456 16.572 130.601 16.7604 130.786 16.8949C130.974 17.0294 131.192 17.0966 131.44 17.0966C131.656 17.0966 131.848 17.0568 132.016 16.9773C132.187 16.8958 132.322 16.7803 132.423 16.6307C132.525 16.4792 132.582 16.3002 132.593 16.0938H133.8C133.781 16.5028 133.673 16.8561 133.474 17.1534C133.275 17.4508 133.001 17.6799 132.653 17.8409C132.306 18 131.902 18.0795 131.44 18.0795ZM129.602 15.6449V14.6562H132.016V15.6449H129.602ZM135.915 12.1818V18H134.685V12.1818H135.915ZM137.165 14.7131V15.6733H135.308V14.7131H137.165ZM142.231 15.0909C142.231 15.7254 142.111 16.2652 141.87 16.7102C141.631 17.1553 141.306 17.4953 140.893 17.7301C140.482 17.9631 140.02 18.0795 139.506 18.0795C138.989 18.0795 138.525 17.9621 138.114 17.7273C137.703 17.4924 137.379 17.1525 137.14 16.7074C136.901 16.2623 136.782 15.7235 136.782 15.0909C136.782 14.4564 136.901 13.9167 137.14 13.4716C137.379 13.0265 137.703 12.6875 138.114 12.4545C138.525 12.2197 138.989 12.1023 139.506 12.1023C140.02 12.1023 140.482 12.2197 140.893 12.4545C141.306 12.6875 141.631 13.0265 141.87 13.4716C142.111 13.9167 142.231 14.4564 142.231 15.0909ZM140.984 15.0909C140.984 14.6799 140.922 14.3333 140.799 14.0511C140.678 13.7689 140.506 13.5549 140.285 13.4091C140.063 13.2633 139.804 13.1903 139.506 13.1903C139.209 13.1903 138.95 13.2633 138.728 13.4091C138.506 13.5549 138.334 13.7689 138.211 14.0511C138.09 14.3333 138.029 14.6799 138.029 15.0909C138.029 15.5019 138.09 15.8485 138.211 16.1307C138.334 16.4129 138.506 16.6269 138.728 16.7727C138.95 16.9186 139.209 16.9915 139.506 16.9915C139.804 16.9915 140.063 16.9186 140.285 16.7727C140.506 16.6269 140.678 16.4129 140.799 16.1307C140.922 15.8485 140.984 15.5019 140.984 15.0909Z" fill="white"/>
<defs>
<linearGradient id="paint0_linear_2051_39" x1="0" y1="29" x2="154.467" y2="-2.60381" gradientUnits="userSpaceOnUse">
<stop stop-color="#613A07"/>
<stop offset="1" stop-color="#FF9200"/>
</linearGradient>
</defs>
</svg>
