<svg width="155" height="29" viewBox="0 0 155 29" fill="none" xmlns="http://www.w3.org/2000/svg">
<path d="M0 7C0 3.13401 3.13401 0 7 0H150C152.761 0 155 2.23858 155 5V11C155 20.9411 146.941 29 137 29H7C3.13401 29 0 25.866 0 22V7Z" fill="url(#paint0_linear_2056_103)"/>
<path d="M85.9804 16.403L77.0231 24L68 16.403L70.8516 6M79.6577 12.292L83.1155 6.06844M83.1679 6.06844L86 16.3346M70.8979 6L74.3557 12.2236M74.3886 12.2965H79.6577" stroke="white" stroke-opacity="0.1" stroke-width="2" stroke-linecap="round" stroke-linejoin="round"/>
<path d="M42.2841 13.196V12.1818H47.0625V13.196H45.2812V18H44.0653V13.196H42.2841ZM47.8494 18V12.1818H51.7699V13.196H49.0795V14.5824H51.5682V15.5966H49.0795V16.9858H51.7812V18H47.8494ZM53.9013 12.1818L55.0746 14.1648H55.12L56.299 12.1818H57.6882L55.9126 15.0909L57.728 18H56.3132L55.12 16.0142H55.0746L53.8814 18H52.4723L54.2933 15.0909L52.5064 12.1818H53.9013ZM59.1513 18.0739C58.9638 18.0739 58.8028 18.0076 58.6683 17.875C58.5357 17.7405 58.4695 17.5795 58.4695 17.392C58.4695 17.2064 58.5357 17.0473 58.6683 16.9148C58.8028 16.7822 58.9638 16.7159 59.1513 16.7159C59.3331 16.7159 59.4922 16.7822 59.6286 16.9148C59.7649 17.0473 59.8331 17.2064 59.8331 17.392C59.8331 17.517 59.8009 17.6316 59.7365 17.7358C59.674 17.8381 59.5916 17.9205 59.4893 17.983C59.3871 18.0436 59.2744 18.0739 59.1513 18.0739ZM65.7955 12.1818V18H64.5795V13.1818H62.2273V18H61.0114V12.1818H65.7955ZM68.1967 12.1818V18H66.9666V12.1818H68.1967ZM68.8935 19.4034V17.0199H69.2884C69.4228 16.9233 69.5459 16.7869 69.6577 16.6108C69.7694 16.4328 69.8651 16.1875 69.9446 15.875C70.0241 15.5606 70.081 15.1496 70.1151 14.642L70.2798 12.1818H74.1293V17.0199H74.7656V19.3977H73.5838V18H70.0753V19.4034H68.8935ZM70.7088 17.0199H72.9474V13.196H71.3878L71.2969 14.642C71.2723 15.0265 71.2315 15.3674 71.1747 15.6648C71.1198 15.9621 71.0526 16.2225 70.973 16.446C70.8954 16.6676 70.8073 16.8589 70.7088 17.0199ZM75.2919 13.196V12.1818H80.0703V13.196H78.2891V18H77.0732V13.196H75.2919ZM80.8572 18V12.1818H83.1527C83.594 12.1818 83.9699 12.2661 84.2805 12.4347C84.5911 12.6013 84.8279 12.8333 84.9908 13.1307C85.1555 13.4261 85.2379 13.767 85.2379 14.1534C85.2379 14.5398 85.1546 14.8807 84.9879 15.1761C84.8213 15.4716 84.5798 15.7017 84.2635 15.8665C83.9491 16.0312 83.5684 16.1136 83.1214 16.1136H81.6584V15.1278H82.9226C83.1593 15.1278 83.3544 15.0871 83.5078 15.0057C83.6631 14.9223 83.7786 14.8078 83.8544 14.6619C83.9321 14.5142 83.9709 14.3447 83.9709 14.1534C83.9709 13.9602 83.9321 13.7917 83.8544 13.6477C83.7786 13.5019 83.6631 13.3892 83.5078 13.3097C83.3525 13.2282 83.1555 13.1875 82.9169 13.1875H82.0874V18H80.8572ZM86.0369 12.1818H87.2642V15.8409H87.3125L89.8267 12.1818H90.9034V18H89.6733V14.3381H89.6307L87.1023 18H86.0369V12.1818ZM91.9197 12.1818H93.4368L95.0391 16.0909H95.1072L96.7095 12.1818H98.2266V18H97.0334V14.2131H96.9851L95.4794 17.9716H94.6669L93.1612 14.1989H93.1129V18H91.9197V12.1818ZM102.76 18L100.891 15.5199H100.47V18H99.2401V12.1818H100.47V14.5057H100.717L102.649 12.1818H104.18L101.911 14.8807L104.286 18H102.76ZM105.907 18H104.589L106.597 12.1818H108.183L110.188 18H108.87L107.413 13.5114H107.367L105.907 18ZM105.825 15.7131H108.938V16.6733H105.825V15.7131Z" fill="white"/>
<defs>
<linearGradient id="paint0_linear_2056_103" x1="0" y1="29" x2="154.467" y2="-2.60381" gradientUnits="userSpaceOnUse">
<stop stop-color="#601607"/>
<stop offset="0.835" stop-color="#E04B2E"/>
</linearGradient>
</defs>
</svg>
