<svg width="155" height="29" viewBox="0 0 155 29" fill="none" xmlns="http://www.w3.org/2000/svg">
<path d="M0 7C0 3.13401 3.13401 0 7 0H150C152.761 0 155 2.23858 155 5V11C155 20.9411 146.941 29 137 29H7C3.13401 29 0 25.866 0 22V7Z" fill="url(#paint0_linear_2064_203)"/>
<path d="M85.9804 16.403L77.0231 24L68 16.403L70.8516 6M79.6577 12.292L83.1155 6.06844M83.1679 6.06844L86 16.3346M70.8979 6L74.3557 12.2236M74.3886 12.2965H79.6577" stroke="white" stroke-opacity="0.1" stroke-width="2" stroke-linecap="round" stroke-linejoin="round"/>
<path d="M53.0256 18L51.1562 15.5199H50.7358V18H49.5057V12.1818H50.7358V14.5057H50.983L52.9148 12.1818H54.446L52.1761 14.8807L54.5511 18H53.0256ZM60.1882 15.0909C60.1882 15.7254 60.0679 16.2652 59.8274 16.7102C59.5888 17.1553 59.263 17.4953 58.8501 17.7301C58.4392 17.9631 57.977 18.0795 57.4638 18.0795C56.9467 18.0795 56.4827 17.9621 56.0717 17.7273C55.6607 17.4924 55.3359 17.1525 55.0973 16.7074C54.8587 16.2623 54.7393 15.7235 54.7393 15.0909C54.7393 14.4564 54.8587 13.9167 55.0973 13.4716C55.3359 13.0265 55.6607 12.6875 56.0717 12.4545C56.4827 12.2197 56.9467 12.1023 57.4638 12.1023C57.977 12.1023 58.4392 12.2197 58.8501 12.4545C59.263 12.6875 59.5888 13.0265 59.8274 13.4716C60.0679 13.9167 60.1882 14.4564 60.1882 15.0909ZM58.9411 15.0909C58.9411 14.6799 58.8795 14.3333 58.7564 14.0511C58.6352 13.7689 58.4638 13.5549 58.2422 13.4091C58.0206 13.2633 57.7611 13.1903 57.4638 13.1903C57.1664 13.1903 56.907 13.2633 56.6854 13.4091C56.4638 13.5549 56.2914 13.7689 56.1683 14.0511C56.0471 14.3333 55.9865 14.6799 55.9865 15.0909C55.9865 15.5019 56.0471 15.8485 56.1683 16.1307C56.2914 16.4129 56.4638 16.6269 56.6854 16.7727C56.907 16.9186 57.1664 16.9915 57.4638 16.9915C57.7611 16.9915 58.0206 16.9186 58.2422 16.7727C58.4638 16.6269 58.6352 16.4129 58.7564 16.1307C58.8795 15.8485 58.9411 15.5019 58.9411 15.0909ZM61.0994 18V12.1818H63.3949C63.8362 12.1818 64.2121 12.2661 64.5227 12.4347C64.8333 12.6013 65.0701 12.8333 65.233 13.1307C65.3977 13.4261 65.4801 13.767 65.4801 14.1534C65.4801 14.5398 65.3968 14.8807 65.2301 15.1761C65.0634 15.4716 64.822 15.7017 64.5057 15.8665C64.1913 16.0312 63.8106 16.1136 63.3636 16.1136H61.9006V15.1278H63.1648C63.4015 15.1278 63.5966 15.0871 63.75 15.0057C63.9053 14.9223 64.0208 14.8078 64.0966 14.6619C64.1742 14.5142 64.2131 14.3447 64.2131 14.1534C64.2131 13.9602 64.1742 13.7917 64.0966 13.6477C64.0208 13.5019 63.9053 13.3892 63.75 13.3097C63.5947 13.2282 63.3977 13.1875 63.1591 13.1875H62.3295V18H61.0994ZM66.2791 12.1818H67.5064V15.8409H67.5547L70.0689 12.1818H71.1456V18H69.9155V14.3381H69.8729L67.3445 18H66.2791V12.1818ZM77.2955 14.2188H76.0511C76.0284 14.0578 75.982 13.9148 75.9119 13.7898C75.8419 13.6629 75.7519 13.5549 75.642 13.4659C75.5322 13.3769 75.4053 13.3087 75.2614 13.2614C75.1193 13.214 74.965 13.1903 74.7983 13.1903C74.4972 13.1903 74.2348 13.2652 74.0114 13.4148C73.7879 13.5625 73.6146 13.7784 73.4915 14.0625C73.3684 14.3447 73.3068 14.6875 73.3068 15.0909C73.3068 15.5057 73.3684 15.8542 73.4915 16.1364C73.6165 16.4186 73.7907 16.6316 74.0142 16.7756C74.2377 16.9195 74.4962 16.9915 74.7898 16.9915C74.9545 16.9915 75.107 16.9697 75.2472 16.9261C75.3892 16.8826 75.5152 16.8191 75.625 16.7358C75.7348 16.6506 75.8258 16.5473 75.8977 16.4261C75.9716 16.3049 76.0227 16.1667 76.0511 16.0114L77.2955 16.017C77.2633 16.2841 77.1828 16.5417 77.054 16.7898C76.9271 17.036 76.7557 17.2566 76.5398 17.4517C76.3258 17.6449 76.0701 17.7983 75.7727 17.9119C75.4773 18.0237 75.143 18.0795 74.7699 18.0795C74.2509 18.0795 73.7869 17.9621 73.3778 17.7273C72.9706 17.4924 72.6487 17.1525 72.4119 16.7074C72.1771 16.2623 72.0597 15.7235 72.0597 15.0909C72.0597 14.4564 72.179 13.9167 72.4176 13.4716C72.6563 13.0265 72.9801 12.6875 73.3892 12.4545C73.7983 12.2197 74.2585 12.1023 74.7699 12.1023C75.107 12.1023 75.4195 12.1496 75.7074 12.2443C75.9972 12.339 76.2538 12.4773 76.4773 12.6591C76.7008 12.839 76.8826 13.0597 77.0227 13.321C77.1648 13.5824 77.2557 13.8816 77.2955 14.2188ZM77.956 13.196V12.1818H82.7344V13.196H80.9531V18H79.7372V13.196H77.956ZM84.1491 18.0795V17.0795H84.4645C84.6217 17.0795 84.7486 17.0606 84.8452 17.0227C84.9418 16.983 85.0185 16.9252 85.0753 16.8494C85.134 16.7718 85.1832 16.6752 85.223 16.5597L85.294 16.3693L83.1804 12.1818H84.4531L85.8224 15.0455L86.9673 12.1818H88.223L86.2173 16.858C86.1207 17.0739 86.0062 17.2746 85.8736 17.4602C85.7429 17.6458 85.5753 17.7955 85.3707 17.9091C85.1662 18.0227 84.9048 18.0795 84.5866 18.0795H84.1491ZM88.8885 18V12.1818H91.218C91.6461 12.1818 92.0031 12.2453 92.2891 12.3722C92.575 12.4991 92.79 12.6752 92.9339 12.9006C93.0779 13.1241 93.1499 13.3816 93.1499 13.6733C93.1499 13.9006 93.1044 14.1004 93.0135 14.2727C92.9226 14.4432 92.7976 14.5833 92.6385 14.6932C92.4813 14.8011 92.3014 14.8778 92.0987 14.9233V14.9801C92.3203 14.9896 92.5277 15.0521 92.7209 15.1676C92.916 15.2831 93.0741 15.4451 93.1953 15.6534C93.3165 15.8598 93.3771 16.1061 93.3771 16.392C93.3771 16.7008 93.3004 16.9763 93.147 17.2188C92.9955 17.4593 92.7711 17.6496 92.4737 17.7898C92.1764 17.9299 91.8099 18 91.3743 18H88.8885ZM90.1186 16.9943H91.1214C91.4643 16.9943 91.7143 16.929 91.8714 16.7983C92.0286 16.6657 92.1072 16.4896 92.1072 16.2699C92.1072 16.1089 92.0684 15.9669 91.9908 15.8438C91.9131 15.7206 91.8023 15.6241 91.6584 15.554C91.5163 15.4839 91.3468 15.4489 91.1499 15.4489H90.1186V16.9943ZM90.1186 14.6165H91.0305C91.1991 14.6165 91.3487 14.5871 91.4794 14.5284C91.612 14.4678 91.7161 14.3826 91.7919 14.2727C91.8696 14.1629 91.9084 14.0312 91.9084 13.8778C91.9084 13.6676 91.8336 13.4981 91.6839 13.3693C91.5362 13.2405 91.326 13.1761 91.0533 13.1761H90.1186V14.6165ZM95.1804 18H93.8622L95.8707 12.1818H97.456L99.4616 18H98.1435L96.6861 13.5114H96.6406L95.1804 18ZM95.098 15.7131H98.2116V16.6733H95.098V15.7131ZM100.398 12.1818H101.594V14.0568C101.594 14.2803 101.633 14.4602 101.71 14.5966C101.788 14.7311 101.908 14.8286 102.071 14.8892C102.236 14.9479 102.447 14.9773 102.705 14.9773C102.795 14.9773 102.902 14.9744 103.026 14.9688C103.149 14.9612 103.276 14.9508 103.406 14.9375C103.539 14.9242 103.664 14.9081 103.781 14.8892C103.899 14.8703 103.996 14.8485 104.074 14.8239V15.7955C103.994 15.822 103.895 15.8456 103.776 15.8665C103.658 15.8854 103.534 15.9025 103.403 15.9176C103.273 15.9309 103.146 15.9413 103.023 15.9489C102.9 15.9564 102.794 15.9602 102.705 15.9602C102.237 15.9602 101.83 15.8939 101.483 15.7614C101.136 15.6269 100.868 15.4195 100.679 15.1392C100.491 14.8589 100.398 14.4981 100.398 14.0568V12.1818ZM103.861 12.1818H105.062V18H103.861V12.1818Z" fill="white"/>
<defs>
<linearGradient id="paint0_linear_2064_203" x1="0" y1="29" x2="154.467" y2="-2.60381" gradientUnits="userSpaceOnUse">
<stop stop-color="#484848"/>
<stop offset="1" stop-color="#838383"/>
</linearGradient>
</defs>
</svg>
