<svg width="155" height="29" viewBox="0 0 155 29" fill="none" xmlns="http://www.w3.org/2000/svg">
<path d="M0 7C0 3.13401 3.13401 0 7 0H150C152.761 0 155 2.23858 155 5V11C155 20.9411 146.941 29 137 29H7C3.13401 29 0 25.866 0 22V7Z" fill="url(#paint0_linear_2052_63)"/>
<path d="M85.9804 16.403L77.0231 24L68 16.403L70.8516 6M79.6577 12.292L83.1155 6.06844M83.1679 6.06844L86 16.3346M70.8979 6L74.3557 12.2236M74.3886 12.2965H79.6577" stroke="white" stroke-opacity="0.1" stroke-width="2" stroke-linecap="round" stroke-linejoin="round"/>
<path d="M38.6222 18.0795C38.1979 18.0795 37.8201 18.0066 37.4886 17.8608C37.1591 17.7131 36.8987 17.5104 36.7074 17.2528C36.518 16.9934 36.4205 16.6941 36.4148 16.3551H37.6534C37.661 16.4972 37.7074 16.6222 37.7926 16.7301C37.8797 16.8362 37.9953 16.9186 38.1392 16.9773C38.2831 17.036 38.4451 17.0653 38.625 17.0653C38.8125 17.0653 38.9782 17.0322 39.1222 16.9659C39.2661 16.8996 39.3788 16.8078 39.4602 16.6903C39.5417 16.5729 39.5824 16.4375 39.5824 16.2841C39.5824 16.1288 39.5388 15.9915 39.4517 15.8722C39.3665 15.7509 39.2434 15.6562 39.0824 15.5881C38.9233 15.5199 38.7339 15.4858 38.5142 15.4858H37.9716V14.5824H38.5142C38.6998 14.5824 38.8636 14.5502 39.0057 14.4858C39.1496 14.4214 39.2614 14.3324 39.3409 14.2188C39.4205 14.1032 39.4602 13.9688 39.4602 13.8153C39.4602 13.6695 39.4252 13.5417 39.3551 13.4318C39.2869 13.3201 39.1903 13.233 39.0653 13.1705C38.9422 13.108 38.7983 13.0767 38.6335 13.0767C38.4669 13.0767 38.3144 13.107 38.1761 13.1676C38.0379 13.2263 37.9271 13.3106 37.8438 13.4205C37.7604 13.5303 37.7159 13.6591 37.7102 13.8068H36.5312C36.5369 13.4716 36.6326 13.1761 36.8182 12.9205C37.0038 12.6648 37.2538 12.465 37.5682 12.321C37.8845 12.1752 38.2415 12.1023 38.6392 12.1023C39.0407 12.1023 39.392 12.1752 39.6932 12.321C39.9943 12.4669 40.2282 12.6638 40.3949 12.9119C40.5634 13.1581 40.6468 13.4347 40.6449 13.7415C40.6468 14.0672 40.5455 14.339 40.3409 14.5568C40.1383 14.7746 39.8741 14.9129 39.5483 14.9716V15.017C39.9763 15.072 40.3021 15.2206 40.5256 15.4631C40.7509 15.7036 40.8627 16.0047 40.8608 16.3665C40.8627 16.6979 40.767 16.9924 40.5739 17.25C40.3826 17.5076 40.1184 17.7102 39.7812 17.858C39.4441 18.0057 39.0578 18.0795 38.6222 18.0795ZM42.782 18H41.4638L43.4723 12.1818H45.0575L47.0632 18H45.745L44.2876 13.5114H44.2422L42.782 18ZM42.6996 15.7131H45.8132V16.6733H42.6996V15.7131ZM47.7635 18V12.1818H51.6243V13.196H48.9936V14.3324H49.9396C50.3999 14.3324 50.7966 14.4072 51.13 14.5568C51.4652 14.7045 51.7237 14.9138 51.9055 15.1847C52.0874 15.4555 52.1783 15.7746 52.1783 16.142C52.1783 16.5076 52.0874 16.8305 51.9055 17.1108C51.7237 17.3892 51.4652 17.607 51.13 17.7642C50.7966 17.9214 50.3999 18 49.9396 18H47.7635ZM48.9936 17.0114H49.9396C50.1593 17.0114 50.3449 16.9716 50.4964 16.892C50.648 16.8106 50.7625 16.7036 50.8402 16.571C50.9197 16.4366 50.9595 16.2898 50.9595 16.1307C50.9595 15.8996 50.8714 15.7045 50.6953 15.5455C50.5211 15.3845 50.2692 15.304 49.9396 15.304H48.9936V17.0114ZM52.6591 18V17.0114L52.8239 16.9972C53.036 16.9801 53.2074 16.8996 53.3381 16.7557C53.4688 16.6098 53.5663 16.3778 53.6307 16.0597C53.697 15.7396 53.7396 15.3097 53.7585 14.7699L53.8551 12.1818H57.804V18H56.608V13.1676H54.9972L54.9062 15.1932C54.8759 15.8447 54.7983 16.3769 54.6733 16.7898C54.5502 17.2027 54.3532 17.5076 54.0824 17.7045C53.8134 17.9015 53.4451 18 52.9773 18H52.6591ZM64.1648 15.0909C64.1648 15.7254 64.0445 16.2652 63.804 16.7102C63.5653 17.1553 63.2396 17.4953 62.8267 17.7301C62.4157 17.9631 61.9536 18.0795 61.4403 18.0795C60.9233 18.0795 60.4593 17.9621 60.0483 17.7273C59.6373 17.4924 59.3125 17.1525 59.0739 16.7074C58.8352 16.2623 58.7159 15.7235 58.7159 15.0909C58.7159 14.4564 58.8352 13.9167 59.0739 13.4716C59.3125 13.0265 59.6373 12.6875 60.0483 12.4545C60.4593 12.2197 60.9233 12.1023 61.4403 12.1023C61.9536 12.1023 62.4157 12.2197 62.8267 12.4545C63.2396 12.6875 63.5653 13.0265 63.804 13.4716C64.0445 13.9167 64.1648 14.4564 64.1648 15.0909ZM62.9176 15.0909C62.9176 14.6799 62.8561 14.3333 62.733 14.0511C62.6117 13.7689 62.4403 13.5549 62.2188 13.4091C61.9972 13.2633 61.7377 13.1903 61.4403 13.1903C61.143 13.1903 60.8835 13.2633 60.6619 13.4091C60.4403 13.5549 60.268 13.7689 60.1449 14.0511C60.0237 14.3333 59.9631 14.6799 59.9631 15.0909C59.9631 15.5019 60.0237 15.8485 60.1449 16.1307C60.268 16.4129 60.4403 16.6269 60.6619 16.7727C60.8835 16.9186 61.143 16.9915 61.4403 16.9915C61.7377 16.9915 61.9972 16.9186 62.2188 16.7727C62.4403 16.6269 62.6117 16.4129 62.733 16.1307C62.8561 15.8485 62.9176 15.5019 62.9176 15.0909ZM68.5959 18L66.7266 15.5199H66.3061V18H65.076V12.1818H66.3061V14.5057H66.5533L68.4851 12.1818H70.0163L67.7464 14.8807L70.1214 18H68.5959ZM70.7401 12.1818H71.9673V15.8409H72.0156L74.5298 12.1818H75.6065V18H74.3764V14.3381H74.3338L71.8054 18H70.7401V12.1818ZM76.6229 18V12.1818H78.9183C79.3596 12.1818 79.7356 12.2661 80.0462 12.4347C80.3568 12.6013 80.5935 12.8333 80.7564 13.1307C80.9212 13.4261 81.0036 13.767 81.0036 14.1534C81.0036 14.5398 80.9202 14.8807 80.7536 15.1761C80.5869 15.4716 80.3454 15.7017 80.0291 15.8665C79.7147 16.0312 79.334 16.1136 78.8871 16.1136H77.424V15.1278H78.6882C78.925 15.1278 79.12 15.0871 79.2734 15.0057C79.4287 14.9223 79.5443 14.8078 79.62 14.6619C79.6977 14.5142 79.7365 14.3447 79.7365 14.1534C79.7365 13.9602 79.6977 13.7917 79.62 13.6477C79.5443 13.5019 79.4287 13.3892 79.2734 13.3097C79.1181 13.2282 78.9212 13.1875 78.6825 13.1875H77.853V18H76.6229ZM87.1491 15.0909C87.1491 15.7254 87.0289 16.2652 86.7884 16.7102C86.5497 17.1553 86.224 17.4953 85.8111 17.7301C85.4001 17.9631 84.938 18.0795 84.4247 18.0795C83.9077 18.0795 83.4437 17.9621 83.0327 17.7273C82.6217 17.4924 82.2969 17.1525 82.0582 16.7074C81.8196 16.2623 81.7003 15.7235 81.7003 15.0909C81.7003 14.4564 81.8196 13.9167 82.0582 13.4716C82.2969 13.0265 82.6217 12.6875 83.0327 12.4545C83.4437 12.2197 83.9077 12.1023 84.4247 12.1023C84.938 12.1023 85.4001 12.2197 85.8111 12.4545C86.224 12.6875 86.5497 13.0265 86.7884 13.4716C87.0289 13.9167 87.1491 14.4564 87.1491 15.0909ZM85.902 15.0909C85.902 14.6799 85.8404 14.3333 85.7173 14.0511C85.5961 13.7689 85.4247 13.5549 85.2031 13.4091C84.9815 13.2633 84.7221 13.1903 84.4247 13.1903C84.1274 13.1903 83.8679 13.2633 83.6463 13.4091C83.4247 13.5549 83.2524 13.7689 83.1293 14.0511C83.008 14.3333 82.9474 14.6799 82.9474 15.0909C82.9474 15.5019 83.008 15.8485 83.1293 16.1307C83.2524 16.4129 83.4247 16.6269 83.6463 16.7727C83.8679 16.9186 84.1274 16.9915 84.4247 16.9915C84.7221 16.9915 84.9815 16.9186 85.2031 16.7727C85.4247 16.6269 85.5961 16.4129 85.7173 16.1307C85.8404 15.8485 85.902 15.5019 85.902 15.0909ZM88.0604 18V12.1818H90.3899C90.8179 12.1818 91.175 12.2453 91.4609 12.3722C91.7469 12.4991 91.9619 12.6752 92.1058 12.9006C92.2498 13.1241 92.3217 13.3816 92.3217 13.6733C92.3217 13.9006 92.2763 14.1004 92.1854 14.2727C92.0945 14.4432 91.9695 14.5833 91.8104 14.6932C91.6532 14.8011 91.4732 14.8778 91.2706 14.9233V14.9801C91.4922 14.9896 91.6996 15.0521 91.8928 15.1676C92.0878 15.2831 92.246 15.4451 92.3672 15.6534C92.4884 15.8598 92.549 16.1061 92.549 16.392C92.549 16.7008 92.4723 16.9763 92.3189 17.2188C92.1674 17.4593 91.9429 17.6496 91.6456 17.7898C91.3482 17.9299 90.9818 18 90.5462 18H88.0604ZM89.2905 16.9943H90.2933C90.6361 16.9943 90.8861 16.929 91.0433 16.7983C91.2005 16.6657 91.2791 16.4896 91.2791 16.2699C91.2791 16.1089 91.2403 15.9669 91.1626 15.8438C91.085 15.7206 90.9742 15.6241 90.8303 15.554C90.6882 15.4839 90.5187 15.4489 90.3217 15.4489H89.2905V16.9943ZM89.2905 14.6165H90.2024C90.371 14.6165 90.5206 14.5871 90.6513 14.5284C90.7839 14.4678 90.888 14.3826 90.9638 14.2727C91.0414 14.1629 91.0803 14.0312 91.0803 13.8778C91.0803 13.6676 91.0054 13.4981 90.8558 13.3693C90.7081 13.2405 90.4979 13.1761 90.2251 13.1761H89.2905V14.6165ZM94.3523 18H93.0341L95.0426 12.1818H96.6278L98.6335 18H97.3153L95.858 13.5114H95.8125L94.3523 18ZM94.2699 15.7131H97.3835V16.6733H94.2699V15.7131ZM99.3338 18V12.1818H100.564V14.5824H103.061V12.1818H104.288V18H103.061V15.5966H100.564V18H99.3338ZM106.112 14.3324H107.499C107.961 14.3324 108.358 14.4072 108.692 14.5568C109.027 14.7045 109.286 14.9138 109.467 15.1847C109.649 15.4555 109.739 15.7746 109.737 16.142C109.739 16.5076 109.649 16.8305 109.467 17.1108C109.286 17.3892 109.027 17.607 108.692 17.7642C108.358 17.9214 107.961 18 107.499 18H105.325V12.1818H106.553V17.0114H107.499C107.72 17.0114 107.907 16.9716 108.058 16.892C108.21 16.8106 108.324 16.7036 108.402 16.571C108.482 16.4366 108.52 16.2898 108.518 16.1307C108.52 15.8996 108.433 15.7045 108.257 15.5455C108.083 15.3845 107.83 15.304 107.499 15.304H106.112V14.3324ZM111.439 12.1818V18H110.212V12.1818H111.439ZM112.451 12.1818H113.678V15.8409H113.727L116.241 12.1818H117.317V18H116.087V14.3381H116.045L113.516 18H112.451V12.1818ZM115.451 10.6591H116.295C116.293 11.0038 116.165 11.2812 115.911 11.4915C115.659 11.7017 115.318 11.8068 114.888 11.8068C114.457 11.8068 114.115 11.7017 113.863 11.4915C113.611 11.2812 113.485 11.0038 113.485 10.6591H114.323C114.321 10.7898 114.363 10.9072 114.448 11.0114C114.535 11.1155 114.682 11.1676 114.888 11.1676C115.089 11.1676 115.233 11.1165 115.32 11.0142C115.407 10.9119 115.451 10.7936 115.451 10.6591Z" fill="white"/>
<defs>
<linearGradient id="paint0_linear_2052_63" x1="0" y1="29" x2="154.467" y2="-2.60381" gradientUnits="userSpaceOnUse">
<stop stop-color="#040404"/>
<stop offset="1" stop-color="#484549"/>
</linearGradient>
</defs>
</svg>
