<svg width="155" height="29" viewBox="0 0 155 29" fill="none" xmlns="http://www.w3.org/2000/svg">
<path d="M0 7C0 3.13401 3.13401 0 7 0H150C152.761 0 155 2.23858 155 5V11C155 20.9411 146.941 29 137 29H7C3.13401 29 0 25.866 0 22V7Z" fill="url(#paint0_linear_2063_183)"/>
<path d="M85.9804 16.403L77.0231 24L68 16.403L70.8516 6M79.6577 12.292L83.1155 6.06844M83.1679 6.06844L86 16.3346M70.8979 6L74.3557 12.2236M74.3886 12.2965H79.6577" stroke="white" stroke-opacity="0.25" stroke-width="2" stroke-linecap="round" stroke-linejoin="round"/>
<path d="M29.5057 18V12.1818H31.8352C32.2633 12.1818 32.6203 12.2453 32.9062 12.3722C33.1922 12.4991 33.4072 12.6752 33.5511 12.9006C33.6951 13.1241 33.767 13.3816 33.767 13.6733C33.767 13.9006 33.7216 14.1004 33.6307 14.2727C33.5398 14.4432 33.4148 14.5833 33.2557 14.6932C33.0985 14.8011 32.9186 14.8778 32.7159 14.9233V14.9801C32.9375 14.9896 33.1449 15.0521 33.3381 15.1676C33.5331 15.2831 33.6913 15.4451 33.8125 15.6534C33.9337 15.8598 33.9943 16.1061 33.9943 16.392C33.9943 16.7008 33.9176 16.9763 33.7642 17.2188C33.6127 17.4593 33.3883 17.6496 33.0909 17.7898C32.7936 17.9299 32.4271 18 31.9915 18H29.5057ZM30.7358 16.9943H31.7386C32.0814 16.9943 32.3314 16.929 32.4886 16.7983C32.6458 16.6657 32.7244 16.4896 32.7244 16.2699C32.7244 16.1089 32.6856 15.9669 32.608 15.8438C32.5303 15.7206 32.4195 15.6241 32.2756 15.554C32.1335 15.4839 31.964 15.4489 31.767 15.4489H30.7358V16.9943ZM30.7358 14.6165H31.6477C31.8163 14.6165 31.9659 14.5871 32.0966 14.5284C32.2292 14.4678 32.3333 14.3826 32.4091 14.2727C32.4867 14.1629 32.5256 14.0312 32.5256 13.8778C32.5256 13.6676 32.4508 13.4981 32.3011 13.3693C32.1534 13.2405 31.9432 13.1761 31.6705 13.1761H30.7358V14.6165ZM34.7947 18V12.1818H38.7152V13.196H36.0249V14.5824H38.5135V15.5966H36.0249V16.9858H38.7266V18H34.7947ZM39.3778 19.4034V17.0199H39.7727C39.9072 16.9233 40.0303 16.7869 40.142 16.6108C40.2538 16.4328 40.3494 16.1875 40.429 15.875C40.5085 15.5606 40.5653 15.1496 40.5994 14.642L40.7642 12.1818H44.6136V17.0199H45.25V19.3977H44.0682V18H40.5597V19.4034H39.3778ZM41.1932 17.0199H43.4318V13.196H41.8722L41.7812 14.642C41.7566 15.0265 41.7159 15.3674 41.6591 15.6648C41.6042 15.9621 41.5369 16.2225 41.4574 16.446C41.3797 16.6676 41.2917 16.8589 41.1932 17.0199ZM46.6257 18.0795V17.0795H46.9411C47.0982 17.0795 47.2251 17.0606 47.3217 17.0227C47.4183 16.983 47.495 16.9252 47.5518 16.8494C47.6106 16.7718 47.6598 16.6752 47.6996 16.5597L47.7706 16.3693L45.657 12.1818H46.9297L48.299 15.0455L49.4439 12.1818H50.6996L48.6939 16.858C48.5973 17.0739 48.4827 17.2746 48.3501 17.4602C48.2195 17.6458 48.0518 17.7955 47.8473 17.9091C47.6428 18.0227 47.3814 18.0795 47.0632 18.0795H46.6257ZM59.1406 17.0483L59.0611 19.3693H57.9446V18H57.4702V17.0483H59.1406ZM51.598 12.1818H52.7997V17.0114H54.4702V12.1818H55.6662V17.0114H57.3168V12.1818H58.5128V18H51.598V12.1818ZM59.8885 12.1818H61.1158V15.8409H61.1641L63.6783 12.1818H64.755V18H63.5249V14.3381H63.4822L60.9538 18H59.8885V12.1818ZM65.7713 12.1818H66.9986V15.8409H67.0469L69.5611 12.1818H70.6378V18H69.4077V14.3381H69.3651L66.8366 18H65.7713V12.1818ZM68.7713 10.6591H69.6151C69.6132 11.0038 69.4853 11.2812 69.2315 11.4915C68.9796 11.7017 68.6387 11.8068 68.2088 11.8068C67.777 11.8068 67.4351 11.7017 67.1832 11.4915C66.9313 11.2812 66.8054 11.0038 66.8054 10.6591H67.6435C67.6416 10.7898 67.6832 10.9072 67.7685 11.0114C67.8556 11.1155 68.0024 11.1676 68.2088 11.1676C68.4096 11.1676 68.5535 11.1165 68.6406 11.0142C68.7277 10.9119 68.7713 10.7936 68.7713 10.6591ZM73.5057 12.1818H75.0227L76.625 16.0909H76.6932L78.2955 12.1818H79.8125V18H78.6193V14.2131H78.571L77.0653 17.9716H76.2528L74.7472 14.1989H74.6989V18H73.5057V12.1818ZM80.826 18V12.1818H84.7464V13.196H82.0561V14.5824H84.5447V15.5966H82.0561V16.9858H84.7578V18H80.826ZM85.7244 18V12.1818H88.0199C88.4612 12.1818 88.8371 12.2661 89.1477 12.4347C89.4583 12.6013 89.6951 12.8333 89.858 13.1307C90.0227 13.4261 90.1051 13.767 90.1051 14.1534C90.1051 14.5398 90.0218 14.8807 89.8551 15.1761C89.6884 15.4716 89.447 15.7017 89.1307 15.8665C88.8163 16.0312 88.4356 16.1136 87.9886 16.1136H86.5256V15.1278H87.7898C88.0265 15.1278 88.2216 15.0871 88.375 15.0057C88.5303 14.9223 88.6458 14.8078 88.7216 14.6619C88.7992 14.5142 88.8381 14.3447 88.8381 14.1534C88.8381 13.9602 88.7992 13.7917 88.7216 13.6477C88.6458 13.5019 88.5303 13.3892 88.375 13.3097C88.2197 13.2282 88.0227 13.1875 87.7841 13.1875H86.9545V18H85.7244ZM96.2507 15.0909C96.2507 15.7254 96.1304 16.2652 95.8899 16.7102C95.6513 17.1553 95.3255 17.4953 94.9126 17.7301C94.5017 17.9631 94.0395 18.0795 93.5263 18.0795C93.0092 18.0795 92.5452 17.9621 92.1342 17.7273C91.7232 17.4924 91.3984 17.1525 91.1598 16.7074C90.9212 16.2623 90.8018 15.7235 90.8018 15.0909C90.8018 14.4564 90.9212 13.9167 91.1598 13.4716C91.3984 13.0265 91.7232 12.6875 92.1342 12.4545C92.5452 12.2197 93.0092 12.1023 93.5263 12.1023C94.0395 12.1023 94.5017 12.2197 94.9126 12.4545C95.3255 12.6875 95.6513 13.0265 95.8899 13.4716C96.1304 13.9167 96.2507 14.4564 96.2507 15.0909ZM95.0036 15.0909C95.0036 14.6799 94.942 14.3333 94.8189 14.0511C94.6977 13.7689 94.5263 13.5549 94.3047 13.4091C94.0831 13.2633 93.8236 13.1903 93.5263 13.1903C93.2289 13.1903 92.9695 13.2633 92.7479 13.4091C92.5263 13.5549 92.3539 13.7689 92.2308 14.0511C92.1096 14.3333 92.049 14.6799 92.049 15.0909C92.049 15.5019 92.1096 15.8485 92.2308 16.1307C92.3539 16.4129 92.5263 16.6269 92.7479 16.7727C92.9695 16.9186 93.2289 16.9915 93.5263 16.9915C93.8236 16.9915 94.0831 16.9186 94.3047 16.7727C94.5263 16.6269 94.6977 16.4129 94.8189 16.1307C94.942 15.8485 95.0036 15.5019 95.0036 15.0909ZM102.108 12.1818V18H100.892V13.1818H98.5398V18H97.3239V12.1818H102.108ZM103.279 18V12.1818H105.575C106.016 12.1818 106.392 12.2661 106.702 12.4347C107.013 12.6013 107.25 12.8333 107.413 13.1307C107.577 13.4261 107.66 13.767 107.66 14.1534C107.66 14.5398 107.576 14.8807 107.41 15.1761C107.243 15.4716 107.002 15.7017 106.685 15.8665C106.371 16.0312 105.99 16.1136 105.543 16.1136H104.08V15.1278H105.344C105.581 15.1278 105.776 15.0871 105.93 15.0057C106.085 14.9223 106.201 14.8078 106.276 14.6619C106.354 14.5142 106.393 14.3447 106.393 14.1534C106.393 13.9602 106.354 13.7917 106.276 13.6477C106.201 13.5019 106.085 13.3892 105.93 13.3097C105.774 13.2282 105.577 13.1875 105.339 13.1875H104.509V18H103.279ZM108.459 12.1818H109.686V15.8409H109.734L112.249 12.1818H113.325V18H112.095V14.3381H112.053L109.524 18H108.459V12.1818ZM118.808 18H117.58V13.1875H116.751C116.514 13.1875 116.317 13.2225 116.16 13.2926C116.004 13.3608 115.888 13.4612 115.81 13.5938C115.733 13.7263 115.694 13.8892 115.694 14.0824C115.694 14.2737 115.733 14.4337 115.81 14.5625C115.888 14.6913 116.004 14.7879 116.16 14.8523C116.315 14.9167 116.51 14.9489 116.745 14.9489H118.08V15.9375H116.546C116.101 15.9375 115.72 15.8636 115.404 15.7159C115.088 15.5682 114.846 15.3561 114.68 15.0795C114.513 14.8011 114.43 14.4687 114.43 14.0824C114.43 13.6979 114.511 13.3636 114.674 13.0795C114.839 12.7936 115.076 12.5729 115.387 12.4176C115.7 12.2604 116.076 12.1818 116.515 12.1818H118.808V18ZM115.668 15.3523H116.995L115.58 18H114.222L115.668 15.3523ZM119.597 13.196V12.1818H124.375V13.196H122.594V18H121.378V13.196H119.597ZM125.162 12.1818H126.389V15.8409H126.438L128.952 12.1818H130.028V18H128.798V14.3381H128.756L126.227 18H125.162V12.1818ZM131.045 12.1818H132.272V15.8409H132.32L134.835 12.1818H135.911V18H134.681V14.3381H134.638L132.11 18H131.045V12.1818ZM134.045 10.6591H134.888C134.887 11.0038 134.759 11.2812 134.505 11.4915C134.253 11.7017 133.912 11.8068 133.482 11.8068C133.05 11.8068 132.709 11.7017 132.457 11.4915C132.205 11.2812 132.079 11.0038 132.079 10.6591H132.917C132.915 10.7898 132.957 10.9072 133.042 11.0114C133.129 11.1155 133.276 11.1676 133.482 11.1676C133.683 11.1676 133.827 11.1165 133.914 11.0142C134.001 10.9119 134.045 10.7936 134.045 10.6591Z" fill="white"/>
<defs>
<linearGradient id="paint0_linear_2063_183" x1="0" y1="29" x2="154.467" y2="-2.60381" gradientUnits="userSpaceOnUse">
<stop offset="0.25" stop-color="#BB08FC"/>
<stop offset="1" stop-color="#FF00FF"/>
</linearGradient>
</defs>
</svg>
