<svg width="155" height="29" viewBox="0 0 155 29" fill="none" xmlns="http://www.w3.org/2000/svg">
<path d="M0 7C0 3.13401 3.13401 0 7 0H150C152.761 0 155 2.23858 155 5V11C155 20.9411 146.941 29 137 29H7C3.13401 29 0 25.866 0 22V7Z" fill="url(#paint0_linear_2051_31)"/>
<path d="M85.9804 16.403L77.0231 24L68 16.403L70.8516 6M79.6577 12.292L83.1155 6.06844M83.1679 6.06844L86 16.3346M70.8979 6L74.3557 12.2236M74.3886 12.2965H79.6577" stroke="white" stroke-opacity="0.1" stroke-width="2" stroke-linecap="round" stroke-linejoin="round"/>
<path d="M12.6222 18.0795C12.1979 18.0795 11.8201 18.0066 11.4886 17.8608C11.1591 17.7131 10.8987 17.5104 10.7074 17.2528C10.518 16.9934 10.4205 16.6941 10.4148 16.3551H11.6534C11.661 16.4972 11.7074 16.6222 11.7926 16.7301C11.8797 16.8362 11.9953 16.9186 12.1392 16.9773C12.2831 17.036 12.4451 17.0653 12.625 17.0653C12.8125 17.0653 12.9782 17.0322 13.1222 16.9659C13.2661 16.8996 13.3788 16.8078 13.4602 16.6903C13.5417 16.5729 13.5824 16.4375 13.5824 16.2841C13.5824 16.1288 13.5388 15.9915 13.4517 15.8722C13.3665 15.7509 13.2434 15.6562 13.0824 15.5881C12.9233 15.5199 12.7339 15.4858 12.5142 15.4858H11.9716V14.5824H12.5142C12.6998 14.5824 12.8636 14.5502 13.0057 14.4858C13.1496 14.4214 13.2614 14.3324 13.3409 14.2188C13.4205 14.1032 13.4602 13.9688 13.4602 13.8153C13.4602 13.6695 13.4252 13.5417 13.3551 13.4318C13.2869 13.3201 13.1903 13.233 13.0653 13.1705C12.9422 13.108 12.7983 13.0767 12.6335 13.0767C12.4669 13.0767 12.3144 13.107 12.1761 13.1676C12.0379 13.2263 11.9271 13.3106 11.8438 13.4205C11.7604 13.5303 11.7159 13.6591 11.7102 13.8068H10.5312C10.5369 13.4716 10.6326 13.1761 10.8182 12.9205C11.0038 12.6648 11.2538 12.465 11.5682 12.321C11.8845 12.1752 12.2415 12.1023 12.6392 12.1023C13.0407 12.1023 13.392 12.1752 13.6932 12.321C13.9943 12.4669 14.2282 12.6638 14.3949 12.9119C14.5634 13.1581 14.6468 13.4347 14.6449 13.7415C14.6468 14.0672 14.5455 14.339 14.3409 14.5568C14.1383 14.7746 13.8741 14.9129 13.5483 14.9716V15.017C13.9763 15.072 14.3021 15.2206 14.5256 15.4631C14.7509 15.7036 14.8627 16.0047 14.8608 16.3665C14.8627 16.6979 14.767 16.9924 14.5739 17.25C14.3826 17.5076 14.1184 17.7102 13.7812 17.858C13.4441 18.0057 13.0578 18.0795 12.6222 18.0795ZM16.782 18H15.4638L17.4723 12.1818H19.0575L21.0632 18H19.745L18.2876 13.5114H18.2422L16.782 18ZM16.6996 15.7131H19.8132V16.6733H16.6996V15.7131ZM21.7635 12.1818H23.2805L24.8828 16.0909H24.951L26.5533 12.1818H28.0703V18H26.8771V14.2131H26.8288L25.3232 17.9716H24.5107L23.005 14.1989H22.9567V18H21.7635V12.1818ZM29.0838 18V12.1818H33.0043V13.196H30.3139V14.5824H32.8026V15.5966H30.3139V16.9858H33.0156V18H29.0838ZM39.1158 14.2188H37.8714C37.8487 14.0578 37.8023 13.9148 37.7322 13.7898C37.6622 13.6629 37.5722 13.5549 37.4624 13.4659C37.3525 13.3769 37.2256 13.3087 37.0817 13.2614C36.9396 13.214 36.7853 13.1903 36.6186 13.1903C36.3175 13.1903 36.0552 13.2652 35.8317 13.4148C35.6082 13.5625 35.4349 13.7784 35.3118 14.0625C35.1887 14.3447 35.1271 14.6875 35.1271 15.0909C35.1271 15.5057 35.1887 15.8542 35.3118 16.1364C35.4368 16.4186 35.611 16.6316 35.8345 16.7756C36.058 16.9195 36.3165 16.9915 36.6101 16.9915C36.7749 16.9915 36.9273 16.9697 37.0675 16.9261C37.2095 16.8826 37.3355 16.8191 37.4453 16.7358C37.5552 16.6506 37.6461 16.5473 37.718 16.4261C37.7919 16.3049 37.843 16.1667 37.8714 16.0114L39.1158 16.017C39.0836 16.2841 39.0031 16.5417 38.8743 16.7898C38.7474 17.036 38.576 17.2566 38.3601 17.4517C38.1461 17.6449 37.8904 17.7983 37.593 17.9119C37.2976 18.0237 36.9633 18.0795 36.5902 18.0795C36.0713 18.0795 35.6072 17.9621 35.1982 17.7273C34.791 17.4924 34.469 17.1525 34.2322 16.7074C33.9974 16.2623 33.88 15.7235 33.88 15.0909C33.88 14.4564 33.9993 13.9167 34.2379 13.4716C34.4766 13.0265 34.8004 12.6875 35.2095 12.4545C35.6186 12.2197 36.0788 12.1023 36.5902 12.1023C36.9273 12.1023 37.2398 12.1496 37.5277 12.2443C37.8175 12.339 38.0741 12.4773 38.2976 12.6591C38.5211 12.839 38.7029 13.0597 38.843 13.321C38.9851 13.5824 39.076 13.8816 39.1158 14.2188ZM39.7763 13.196V12.1818H44.5547V13.196H42.7734V18H41.5575V13.196H39.7763ZM45.3416 12.1818H46.5689V15.8409H46.6172L49.1314 12.1818H50.2081V18H48.978V14.3381H48.9354L46.407 18H45.3416V12.1818ZM51.0028 13.196V12.1818H55.7812V13.196H54V18H52.7841V13.196H51.0028ZM56.5682 18V12.1818H60.4886V13.196H57.7983V14.5824H60.2869V15.5966H57.7983V16.9858H60.5V18H56.5682ZM61.1513 18V17.0114L61.3161 16.9972C61.5282 16.9801 61.6996 16.8996 61.8303 16.7557C61.9609 16.6098 62.0585 16.3778 62.1229 16.0597C62.1892 15.7396 62.2318 15.3097 62.2507 14.7699L62.3473 12.1818H66.2962V18H65.1001V13.1676H63.4893L63.3984 15.1932C63.3681 15.8447 63.2905 16.3769 63.1655 16.7898C63.0424 17.2027 62.8454 17.5076 62.5746 17.7045C62.3056 17.9015 61.9373 18 61.4695 18H61.1513ZM68.12 14.3324H69.5064C69.9685 14.3324 70.3662 14.4072 70.6996 14.5568C71.0348 14.7045 71.2933 14.9138 71.4751 15.1847C71.657 15.4555 71.7469 15.7746 71.745 16.142C71.7469 16.5076 71.657 16.8305 71.4751 17.1108C71.2933 17.3892 71.0348 17.607 70.6996 17.7642C70.3662 17.9214 69.9685 18 69.5064 18H67.3331V12.1818H68.5604V17.0114H69.5064C69.728 17.0114 69.9145 16.9716 70.0661 16.892C70.2176 16.8106 70.3321 16.7036 70.4098 16.571C70.4893 16.4366 70.5282 16.2898 70.5263 16.1307C70.5282 15.8996 70.4411 15.7045 70.2649 15.5455C70.0907 15.3845 69.8378 15.304 69.5064 15.304H68.12V14.3324ZM78.4368 12.1818V13.196H75.8061V18H74.576V12.1818H78.4368ZM78.9091 18V17.0114L79.0739 16.9972C79.286 16.9801 79.4574 16.8996 79.5881 16.7557C79.7188 16.6098 79.8163 16.3778 79.8807 16.0597C79.947 15.7396 79.9896 15.3097 80.0085 14.7699L80.1051 12.1818H84.054V18H82.858V13.1676H81.2472L81.1562 15.1932C81.1259 15.8447 81.0483 16.3769 80.9233 16.7898C80.8002 17.2027 80.6032 17.5076 80.3324 17.7045C80.0634 17.9015 79.6951 18 79.2273 18H78.9091ZM85.7528 18.0739C85.5653 18.0739 85.4044 18.0076 85.2699 17.875C85.1373 17.7405 85.071 17.5795 85.071 17.392C85.071 17.2064 85.1373 17.0473 85.2699 16.9148C85.4044 16.7822 85.5653 16.7159 85.7528 16.7159C85.9347 16.7159 86.0938 16.7822 86.2301 16.9148C86.3665 17.0473 86.4347 17.2064 86.4347 17.392C86.4347 17.517 86.4025 17.6316 86.3381 17.7358C86.2756 17.8381 86.1932 17.9205 86.0909 17.983C85.9886 18.0436 85.8759 18.0739 85.7528 18.0739ZM87.451 12.1818H88.968L90.5703 16.0909H90.6385L92.2408 12.1818H93.7578V18H92.5646V14.2131H92.5163L91.0107 17.9716H90.1982L88.6925 14.1989H88.6442V18H87.451V12.1818ZM100.118 15.0909C100.118 15.7254 99.9976 16.2652 99.7571 16.7102C99.5185 17.1553 99.1927 17.4953 98.7798 17.7301C98.3688 17.9631 97.9067 18.0795 97.3935 18.0795C96.8764 18.0795 96.4124 17.9621 96.0014 17.7273C95.5904 17.4924 95.2656 17.1525 95.027 16.7074C94.7884 16.2623 94.669 15.7235 94.669 15.0909C94.669 14.4564 94.7884 13.9167 95.027 13.4716C95.2656 13.0265 95.5904 12.6875 96.0014 12.4545C96.4124 12.2197 96.8764 12.1023 97.3935 12.1023C97.9067 12.1023 98.3688 12.2197 98.7798 12.4545C99.1927 12.6875 99.5185 13.0265 99.7571 13.4716C99.9976 13.9167 100.118 14.4564 100.118 15.0909ZM98.8707 15.0909C98.8707 14.6799 98.8092 14.3333 98.6861 14.0511C98.5649 13.7689 98.3935 13.5549 98.1719 13.4091C97.9503 13.2633 97.6908 13.1903 97.3935 13.1903C97.0961 13.1903 96.8366 13.2633 96.6151 13.4091C96.3935 13.5549 96.2211 13.7689 96.098 14.0511C95.9768 14.3333 95.9162 14.6799 95.9162 15.0909C95.9162 15.5019 95.9768 15.8485 96.098 16.1307C96.2211 16.4129 96.3935 16.6269 96.6151 16.7727C96.8366 16.9186 97.0961 16.9915 97.3935 16.9915C97.6908 16.9915 97.9503 16.9186 98.1719 16.7727C98.3935 16.6269 98.5649 16.4129 98.6861 16.1307C98.8092 15.8485 98.8707 15.5019 98.8707 15.0909ZM100.714 19.4034V17.0199H101.109C101.243 16.9233 101.366 16.7869 101.478 16.6108C101.59 16.4328 101.685 16.1875 101.765 15.875C101.844 15.5606 101.901 15.1496 101.935 14.642L102.1 12.1818H105.95V17.0199H106.586V19.3977H105.404V18H101.896V19.4034H100.714ZM102.529 17.0199H104.768V13.196H103.208L103.117 14.642C103.093 15.0265 103.052 15.3674 102.995 15.6648C102.94 15.9621 102.873 16.2225 102.793 16.446C102.716 16.6676 102.628 16.8589 102.529 17.0199ZM107.334 18V12.1818H111.254V13.196H108.564V14.5824H111.053V15.5966H108.564V16.9858H111.266V18H107.334ZM112.232 18V12.1818H114.528C114.969 12.1818 115.345 12.2661 115.656 12.4347C115.966 12.6013 116.203 12.8333 116.366 13.1307C116.531 13.4261 116.613 13.767 116.613 14.1534C116.613 14.5398 116.53 14.8807 116.363 15.1761C116.196 15.4716 115.955 15.7017 115.638 15.8665C115.324 16.0312 114.943 16.1136 114.496 16.1136H113.033V15.1278H114.298C114.534 15.1278 114.729 15.0871 114.883 15.0057C115.038 14.9223 115.154 14.8078 115.229 14.6619C115.307 14.5142 115.346 14.3447 115.346 14.1534C115.346 13.9602 115.307 13.7917 115.229 13.6477C115.154 13.5019 115.038 13.3892 114.883 13.3097C114.728 13.2282 114.531 13.1875 114.292 13.1875H113.462V18H112.232ZM117.743 18H116.425L118.433 12.1818H120.018L122.024 18H120.706L119.249 13.5114H119.203L117.743 18ZM117.661 15.7131H120.774V16.6733H117.661V15.7131ZM121.792 13.196V12.1818H126.57V13.196H124.789V18H123.573V13.196H121.792ZM132.438 15.0909C132.438 15.7254 132.318 16.2652 132.077 16.7102C131.839 17.1553 131.513 17.4953 131.1 17.7301C130.689 17.9631 130.227 18.0795 129.714 18.0795C129.197 18.0795 128.733 17.9621 128.322 17.7273C127.911 17.4924 127.586 17.1525 127.347 16.7074C127.109 16.2623 126.989 15.7235 126.989 15.0909C126.989 14.4564 127.109 13.9167 127.347 13.4716C127.586 13.0265 127.911 12.6875 128.322 12.4545C128.733 12.2197 129.197 12.1023 129.714 12.1023C130.227 12.1023 130.689 12.2197 131.1 12.4545C131.513 12.6875 131.839 13.0265 132.077 13.4716C132.318 13.9167 132.438 14.4564 132.438 15.0909ZM131.191 15.0909C131.191 14.6799 131.129 14.3333 131.006 14.0511C130.885 13.7689 130.714 13.5549 130.492 13.4091C130.271 13.2633 130.011 13.1903 129.714 13.1903C129.416 13.1903 129.157 13.2633 128.935 13.4091C128.714 13.5549 128.541 13.7689 128.418 14.0511C128.297 14.3333 128.237 14.6799 128.237 15.0909C128.237 15.5019 128.297 15.8485 128.418 16.1307C128.541 16.4129 128.714 16.6269 128.935 16.7727C129.157 16.9186 129.416 16.9915 129.714 16.9915C130.011 16.9915 130.271 16.9186 130.492 16.7727C130.714 16.6269 130.885 16.4129 131.006 16.1307C131.129 15.8485 131.191 15.5019 131.191 15.0909ZM133.349 18V12.1818H135.645C136.086 12.1818 136.462 12.2661 136.773 12.4347C137.083 12.6013 137.32 12.8333 137.483 13.1307C137.648 13.4261 137.73 13.767 137.73 14.1534C137.73 14.5398 137.647 14.8807 137.48 15.1761C137.313 15.4716 137.072 15.7017 136.756 15.8665C136.441 16.0312 136.061 16.1136 135.614 16.1136H134.151V15.1278H135.415C135.652 15.1278 135.847 15.0871 136 15.0057C136.155 14.9223 136.271 14.8078 136.347 14.6619C136.424 14.5142 136.463 14.3447 136.463 14.1534C136.463 13.9602 136.424 13.7917 136.347 13.6477C136.271 13.5019 136.155 13.3892 136 13.3097C135.845 13.2282 135.648 13.1875 135.409 13.1875H134.58V18H133.349ZM138.86 18H137.542L139.55 12.1818H141.136L143.141 18H141.823L140.366 13.5114H140.32L138.86 18ZM138.778 15.7131H141.891V16.6733H138.778V15.7131Z" fill="white"/>
<defs>
<linearGradient id="paint0_linear_2051_31" x1="0" y1="29" x2="154.467" y2="-2.60381" gradientUnits="userSpaceOnUse">
<stop stop-color="#826B11"/>
<stop offset="1" stop-color="#F1C40F"/>
</linearGradient>
</defs>
</svg>
