<svg width="155" height="29" viewBox="0 0 155 29" fill="none" xmlns="http://www.w3.org/2000/svg">
<path d="M0 7C0 3.13401 3.13401 0 7 0H150C152.761 0 155 2.23858 155 5V11C155 20.9411 146.941 29 137 29H7C3.13401 29 0 25.866 0 22V7Z" fill="url(#paint0_linear_1933_96)"/>
<path d="M85.9804 16.403L77.0231 24L68 16.403L70.8516 6M79.6577 12.292L83.1155 6.06844M83.1679 6.06844L86 16.3346M70.8979 6L74.3557 12.2236M74.3886 12.2965H79.6577" stroke="white" stroke-opacity="0.1" stroke-width="2" stroke-linecap="round" stroke-linejoin="round"/>
<path d="M40.5085 18H39.1903L41.1989 12.1818H42.7841L44.7898 18H43.4716L42.0142 13.5114H41.9688L40.5085 18ZM40.4261 15.7131H43.5398V16.6733H40.4261V15.7131ZM45.1747 19.4034V17.0199H45.5696C45.7041 16.9233 45.8272 16.7869 45.9389 16.6108C46.0507 16.4328 46.1463 16.1875 46.2259 15.875C46.3054 15.5606 46.3622 15.1496 46.3963 14.642L46.5611 12.1818H50.4105V17.0199H51.0469V19.3977H49.8651V18H46.3565V19.4034H45.1747ZM46.9901 17.0199H49.2287V13.196H47.669L47.5781 14.642C47.5535 15.0265 47.5128 15.3674 47.456 15.6648C47.401 15.9621 47.3338 16.2225 47.2543 16.446C47.1766 16.6676 47.0885 16.8589 46.9901 17.0199ZM51.7947 12.1818H53.3118L54.9141 16.0909H54.9822L56.5845 12.1818H58.1016V18H56.9084V14.2131H56.8601L55.3544 17.9716H54.5419L53.0362 14.1989H52.9879V18H51.7947V12.1818ZM59.1151 12.1818H60.3423V15.8409H60.3906L62.9048 12.1818H63.9815V18H62.7514V14.3381H62.7088L60.1804 18H59.1151V12.1818ZM64.9979 18V12.1818H66.228V14.5824H68.7251V12.1818H69.9524V18H68.7251V15.5966H66.228V18H64.9979ZM70.9666 12.1818H72.1939V15.8409H72.2422L74.7564 12.1818H75.8331V18H74.603V14.3381H74.5604L72.032 18H70.9666V12.1818ZM81.983 14.2188H80.7386C80.7159 14.0578 80.6695 13.9148 80.5994 13.7898C80.5294 13.6629 80.4394 13.5549 80.3295 13.4659C80.2197 13.3769 80.0928 13.3087 79.9489 13.2614C79.8068 13.214 79.6525 13.1903 79.4858 13.1903C79.1847 13.1903 78.9223 13.2652 78.6989 13.4148C78.4754 13.5625 78.3021 13.7784 78.179 14.0625C78.0559 14.3447 77.9943 14.6875 77.9943 15.0909C77.9943 15.5057 78.0559 15.8542 78.179 16.1364C78.304 16.4186 78.4782 16.6316 78.7017 16.7756C78.9252 16.9195 79.1837 16.9915 79.4773 16.9915C79.642 16.9915 79.7945 16.9697 79.9347 16.9261C80.0767 16.8826 80.2027 16.8191 80.3125 16.7358C80.4223 16.6506 80.5133 16.5473 80.5852 16.4261C80.6591 16.3049 80.7102 16.1667 80.7386 16.0114L81.983 16.017C81.9508 16.2841 81.8703 16.5417 81.7415 16.7898C81.6146 17.036 81.4432 17.2566 81.2273 17.4517C81.0133 17.6449 80.7576 17.7983 80.4602 17.9119C80.1648 18.0237 79.8305 18.0795 79.4574 18.0795C78.9384 18.0795 78.4744 17.9621 78.0653 17.7273C77.6581 17.4924 77.3362 17.1525 77.0994 16.7074C76.8646 16.2623 76.7472 15.7235 76.7472 15.0909C76.7472 14.4564 76.8665 13.9167 77.1051 13.4716C77.3438 13.0265 77.6676 12.6875 78.0767 12.4545C78.4858 12.2197 78.946 12.1023 79.4574 12.1023C79.7945 12.1023 80.107 12.1496 80.3949 12.2443C80.6847 12.339 80.9413 12.4773 81.1648 12.6591C81.3883 12.839 81.5701 13.0597 81.7102 13.321C81.8523 13.5824 81.9432 13.8816 81.983 14.2188ZM82.6435 13.196V12.1818H87.4219V13.196H85.6406V18H84.4247V13.196H82.6435ZM88.2088 18V12.1818H90.5043C90.9455 12.1818 91.3215 12.2661 91.6321 12.4347C91.9427 12.6013 92.1795 12.8333 92.3423 13.1307C92.5071 13.4261 92.5895 13.767 92.5895 14.1534C92.5895 14.5398 92.5062 14.8807 92.3395 15.1761C92.1728 15.4716 91.9313 15.7017 91.6151 15.8665C91.3007 16.0312 90.92 16.1136 90.473 16.1136H89.0099V15.1278H90.2741C90.5109 15.1278 90.706 15.0871 90.8594 15.0057C91.0147 14.9223 91.1302 14.8078 91.206 14.6619C91.2836 14.5142 91.3224 14.3447 91.3224 14.1534C91.3224 13.9602 91.2836 13.7917 91.206 13.6477C91.1302 13.5019 91.0147 13.3892 90.8594 13.3097C90.7041 13.2282 90.5071 13.1875 90.2685 13.1875H89.4389V18H88.2088ZM93.7195 18H92.4013L94.4098 12.1818H95.995L98.0007 18H96.6825L95.2251 13.5114H95.1797L93.7195 18ZM93.6371 15.7131H96.7507V16.6733H93.6371V15.7131ZM104.306 17.017L104.235 19.375H103.065V18H102.656V17.017H104.306ZM98.701 18V12.1818H99.8828V17.0114H102.303V12.1818H103.499V18H98.701ZM105.053 12.1818H106.28V15.8409H106.328L108.842 12.1818H109.919V18H108.689V14.3381H108.646L106.118 18H105.053V12.1818ZM115.401 18H114.174V13.1875H113.344C113.108 13.1875 112.911 13.2225 112.754 13.2926C112.598 13.3608 112.482 13.4612 112.404 13.5938C112.326 13.7263 112.288 13.8892 112.288 14.0824C112.288 14.2737 112.326 14.4337 112.404 14.5625C112.482 14.6913 112.598 14.7879 112.754 14.8523C112.909 14.9167 113.104 14.9489 113.339 14.9489H114.674V15.9375H113.14C112.695 15.9375 112.314 15.8636 111.998 15.7159C111.682 15.5682 111.44 15.3561 111.273 15.0795C111.107 14.8011 111.023 14.4687 111.023 14.0824C111.023 13.6979 111.105 13.3636 111.268 13.0795C111.433 12.7936 111.67 12.5729 111.981 12.4176C112.293 12.2604 112.669 12.1818 113.109 12.1818H115.401V18ZM112.262 15.3523H113.589L112.174 18H110.816L112.262 15.3523Z" fill="white"/>
<defs>
<linearGradient id="paint0_linear_1933_96" x1="0" y1="29" x2="154.467" y2="-2.60381" gradientUnits="userSpaceOnUse">
<stop stop-color="#570707"/>
<stop offset="1" stop-color="#F11111"/>
</linearGradient>
</defs>
</svg>
