<svg width="155" height="29" viewBox="0 0 155 29" fill="none" xmlns="http://www.w3.org/2000/svg">
<path d="M0 7C0 3.13401 3.13401 0 7 0H150C152.761 0 155 2.23858 155 5V11C155 20.9411 146.941 29 137 29H7C3.13401 29 0 25.866 0 22V7Z" fill="url(#paint0_linear_2051_23)"/>
<path d="M85.9804 16.403L77.0231 24L68 16.403L70.8516 6M79.6577 12.292L83.1155 6.06844M83.1679 6.06844L86 16.3346M70.8979 6L74.3557 12.2236M74.3886 12.2965H79.6577" stroke="white" stroke-opacity="0.1" stroke-width="2" stroke-linecap="round" stroke-linejoin="round"/>
<path d="M18.5057 12.1818H19.733V15.8409H19.7812L22.2955 12.1818H23.3722V18H22.142V14.3381H22.0994L19.571 18H18.5057V12.1818ZM28.2493 12.1818V13.196H25.6186V18H24.3885V12.1818H28.2493ZM29.0369 18V12.1818H31.3324C31.7737 12.1818 32.1496 12.2661 32.4602 12.4347C32.7708 12.6013 33.0076 12.8333 33.1705 13.1307C33.3352 13.4261 33.4176 13.767 33.4176 14.1534C33.4176 14.5398 33.3343 14.8807 33.1676 15.1761C33.0009 15.4716 32.7595 15.7017 32.4432 15.8665C32.1288 16.0312 31.7481 16.1136 31.3011 16.1136H29.8381V15.1278H31.1023C31.339 15.1278 31.5341 15.0871 31.6875 15.0057C31.8428 14.9223 31.9583 14.8078 32.0341 14.6619C32.1117 14.5142 32.1506 14.3447 32.1506 14.1534C32.1506 13.9602 32.1117 13.7917 32.0341 13.6477C31.9583 13.5019 31.8428 13.3892 31.6875 13.3097C31.5322 13.2282 31.3352 13.1875 31.0966 13.1875H30.267V18H29.0369ZM39.5632 15.0909C39.5632 15.7254 39.4429 16.2652 39.2024 16.7102C38.9638 17.1553 38.638 17.4953 38.2251 17.7301C37.8142 17.9631 37.352 18.0795 36.8388 18.0795C36.3217 18.0795 35.8577 17.9621 35.4467 17.7273C35.0357 17.4924 34.7109 17.1525 34.4723 16.7074C34.2337 16.2623 34.1143 15.7235 34.1143 15.0909C34.1143 14.4564 34.2337 13.9167 34.4723 13.4716C34.7109 13.0265 35.0357 12.6875 35.4467 12.4545C35.8577 12.2197 36.3217 12.1023 36.8388 12.1023C37.352 12.1023 37.8142 12.2197 38.2251 12.4545C38.638 12.6875 38.9638 13.0265 39.2024 13.4716C39.4429 13.9167 39.5632 14.4564 39.5632 15.0909ZM38.3161 15.0909C38.3161 14.6799 38.2545 14.3333 38.1314 14.0511C38.0102 13.7689 37.8388 13.5549 37.6172 13.4091C37.3956 13.2633 37.1361 13.1903 36.8388 13.1903C36.5414 13.1903 36.282 13.2633 36.0604 13.4091C35.8388 13.5549 35.6664 13.7689 35.5433 14.0511C35.4221 14.3333 35.3615 14.6799 35.3615 15.0909C35.3615 15.5019 35.4221 15.8485 35.5433 16.1307C35.6664 16.4129 35.8388 16.6269 36.0604 16.7727C36.282 16.9186 36.5414 16.9915 36.8388 16.9915C37.1361 16.9915 37.3956 16.9186 37.6172 16.7727C37.8388 16.6269 38.0102 16.4129 38.1314 16.1307C38.2545 15.8485 38.3161 15.5019 38.3161 15.0909ZM40.4744 18V12.1818H42.804C43.232 12.1818 43.589 12.2453 43.875 12.3722C44.161 12.4991 44.3759 12.6752 44.5199 12.9006C44.6638 13.1241 44.7358 13.3816 44.7358 13.6733C44.7358 13.9006 44.6903 14.1004 44.5994 14.2727C44.5085 14.4432 44.3835 14.5833 44.2244 14.6932C44.0672 14.8011 43.8873 14.8778 43.6847 14.9233V14.9801C43.9063 14.9896 44.1136 15.0521 44.3068 15.1676C44.5019 15.2831 44.66 15.4451 44.7812 15.6534C44.9025 15.8598 44.9631 16.1061 44.9631 16.392C44.9631 16.7008 44.8864 16.9763 44.733 17.2188C44.5814 17.4593 44.357 17.6496 44.0597 17.7898C43.7623 17.9299 43.3958 18 42.9602 18H40.4744ZM41.7045 16.9943H42.7074C43.0502 16.9943 43.3002 16.929 43.4574 16.7983C43.6146 16.6657 43.6932 16.4896 43.6932 16.2699C43.6932 16.1089 43.6544 15.9669 43.5767 15.8438C43.4991 15.7206 43.3883 15.6241 43.2443 15.554C43.1023 15.4839 42.9328 15.4489 42.7358 15.4489H41.7045V16.9943ZM41.7045 14.6165H42.6165C42.785 14.6165 42.9347 14.5871 43.0653 14.5284C43.1979 14.4678 43.3021 14.3826 43.3778 14.2727C43.4555 14.1629 43.4943 14.0312 43.4943 13.8778C43.4943 13.6676 43.4195 13.4981 43.2699 13.3693C43.1222 13.2405 42.9119 13.1761 42.6392 13.1761H41.7045V14.6165ZM46.7663 18H45.4482L47.4567 12.1818H49.0419L51.0476 18H49.7294L48.272 13.5114H48.2266L46.7663 18ZM46.6839 15.7131H49.7976V16.6733H46.6839V15.7131ZM56.2138 18H54.9865V13.1875H54.157C53.9202 13.1875 53.7232 13.2225 53.5661 13.2926C53.4107 13.3608 53.2943 13.4612 53.2166 13.5938C53.139 13.7263 53.1001 13.8892 53.1001 14.0824C53.1001 14.2737 53.139 14.4337 53.2166 14.5625C53.2943 14.6913 53.4107 14.7879 53.5661 14.8523C53.7214 14.9167 53.9164 14.9489 54.1513 14.9489H55.4865V15.9375H53.9524C53.5073 15.9375 53.1267 15.8636 52.8104 15.7159C52.4941 15.5682 52.2526 15.3561 52.0859 15.0795C51.9193 14.8011 51.8359 14.4687 51.8359 14.0824C51.8359 13.6979 51.9174 13.3636 52.0803 13.0795C52.245 12.7936 52.4827 12.5729 52.7933 12.4176C53.1058 12.2604 53.4818 12.1818 53.9212 12.1818H56.2138V18ZM53.0746 15.3523H54.4013L52.9865 18H51.6286L53.0746 15.3523ZM60.0788 18H58.7607L60.7692 12.1818H62.3544L64.3601 18H63.0419L61.5845 13.5114H61.5391L60.0788 18ZM59.9964 15.7131H63.1101V16.6733H59.9964V15.7131ZM64.745 19.4034V17.0199H65.1399C65.2744 16.9233 65.3975 16.7869 65.5092 16.6108C65.621 16.4328 65.7166 16.1875 65.7962 15.875C65.8757 15.5606 65.9325 15.1496 65.9666 14.642L66.1314 12.1818H69.9808V17.0199H70.6172V19.3977H69.4354V18H65.9268V19.4034H64.745ZM66.5604 17.0199H68.799V13.196H67.2393L67.1484 14.642C67.1238 15.0265 67.0831 15.3674 67.0263 15.6648C66.9714 15.9621 66.9041 16.2225 66.8246 16.446C66.7469 16.6676 66.6589 16.8589 66.5604 17.0199ZM71.3651 12.1818H72.8821L74.4844 16.0909H74.5526L76.1548 12.1818H77.6719V18H76.4787V14.2131H76.4304L74.9247 17.9716H74.1122L72.6065 14.1989H72.5582V18H71.3651V12.1818ZM78.6854 12.1818H79.9126V15.8409H79.9609L82.4751 12.1818H83.5518V18H82.3217V14.3381H82.2791L79.7507 18H78.6854V12.1818ZM84.5682 18V12.1818H85.7983V14.5824H88.2955V12.1818H89.5227V18H88.2955V15.5966H85.7983V18H84.5682ZM90.5369 12.1818H91.7642V15.8409H91.8125L94.3267 12.1818H95.4034V18H94.1733V14.3381H94.1307L91.6023 18H90.5369V12.1818ZM101.553 14.2188H100.309C100.286 14.0578 100.24 13.9148 100.17 13.7898C100.1 13.6629 100.01 13.5549 99.8999 13.4659C99.79 13.3769 99.6631 13.3087 99.5192 13.2614C99.3771 13.214 99.2228 13.1903 99.0561 13.1903C98.755 13.1903 98.4927 13.2652 98.2692 13.4148C98.0457 13.5625 97.8724 13.7784 97.7493 14.0625C97.6262 14.3447 97.5646 14.6875 97.5646 15.0909C97.5646 15.5057 97.6262 15.8542 97.7493 16.1364C97.8743 16.4186 98.0485 16.6316 98.272 16.7756C98.4955 16.9195 98.754 16.9915 99.0476 16.9915C99.2124 16.9915 99.3648 16.9697 99.505 16.9261C99.647 16.8826 99.773 16.8191 99.8828 16.7358C99.9927 16.6506 100.084 16.5473 100.156 16.4261C100.229 16.3049 100.281 16.1667 100.309 16.0114L101.553 16.017C101.521 16.2841 101.441 16.5417 101.312 16.7898C101.185 17.036 101.013 17.2566 100.798 17.4517C100.584 17.6449 100.328 17.7983 100.031 17.9119C99.7351 18.0237 99.4008 18.0795 99.0277 18.0795C98.5088 18.0795 98.0447 17.9621 97.6357 17.7273C97.2285 17.4924 96.9065 17.1525 96.6697 16.7074C96.4349 16.2623 96.3175 15.7235 96.3175 15.0909C96.3175 14.4564 96.4368 13.9167 96.6754 13.4716C96.9141 13.0265 97.2379 12.6875 97.647 12.4545C98.0561 12.2197 98.5163 12.1023 99.0277 12.1023C99.3648 12.1023 99.6773 12.1496 99.9652 12.2443C100.255 12.339 100.512 12.4773 100.735 12.6591C100.959 12.839 101.14 13.0597 101.281 13.321C101.423 13.5824 101.513 13.8816 101.553 14.2188ZM102.214 13.196V12.1818H106.992V13.196H105.211V18H103.995V13.196H102.214ZM107.779 18V12.1818H110.075C110.516 12.1818 110.892 12.2661 111.202 12.4347C111.513 12.6013 111.75 12.8333 111.913 13.1307C112.077 13.4261 112.16 13.767 112.16 14.1534C112.16 14.5398 112.076 14.8807 111.91 15.1761C111.743 15.4716 111.502 15.7017 111.185 15.8665C110.871 16.0312 110.49 16.1136 110.043 16.1136H108.58V15.1278H109.844C110.081 15.1278 110.276 15.0871 110.43 15.0057C110.585 14.9223 110.701 14.8078 110.776 14.6619C110.854 14.5142 110.893 14.3447 110.893 14.1534C110.893 13.9602 110.854 13.7917 110.776 13.6477C110.701 13.5019 110.585 13.3892 110.43 13.3097C110.274 13.2282 110.077 13.1875 109.839 13.1875H109.009V18H107.779ZM113.29 18H111.972L113.98 12.1818H115.565L117.571 18H116.253L114.795 13.5114H114.75L113.29 18ZM113.207 15.7131H116.321V16.6733H113.207V15.7131ZM123.876 17.017L123.805 19.375H122.635V18H122.226V17.017H123.876ZM118.271 18V12.1818H119.453V17.0114H121.874V12.1818H123.07V18H118.271ZM124.623 12.1818H125.85V15.8409H125.898L128.413 12.1818H129.489V18H128.259V14.3381H128.217L125.688 18H124.623V12.1818ZM134.972 18H133.744V13.1875H132.915C132.678 13.1875 132.481 13.2225 132.324 13.2926C132.169 13.3608 132.052 13.4612 131.974 13.5938C131.897 13.7263 131.858 13.8892 131.858 14.0824C131.858 14.2737 131.897 14.4337 131.974 14.5625C132.052 14.6913 132.169 14.7879 132.324 14.8523C132.479 14.9167 132.674 14.9489 132.909 14.9489H134.244V15.9375H132.71C132.265 15.9375 131.884 15.8636 131.568 15.7159C131.252 15.5682 131.01 15.3561 130.844 15.0795C130.677 14.8011 130.594 14.4687 130.594 14.0824C130.594 13.6979 130.675 13.3636 130.838 13.0795C131.003 12.7936 131.241 12.5729 131.551 12.4176C131.864 12.2604 132.24 12.1818 132.679 12.1818H134.972V18ZM131.832 15.3523H133.159L131.744 18H130.386L131.832 15.3523Z" fill="white"/>
<defs>
<linearGradient id="paint0_linear_2051_23" x1="0" y1="29" x2="154.467" y2="-2.60381" gradientUnits="userSpaceOnUse">
<stop stop-color="#07521C"/>
<stop offset="0.835" stop-color="#11F150"/>
</linearGradient>
</defs>
</svg>
