<svg width="155" height="29" viewBox="0 0 155 29" fill="none" xmlns="http://www.w3.org/2000/svg">
<path d="M0 7C0 3.13401 3.13401 0 7 0H150C152.761 0 155 2.23858 155 5V11C155 20.9411 146.941 29 137 29H7C3.13401 29 0 25.866 0 22V7Z" fill="url(#paint0_linear_2051_51)"/>
<path d="M85.9804 16.403L77.0231 24L68 16.403L70.8516 6M79.6577 12.292L83.1155 6.06844M83.1679 6.06844L86 16.3346M70.8979 6L74.3557 12.2236M74.3886 12.2965H79.6577" stroke="white" stroke-opacity="0.1" stroke-width="2" stroke-linecap="round" stroke-linejoin="round"/>
<path d="M37.6392 14.2188H36.3949C36.3722 14.0578 36.3258 13.9148 36.2557 13.7898C36.1856 13.6629 36.0956 13.5549 35.9858 13.4659C35.8759 13.3769 35.7491 13.3087 35.6051 13.2614C35.4631 13.214 35.3087 13.1903 35.142 13.1903C34.8409 13.1903 34.5786 13.2652 34.3551 13.4148C34.1316 13.5625 33.9583 13.7784 33.8352 14.0625C33.7121 14.3447 33.6506 14.6875 33.6506 15.0909C33.6506 15.5057 33.7121 15.8542 33.8352 16.1364C33.9602 16.4186 34.1345 16.6316 34.358 16.7756C34.5814 16.9195 34.84 16.9915 35.1335 16.9915C35.2983 16.9915 35.4508 16.9697 35.5909 16.9261C35.733 16.8826 35.8589 16.8191 35.9688 16.7358C36.0786 16.6506 36.1695 16.5473 36.2415 16.4261C36.3153 16.3049 36.3665 16.1667 36.3949 16.0114L37.6392 16.017C37.607 16.2841 37.5265 16.5417 37.3977 16.7898C37.2708 17.036 37.0994 17.2566 36.8835 17.4517C36.6695 17.6449 36.4138 17.7983 36.1165 17.9119C35.821 18.0237 35.4867 18.0795 35.1136 18.0795C34.5947 18.0795 34.1307 17.9621 33.7216 17.7273C33.3144 17.4924 32.9924 17.1525 32.7557 16.7074C32.5208 16.2623 32.4034 15.7235 32.4034 15.0909C32.4034 14.4564 32.5227 13.9167 32.7614 13.4716C33 13.0265 33.3239 12.6875 33.733 12.4545C34.142 12.2197 34.6023 12.1023 35.1136 12.1023C35.4508 12.1023 35.7633 12.1496 36.0511 12.2443C36.3409 12.339 36.5975 12.4773 36.821 12.6591C37.0445 12.839 37.2263 13.0597 37.3665 13.321C37.5085 13.5824 37.5994 13.8816 37.6392 14.2188ZM38.2997 13.196V12.1818H43.0781V13.196H41.2969V18H40.081V13.196H38.2997ZM44.157 18H42.8388L44.8473 12.1818H46.4325L48.4382 18H47.12L45.6626 13.5114H45.6172L44.157 18ZM44.0746 15.7131H47.1882V16.6733H44.0746V15.7131ZM53.5703 12.1818V18H52.3771V12.1818H53.5703ZM48.8629 18L50.6868 14.9318L48.9396 12.1818H50.4538L51.7607 14.5767H54.218L55.4908 12.1818H56.9993L55.2947 14.9233L57.0845 18H55.6158L54.3857 15.7131H51.5817L50.3203 18H48.8629ZM57.8182 18V12.1818H61.7386V13.196H59.0483V14.5824H61.5369V15.5966H59.0483V16.9858H61.75V18H57.8182ZM58.9205 11.5852C58.7576 11.5852 58.6174 11.5284 58.5 11.4148C58.3826 11.2992 58.3239 11.1629 58.3239 11.0057C58.3239 10.8447 58.3826 10.7083 58.5 10.5966C58.6174 10.4848 58.7576 10.429 58.9205 10.429C59.0852 10.429 59.2244 10.4848 59.3381 10.5966C59.4536 10.7083 59.5114 10.8447 59.5114 11.0057C59.5114 11.1629 59.4536 11.2992 59.3381 11.4148C59.2244 11.5284 59.0852 11.5852 58.9205 11.5852ZM60.6591 11.5852C60.4962 11.5852 60.3561 11.5284 60.2386 11.4148C60.1212 11.2992 60.0625 11.1629 60.0625 11.0057C60.0625 10.8447 60.1212 10.7083 60.2386 10.5966C60.3561 10.4848 60.4962 10.429 60.6591 10.429C60.8239 10.429 60.9631 10.4848 61.0767 10.5966C61.1922 10.7083 61.25 10.8447 61.25 11.0057C61.25 11.1629 61.1922 11.2992 61.0767 11.4148C60.9631 11.5284 60.8239 11.5852 60.6591 11.5852ZM62.7166 18V12.1818H65.0121C65.4534 12.1818 65.8293 12.2661 66.1399 12.4347C66.4505 12.6013 66.6873 12.8333 66.8501 13.1307C67.0149 13.4261 67.0973 13.767 67.0973 14.1534C67.0973 14.5398 67.014 14.8807 66.8473 15.1761C66.6806 15.4716 66.4392 15.7017 66.1229 15.8665C65.8085 16.0312 65.4278 16.1136 64.9808 16.1136H63.5178V15.1278H64.782C65.0187 15.1278 65.2138 15.0871 65.3672 15.0057C65.5225 14.9223 65.638 14.8078 65.7138 14.6619C65.7914 14.5142 65.8303 14.3447 65.8303 14.1534C65.8303 13.9602 65.7914 13.7917 65.7138 13.6477C65.638 13.5019 65.5225 13.3892 65.3672 13.3097C65.2119 13.2282 65.0149 13.1875 64.7763 13.1875H63.9467V18H62.7166ZM69.7479 12.1818H71.2649L72.8672 16.0909H72.9354L74.5376 12.1818H76.0547V18H74.8615V14.2131H74.8132L73.3075 17.9716H72.495L70.9893 14.1989H70.9411V18H69.7479V12.1818ZM82.4148 15.0909C82.4148 15.7254 82.2945 16.2652 82.054 16.7102C81.8153 17.1553 81.4896 17.4953 81.0767 17.7301C80.6657 17.9631 80.2036 18.0795 79.6903 18.0795C79.1733 18.0795 78.7093 17.9621 78.2983 17.7273C77.8873 17.4924 77.5625 17.1525 77.3239 16.7074C77.0852 16.2623 76.9659 15.7235 76.9659 15.0909C76.9659 14.4564 77.0852 13.9167 77.3239 13.4716C77.5625 13.0265 77.8873 12.6875 78.2983 12.4545C78.7093 12.2197 79.1733 12.1023 79.6903 12.1023C80.2036 12.1023 80.6657 12.2197 81.0767 12.4545C81.4896 12.6875 81.8153 13.0265 82.054 13.4716C82.2945 13.9167 82.4148 14.4564 82.4148 15.0909ZM81.1676 15.0909C81.1676 14.6799 81.1061 14.3333 80.983 14.0511C80.8617 13.7689 80.6903 13.5549 80.4688 13.4091C80.2472 13.2633 79.9877 13.1903 79.6903 13.1903C79.393 13.1903 79.1335 13.2633 78.9119 13.4091C78.6903 13.5549 78.518 13.7689 78.3949 14.0511C78.2737 14.3333 78.2131 14.6799 78.2131 15.0909C78.2131 15.5019 78.2737 15.8485 78.3949 16.1307C78.518 16.4129 78.6903 16.6269 78.9119 16.7727C79.1335 16.9186 79.393 16.9915 79.6903 16.9915C79.9877 16.9915 80.2472 16.9186 80.4688 16.7727C80.6903 16.6269 80.8617 16.4129 80.983 16.1307C81.1061 15.8485 81.1676 15.5019 81.1676 15.0909ZM83.0107 19.4034V17.0199H83.4055C83.54 16.9233 83.6631 16.7869 83.7749 16.6108C83.8866 16.4328 83.9822 16.1875 84.0618 15.875C84.1413 15.5606 84.1982 15.1496 84.2322 14.642L84.397 12.1818H88.2464V17.0199H88.8828V19.3977H87.701V18H84.1925V19.4034H83.0107ZM84.826 17.0199H87.0646V13.196H85.505L85.4141 14.642C85.3894 15.0265 85.3487 15.3674 85.2919 15.6648C85.237 15.9621 85.1697 16.2225 85.0902 16.446C85.0125 16.6676 84.9245 16.8589 84.826 17.0199ZM89.6307 18V12.1818H93.5511V13.196H90.8608V14.5824H93.3494V15.5966H90.8608V16.9858H93.5625V18H89.6307ZM94.5291 18V12.1818H96.8246C97.2659 12.1818 97.6418 12.2661 97.9524 12.4347C98.263 12.6013 98.4998 12.8333 98.6626 13.1307C98.8274 13.4261 98.9098 13.767 98.9098 14.1534C98.9098 14.5398 98.8265 14.8807 98.6598 15.1761C98.4931 15.4716 98.2517 15.7017 97.9354 15.8665C97.621 16.0312 97.2403 16.1136 96.7933 16.1136H95.3303V15.1278H96.5945C96.8312 15.1278 97.0263 15.0871 97.1797 15.0057C97.335 14.9223 97.4505 14.8078 97.5263 14.6619C97.6039 14.5142 97.6428 14.3447 97.6428 14.1534C97.6428 13.9602 97.6039 13.7917 97.5263 13.6477C97.4505 13.5019 97.335 13.3892 97.1797 13.3097C97.0244 13.2282 96.8274 13.1875 96.5888 13.1875H95.7592V18H94.5291ZM100.04 18H98.7216L100.73 12.1818H102.315L104.321 18H103.003L101.545 13.5114H101.5L100.04 18ZM99.9574 15.7131H103.071V16.6733H99.9574V15.7131ZM110.626 17.017L110.555 19.375H109.385V18H108.976V17.017H110.626ZM105.021 18V12.1818H106.203V17.0114H108.624V12.1818H109.82V18H105.021ZM111.373 12.1818H112.6V15.8409H112.648L115.163 12.1818H116.239V18H115.009V14.3381H114.967L112.438 18H111.373V12.1818ZM117.256 12.1818H118.483V15.8409H118.531L121.045 12.1818H122.122V18H120.892V14.3381H120.849L118.321 18H117.256V12.1818Z" fill="white"/>
<defs>
<linearGradient id="paint0_linear_2051_51" x1="0" y1="29" x2="154.467" y2="-2.60381" gradientUnits="userSpaceOnUse">
<stop stop-color="#135333"/>
<stop offset="1" stop-color="#67F5AE" stop-opacity="0.803922"/>
</linearGradient>
</defs>
</svg>
