<svg width="155" height="29" viewBox="0 0 155 29" fill="none" xmlns="http://www.w3.org/2000/svg">
<path d="M0 7C0 3.13401 3.13401 0 7 0H150C152.761 0 155 2.23858 155 5V11C155 20.9411 146.941 29 137 29H7C3.13401 29 0 25.866 0 22V7Z" fill="url(#paint0_linear_2051_43)"/>
<path d="M85.9804 16.403L77.0231 24L68 16.403L70.8516 6M79.6577 12.292L83.1155 6.06844M83.1679 6.06844L86 16.3346M70.8979 6L74.3557 12.2236M74.3886 12.2965H79.6577" stroke="white" stroke-opacity="0.1" stroke-width="2" stroke-linecap="round" stroke-linejoin="round"/>
<path d="M35.6392 14.2188H34.3949C34.3722 14.0578 34.3258 13.9148 34.2557 13.7898C34.1856 13.6629 34.0956 13.5549 33.9858 13.4659C33.8759 13.3769 33.7491 13.3087 33.6051 13.2614C33.4631 13.214 33.3087 13.1903 33.142 13.1903C32.8409 13.1903 32.5786 13.2652 32.3551 13.4148C32.1316 13.5625 31.9583 13.7784 31.8352 14.0625C31.7121 14.3447 31.6506 14.6875 31.6506 15.0909C31.6506 15.5057 31.7121 15.8542 31.8352 16.1364C31.9602 16.4186 32.1345 16.6316 32.358 16.7756C32.5814 16.9195 32.84 16.9915 33.1335 16.9915C33.2983 16.9915 33.4508 16.9697 33.5909 16.9261C33.733 16.8826 33.8589 16.8191 33.9688 16.7358C34.0786 16.6506 34.1695 16.5473 34.2415 16.4261C34.3153 16.3049 34.3665 16.1667 34.3949 16.0114L35.6392 16.017C35.607 16.2841 35.5265 16.5417 35.3977 16.7898C35.2708 17.036 35.0994 17.2566 34.8835 17.4517C34.6695 17.6449 34.4138 17.7983 34.1165 17.9119C33.821 18.0237 33.4867 18.0795 33.1136 18.0795C32.5947 18.0795 32.1307 17.9621 31.7216 17.7273C31.3144 17.4924 30.9924 17.1525 30.7557 16.7074C30.5208 16.2623 30.4034 15.7235 30.4034 15.0909C30.4034 14.4564 30.5227 13.9167 30.7614 13.4716C31 13.0265 31.3239 12.6875 31.733 12.4545C32.142 12.2197 32.6023 12.1023 33.1136 12.1023C33.4508 12.1023 33.7633 12.1496 34.0511 12.2443C34.3409 12.339 34.5975 12.4773 34.821 12.6591C35.0445 12.839 35.2263 13.0597 35.3665 13.321C35.5085 13.5824 35.5994 13.8816 35.6392 14.2188ZM36.2997 13.196V12.1818H41.0781V13.196H39.2969V18H38.081V13.196H36.2997ZM42.157 18H40.8388L42.8473 12.1818H44.4325L46.4382 18H45.12L43.6626 13.5114H43.6172L42.157 18ZM42.0746 15.7131H45.1882V16.6733H42.0746V15.7131ZM47.1385 18V12.1818H49.4339C49.8752 12.1818 50.2512 12.2661 50.5618 12.4347C50.8724 12.6013 51.1091 12.8333 51.272 13.1307C51.4368 13.4261 51.5192 13.767 51.5192 14.1534C51.5192 14.5398 51.4358 14.8807 51.2692 15.1761C51.1025 15.4716 50.861 15.7017 50.5447 15.8665C50.2304 16.0312 49.8497 16.1136 49.4027 16.1136H47.9396V15.1278H49.2038C49.4406 15.1278 49.6357 15.0871 49.7891 15.0057C49.9444 14.9223 50.0599 14.8078 50.1357 14.6619C50.2133 14.5142 50.2521 14.3447 50.2521 14.1534C50.2521 13.9602 50.2133 13.7917 50.1357 13.6477C50.0599 13.5019 49.9444 13.3892 49.7891 13.3097C49.6338 13.2282 49.4368 13.1875 49.1982 13.1875H48.3686V18H47.1385ZM52.5511 12.1818H53.7528V17.0114H55.4233V12.1818H56.6193V17.0114H58.2699V12.1818H59.4659V18H52.5511V12.1818ZM60.7088 12.1818H61.9361V15.8409H61.9844L64.4986 12.1818H65.5753V18H64.3452V14.3381H64.3026L61.7741 18H60.7088V12.1818ZM66.5916 12.1818H67.8189V15.8409H67.8672L70.3814 12.1818H71.4581V18H70.228V14.3381H70.1854L67.657 18H66.5916V12.1818ZM69.5916 10.6591H70.4354C70.4335 11.0038 70.3056 11.2812 70.0518 11.4915C69.8 11.7017 69.459 11.8068 69.0291 11.8068C68.5973 11.8068 68.2554 11.7017 68.0036 11.4915C67.7517 11.2812 67.6257 11.0038 67.6257 10.6591H68.4638C68.4619 10.7898 68.5036 10.9072 68.5888 11.0114C68.6759 11.1155 68.8227 11.1676 69.0291 11.1676C69.2299 11.1676 69.3738 11.1165 69.4609 11.0142C69.5481 10.9119 69.5916 10.7936 69.5916 10.6591ZM74.326 12.1818H75.843L77.4453 16.0909H77.5135L79.1158 12.1818H80.6328V18H79.4396V14.2131H79.3913L77.8857 17.9716H77.0732L75.5675 14.1989H75.5192V18H74.326V12.1818ZM86.9929 15.0909C86.9929 15.7254 86.8726 16.2652 86.6321 16.7102C86.3935 17.1553 86.0677 17.4953 85.6548 17.7301C85.2438 17.9631 84.7817 18.0795 84.2685 18.0795C83.7514 18.0795 83.2874 17.9621 82.8764 17.7273C82.4654 17.4924 82.1406 17.1525 81.902 16.7074C81.6634 16.2623 81.544 15.7235 81.544 15.0909C81.544 14.4564 81.6634 13.9167 81.902 13.4716C82.1406 13.0265 82.4654 12.6875 82.8764 12.4545C83.2874 12.2197 83.7514 12.1023 84.2685 12.1023C84.7817 12.1023 85.2438 12.2197 85.6548 12.4545C86.0677 12.6875 86.3935 13.0265 86.6321 13.4716C86.8726 13.9167 86.9929 14.4564 86.9929 15.0909ZM85.7457 15.0909C85.7457 14.6799 85.6842 14.3333 85.5611 14.0511C85.4399 13.7689 85.2685 13.5549 85.0469 13.4091C84.8253 13.2633 84.5658 13.1903 84.2685 13.1903C83.9711 13.1903 83.7116 13.2633 83.4901 13.4091C83.2685 13.5549 83.0961 13.7689 82.973 14.0511C82.8518 14.3333 82.7912 14.6799 82.7912 15.0909C82.7912 15.5019 82.8518 15.8485 82.973 16.1307C83.0961 16.4129 83.2685 16.6269 83.4901 16.7727C83.7116 16.9186 83.9711 16.9915 84.2685 16.9915C84.5658 16.9915 84.8253 16.9186 85.0469 16.7727C85.2685 16.6269 85.4399 16.4129 85.5611 16.1307C85.6842 15.8485 85.7457 15.5019 85.7457 15.0909ZM87.5888 19.4034V17.0199H87.9837C88.1181 16.9233 88.2412 16.7869 88.353 16.6108C88.4647 16.4328 88.5604 16.1875 88.6399 15.875C88.7195 15.5606 88.7763 15.1496 88.8104 14.642L88.9751 12.1818H92.8246V17.0199H93.4609V19.3977H92.2791V18H88.7706V19.4034H87.5888ZM89.4041 17.0199H91.6428V13.196H90.0831L89.9922 14.642C89.9676 15.0265 89.9268 15.3674 89.87 15.6648C89.8151 15.9621 89.7479 16.2225 89.6683 16.446C89.5907 16.6676 89.5026 16.8589 89.4041 17.0199ZM94.2088 18V12.1818H98.1293V13.196H95.4389V14.5824H97.9276V15.5966H95.4389V16.9858H98.1406V18H94.2088ZM99.1072 18V12.1818H101.403C101.844 12.1818 102.22 12.2661 102.531 12.4347C102.841 12.6013 103.078 12.8333 103.241 13.1307C103.406 13.4261 103.488 13.767 103.488 14.1534C103.488 14.5398 103.405 14.8807 103.238 15.1761C103.071 15.4716 102.83 15.7017 102.513 15.8665C102.199 16.0312 101.818 16.1136 101.371 16.1136H99.9084V15.1278H101.173C101.409 15.1278 101.604 15.0871 101.758 15.0057C101.913 14.9223 102.029 14.8078 102.104 14.6619C102.182 14.5142 102.221 14.3447 102.221 14.1534C102.221 13.9602 102.182 13.7917 102.104 13.6477C102.029 13.5019 101.913 13.3892 101.758 13.3097C101.603 13.2282 101.406 13.1875 101.167 13.1875H100.337V18H99.1072ZM104.618 18H103.3L105.308 12.1818H106.893L108.899 18H107.581L106.124 13.5114H106.078L104.618 18ZM104.536 15.7131H107.649V16.6733H104.536V15.7131ZM108.667 13.196V12.1818H113.445V13.196H111.664V18H110.448V13.196H108.667ZM119.313 15.0909C119.313 15.7254 119.193 16.2652 118.952 16.7102C118.714 17.1553 118.388 17.4953 117.975 17.7301C117.564 17.9631 117.102 18.0795 116.589 18.0795C116.072 18.0795 115.608 17.9621 115.197 17.7273C114.786 17.4924 114.461 17.1525 114.222 16.7074C113.984 16.2623 113.864 15.7235 113.864 15.0909C113.864 14.4564 113.984 13.9167 114.222 13.4716C114.461 13.0265 114.786 12.6875 115.197 12.4545C115.608 12.2197 116.072 12.1023 116.589 12.1023C117.102 12.1023 117.564 12.2197 117.975 12.4545C118.388 12.6875 118.714 13.0265 118.952 13.4716C119.193 13.9167 119.313 14.4564 119.313 15.0909ZM118.066 15.0909C118.066 14.6799 118.004 14.3333 117.881 14.0511C117.76 13.7689 117.589 13.5549 117.367 13.4091C117.146 13.2633 116.886 13.1903 116.589 13.1903C116.291 13.1903 116.032 13.2633 115.81 13.4091C115.589 13.5549 115.416 13.7689 115.293 14.0511C115.172 14.3333 115.112 14.6799 115.112 15.0909C115.112 15.5019 115.172 15.8485 115.293 16.1307C115.416 16.4129 115.589 16.6269 115.81 16.7727C116.032 16.9186 116.291 16.9915 116.589 16.9915C116.886 16.9915 117.146 16.9186 117.367 16.7727C117.589 16.6269 117.76 16.4129 117.881 16.1307C118.004 15.8485 118.066 15.5019 118.066 15.0909ZM120.224 18V12.1818H122.52C122.961 12.1818 123.337 12.2661 123.648 12.4347C123.958 12.6013 124.195 12.8333 124.358 13.1307C124.523 13.4261 124.605 13.767 124.605 14.1534C124.605 14.5398 124.522 14.8807 124.355 15.1761C124.188 15.4716 123.947 15.7017 123.631 15.8665C123.316 16.0312 122.936 16.1136 122.489 16.1136H121.026V15.1278H122.29C122.527 15.1278 122.722 15.0871 122.875 15.0057C123.03 14.9223 123.146 14.8078 123.222 14.6619C123.299 14.5142 123.338 14.3447 123.338 14.1534C123.338 13.9602 123.299 13.7917 123.222 13.6477C123.146 13.5019 123.03 13.3892 122.875 13.3097C122.72 13.2282 122.523 13.1875 122.284 13.1875H121.455V18H120.224Z" fill="white"/>
<defs>
<linearGradient id="paint0_linear_2051_43" x1="0" y1="29" x2="154.467" y2="-2.60381" gradientUnits="userSpaceOnUse">
<stop stop-color="#67330A"/>
<stop offset="1" stop-color="#E57216"/>
</linearGradient>
</defs>
</svg>
