<svg width="155" height="29" viewBox="0 0 155 29" fill="none" xmlns="http://www.w3.org/2000/svg">
<path d="M0 7C0 3.13401 3.13401 0 7 0H150C152.761 0 155 2.23858 155 5V11C155 20.9411 146.941 29 137 29H7C3.13401 29 0 25.866 0 22V7Z" fill="url(#paint0_linear_2056_151)"/>
<path d="M85.9804 16.403L77.0231 24L68 16.403L70.8516 6M79.6577 12.292L83.1155 6.06844M83.1679 6.06844L86 16.3346M70.8979 6L74.3557 12.2236M74.3886 12.2965H79.6577" stroke="white" stroke-opacity="0.1" stroke-width="2" stroke-linecap="round" stroke-linejoin="round"/>
<path d="M21.6392 14.2188H20.3949C20.3722 14.0578 20.3258 13.9148 20.2557 13.7898C20.1856 13.6629 20.0956 13.5549 19.9858 13.4659C19.8759 13.3769 19.7491 13.3087 19.6051 13.2614C19.4631 13.214 19.3087 13.1903 19.142 13.1903C18.8409 13.1903 18.5786 13.2652 18.3551 13.4148C18.1316 13.5625 17.9583 13.7784 17.8352 14.0625C17.7121 14.3447 17.6506 14.6875 17.6506 15.0909C17.6506 15.5057 17.7121 15.8542 17.8352 16.1364C17.9602 16.4186 18.1345 16.6316 18.358 16.7756C18.5814 16.9195 18.84 16.9915 19.1335 16.9915C19.2983 16.9915 19.4508 16.9697 19.5909 16.9261C19.733 16.8826 19.8589 16.8191 19.9688 16.7358C20.0786 16.6506 20.1695 16.5473 20.2415 16.4261C20.3153 16.3049 20.3665 16.1667 20.3949 16.0114L21.6392 16.017C21.607 16.2841 21.5265 16.5417 21.3977 16.7898C21.2708 17.036 21.0994 17.2566 20.8835 17.4517C20.6695 17.6449 20.4138 17.7983 20.1165 17.9119C19.821 18.0237 19.4867 18.0795 19.1136 18.0795C18.5947 18.0795 18.1307 17.9621 17.7216 17.7273C17.3144 17.4924 16.9924 17.1525 16.7557 16.7074C16.5208 16.2623 16.4034 15.7235 16.4034 15.0909C16.4034 14.4564 16.5227 13.9167 16.7614 13.4716C17 13.0265 17.3239 12.6875 17.733 12.4545C18.142 12.2197 18.6023 12.1023 19.1136 12.1023C19.4508 12.1023 19.7633 12.1496 20.0511 12.2443C20.3409 12.339 20.5975 12.4773 20.821 12.6591C21.0445 12.839 21.2263 13.0597 21.3665 13.321C21.5085 13.5824 21.5994 13.8816 21.6392 14.2188ZM22.206 18V17.0114L22.3707 16.9972C22.5829 16.9801 22.7543 16.8996 22.8849 16.7557C23.0156 16.6098 23.1132 16.3778 23.1776 16.0597C23.2438 15.7396 23.2865 15.3097 23.3054 14.7699L23.402 12.1818H27.3509V18H26.1548V13.1676H24.544L24.4531 15.1932C24.4228 15.8447 24.3452 16.3769 24.2202 16.7898C24.0971 17.2027 23.9001 17.5076 23.6293 17.7045C23.3603 17.9015 22.992 18 22.5241 18H22.206ZM28.3651 18V12.1818H32.2855V13.196H29.5952V14.5824H32.0838V15.5966H29.5952V16.9858H32.2969V18H28.3651ZM32.9482 19.4034V17.0199H33.343C33.4775 16.9233 33.6006 16.7869 33.7124 16.6108C33.8241 16.4328 33.9197 16.1875 33.9993 15.875C34.0788 15.5606 34.1357 15.1496 34.1697 14.642L34.3345 12.1818H38.1839V17.0199H38.8203V19.3977H37.6385V18H34.13V19.4034H32.9482ZM34.7635 17.0199H37.0021V13.196H35.4425L35.3516 14.642C35.3269 15.0265 35.2862 15.3674 35.2294 15.6648C35.1745 15.9621 35.1072 16.2225 35.0277 16.446C34.95 16.6676 34.862 16.8589 34.7635 17.0199ZM44.0341 18H42.8068V13.1875H41.9773C41.7405 13.1875 41.5436 13.2225 41.3864 13.2926C41.2311 13.3608 41.1146 13.4612 41.0369 13.5938C40.9593 13.7263 40.9205 13.8892 40.9205 14.0824C40.9205 14.2737 40.9593 14.4337 41.0369 14.5625C41.1146 14.6913 41.2311 14.7879 41.3864 14.8523C41.5417 14.9167 41.7367 14.9489 41.9716 14.9489H43.3068V15.9375H41.7727C41.3277 15.9375 40.947 15.8636 40.6307 15.7159C40.3144 15.5682 40.0729 15.3561 39.9062 15.0795C39.7396 14.8011 39.6562 14.4687 39.6562 14.0824C39.6562 13.6979 39.7377 13.3636 39.9006 13.0795C40.0653 12.7936 40.303 12.5729 40.6136 12.4176C40.9261 12.2604 41.3021 12.1818 41.7415 12.1818H44.0341V18ZM40.8949 15.3523H42.2216L40.8068 18H39.4489L40.8949 15.3523ZM52.8203 17.0483L52.7408 19.3693H51.6243V18H51.1499V17.0483H52.8203ZM45.2777 12.1818H46.4794V17.0114H48.1499V12.1818H49.3459V17.0114H50.9964V12.1818H52.1925V18H45.2777V12.1818ZM53.5682 12.1818H54.7955V15.8409H54.8438L57.358 12.1818H58.4347V18H57.2045V14.3381H57.1619L54.6335 18H53.5682V12.1818ZM59.451 12.1818H60.6783V15.8409H60.7266L63.2408 12.1818H64.3175V18H63.0874V14.3381H63.0447L60.5163 18H59.451V12.1818ZM62.451 10.6591H63.2947C63.2929 11.0038 63.165 11.2812 62.9112 11.4915C62.6593 11.7017 62.3184 11.8068 61.8885 11.8068C61.4567 11.8068 61.1148 11.7017 60.8629 11.4915C60.611 11.2812 60.4851 11.0038 60.4851 10.6591H61.3232C61.3213 10.7898 61.3629 10.9072 61.4482 11.0114C61.5353 11.1155 61.6821 11.1676 61.8885 11.1676C62.0893 11.1676 62.2332 11.1165 62.3203 11.0142C62.4074 10.9119 62.451 10.7936 62.451 10.6591ZM69.3018 18.0795C68.8776 18.0795 68.4998 18.0066 68.1683 17.8608C67.8388 17.7131 67.5784 17.5104 67.3871 17.2528C67.1977 16.9934 67.1001 16.6941 67.0945 16.3551H68.3331C68.3407 16.4972 68.3871 16.6222 68.4723 16.7301C68.5594 16.8362 68.675 16.9186 68.8189 16.9773C68.9628 17.036 69.1248 17.0653 69.3047 17.0653C69.4922 17.0653 69.6579 17.0322 69.8018 16.9659C69.9458 16.8996 70.0585 16.8078 70.1399 16.6903C70.2214 16.5729 70.2621 16.4375 70.2621 16.2841C70.2621 16.1288 70.2185 15.9915 70.1314 15.8722C70.0462 15.7509 69.9231 15.6562 69.7621 15.5881C69.603 15.5199 69.4136 15.4858 69.1939 15.4858H68.6513V14.5824H69.1939C69.3795 14.5824 69.5433 14.5502 69.6854 14.4858C69.8293 14.4214 69.9411 14.3324 70.0206 14.2188C70.1001 14.1032 70.1399 13.9688 70.1399 13.8153C70.1399 13.6695 70.1049 13.5417 70.0348 13.4318C69.9666 13.3201 69.87 13.233 69.745 13.1705C69.6219 13.108 69.478 13.0767 69.3132 13.0767C69.1465 13.0767 68.9941 13.107 68.8558 13.1676C68.7176 13.2263 68.6068 13.3106 68.5234 13.4205C68.4401 13.5303 68.3956 13.6591 68.3899 13.8068H67.2109C67.2166 13.4716 67.3123 13.1761 67.4979 12.9205C67.6835 12.6648 67.9335 12.465 68.2479 12.321C68.5642 12.1752 68.9212 12.1023 69.3189 12.1023C69.7204 12.1023 70.0717 12.1752 70.3729 12.321C70.674 12.4669 70.9079 12.6638 71.0746 12.9119C71.2431 13.1581 71.3265 13.4347 71.3246 13.7415C71.3265 14.0672 71.2251 14.339 71.0206 14.5568C70.8179 14.7746 70.5537 14.9129 70.228 14.9716V15.017C70.656 15.072 70.9818 15.2206 71.2053 15.4631C71.4306 15.7036 71.5424 16.0047 71.5405 16.3665C71.5424 16.6979 71.4467 16.9924 71.2536 17.25C71.0623 17.5076 70.7981 17.7102 70.4609 17.858C70.1238 18.0057 69.7375 18.0795 69.3018 18.0795ZM73.4616 18H72.1435L74.152 12.1818H75.7372L77.7429 18H76.4247L74.9673 13.5114H74.9219L73.4616 18ZM73.3793 15.7131H76.4929V16.6733H73.3793V15.7131ZM80.2947 12.1818H81.8118L83.4141 16.0909H83.4822L85.0845 12.1818H86.6016V18H85.4084V14.2131H85.3601L83.8544 17.9716H83.0419L81.5362 14.1989H81.4879V18H80.2947V12.1818ZM92.9616 15.0909C92.9616 15.7254 92.8414 16.2652 92.6009 16.7102C92.3622 17.1553 92.0365 17.4953 91.6236 17.7301C91.2126 17.9631 90.7505 18.0795 90.2372 18.0795C89.7202 18.0795 89.2562 17.9621 88.8452 17.7273C88.4342 17.4924 88.1094 17.1525 87.8707 16.7074C87.6321 16.2623 87.5128 15.7235 87.5128 15.0909C87.5128 14.4564 87.6321 13.9167 87.8707 13.4716C88.1094 13.0265 88.4342 12.6875 88.8452 12.4545C89.2562 12.2197 89.7202 12.1023 90.2372 12.1023C90.7505 12.1023 91.2126 12.2197 91.6236 12.4545C92.0365 12.6875 92.3622 13.0265 92.6009 13.4716C92.8414 13.9167 92.9616 14.4564 92.9616 15.0909ZM91.7145 15.0909C91.7145 14.6799 91.6529 14.3333 91.5298 14.0511C91.4086 13.7689 91.2372 13.5549 91.0156 13.4091C90.794 13.2633 90.5346 13.1903 90.2372 13.1903C89.9399 13.1903 89.6804 13.2633 89.4588 13.4091C89.2372 13.5549 89.0649 13.7689 88.9418 14.0511C88.8205 14.3333 88.7599 14.6799 88.7599 15.0909C88.7599 15.5019 88.8205 15.8485 88.9418 16.1307C89.0649 16.4129 89.2372 16.6269 89.4588 16.7727C89.6804 16.9186 89.9399 16.9915 90.2372 16.9915C90.5346 16.9915 90.794 16.9186 91.0156 16.7727C91.2372 16.6269 91.4086 16.4129 91.5298 16.1307C91.6529 15.8485 91.7145 15.5019 91.7145 15.0909ZM93.5575 19.4034V17.0199H93.9524C94.0869 16.9233 94.21 16.7869 94.3217 16.6108C94.4335 16.4328 94.5291 16.1875 94.6087 15.875C94.6882 15.5606 94.745 15.1496 94.7791 14.642L94.9439 12.1818H98.7933V17.0199H99.4297V19.3977H98.2479V18H94.7393V19.4034H93.5575ZM95.3729 17.0199H97.6115V13.196H96.0518L95.9609 14.642C95.9363 15.0265 95.8956 15.3674 95.8388 15.6648C95.7839 15.9621 95.7166 16.2225 95.6371 16.446C95.5594 16.6676 95.4714 16.8589 95.3729 17.0199ZM100.178 18V12.1818H104.098V13.196H101.408V14.5824H103.896V15.5966H101.408V16.9858H104.109V18H100.178ZM105.076 18V12.1818H107.371C107.813 12.1818 108.189 12.2661 108.499 12.4347C108.81 12.6013 109.047 12.8333 109.21 13.1307C109.374 13.4261 109.457 13.767 109.457 14.1534C109.457 14.5398 109.373 14.8807 109.207 15.1761C109.04 15.4716 108.799 15.7017 108.482 15.8665C108.168 16.0312 107.787 16.1136 107.34 16.1136H105.877V15.1278H107.141C107.378 15.1278 107.573 15.0871 107.727 15.0057C107.882 14.9223 107.997 14.8078 108.073 14.6619C108.151 14.5142 108.19 14.3447 108.19 14.1534C108.19 13.9602 108.151 13.7917 108.073 13.6477C107.997 13.5019 107.882 13.3892 107.727 13.3097C107.571 13.2282 107.374 13.1875 107.136 13.1875H106.306V18H105.076ZM110.587 18H109.268L111.277 12.1818H112.862L114.868 18H113.55L112.092 13.5114H112.047L110.587 18ZM110.504 15.7131H113.618V16.6733H110.504V15.7131ZM121.173 17.017L121.102 19.375H119.932V18H119.523V17.017H121.173ZM115.568 18V12.1818H116.75V17.0114H119.17V12.1818H120.366V18H115.568ZM121.92 12.1818H123.147V15.8409H123.195L125.71 12.1818H126.786V18H125.556V14.3381H125.513L122.985 18H121.92V12.1818ZM127.803 18V12.1818H131.723V13.196H129.033V14.5824H131.521V15.5966H129.033V16.9858H131.734V18H127.803ZM132.701 12.1818H133.928V15.8409H133.977L136.491 12.1818H137.567V18H136.337V14.3381H136.295L133.766 18H132.701V12.1818ZM135.701 10.6591H136.545C136.543 11.0038 136.415 11.2812 136.161 11.4915C135.909 11.7017 135.568 11.8068 135.138 11.8068C134.707 11.8068 134.365 11.7017 134.113 11.4915C133.861 11.2812 133.735 11.0038 133.735 10.6591H134.573C134.571 10.7898 134.613 10.9072 134.698 11.0114C134.785 11.1155 134.932 11.1676 135.138 11.1676C135.339 11.1676 135.483 11.1165 135.57 11.0142C135.657 10.9119 135.701 10.7936 135.701 10.6591Z" fill="white"/>
<defs>
<linearGradient id="paint0_linear_2056_151" x1="0" y1="29" x2="154.467" y2="-2.60381" gradientUnits="userSpaceOnUse">
<stop stop-color="#613A07"/>
<stop offset="1" stop-color="#FF9200"/>
</linearGradient>
</defs>
</svg>
